<svg id="_x33_0" enable-background="new 0 0 64 64" height="512" viewBox="0 0 64 64" width="512" xmlns="http://www.w3.org/2000/svg"><g><path d="m56.838 31.166c-.433.524-.965.955-1.576 1.268l4.997 8.566h-14.518l4.997-8.566c-.61-.313-1.142-.744-1.576-1.268l-6.026 10.33-.163.354.042.336c.629 5.025 4.921 8.814 9.985 8.814s9.356-3.789 9.992-8.874l.042-.337z"/><path d="m25 19v-6h-2c-1.103 0-2 .897-2 2v2c0 1.103.897 2 2 2z"/><path d="m28 27c.551 0 1-.448 1-1v-4.953c-.387-.025-.773-.047-1.162-.047h-.838v5c0 .552.449 1 1 1z"/><path d="m32 33c8.271 0 15-6.729 15-15s-6.729-15-15-15-15 6.729-15 15 6.729 15 15 15zm13-16h-4v-2h4zm-2.707-6.707 1.414 1.414-2 2-1.414-1.414zm-.586 8 2 2-1.414 1.414-2-2zm-22.707-1.293v-2c0-2.206 1.794-4 4-4h4.838c1.811 0 3.6-.278 5.331-.799.31-.706 1.013-1.201 1.831-1.201h2c1.103 0 2 .897 2 2v10c0 1.103-.897 2-2 2h-2c-.818 0-1.521-.495-1.831-1.201-.714-.215-1.437-.393-2.169-.52v4.721c0 1.654-1.346 3-3 3s-3-1.346-3-3v-5h-2c-2.206 0-4-1.794-4-4z"/><path d="m35 11h2.001v10h-2.001z"/><path d="m33 19.671v-7.342c-1.685.44-3.414.671-5.162.671h-.838v6h.838c1.748 0 3.477.231 5.162.671z"/><path d="m4 27h2.101c.465-2.279 2.484-4 4.899-4h-7c-.551 0-1 .448-1 1v2c0 .552.449 1 1 1z"/><path d="m15.899 27h1.705c-.777-1.239-1.412-2.575-1.851-4h-4.753c2.414 0 4.434 1.721 4.899 4z"/><path d="m21 59h22.001v2h-22.001z"/><path d="m48.101 27c.465-2.279 2.484-4 4.899-4h-4.753c-.439 1.425-1.074 2.761-1.851 4z"/><path d="m57.899 27h2.101c.551 0 1-.448 1-1v-2c0-.552-.449-1-1-1h-7c2.414 0 4.434 1.721 4.899 4z"/><path d="m21 56v1h22v-1c0-1.654-1.346-3-3-3h-16c-1.654 0-3 1.346-3 3z"/><path d="m32 35c-.678 0-1.343-.051-2-.128v16.128h4v-16.128c-.657.077-1.322.128-2 .128z"/><circle cx="53" cy="28" r="3"/><circle cx="11" cy="28" r="3"/><path d="m14.838 31.166c-.433.524-.965.955-1.576 1.268l4.997 8.566h-14.518l4.997-8.566c-.61-.313-1.142-.744-1.576-1.268l-6.026 10.33-.162.354.042.336c.628 5.025 4.92 8.814 9.984 8.814s9.356-3.789 9.992-8.874l.042-.337z"/></g></svg>