<svg id="_x33_0" enable-background="new 0 0 64 64" height="512" viewBox="0 0 64 64" width="512" xmlns="http://www.w3.org/2000/svg"><g><path d="m43.806 49.221 2.295 2.295c.494-.449.965-.92 1.414-1.414l-2.567-2.567c-.343.588-.724 1.151-1.142 1.686z"/><path d="m32 55c-8.271 0-15-6.729-15-15v-14c0-.233.033-.457.083-.675l-1.878-1.878c-2.628 3.507-4.205 7.844-4.205 12.553 0 11.58 9.42 21 21 21 4.709 0 9.046-1.577 12.553-4.205l-2.078-2.078c-2.706 2.645-6.401 4.283-10.475 4.283z"/><path d="m57 36c0-13.785-11.215-25-25-25s-25 11.215-25 25 11.215 25 25 25 25-11.215 25-25zm-25 23c-12.682 0-23-10.318-23-23s10.318-23 23-23 23 10.318 23 23-10.318 23-23 23z"/><path d="m19 26v14c0 7.168 5.832 13 13 13s13-5.832 13-13v-14c0-.551-.449-1-1-1h-24c-.551 0-1 .449-1 1zm19 2c2.209 0 4 1.791 4 4h-8c0-2.209 1.791-4 4-4zm-12 0c2.209 0 4 1.791 4 4h-8c0-2.209 1.791-4 4-4zm-4 10h20v2c0 5.523-4.477 10-10 10s-10-4.477-10-10z"/><path d="m5 36c0-9.713 5.158-18.243 12.877-23h-14.877v47c0 .551.449 1 1 1h17.817c-9.853-4.028-16.817-13.714-16.817-25z"/><path d="m45 7h-4v3.548c.399.141.793.292 1.183.452h2.817z"/><path d="m20 23h.414l-2.516-2.516c-.494.449-.965.92-1.414 1.414l1.716 1.716c.503-.38 1.122-.614 1.8-.614z"/><path d="m32 15c-4.709 0-9.046 1.577-12.553 4.205l3.795 3.795h20.758c1.654 0 3 1.346 3 3v14c0 1.997-.4 3.901-1.112 5.646l2.907 2.907c2.628-3.507 4.205-7.844 4.205-12.553 0-11.58-9.42-21-21-21z"/><path d="m60 3h-56c-.551 0-1 .449-1 1v7h18.817c3.145-1.286 6.581-2 10.183-2 2.421 0 4.766.325 7 .926v-4.926h20v6h2v-7c0-.551-.449-1-1-1zm-53 4h-2v-2h2zm4 0h-2v-2h2zm4 0h-2v-2h2z"/><path d="m59 36c0 11.286-6.964 20.972-16.817 25h17.817c.551 0 1-.449 1-1v-47h-14.877c7.719 4.757 12.877 13.287 12.877 23z"/><path d="m53 7h4v4h-4z"/><path d="m47 7h4v4h-4z"/></g></svg>