<svg id="_x33_0" enable-background="new 0 0 64 64" height="512" viewBox="0 0 64 64" width="512" xmlns="http://www.w3.org/2000/svg"><g><path d="m6.835 21.292 3.165.527v-1.429c0-.359-.243-.671-.591-.758l-2.438-.609c-.063-.015-.126-.023-.19-.023-.43 0-.781.35-.781.781v.525c0 .49.352.905.835.986z"/><path d="m28.447 45.658 1.865-.932-2.726-2.726h-.968z"/><path d="m22 30c0 1.103.897 2 2 2h.069c-.041-.328-.069-.661-.069-1v-3c-1.103 0-2 .897-2 2z"/><path d="m40 31c0 .339-.028.672-.069 1h.069c1.103 0 2-.897 2-2s-.897-2-2-2z"/><path d="m20 23.108c0 .36.119.717.335 1.004l1.784 2.379c.557-.3 1.184-.486 1.859-.489-.606-.816-.978-1.817-.978-2.91 0-1.645.817-3.172 2.186-4.084l1.26-.84 1.109 1.664-1.26.84c-.811.54-1.295 1.445-1.295 2.42 0 1.603 1.305 2.908 2.908 2.908h.473c.777 0 1.508-.302 2.057-.852l.759-.759c-.116-.415-.197-.845-.197-1.297 0-1.645.817-3.172 2.186-4.084l1.26-.84 1.109 1.664-1.26.84c-.811.54-1.295 1.445-1.295 2.42 0 1.603 1.305 2.908 2.908 2.908h.473c.582 0 1.141-.181 1.619-.503v-1.497h2v2c.484 0 .942.1 1.372.258.408-1.937.628-3.913.628-5.894 0-2.958-2.406-5.364-5.364-5.364-1.433 0-2.78.558-3.793 1.571l-.135.135-1.416-1.412.136-.136c.579-.579 1.24-1.043 1.953-1.395-1.278-.501-2.643-.763-4.036-.763h-1.168c-2.467 0-4.887.849-6.813 2.39l-.899.72c-.296.236-.465.587-.465.964 0 .33.129.64.361.874l2.053 2.052-1.924 1.923c-.315.317-.49.738-.49 1.185z"/><path d="m35.553 45.658 1.753-3.507-.939-.104-2.679 2.679z"/><path d="m38 27.714c-.517.181-1.061.286-1.619.286h-.473c-1.503 0-2.833-.693-3.734-1.76l-.323.323c-.925.926-2.159 1.437-3.47 1.437h-.473c-.676 0-1.321-.138-1.908-.386v3.386c0 3.309 2.691 6 6 6s6-2.691 6-6zm-3.895 6.733-.105-.211c-.381-.762-1.147-1.236-2-1.236s-1.619.474-2 1.236l-.105.211-1.789-.895.105-.211c.722-1.444 2.174-2.341 3.789-2.341s3.067.897 3.789 2.342l.105.21z"/><path d="m20 30c0-.793.239-1.528.638-2.15l-1.903-2.536c-.258-.343-.446-.732-.57-1.141l-2.165-.482v4.219c0 .606-.095 1.194-.264 1.753l4.355 1.172c-.058-.27-.091-.548-.091-.835z"/><path d="m49.006 52.181c-1.264.961-2.67 1.723-4.162 2.27l1.43 2.86-.636.505c-.132.104-.241.201-.345.304l-2.293 2.294v.586h5.465l.259-.388c.835-1.253 1.276-2.711 1.276-4.216 0-.818-.131-1.626-.391-2.404z"/><path d="m43.118 51 .826 1.651c1.601-.558 3.091-1.406 4.387-2.497l-.852-2.557c-.249-.746-.614-1.444-1.088-2.075-1.228-1.636-3.097-2.705-5.13-2.931l-1.836-.204-2.977 5.955-3.448-1.724v14.382h8v-10.236l1.105-2.211 1.789.895z"/><path d="m56.121 32.607-12.13-2.696c.001.03.009.059.009.089 0 2.206-1.794 4-4 4h-.589c-.258.635-.598 1.225-1.002 1.767l15.579 4.195c.095.025.194.038.292.038h.118c.499 0 .942-.334 1.079-.814l1.479-5.175c.029-.101.044-.204.044-.308 0-.522-.37-.983-.879-1.096z"/><path d="m24.382 42h-8.382v8h4.382l-.277-.553 1.79-.894 1.105 2.211v10.236h8v-14.382l-3.447 1.724z"/><path d="m10 32.382 1.789-.895c1.364-.681 2.211-2.052 2.211-3.577v-4.91c0-.551-.448-1-1-1s-1 .449-1 1v1.181 1.233l-.879.879c-.723.723-1.121 1.685-1.121 2.707v1.331l-4.459-1.292.47 1.879-.015.165-.98 11.761c-.01.13-.016.262-.016.396 0 2.625 2.136 4.76 4.761 4.76h4.239v-6h-4z"/><path d="m9.707 24.879.293-.293v-.739l-3.493-.583c-1.2-.2-2.117-1.087-2.404-2.217l-.127-.028c-.493-.111-.976.282-.976.783v3.816c0 .362.244.681.594.774l4.549 1.317c.239-1.063.774-2.04 1.564-2.83z"/><path d="m34.38 38.639c-.752.234-1.552.361-2.38.361s-1.628-.127-2.38-.361l-.513 2.055 2.893 2.892 2.893-2.893z"/><path d="m60.717 13.049c1.43-.999 2.283-2.621 2.283-4.369 0-2.034-1.13-3.863-2.949-4.772l-4.778-2.389c-.678-.34-1.438-.519-2.196-.519h-.169c-2.706 0-4.908 2.202-4.908 4.908 0 .435.061.86.17 1.269l-.016.004c-2.446.611-4.154 2.798-4.154 5.319 0 1.985 1.069 3.751 2.713 4.715l-1.313.985 1.2 1.6 2.401-1.8c1.252-.939 1.999-2.435 1.999-4h-2c0 .653-.228 1.279-.613 1.793-1.414-.47-2.387-1.781-2.387-3.293 0-1.601 1.085-2.99 2.639-3.378l.471-.118c.306.375.662.712 1.076.988l1.26.84 1.109-1.664-1.26-.84c-.811-.54-1.295-1.445-1.295-2.42 0-1.603 1.305-2.908 2.908-2.908h.169c.449 0 .899.106 1.301.307l4.778 2.389c1.138.569 1.844 1.712 1.844 2.984 0 1.118-.556 2.155-1.485 2.775l-.971.647c-.338-.065-.687-.102-1.044-.102h-1.5v2h1.5c1.93 0 3.5 1.57 3.5 3.5s-1.57 3.5-3.5 3.5h-.455c-1.679 0-3.045-1.366-3.045-3.045 0-.47.111-.941.321-1.362l.573-1.146-1.789-.895-.573 1.146c-.348.698-.532 1.479-.532 2.257 0 .419.066.819.163 1.209-1.501.257-2.938.818-4.214 1.668l-.504.336 1.109 1.664.504-.336c1.211-.807 2.602-1.284 4.045-1.431.925 1.169 2.339 1.935 3.942 1.935h.455c3.032 0 5.5-2.467 5.5-5.5 0-1.831-.903-3.451-2.283-4.451z"/></g></svg>