<svg id="_x33_0" enable-background="new 0 0 64 64" height="512" viewBox="0 0 64 64" width="512" xmlns="http://www.w3.org/2000/svg"><g><path d="m23 16h14v4h-14z"/><path d="m30 26c2.414 0 4.434-1.721 4.899-4h-9.798c.465 2.279 2.485 4 4.899 4z"/><path d="m19 41h22v6h-22z"/><path d="m25.209 29.361c.458-.098.791-.509.791-.978v-1.647c-1.551-1.085-2.638-2.781-2.92-4.736h-2.08v-8h2v-.859c0-1.675.833-3.23 2.227-4.16l.697-.465c-.425-.7-.736-1.481-.904-2.319l1.961-.393c.486 2.431 2.639 4.196 5.118 4.196h.901c2.206 0 4 1.794 4 4h2v8h-2.08c-.216 1.502-.906 2.853-1.92 3.889v5.111c0 4.411 3.589 8 8 8 2.206 0 4-1.794 4-4s-1.794-4-4-4c-1.103 0-2 .897-2 2s.897 2 2 2h2v2h-2c-2.206 0-4-1.794-4-4s1.794-4 4-4c.045 0 .088.006.133.007-.082-.612-.133-1.228-.133-1.845v-11.162c0-7.168-5.832-13-13-13s-13 5.832-13 13v11.162c0 1.533-.257 3.038-.736 4.462.668-.364 1.391-.644 2.162-.809z"/><path d="m33 12h-.901c-1.868 0-3.599-.728-4.9-1.931l-.864.576c-.835.557-1.335 1.491-1.335 2.496v.859h10c0-1.103-.897-2-2-2z"/><path d="m55.732 31.358-6.732-20.196c-.431-1.293-1.637-2.162-3-2.162-.551 0-1 .448-1 1v5.096c0 1.839 1.246 3.436 3.03 3.882l.907.225.983 11.797h2.08v2h-3.35c.223.627.35 1.298.35 2 0 .348-.036.686-.093 1.018.042.038.081.078.123.116l2.302 2.046c.016.014.03.031.046.045l.534-.119c2.407-.535 4.088-2.63 4.088-5.096 0-.562-.09-1.117-.268-1.652z"/><path d="m14.687 49.267c.139 2.093 1.892 3.733 3.991 3.733h12.322c1.103 0 2-.897 2-2s-.897-2-2-2h-14v-10h2.093c.207-1.172.767-2.274 1.614-3.121l.586-.586 1.414 1.414-.586.586c-.472.472-.794 1.069-.969 1.707h7.848v-2h2v2h6.026c-2.438-1.825-4.026-4.727-4.026-8v-3.685c-.911.434-1.925.685-3 .685-.695 0-1.366-.105-2-.295v.678c0 1.406-.998 2.64-2.372 2.934l-6.784 1.454c-2.807.601-4.844 3.121-4.844 5.992 0 .137.005.273.014.41z"/><path d="m50.257 48.329c1.124-1.124 1.743-2.619 1.743-4.208 0-1.698-.728-3.319-1.997-4.447l-1.839-1.635c-1.045 1.769-2.965 2.961-5.164 2.961v8h-4v2.184c0 .99.291 1.949.84 2.773l1.238 1.857c1.078 1.618 1.949 3.362 2.617 5.186h6.891l.856-.855c.36-.36.558-.839.558-1.349 0-.727-.404-1.38-1.054-1.705l-.249-.124c-1.664-.832-2.697-2.503-2.697-4.362 0-1.303.507-2.526 1.428-3.447z"/><path d="m19.465 55h-.787c-3.148 0-5.777-2.46-5.986-5.601l-.673-10.096c-.013-.181-.019-.361-.019-.54 0-.311.024-.618.06-.922l-2.063 1.833c-1.269 1.128-1.997 2.749-1.997 4.447 0 1.589.619 3.084 1.743 4.208l.83.829c.92.921 1.427 2.145 1.427 3.447 0 1.858-1.033 3.529-2.695 4.36l-.253.126c-.648.325-1.052.978-1.052 1.705 0 .51.198.988.558 1.349l.856.855h6.891c.668-1.823 1.539-3.568 2.617-5.186z"/><path d="m38.176 55.066c-.769-1.153-1.176-2.496-1.176-3.882v-2.184h-2.556c.344.591.556 1.268.556 2 0 2.206-1.794 4-4 4h-9.136c-.014.022-.026.045-.04.067l-1.238 1.856c-.855 1.282-1.573 2.649-2.149 4.076h23.127c-.576-1.427-1.294-2.794-2.149-4.076zm-8.176 3.934c-.552 0-1-.448-1-1s.448-1 1-1 1 .448 1 1-.448 1-1 1z"/></g></svg>