<svg id="_x33_0" enable-background="new 0 0 64 64" height="512" viewBox="0 0 64 64" width="512" xmlns="http://www.w3.org/2000/svg"><g><path d="m29.52 38.602-.376 1.128.149.149c.713.713 1.699 1.121 2.707 1.121s1.994-.408 2.707-1.121l.149-.149-.376-1.128c-.782.255-1.614.398-2.48.398s-1.698-.143-2.48-.398z"/><path d="m22 30c0 1.103.897 2 2 2h.069c-.041-.328-.069-.661-.069-1v-3c-1.103 0-2 .897-2 2z"/><path d="m16.667 15c-.473-1.033-1.251-1.913-2.234-2.496.069.834.013 1.674-.144 2.496z"/><path d="m4.617 20.996c1.538-.059 2.974-.729 4.002-1.849-2.055-1.926-3.112-4.677-2.871-7.499-1.688.989-2.741 2.795-2.741 4.801 0 .861.203 1.724.586 2.493z"/><path d="m53.657 16.758c4.438.673 7.19-.217 7.343-.729-.003-.535-2.266-2.124-6.657-2.787-1.134-.172-2.158-.241-3.057-.241-2.621 0-4.177.591-4.286.971-.002.53 2.261 2.123 6.657 2.786z"/><path d="m33.536 15h-3.072c-4.667 0-8.464 3.797-8.464 8.464 0 .911.146 1.813.435 2.677l.053.161c.467-.192.977-.302 1.512-.302v-.586c0-1.179.459-2.287 1.293-3.121s1.942-1.293 3.121-1.293c1.236 0 2.433.362 3.46 1.048.935.623 2.022.952 3.146.952h1.98c1.654 0 3 1.346 3 3 .536 0 1.045.11 1.513.301l.054-.161c.287-.864.433-1.765.433-2.676 0-4.667-3.797-8.464-8.464-8.464z"/><path d="m38 31v-5c0-.552-.448-1-1-1h-1.98c-1.52 0-2.991-.445-4.255-1.288-.699-.466-1.511-.712-2.351-.712-.645 0-1.251.251-1.707.707s-.707 1.063-.707 1.707v5.586c0 3.309 2.691 6 6 6s6-2.691 6-6zm-2.211 1.658c-.722 1.445-2.174 2.342-3.789 2.342s-3.067-.897-3.789-2.342l-.105-.211 1.789-.895.105.212c.381.762 1.147 1.236 2 1.236s1.619-.474 2-1.236l.105-.211 1.789.895z"/><path d="m16.652 33h.099c.15-.507.249-1.035.249-1.589 0-.232-.014-.464-.043-.693l-.729-5.831c-.876-.229-1.603-.815-1.963-1.608-1.889.706-3.476 2.015-4.529 3.771l-1.17 1.95h-.566c-.552 0-1 .448-1 1 0 .378.147.732.414 1l1.771 1.771-2.819 6.579 3.292.94c.232.066.452.161.679.242l.852-3.411 1.135-.188c1.41-.235 2.609-.983 3.445-2.027-1.392-.269-2.594-1.154-3.246-2.458l1.789-.895c.445.892 1.342 1.447 2.34 1.447z"/><path d="m40 28v3c0 .339-.028.672-.069 1h.069c1.103 0 2-.897 2-2s-.897-2-2-2z"/><path d="m6.206 34.649.609-1.42-.815-.815c-.645-.644-1-1.502-1-2.414 0-1.448 1.031-2.659 2.397-2.939l.624-1.04c1.392-2.32 3.548-3.998 6.109-4.801.101-.362.251-.711.485-1.02.577-.763 1.453-1.2 2.404-1.2h1v2h-1c-.318 0-.613.148-.809.406-.118.156-.296.487-.165.952.12.422.591.642.995.642h.255c.754 0 1.457-.294 1.98-.828.52-.529.798-1.229.783-1.969l-.002-.121c-.03-1.699-1.441-3.082-3.143-3.082h-4.671c-.874 0-1.728.132-2.556.372.281.297.579.58.914.831l.758.567-.525.787c-1.439 2.156-3.846 3.443-6.437 3.443h-.788c-.388 1.034-.608 2.128-.608 3.242v1.493c0 2.439 1.01 4.807 2.77 6.495z"/><path d="m41.934 42.344-5.615-1.248-.198.198c-1.085 1.084-2.587 1.706-4.121 1.706s-3.036-.622-4.121-1.707l-.198-.198-5.615 1.248c-1.678.372-3.208 1.212-4.424 2.428-1.704 1.705-2.642 3.971-2.642 6.381v3.844l6 .002v-5.998h2v5.998l4 .001v-5.999c0-1.103.897-2 2-2h8c1.103 0 2 .897 2 2v6l2-.001v-5.999h2v5.998l6-.002v-3.844c0-2.41-.938-4.677-2.643-6.381-1.215-1.215-2.746-2.055-4.423-2.427z"/><path d="m39 61h7c1.654 0 3-1.346 3-3v-1.004l-10 .004z"/><path d="m54.891 42.214c-1.549.443-2.97 1.279-4.107 2.417-.403.403-.756.853-1.081 1.323.847 1.58 1.297 3.355 1.297 5.198v3.843h1.382l2.724-5.447 1.789.895-2.724 5.447c-.34.682-1.025 1.105-1.789 1.105h-1.382v1.005c0 1.13-.391 2.162-1.026 3h2.349c2.581 0 4.939-1.307 6.308-3.496 1.705-2.729 2.369-4.833 2.369-7.504v-2c0-2.477-.937-5.204-2.321-6.868z"/><path d="m57.444 18.98c-.223.008-.442.021-.67.021-1.116 0-2.284-.095-3.416-.265-2.289-.346-4.294-.964-5.767-1.736h-.505c-1.702 0-3.113 1.383-3.144 3.082l-.002.121c-.015.74.264 1.439.783 1.969.525.534 1.228.828 1.982.828h.255c.404 0 .875-.22.994-.641.131-.466-.047-.797-.165-.953-.195-.258-.49-.406-.809-.406h-1v-2h1c.951 0 1.827.438 2.404 1.2.234.309.384.658.485 1.02 2.561.802 4.717 2.48 6.109 4.801l.624 1.04c1.367.28 2.398 1.491 2.398 2.939 0 .912-.355 1.77-1 2.414l-.814.814.609 1.42.436-.418c1.76-1.688 2.77-4.056 2.77-6.495v-1.493c0-2.469-.961-4.789-2.707-6.535-.263-.262-.556-.496-.85-.727z"/><path d="m11.618 54.995h1.382v-3.843c0-1.844.45-3.618 1.297-5.199-.325-.47-.677-.919-1.081-1.323-1.138-1.138-2.559-1.974-4.108-2.418l-3.787-1.081c-1.384 1.665-2.321 4.392-2.321 6.869v2c0 2.671.664 4.775 2.369 7.504 1.368 2.189 3.727 3.496 6.308 3.496h2.349c-.635-.838-1.026-1.87-1.026-3v-1.005h-1.382c-.764 0-1.449-.424-1.789-1.106l-2.724-5.446 1.789-.895z"/><path d="m31 57-16-.004v1.004c0 1.654 1.346 3 3 3h13c1.103 0 2-.897 2-2s-.897-2-2-2z"/><path d="m57 30c0-.552-.448-1-1-1h-.566l-1.17-1.95c-1.053-1.755-2.64-3.064-4.529-3.771-.359.793-1.087 1.378-1.963 1.608l-.729 5.83c-.029.23-.043.462-.043.694 0 .553.099 1.082.249 1.589h.099c.998 0 1.896-.555 2.342-1.447l1.789.895c-.653 1.304-1.854 2.189-3.246 2.458.835 1.044 2.035 1.792 3.445 2.027l1.135.188.852 3.411c.226-.08.446-.175.678-.241l3.293-.941-2.82-6.579 1.77-1.771c.267-.268.414-.622.414-1z"/><path d="m29 55h2c2.206 0 4 1.794 4 4 0 .732-.212 1.409-.556 2h2.556v-12h-8z"/><circle cx="24" cy="4" r="3"/><circle cx="32" cy="4" r="3"/><circle cx="40" cy="4" r="3"/></g></svg>