<svg id="_x33_0" enable-background="new 0 0 64 64" height="512" viewBox="0 0 64 64" width="512" xmlns="http://www.w3.org/2000/svg"><g><path d="m31 16h4v2h-4z"/><path d="m40.508 28.637c-.797.232-1.637.363-2.508.363s-1.711-.131-2.508-.363l-.388 1.941 2.896 2.172 2.896-2.172z"/><path d="m37 37h2l-1-1.334z"/><path d="m38 27c3.86 0 7-3.141 7-7h-4c-1.103 0-2-.897-2-2h-2c0 1.103-.897 2-2 2h-4c0 3.859 3.14 7 7 7zm-2.105-5.447.105.211c.381.762 1.147 1.236 2 1.236s1.619-.474 2-1.236l.105-.211 1.789.895-.105.211c-.722 1.444-2.174 2.341-3.789 2.341s-3.067-.897-3.789-2.342l-.105-.211z"/><path d="m41 16h4v2h-4z"/><path d="m43.894 11.307c-.518.426-1.172.693-1.894.693h-3.764c-1.704 0-3.167-1.017-3.839-2.472l-1.94 1.164c-.899.539-1.457 1.525-1.457 2.573v.735h4c1.103 0 2 .897 2 2h2c0-1.103.897-2 2-2h4v-.343c0-.802-.312-1.556-.878-2.122z"/><path d="m42.39 27.849.458 2.293 9.626 1.805c.474.089.932.219 1.371.385.711-.564 1.155-1.411 1.155-2.332 0-.936-.455-1.79-1.183-2.354-.565.222-1.174.354-1.817.354h-1.395c-2.133 0-4.131-.883-5.577-2.394-.725.908-1.62 1.671-2.638 2.243z"/><path d="m43 49h-4c-1.103 0-2 .897-2 2s.897 2 2 2h4z"/><path d="m40.816 57h2.184v-2h-2v1c0 .352-.072.686-.184 1z"/><path d="m32.618 57h2.566c-.112-.314-.184-.648-.184-1v-11h-2c-1.103 0-2-.897-2-2v-4c0-1.103.897-2 2-2h.674l-1.429-5h-3.245v21h1.618z"/><path d="m17 57h13.382l-1-2h-12.382z"/><path d="m39 47v-2h-2v2.556c.591-.344 1.268-.556 2-.556z"/><path d="m33.61 27.849c-1.019-.572-1.914-1.336-2.639-2.243-1.445 1.511-3.443 2.394-5.576 2.394h-1.395c-.642 0-1.252-.132-1.817-.354-.728.563-1.183 1.417-1.183 2.354h12.18z"/><path d="m24 26h1.395c1.757 0 3.393-.805 4.476-2.164-.553-1.165-.871-2.463-.871-3.836v-6.735c0-1.746.93-3.389 2.427-4.287l2.593-1.556c.044-.539.186-1.07.427-1.553l.658-1.316 1.789.895-.658 1.316c-.154.308-.236.655-.236 1 0 1.233 1.003 2.236 2.236 2.236h3.764c.551 0 1-.448 1-1s-.449-1-1-1h-1v-2h1c1.654 0 3 1.346 3 3 0 .182-.023.359-.054.533l.589.588c.945.944 1.465 2.2 1.465 3.536v6.343c0 1.373-.318 2.671-.871 3.836 1.084 1.359 2.719 2.164 4.476 2.164h1.395c1.654 0 3-1.346 3-3s-1.346-3-3-3c-.551 0-1 .448-1 1s.449 1 1 1h1v2h-1c-1.654 0-3-1.346-3-3v-7c0-6.065-4.935-11-11-11s-11 4.935-11 11v7c0 1.654-1.346 3-3 3h-1v-2h1c.551 0 1-.448 1-1s-.449-1-1-1c-1.654 0-3 1.346-3 3s1.346 3 3 3z"/><path d="m8.414 19h5.172l.535-.535c.567-.567.879-1.32.879-2.122v-2.343c0-.552-.449-1-1-1s-1 .448-1 1v1h-2v-1c0-1.302.839-2.402 2-2.816v-1.184c0-1.654-1.346-3-3-3s-3 1.346-3 3v5.929c0 1.068.416 2.073 1.172 2.829z"/><path d="m10 40h11v-2h2v15h4v-21h-10.586l-2.707 2.707-1.414-1.414 2.707-2.707v-9.586h-8v16c0 1.654 1.346 3 3 3z"/><path d="m3 59h58.001v2h-58.001z"/><path d="m35.408 35.79 1.192-1.59-2.095-1.571z"/><path d="m57 39.81c0-2.886-2.058-5.366-4.894-5.896l-3.106-.584v13.67h4v2h-8v8h12z"/><path d="m47 32.955-3.34-.627-1.334 4.672h.674c1.103 0 2 .897 2 2v4c0 1.103-.897 2-2 2h-2v2h6z"/><path d="m33 39h10.001v4h-10.001z"/><path d="m41.495 32.629-2.095 1.571 1.192 1.59z"/><path d="m38 57c.551 0 1-.448 1-1v-1c-.732 0-1.409-.212-2-.556v1.556c0 .552.449 1 1 1z"/></g></svg>