<svg id="_x33_0" enable-background="new 0 0 64 64" height="512" viewBox="0 0 64 64" width="512" xmlns="http://www.w3.org/2000/svg"><g><path d="m25 45v-4h2v8h10v-8h2v4h4v-2.729c0-1.249-.413-2.487-1.162-3.487-.901-1.201-2.213-1.999-3.694-2.245l-2.332-.389c-.498 1.643-2.008 2.85-3.812 2.85s-3.314-1.207-3.812-2.851l-2.332.389c-1.481.246-2.793 1.044-3.694 2.245-.749 1-1.162 2.238-1.162 3.487v.914c.847.302 1.514.969 1.816 1.816z"/><path d="m39 47h4v2h-4z"/><path d="m23 47h2v2h-2z"/><path d="m25 29c0 1.103.897 2 2 2h10c1.103 0 2-.897 2-2s-.897-2-2-2h-10c-1.103 0-2 .897-2 2z"/><path d="m32 37c1.103 0 2-.897 2-2v-2h-4v2c0 1.103.897 2 2 2z"/><path d="m60 3h-16c-.552 0-1 .449-1 1v14c0 .551.448 1 1 1h5v3.586c.001.338.471.531.706.293l3.88-3.879h6.414c.552 0 1-.449 1-1v-14c0-.551-.448-1-1-1zm-13.707 5.293 1.293-1.293-1.293-1.293 1.414-1.414 2.707 2.707-2.707 2.707zm5.707 7.707c-2.209 0-4-1.791-4-4h8c0 2.209-1.791 4-4 4zm5.707-7.707-1.414 1.414-2.707-2.707 2.707-2.707 1.414 1.414-1.293 1.293z"/><path d="m28 23c-.552 0-1 .449-1 1s.448 1 1 1h7c1.146 0 2-.855 2-1.906 0-.821-.523-1.548-1.304-1.808l-1.167-.389c-1.481-.494-2.621-1.61-3.17-3.001-.739.871-1.183 1.952-1.306 3.104h1.947v2z"/><path d="m41 5h-21c-1.654 0-3 1.346-3 3v1h24z"/><path d="m20 45h-5v-3.586c0-.338-.469-.531-.707-.293l-3.879 3.879h-6.414c-.552 0-1 .448-1 1v14c0 .552.448 1 1 1h16c.552 0 1-.448 1-1v-14c0-.552-.448-1-1-1zm-13.707 5.293 1.293-1.293-1.293-1.293 1.414-1.414 2.707 2.707-2.707 2.707zm5.707 7.707c-2.209 0-4-1.791-4-4h8c0 2.209-1.791 4-4 4zm5.707-7.707-1.414 1.414-2.707-2.707 2.707-2.707 1.414 1.414-1.293 1.293z"/><path d="m41 18v-7h-24v32h2v-.729c0-1.679.555-3.343 1.562-4.687 1.211-1.616 2.975-2.688 4.966-3.019l2.472-.412v-1.153h-1c-2.206 0-4-1.794-4-4 0-1.614.966-3 2.346-3.632-.214-.412-.346-.873-.346-1.368 0-1.654 1.346-3 3-3h.037c.184-2.357 1.42-4.507 3.408-5.832l1.555-1.037v1.869c0 1.363.869 2.569 2.162 3l1.167.389c1.598.533 2.671 2.022 2.671 3.705 0 .797-.242 1.537-.653 2.156 1.542.556 2.653 2.019 2.653 3.75 0 2.206-1.794 4-4 4h-1v1.153l2.472.412c1.991.33 3.755 1.402 4.966 3.019 1.007 1.344 1.562 3.008 1.562 4.687v6.729h2v-28h-3c-1.654 0-3-1.346-3-3z"/><path d="m23 60c0 .352-.072.686-.184 1h21.184c1.654 0 3-1.346 3-3v-7h-24zm5-5c0-.552.448-1 1-1h6c.552 0 1 .448 1 1v2c0 .552-.448 1-1 1h-6c-.552 0-1-.448-1-1z"/></g></svg>