<svg id="_x33_0" enable-background="new 0 0 64 64" height="512" viewBox="0 0 64 64" width="512" xmlns="http://www.w3.org/2000/svg"><g><path d="m13.252 43.158 5.748 6.271v-.164l-1.853-3.242c-.843-1.476-2.272-2.498-3.895-2.865z"/><path d="m26 43h-5v11h-2v-1.611l-9.292-10.137c-.729-.796-1.768-1.252-2.847-1.252-2.129 0-3.861 1.732-3.861 3.861v16.139h14.109l-11.727-9.214 1.236-1.572 12.384 9.729c.866.682 1.951 1.057 3.054 1.057 2.726 0 4.944-2.218 4.944-4.944v-12.056c0-.552-.448-1-1-1z"/><path d="m5.4 26.801c2.236 1.677 3.892 4.082 4.66 6.771l.106.369 2.782-5.101-.876-4.378c-.048-.241-.072-.487-.072-.733 0-2.056 1.673-3.729 3.729-3.729 1.329 0 2.542.537 3.401 1.455l1.748-1.748c1.086-1.085 2.588-1.707 4.122-1.707s3.036.622 4.121 1.707l2.344 2.343c.612.613 1.426.95 2.293.95 1.788 0 3.242-1.455 3.242-3.243v-.647c0-2.412-.864-4.749-2.434-6.58l-.071-.083c-1.878-2.191-4.61-3.447-7.495-3.447-1.654 0-3 1.346-3 3 0 1.103.897 2 2 2s2-.897 2-2h2c0 2.206-1.794 4-4 4s-4-1.794-4-4c0-.345.035-.682.102-1.008l-4.443-.024c-.021 0-.041 0-.063 0-3.81 0-7.476 1.792-9.817 4.801l-.085.11c-1.745 2.244-2.703 5.033-2.697 7.854l.003 2.268c0 .318.146.608.4.8z"/><path d="m27.707 21.121c-.713-.712-1.699-1.121-2.707-1.121s-1.994.409-2.707 1.121l-3.566 3.567-.621-1.241c-.447-.892-1.344-1.447-2.342-1.447-.989 0-1.764.776-1.764 1.729 0 .114.011.228.033.34l1.019 5.091-5.68 10.413c.677.321 1.295.766 1.811 1.327l.091.1h.664c.901 0 1.775.169 2.603.455l1.189-2.972-1.407-.704.895-1.789 1.782.892v-2.882c0-1.333.88-2.453 2.085-2.842.403-2.356 2.447-4.158 4.915-4.158 2.148 0 3.968 1.369 4.674 3.274 1.167-1.809 2.166-3.723 3.001-5.71-.598-.259-1.151-.625-1.625-1.1z"/><path d="m48.08 15 .92-11.08c0-.507-.413-.92-.92-.92h-2.16c-.507 0-.92.413-.92.92l.92 11.08z"/><path d="m33.758 25c-.031 0-.06-.008-.091-.009-.211.515-.436 1.021-.667 1.523v7.486c0 .552.448 1 1 1h12v3.586c0 .338.469.531.707.293l3.879-3.879h9.414c.552 0 1-.448 1-1v-18c0-.551-.448-1-1-1h-9.914l-.014.166c-.085 1.028-.96 1.834-1.992 1.834h-2.16c-1.032 0-1.907-.806-1.993-1.834l-.014-.166h-5.636c.472 1.309.723 2.698.723 4.11v.647c0 2.891-2.352 5.243-5.242 5.243zm18.535 2.707 1.414-1.414 2.293 2.293 2.293-2.293 1.414 1.414-2.293 2.293 2.293 2.293-1.414 1.414-2.293-2.293-2.293 2.293-1.414-1.414 2.293-2.293zm-5.293-7.707c1.105 0 2 .895 2 2s-.895 2-2 2-2-.895-2-2 .895-2 2-2zm-3.707 7.707 1.414-1.414 2.293 2.293 2.293-2.293 1.414 1.414-2.293 2.293 2.293 2.293-1.414 1.414-2.293-2.293-2.293 2.293-1.414-1.414 2.293-2.293zm-3-1.414 1.414 1.414-2.293 2.293 2.293 2.293-1.414 1.414-2.293-2.293-2.293 2.293-1.414-1.414 2.293-2.293-2.293-2.293 1.414-1.414 2.293 2.293z"/><path d="m24 29c-1.383 0-2.538.945-2.884 2.22 1.102.444 1.884 1.521 1.884 2.78v1h-2v-1c0-.552-.448-1-1-1s-1 .448-1 1v3.172c0 1.402.524 2.773 1.442 3.828h5.558c.124 0 .243.022.363.037l.021-.043c.403-.806.616-1.707.616-2.606v-6.388c0-1.654-1.346-3-3-3z"/><path d="m57 45h4.001v12h-4.001z"/><path d="m33 59h28.002v2h-28.002z"/><path d="m33 45h2v12h-2z"/><path d="m37 45h18v12h-18z"/></g></svg>