<svg id="_x33_0" enable-background="new 0 0 64 64" height="512" viewBox="0 0 64 64" width="512" xmlns="http://www.w3.org/2000/svg"><g><path d="m7.89 44.696c3.774-3.774 6.247-8.745 7.006-14.025l-.008-.014c-1.236-2.223-1.888-4.742-1.888-7.285v-4.372c0-2.106.383-4.12 1.05-6h-10.05c-.552 0-1 .449-1 1v31h4.586z"/><path d="m21.814 26.919c2.057 3.083 3.64 6.45 4.707 10.005.732 2.438 2.933 4.076 5.479 4.076s4.747-1.638 5.479-4.076c1.067-3.555 2.65-6.921 4.707-10.005l.791-1.186c1.323-1.986 2.023-4.297 2.023-6.684 0-6.644-5.405-12.049-12.049-12.049h-1.902c-6.644 0-12.049 5.405-12.049 12.049 0 2.387.7 4.698 2.023 6.684zm12.186-10.798c0-1.171.95-2.121 2.121-2.121.563 0 1.102.223 1.5.621l3.757 3.757c.398.398.621.937.621 1.5.001 1.172-.949 2.122-2.12 2.122h-.879c-2.761 0-5-2.239-5-5zm-.342 10.05c.225-.113.473-.171.724-.171.894 0 1.618.724 1.618 1.618 0 .254-.025.507-.075.756l-1.533 7.664c-.228 1.141-1.229 1.962-2.392 1.962s-2.164-.821-2.392-1.961l-1.533-7.664c-.05-.25-.075-.503-.075-.757 0-.894.724-1.618 1.618-1.618.251 0 .499.058.724.171 1.044.522 2.272.522 3.316 0zm-11.037-7.792 3.757-3.757c.398-.398.937-.621 1.5-.621 1.172-.001 2.122.949 2.122 2.12v.879c0 2.761-2.239 5-5 5h-.879c-1.171 0-2.121-.95-2.121-2.121 0-.563.224-1.103.621-1.5z"/><path d="m19.874 35.515-1.748.971-1.724-3.102c-1.034 4.3-3.13 8.312-6.077 11.617h12.871l-4.044-6.47 1.695-1.061 4.707 7.53h12.892l4.706-7.53 1.695 1.061-4.043 6.469h12.871c-2.947-3.305-5.043-7.317-6.077-11.617l-1.724 3.103-1.748-.971 3.238-5.829c1.07-1.927 1.636-4.11 1.636-6.313v-4.373c0-8.822-7.178-16-16-16h-1-1c-8.822 0-16 7.178-16 16v4.372c0 2.204.565 4.387 1.636 6.314zm11.175-30.515h1.902c7.746 0 14.049 6.302 14.049 14.049 0 2.783-.815 5.478-2.359 7.793l-.791 1.186c-1.946 2.919-3.445 6.105-4.455 9.47-.988 3.291-3.959 5.502-7.395 5.502s-6.407-2.211-7.395-5.502c-1.01-3.364-2.509-6.551-4.455-9.47l-.791-1.186c-1.544-2.316-2.359-5.01-2.359-7.793 0-7.747 6.303-14.049 14.049-14.049z"/><path d="m3 52c0 .552.448 1 1 1h56c.552 0 1-.448 1-1v-5h-58zm52-3h2v2h-2zm-4 0h2v2h-2zm-4 0h2v2h-2z"/><path d="m60 13h-10.05c.668 1.88 1.05 3.894 1.05 6v4.372c0 2.542-.652 5.062-1.888 7.285l-.008.015c.759 5.279 3.232 10.251 7.006 14.025l.304.303h4.586v-31c0-.551-.448-1-1-1z"/><path d="m44 58h-3l-.75-3h-16.5l-.75 3h-3c-.552 0-1 .448-1 1v2c0 .552.448 1 1 1h24c.552 0 1-.448 1-1v-2c0-.552-.448-1-1-1z"/></g></svg>