<svg id="_x33_0" enable-background="new 0 0 64 64" height="512" viewBox="0 0 64 64" width="512" xmlns="http://www.w3.org/2000/svg"><g><path d="m22.236 15.258-2.115.604c-2.32.663-4.711 1.021-7.121 1.103v7.035c0 3.86 3.14 7 7 7s7-3.14 7-7v-5.323l-2.427-.971c-1.125-.45-1.956-1.352-2.337-2.448zm2.661 10.212c-.703 2.112-2.671 3.53-4.897 3.53s-4.194-1.418-4.897-3.53l-.051-.153 1.897-.633.051.153c.431 1.294 1.637 2.163 3 2.163s2.569-.869 3-2.162l.051-.154 1.897.633z"/><path d="m29 19v4c1.103 0 2-.897 2-2s-.897-2-2-2z"/><path d="m22.517 32.635c-.8.234-1.643.365-2.517.365-1.053 0-2.06-.191-3-.525v3.111l2.432 2.432c.556-2.059 1.628-3.907 3.085-5.383z"/><path d="m48.707 34.879.207-.207-.597-2.985c-.74.197-1.515.313-2.317.313s-1.577-.116-2.317-.314l-.595 2.973c.008.012.015.025.022.037l.183.183c1.446 1.446 3.968 1.446 5.414 0z"/><path d="m42 44.681v.319h.279l.198-.595c.347-1.04.522-2.124.522-3.22.001-5.616-4.568-10.185-10.184-10.185h-1.63c-5.616 0-10.185 4.569-10.185 10.185 0 1.097.176 2.18.522 3.221l.199.594h.279v-1.229c0-2.665 1.79-5.037 4.352-5.769l1.662-.475c-.009-.109-.014-.219-.014-.331 0-1.745 1.112-3.288 2.768-3.839l.916-.306.633 1.897-.917.306c-.837.279-1.4 1.059-1.4 1.942 0 1.056.825 1.952 1.877 2.04l5.538.461c2.571.215 4.585 2.404 4.585 4.984z"/><path d="m41.791 30.949c-2.847-1.513-4.791-4.507-4.791-7.949v-3.261c0-2.986 1.626-5.664 4.21-7.047-.138-.548-.21-1.117-.21-1.692h2c0 1.565.748 3.061 2 4 .859.646 1.925 1 3 1h3c2.206 0 4 1.794 4 4v3c0 3.442-1.944 6.436-4.791 7.949l.63 3.148 2.978.373c1.117.139 2.188.458 3.183.928v-18.227c0-5.608-4.563-10.171-10.171-10.171-1.557 0-3.021.606-4.122 1.707l-.293.293h-.414c-3.86 0-7 3.14-7 7v13.207c2.5.455 4.738 1.667 6.459 3.401z"/><path d="m21.604 47c-1.725 0-3.25 1.099-3.795 2.735l-.422 1.265h1.956c.79 0 1.563-.32 2.121-.878l.815-.815c-.176-.742-.279-1.512-.279-2.307z"/><path d="m15.681 37.095-1.304.29 1.315 5.261 3.313-1.325c0-.045-.005-.09-.005-.136 0-.248.023-.49.037-.734z"/><path d="m31.711 41.229c-1.27-.106-2.371-.806-3.037-1.811l-1.772.506c-1.709.49-2.902 2.071-2.902 3.847v3.229c0 4.411 3.589 8 8 8s8-3.589 8-8v-2.319c0-1.548-1.208-2.861-2.751-2.99zm5.186 7.241c-.703 2.112-2.671 3.53-4.897 3.53s-4.194-1.418-4.897-3.53l-.051-.153 1.897-.633.051.153c.431 1.294 1.637 2.163 3 2.163s2.569-.869 3-2.162l.051-.154 1.897.633z"/><path d="m44.657 51h1.956l-.422-1.265c-.545-1.636-2.07-2.735-3.795-2.735h-.396c0 .795-.103 1.565-.279 2.307l.815.815c.558.558 1.331.878 2.121.878z"/><path d="m11 23v-4c-1.103 0-2 .897-2 2s.897 2 2 2z"/><path d="m57 52h4v9h-4z"/><path d="m3 53h4v8h-4z"/><path d="m37.292 57h-10.584c-3.178 0-6.072 1.506-7.909 4h26.402c-1.837-2.494-4.731-4-7.909-4z"/><path d="m23.027 51.387-.149.149c-.944.944-2.199 1.464-3.535 1.464h-4.73l1.299-3.897c.611-1.832 2.041-3.213 3.803-3.797l-.089-.268c-.18-.539-.313-1.089-.416-1.645l-4.902 1.961-1.884-7.535-2.357.524c-1.678.373-3.208 1.212-4.423 2.428-1.706 1.705-2.644 3.971-2.644 6.381v3.848h4v-4h2v14h7.406c1.998-3.526 5.604-5.759 9.649-5.977-1.278-.95-2.32-2.195-3.028-3.636z"/><path d="m53 23v-3c0-1.103-.897-2-2-2h-3c-1.505 0-2.997-.497-4.2-1.4-.744-.558-1.36-1.255-1.824-2.042-1.838 1.07-2.976 3.018-2.976 5.181v3.261c0 3.86 3.14 7 7 7s7-3.14 7-7zm-7 5c-2.226 0-4.194-1.418-4.897-3.53l-.051-.153 1.897-.633.051.153c.431 1.294 1.637 2.163 3 2.163s2.569-.869 3-2.162l.051-.154 1.897.633-.051.154c-.703 2.111-2.671 3.529-4.897 3.529z"/><path d="m8.129 18.226c.728-.753 1.744-1.226 2.871-1.226v-.184c-1.161-.414-2-1.514-2-2.816 0-1.654 1.346-3 3-3h1v2h-1c-.551 0-1 .449-1 1s.449 1 1 1c2.562 0 5.109-.357 7.571-1.061l2.497-.713c.324-1.829 1.917-3.226 3.838-3.226.494 0 .966.102 1.407.273l.53-.53c.746-.746 1.157-1.738 1.157-2.793 0-2.178-1.772-3.95-3.95-3.95h-5.219c-3.248 0-6.303 1.73-7.974 4.515l-.173.289-.819.328c-2.348.938-3.865 3.179-3.865 5.708 0 .662.106 1.316.315 1.945z"/><path d="m29.611 12.67.338 1.013-1.897.633-.338-1.013c-.26-.78-.987-1.303-1.808-1.303-1.051 0-1.906.855-1.906 1.906 0 .861.517 1.624 1.316 1.943l2.877 1.151h.807c1.267 0 2.385.604 3.119 1.526l.013-.025c.568-1.136.868-2.409.868-3.679 0-2.183-.847-4.235-2.381-5.786-.294.786-.75 1.51-1.362 2.121l-.311.311c.284.353.515.754.665 1.202z"/><path d="m59.575 40.166c-1.368-2.053-3.557-3.406-6.006-3.712l-3.208-.401-.24.24c-1.1 1.101-2.564 1.707-4.121 1.707-.51 0-1.007-.071-1.488-.197.312 1.075.488 2.208.488 3.382 0 1.312-.21 2.608-.625 3.853l-.089.268c1.762.584 3.192 1.965 3.803 3.797l1.298 3.897h-4.73c-1.335 0-2.591-.52-3.535-1.464l-.149-.149c-.708 1.442-1.75 2.686-3.028 3.636 4.046.218 7.651 2.451 9.649 5.977h7.406v-15h2v4h4v-5.129c0-1.68-.493-3.307-1.425-4.705z"/></g></svg>