<svg id="_x33_0" enable-background="new 0 0 64 64" height="512" viewBox="0 0 64 64" width="512" xmlns="http://www.w3.org/2000/svg"><g><path d="m15.964 13.601c1.256.628 2.036 1.889 2.036 3.294 0 .568-.135 1.139-.389 1.647l-1.011 2.021c-.393.785-.6 1.664-.6 2.542 0 2.167 1.204 4.114 3.141 5.083.965.484 2.037.747 3.117.793-.162-.635-.258-1.296-.258-1.981v-.034c-.682-.07-1.352-.26-1.964-.567-1.256-.628-2.036-1.889-2.036-3.294 0-.568.135-1.139.389-1.647l1.011-2.021c.393-.785.6-1.664.6-2.542 0-2.167-1.204-4.114-3.141-5.083-.672-.336-1.172-.913-1.409-1.625l-.501-1.503-1.897.633.501 1.503c.405 1.217 1.261 2.205 2.411 2.781z"/><path d="m25 12.586c0 1.179.459 2.287 1.292 3.121l1.415-1.414c-.456-.456-.707-1.063-.707-1.707 0-.756.294-1.466.828-2 .745-.744 1.172-1.774 1.172-2.828v-.758h-2v.758c0 .526-.213 1.042-.586 1.414-.912.912-1.414 2.124-1.414 3.414z"/><path d="m19.505 10.753-.4.8 1.789.895.4-.8c.516-1.031.516-2.264 0-3.295-.192-.385-.294-.817-.294-1.248 0-1.324.943-2.475 2.241-2.734l.169-.033c-.27.94-.41 1.92-.41 2.898v.764h2v-.764c0-1.309.309-2.619.895-3.789l.914-1.828-3.96.791c-2.23.446-3.849 2.421-3.849 4.695 0 .739.175 1.48.505 2.142.236.472.236 1.034 0 1.506z"/><path d="m40 16.895c0 .878.208 1.757.6 2.542l1.011 2.021c.254.509.389 1.079.389 1.647 0 1.404-.78 2.666-2.037 3.294-.612.306-1.281.496-1.963.567v.034c0 .685-.096 1.346-.258 1.981 1.08-.046 2.152-.309 3.117-.793 1.937-.968 3.141-2.916 3.141-5.083 0-.878-.208-1.757-.6-2.542l-1.011-2.021c-.254-.509-.389-1.079-.389-1.647 0-1.404.78-2.666 2.037-3.294 1.149-.575 2.005-1.563 2.411-2.781l.501-1.503-1.897-.633-.501 1.503c-.237.712-.737 1.289-1.409 1.625-1.938.968-3.142 2.916-3.142 5.083z"/><path d="m32.403 3.372.104.314c.42 1.26 1.204 2.347 2.267 3.145 1.394 1.045 2.226 2.709 2.226 4.45 0 1.486-.579 2.883-1.632 3.936l-.078.078 1.419 1.41.075-.076c1.429-1.428 2.216-3.327 2.216-5.348 0-2.368-1.131-4.629-3.025-6.05-.736-.553-1.279-1.306-1.57-2.178l-.773-2.321-1.102.372c-2.112.703-3.53 2.67-3.53 4.896h2c0-1.074.54-2.051 1.403-2.628z"/><path d="m30.553 14.105.953 1.76c1.538-.768 2.494-2.315 2.494-4.036 0-.697-.165-1.395-.476-2.018l-.629-1.259-1.789.895.629 1.259c.173.347.265.735.265 1.123 0 .958-.532 1.819-1.447 2.276z"/><path d="m41 10h2c0-2.201-.857-4.271-2.414-5.828l-.879-.879-1.414 1.414.879.879c1.179 1.18 1.828 2.747 1.828 4.414z"/><path d="m28.336 19.286c-.374-.187-.793-.286-1.212-.286-.537 0-1.058.157-1.505.455-1.014.677-1.619 1.808-1.619 3.026v4.519c0 3.309 2.691 6 6 6s6-2.691 6-6v-4.519c0-1.219-.605-2.35-1.62-3.026-.795-.53-1.863-.596-2.717-.169-1.041.522-2.285.522-3.327 0zm-2.652 3.662.633-1.896 3 1-.633 1.896zm4.316 7.052c-1.657 0-3-.895-3-2s1.343-2 3-2 3 .895 3 2-1.343 2-3 2zm3.684-8.948.633 1.896-3 1-.633-1.896z"/><path d="m55 26.108c-.418.55-1.054.892-1.764.892-.081 0-.157-.016-.236-.024v24.024h-46v-34h8.987c.003-.035.013-.071.013-.105 0-.651-.348-1.214-.931-1.505-.234-.117-.456-.249-.672-.39h-8.397c-.551 0-1 .448-1 1v37h50z"/><path d="m28 34.737v2.263c0 1.103.897 2 2 2s2-.897 2-2v-2.263c-.641.166-1.308.263-2 .263s-1.359-.097-2-.263z"/><path d="m51 49v-26h-4c-.375 0-.723-.11-1.023-.291.007.132.023.264.023.396 0 2.929-1.627 5.563-4.248 6.872-1.334.669-2.832 1.023-4.33 1.023h-.504c-.703 1.207-1.71 2.216-2.919 2.918v1.215l2.78.397c2.42.346 4.594 1.588 6.122 3.497 1.354 1.691 2.099 3.815 2.099 5.981v3.992z"/><path d="m15.146 19h-6.146v30h6v-3.992c0-2.166.745-4.29 2.098-5.981 1.528-1.909 3.702-3.151 6.122-3.497l2.78-.398v-1.215c-1.209-.702-2.216-1.711-2.919-2.918h-.504c-1.498 0-2.996-.354-4.332-1.023-2.618-1.308-4.245-3.942-4.245-6.871 0-1.187.28-2.375.811-3.437z"/><path d="m37.997 49h5.003v-3.992c0-1.713-.589-3.394-1.66-4.731-1.208-1.511-2.929-2.493-4.843-2.767l-2.512-.359c-.082 2.135-1.831 3.849-3.985 3.849s-3.903-1.714-3.985-3.849l-2.513.359c-1.914.273-3.634 1.256-4.843 2.767-1.07 1.338-1.66 3.019-1.66 4.731v3.992h5.003c-.65-1.156-1.002-2.464-1.002-3.828v-2.172h2v2.172c0 1.424.513 2.767 1.441 3.828h11.117c.929-1.062 1.442-2.404 1.442-3.828v-2.172h2v2.172c0 1.364-.352 2.672-1.003 3.828z"/><path d="m47 15v6h6v3.764c0 .22.349.303.447.105l1.935-3.869h5.618v-6zm4 4h-2v-2h2zm4 0h-2v-2h2zm4 0h-2v-2h2z"/><path d="m56 55h-18v3h-16v-3h-18c-.551 0-1 .448-1 1 0 2.757 2.243 5 5 5h44c2.757 0 5-2.243 5-5 0-.552-.449-1-1-1z"/></g></svg>