<svg id="_x33_0" enable-background="new 0 0 64 64" height="512" viewBox="0 0 64 64" width="512" xmlns="http://www.w3.org/2000/svg"><g><path d="m6 15h14.5l2.3 3.067c.438.584 1.137.933 1.867.933 1.286 0 2.333-1.047 2.333-2.333v-1.667h3c1.654 0 3-1.346 3-3v-8c0-1.654-1.346-3-3-3h-24c-1.654 0-3 1.346-3 3v8c0 1.654 1.346 3 3 3zm19-8h2v2h-2zm-4 0h2v2h-2zm-4 0h2v2h-2zm-4 0h2v2h-2zm-4 0h2v2h-2z"/><path d="m30 24.009c0 .591.059 1.185.175 1.767l.494 2.469c.418-.149.862-.245 1.331-.245v-.868c0-1.048.558-2.034 1.456-2.572l2.864-1.719c-.211-.624-.32-1.284-.32-1.962v-.879h2v.879c0 1.084.44 2.146 1.207 2.914.778.778 1.813 1.207 2.914 1.207h2.879c1.654 0 3 1.346 3 3 .732 0 1.409.212 2 .556v-4.548c0-4.966-4.041-9.008-9.009-9.008h-1.982c-4.968 0-9.009 4.042-9.009 9.009z"/><path d="m30 32c0 1.103.897 2 2 2h.069c-.041-.328-.069-.661-.069-1v-3c-1.103 0-2 .897-2 2z"/><path d="m46 33v-5c0-.551-.448-1-1-1h-2.879c-1.636 0-3.173-.637-4.328-1.793-.19-.19-.366-.391-.527-.6l-2.78 1.668c-.3.18-.485.508-.485.857v5.868c0 3.309 2.691 6 6 6s5.999-2.691 5.999-6zm-2.211 1.658c-.722 1.445-2.174 2.342-3.789 2.342s-3.067-.897-3.789-2.342l-.105-.21 1.789-.895.105.211c.381.762 1.147 1.236 2 1.236s1.619-.474 2-1.236l.105-.211 1.789.895z"/><path d="m37.688 40.656-.656 3.279 1.283 3.851c.243.726.919 1.214 1.685 1.214s1.442-.488 1.685-1.214l1.283-3.851-.656-3.279c-.733.222-1.508.344-2.312.344s-1.579-.122-2.312-.344z"/><path d="m10.791 55.059c-.673-.24-1.27-.611-1.791-1.06v7.001h12v-2.327c-.113-.034-.229-.05-.341-.09z"/><path d="m50 32c0-1.103-.897-2-2-2v3c0 .339-.028.672-.069 1h.069c1.103 0 2-.897 2-2z"/><path d="m21.937 33.919-1.548-5.418c-.733.319-1.54.499-2.389.499h-3c-.172 0-.335-.03-.502-.051-.966 1.129-1.498 2.548-1.498 4.051v1h-1.39c-.887 0-1.61.722-1.61 1.61 0 .555.249 1.021.667 1.299l2.333 1.556v7.316l-1.188.296c-1.656.415-2.812 1.896-2.812 3.602 0 1.565.99 2.97 2.463 3.496l4.099 1.464 2.096-4.192-3.106-1.553.895-1.789 3.948 1.974c-.402-.567-.84-1.11-1.338-1.608l-1.057-1.057v-4.414h.586c.645 0 1.251-.251 1.707-.708.357-.356.583-.805.667-1.292h-1.546c-1.179 0-2.287-.459-3.121-1.292l1.414-1.415c.456.456 1.063.707 1.707.707h1.586v-1.618l1.095-.547c.558-.28.905-.841.905-1.465 0-.153-.021-.304-.063-.451z"/><path d="m11 39.535-1.442-.961c-.976-.65-1.558-1.738-1.558-2.91 0-1.85 1.327-3.353 3.055-3.621.162-1.412.685-2.742 1.519-3.885-.95-.732-1.574-1.869-1.574-3.158 0-2.206 1.794-4 4-4h1v2h-1c-1.103 0-2 .897-2 2s.897 2 2 2h3c2.206 0 4-1.794 4-4s-1.794-4-4-4h-3.464c-3.332 0-6.56 1.194-9.088 3.362-1.555 1.333-2.448 3.273-2.448 5.321 0 1.872.729 3.632 2.053 4.955l1.164 1.165-.868 1.735c-.229.456-.349.968-.349 1.479 0 1.37.862 2.614 2.146 3.095l3.854 1.445z"/><path d="m44.72 45-1.139 3.418c-.515 1.545-1.954 2.582-3.581 2.582s-3.066-1.037-3.581-2.581l-1.139-3.419h-1.141l-3.965 8.54c-.113.553-.174 1.118-.174 1.681 0 .461.038.926.114 1.383l.733 4.396h18.307l.732-4.396c.076-.457.114-.922.114-1.383 0-.985-.171-1.953-.508-2.879l-.448-1.23 1.292-.144 1.629-.136c-.073-1.962-.329-3.916-.765-5.832z"/><path d="m33 42.404c0-.774-.63-1.404-1.403-1.404-.783 0-1.468.286-1.987.805-.484.484-.784 1.015-.929 1.595l-.753 3.011-4.585 6.878-3.895-1.948-1.988 3.975 3.871 1.383c.56.2 1.144.301 1.736.301h.001c2.001 0 3.838-1.172 4.681-2.987l5.064-10.906c.13-.249.187-.475.187-.703z"/><path d="m60.789 44.485-5.105-16.167c-.249-.789-.972-1.318-1.798-1.318-1.04 0-1.886.846-1.886 1.885v1.286c0 1.557.606 3.021 1.707 4.122l.206.206 2.334 10.501h-3.001c.398 1.866.637 3.762.713 5.667l2.832-.236c2.36-.197 4.209-2.206 4.209-4.575 0-.466-.071-.927-.211-1.371z"/></g></svg>