<svg id="_x33_0" enable-background="new 0 0 64 64" height="512" viewBox="0 0 64 64" width="512" xmlns="http://www.w3.org/2000/svg"><g><circle cx="38" cy="56" r="3"/><circle cx="46" cy="56" r="3"/><circle cx="54" cy="56" r="3"/><path d="m14.62 40.638-.448 1.792c1.792.725 3.863.725 5.654 0l-.448-1.792c-.75.235-1.55.362-2.378.362s-1.628-.127-2.38-.362z"/><path d="m19 57h-16v1c0 1.654 1.346 3 3 3h13c1.103 0 2-.897 2-2s-.897-2-2-2z"/><path d="m7.04 35.844-.356 2.136c-.316 1.896.137 3.817 1.236 5.37l4.252-1.16.602-2.409c-2.262-1.416-3.774-3.922-3.774-6.781v-2.976c-1.206-.895-2-2.318-2-3.932 0-1.645.817-3.172 2.186-4.084l1.26-.84 1.109 1.664-1.26.84c-.811.54-1.295 1.445-1.295 2.42 0 1.603 1.305 2.908 2.908 2.908h.473c.777 0 1.508-.302 2.057-.852l.759-.759c-.116-.415-.197-.845-.197-1.297 0-1.645.817-3.172 2.186-4.084l1.26-.84 1.109 1.664-1.26.84c-.811.54-1.295 1.445-1.295 2.42 0 1.603 1.305 2.908 2.908 2.908h.473c.777 0 1.508-.302 2.057-.852l1.855-1.855 1.414 1.414-.707.707v4.586c0 2.859-1.512 5.365-3.774 6.78l.602 2.409 4.252 1.16c1.099-1.553 1.552-3.474 1.236-5.37l-.356-2.136.146-.291c1.239-2.477 1.894-5.252 1.894-8.024 0-5.805-4.723-10.528-10.528-10.528h-2.943c-5.806 0-10.529 4.723-10.529 10.528 0 2.772.655 5.547 1.895 8.025z"/><path d="m23 33v-2.767c-.777.494-1.676.767-2.619.767h-.473c-1.503 0-2.833-.693-3.734-1.76l-.323.323c-.925.926-2.159 1.437-3.47 1.437h-.473c-.311 0-.613-.036-.908-.092v2.092c0 3.309 2.691 6 6 6s6-2.691 6-6zm-2.211 1.658c-.722 1.445-2.174 2.342-3.789 2.342s-3.067-.897-3.789-2.342l-.105-.21 1.789-.895.105.211c.381.762 1.147 1.236 2 1.236s1.619-.474 2-1.236l.105-.211 1.789.895z"/><path d="m15 51h4v4h-4z"/><path d="m58.958 3.011-34.31 3.708c-.939.102-1.648.891-1.648 1.837v7.304c1.951.76 3.662 1.999 5 3.565v-6.625c0-.442.448-.8 1-.8h4c.552 0 1 .358 1 .8v.2c1.315-.658 2.766-1 4.236-1h10.202c.918 0 1.718.625 1.94 1.515l.622 2.485 1 4 1 4 .379 1.515c.315 1.262-.639 2.485-1.941 2.485h-1.438v3c0 1.657-1.343 3-3 3-.613 0-1.173-.346-1.447-.894l-1.171-2.342c-.847-1.694-2.578-2.764-4.472-2.764h-1.674c-1.471 0-2.921-.342-4.236-1v.2c0 .442-.448.8-1 .8h-2.013c-.068 2.813-.731 5.615-1.948 8.152l.25 1.499c.075.45.104.9.113 1.35h7.598v7.624c.001.317.449.486.659.247l6.887-7.872h12.766c.978 0 1.788-.765 1.844-1.741l1.844-32.34c0-1.16-.975-2.029-2.042-1.908z"/><path d="m23 59c0 .732-.212 1.409-.556 2h5.556c1.654 0 3-1.346 3-3v-1h-8.556c.344.591.556 1.268.556 2z"/><path d="m25.842 45.357-4.749-1.295c-1.273.609-2.682.938-4.093.938s-2.82-.329-4.093-.938l-4.749 1.295c-3.037.828-5.158 3.605-5.158 6.753v2.89h4v-4h2v4h4v-4c0-1.122.769-2 1.75-2h4.5c.981 0 1.75.878 1.75 2v4h4v-4h2v4h4v-2.89c0-3.148-2.121-5.925-5.158-6.753z"/></g></svg>