<svg id="_x33_0" enable-background="new 0 0 64 64" height="512" viewBox="0 0 64 64" width="512" xmlns="http://www.w3.org/2000/svg"><g><path d="m41 5h-21c-1.654 0-3 1.346-3 3v1h24z"/><path d="m41 25.333c0-3.492-2.841-6.333-6.333-6.333h-5.333c-3.493 0-6.334 2.841-6.334 6.333 0 1.983.947 3.878 2.533 5.067l1.467 1.1v4.5c0 .552.449 1 1 1s1-.448 1-1v-3h2v3c0 .552.449 1 1 1s1-.448 1-1v-3h2v3c0 .552.449 1 1 1s1-.448 1-1v-4.5l1.467-1.1c1.586-1.189 2.533-3.084 2.533-5.067zm-13 2.667c-1.105 0-2-.895-2-2s.895-2 2-2 2 .895 2 2-.895 2-2 2zm8 0c-1.105 0-2-.895-2-2s.895-2 2-2 2 .895 2 2-.895 2-2 2z"/><path d="m23 60c0 .352-.072.686-.184 1h21.184c1.654 0 3-1.346 3-3v-7h-24zm5-5c0-.552.448-1 1-1h6c.552 0 1 .448 1 1v2c0 .552-.448 1-1 1h-6c-.552 0-1-.448-1-1z"/><path d="m20 45h-5v-3.586c0-.337-.467-.534-.708-.292l-3.878 3.878h-6.414c-.551 0-1 .448-1 1v14c0 .552.449 1 1 1h16c.551 0 1-.448 1-1v-14c0-.552-.449-1-1-1zm-11 14h-2v-2h2zm0-4h-2v-8h2zm4 4h-2v-2h2zm0-4h-2v-8h2zm4 4h-2v-2h2zm0-4h-2v-8h2z"/><path d="m41 18v-7h-24v32h3c1.654 0 3 1.346 3 3v3h24v-28h-3c-1.654 0-3-1.346-3-3zm-4 29h-2v-2h2zm-1-8c-.771 0-1.468-.301-2-.78-.532.48-1.229.78-2 .78s-1.468-.301-2-.78c-.532.48-1.229.78-2 .78-1.654 0-3-1.346-3-3v-3.5l-.667-.5c-2.087-1.565-3.333-4.058-3.333-6.667 0-4.595 3.738-8.333 8.333-8.333h5.333c4.596 0 8.334 3.738 8.334 8.333 0 2.609-1.246 5.102-3.333 6.667l-.667.5v3.5c0 1.654-1.346 3-3 3zm5 8h-2v-2h2zm4 0h-2v-2h2z"/><path d="m60 3h-16c-.551 0-1 .448-1 1v14c0 .552.449 1 1 1h5v3.586c0 .337.467.534.708.292l3.878-3.878h6.414c.551 0 1-.448 1-1v-14c0-.552-.449-1-1-1zm-3.223 9.019-4.777 3.981-4.777-3.981c-.775-.646-1.223-1.602-1.223-2.611 0-.902.358-1.766.996-2.404l.004-.004c.64-.64 1.509-1 2.414-1h.172c.905 0 1.774.36 2.414 1 .64-.64 1.509-1 2.414-1h.172c.905 0 1.774.36 2.414 1l.004.004c.638.638.996 1.502.996 2.404 0 1.009-.448 1.965-1.223 2.611z"/></g></svg>