<svg id="_x33_0" enable-background="new 0 0 64 64" height="512" viewBox="0 0 64 64" width="512" xmlns="http://www.w3.org/2000/svg"><g><path d="m11 18.202 2.445 1.63 1.11-1.664-3.555-2.37-3 2-5.445-3.63-1.11 1.664 6.555 4.37z"/><path d="m11 23.202 2.445 1.63 1.11-1.664-3.555-2.37-3 2-5.445-3.63-1.11 1.664 6.555 4.37z"/><path d="m49.445 18.168 1.11 1.664 2.445-1.63 3 2 6.555-4.37-1.11-1.664-5.445 3.63-3-2z"/><path d="m56 22.798-3-2-3.555 2.37 1.11 1.664 2.445-1.63 3 2 6.555-4.37-1.11-1.664z"/><path d="m17 48.5v4.5c0 1.103.897 2 2 2s2-.897 2-2v-2h2c.552 0 1-.449 1-1v-1.5c0-1.93-1.57-3.5-3.5-3.5s-3.5 1.57-3.5 3.5z"/><path d="m38.213 47h-12.426c.135.478.213.979.213 1.5v1.5c0 .351-.061.687-.171 1h12.342c-.11-.313-.171-.649-.171-1v-1.5c0-.521.078-1.022.213-1.5z"/><path d="m43.162 15.972c.193.328.352.67.478 1.028h.36c.888 0 1.709.291 2.374.782l6.626-4.387 2 1.333v-3.728c0-1.103-.897-2-2-2h-5.059c-.337 3.034-2.188 5.614-4.779 6.972z"/><path d="m55 29v-2.061l-2-1.333-3 2-2.811-4.217c-.73.972-1.882 1.611-3.189 1.611h-.181c-.386 2.284-1.416 4.346-2.9 6h12.081c1.103 0 2-.897 2-2z"/><path d="m41.954 23.907-.052-5.756c-.113-.522-.334-1.011-.644-1.45-.723.189-1.477.299-2.258.299h-2c-1.627 0-3.061-.793-3.974-2h-7.026c-2.206 0-4 1.794-4 4v4c0 5.514 4.486 10 10 10 5.207 0 9.493-4.003 9.954-9.093zm-16.954-1.907c0-1.105.895-2 2-2s2 .895 2 2-.895 2-2 2-2-.895-2-2zm9.105 8.447-.105-.211c-.381-.762-1.147-1.236-2-1.236s-1.619.474-2 1.236l-.105.211-1.789-.895.105-.211c.722-1.444 2.174-2.341 3.789-2.341s3.067.897 3.789 2.342l.105.21zm2.895-6.447c-1.105 0-2-.895-2-2s.895-2 2-2 2 .895 2 2-.895 2-2 2z"/><path d="m45 55c1.103 0 2-.897 2-2v-4.5c0-1.93-1.57-3.5-3.5-3.5s-3.5 1.57-3.5 3.5v1.5c0 .551.448 1 1 1h2v2c0 1.103.897 2 2 2z"/><path d="m47.739 45h2.013c-.903-3.183-3.543-5.571-6.894-6.087l-5.382-.828c-1.231 1.825-3.274 2.915-5.476 2.915s-4.245-1.09-5.476-2.915l-5.382.828c-3.35.515-5.991 2.904-6.894 6.087h2.013c1.01-1.221 2.535-2 4.239-2s3.229.779 4.239 2h14.522c1.01-1.221 2.535-2 4.239-2s3.229.779 4.239 2z"/><path d="m28.652 34.515-.575 2.298.091.136c.856 1.284 2.289 2.051 3.832 2.051s2.976-.767 3.832-2.051l.091-.136-.575-2.298c-1.064.31-2.185.485-3.348.485s-2.284-.175-3.348-.485z"/><path d="m44 19v4c1.103 0 2-.897 2-2s-.897-2-2-2z"/><path d="m20 23v-4c-1.103 0-2 .897-2 2s.897 2 2 2z"/><path d="m3 48v3h12v-2.5c0-.521.078-1.022.213-1.5h-11.213c-.552 0-1 .449-1 1z"/><path d="m45 57c-2.206 0-4-1.794-4-4h-18c0 2.206-1.794 4-4 4s-4-1.794-4-4h-12v7c0 .551.448 1 1 1h56c.552 0 1-.449 1-1v-7h-12c0 2.206-1.794 4-4 4z"/><path d="m60 47h-11.213c.135.478.213.979.213 1.5v2.5h12v-3c0-.551-.448-1-1-1z"/><path d="m16.607 17.132-.41-2.053c-.131-.652-.197-1.318-.197-1.98 0-1.46.318-2.845.878-4.099h-5.878c-1.103 0-2 .897-2 2v3.728l2-1.333z"/><path d="m14 27.605-3-2-2 1.333v2.062c0 1.103.897 2 2 2h12.081c-1.485-1.654-2.515-3.716-2.9-6h-.181c-1.307 0-2.459-.639-3.189-1.611z"/><path d="m18.669 17.245c.418-.149.862-.245 1.331-.245h.35c.826-2.327 3.043-4 5.65-4h6.101c-.066-.323-.101-.658-.101-1 0-2.757 2.243-5 5-5v2c-1.654 0-3 1.346-3 3s1.346 3 3 3h2c3.859 0 7-3.14 7-7v-4.454c-2.367.954-4.921 1.454-7.472 1.454h-12.43c-4.465 0-8.098 3.633-8.098 8.099 0 .53.053 1.065.157 1.588z"/></g></svg>