<svg id="_x33_0" enable-background="new 0 0 64 64" height="512" viewBox="0 0 64 64" width="512" xmlns="http://www.w3.org/2000/svg"><g><path d="m46 13h4v4h-4z"/><path d="m61 2h-2c-.552 0-1 .448-1 1v1h-3v6h3v1c0 .552.448 1 1 1h2c.552 0 1-.448 1-1v-8c0-.552-.448-1-1-1z"/><path d="m35 12h1 1c.552 0 1-.448 1-1v-1h3v-6h-3v-1c0-.552-.448-1-1-1h-2c-.552 0-1 .448-1 1v8c0 .552.448 1 1 1z"/><path d="m32 5h-29v6h29zm-25 4h-2v-2h2zm4 0h-2v-2h2zm4 0h-2v-2h2z"/><path d="m23 46c0 1.654 1.346 3 3 3s3-1.346 3-3v-1h-6z"/><path d="m28.656 43-2.4-8h-.512l-2.4 8z"/><path d="m9.744 35-2.4 8h5.312l-2.4-8z"/><path d="m7 46c0 1.654 1.346 3 3 3s3-1.346 3-3v-1h-6z"/><path d="m45 36c0 1.654 1.346 3 3 3s3-1.346 3-3v-17h-6z"/><path d="m43 36v-17-6h-3.789c-.546.609-1.329 1-2.211 1h-2c-.883 0-1.67-.391-2.22-1h-29.78v48h44v-20.101c-2.279-.465-4-2.485-4-4.899zm-12-21h10v2h-10zm-10 0h8v2h-8zm0 4h20v2h-20zm20 4v2h-14v-2zm-20 0h4v2h-4zm0 4h20v2h-20zm20 10v2h-6v-2zm-6-2v-2h2v2zm4 0v-2h2v2zm-4 10h4v2h-4zm-29-29h12v12h-12zm25 19h-2.661l2.661 9v2c0 2.757-2.243 5-5 5s-5-2.243-5-5l.042-2.287 2.614-8.713h-4.656v22h8v2h-18v-2h8v-22h-4.661l2.661 9v2c0 2.757-2.243 5-5 5s-5-2.243-5-5l.042-2.287 2.614-8.713h-2.656v-2h12v-2h2v2h12zm6 24h-2v-2h2zm4 0h-2v-2h2zm4 0h-2v-2h2zm0-4h-10v-2h10zm0-4h-10v-2h10zm0-4h-4v-2h4zm0-4h-10v-2h10z"/><path d="m43 3v8h2 8.002l-.002-8z"/></g></svg>