<svg id="_x33_0" enable-background="new 0 0 64 64" height="512" viewBox="0 0 64 64" width="512" xmlns="http://www.w3.org/2000/svg"><g><path d="m43 58h-5v-5h-16v5h-5c-.552 0-1 .448-1 1v2c0 .552.448 1 1 1h26c.552 0 1-.448 1-1v-2c0-.552-.448-1-1-1z"/><path d="m58 1c-2.757 0-5 2.243-5 5h2c0-1.654 1.346-3 3-3s3 1.346 3 3-1.346 3-3 3h-1v8h2v-6.101c2.279-.465 4-2.484 4-4.899 0-2.757-2.243-5-5-5z"/><path d="m57 19h2v2h-2z"/><path d="m55 19v-2-2h-6v5c0 1.654-1.346 3-3 3h-11v2.117l3.715.465c2.458.307 4.664 1.541 6.213 3.476 1.336 1.671 2.072 3.769 2.072 5.909v8.033h10v-20h-2z"/><path d="m20.968 16.242c0-2.326-.862-4.514-2.422-6.221-3.112.218-5.578 2.812-5.578 5.979v1h8z"/><path d="m23.646 27.302 1.822 4.251 2.919-1.752-2.748-2.748z"/><path d="m41 43h4v-8.033c0-1.688-.58-3.342-1.635-4.659-1.221-1.526-2.96-2.499-4.898-2.741l-.048-.006-2.951 6.887-5.468-3.282-5.468 3.281-2.951-6.887-.048.006c-1.938.242-3.678 1.215-4.898 2.741-1.055 1.318-1.635 2.972-1.635 4.66v8.033h4v-6.586l-1.707-1.707 1.414-1.414 2.293 2.293v7.414h18v-7.414l2.293-2.293 1.414 1.414-1.707 1.707z"/><path d="m22.968 17h24.032v-9.979c0-1.333-.896-2.52-2.179-2.885l-3.478-.989c-1.476-.416-3.095.103-4.047 1.294l-1.946 2.433c-.574.716-1.427 1.126-2.343 1.126h-1.434c-.197 0-.39.059-.556.169l-.775.516c.467.87.725 1.833.725 2.828v.487h-2v-.486c0-.618-.145-1.218-.415-1.765-.374.162-.777.251-1.19.251h-.613c.132.401.219.817.219 1.242v.758h-2v-.758c0-.452-.165-.891-.445-1.242h-3.444c1.228 1.832 1.889 3.986 1.889 6.242zm19-7c1.105 0 2 .895 2 2s-.895 2-2 2-2-.895-2-2 .895-2 2-2z"/><path d="m33.788 5.624 1.946-2.434c.032-.039.07-.071.103-.11-.11-.04-.223-.08-.341-.08h-1.087c-.431 0-.813.274-.949.684l-.771 2.316h.318c.305 0 .59-.137.781-.376z"/><path d="m13.968 21h32.032c.552 0 1-.448 1-1v-1h-34.032v1c0 .552.448 1 1 1z"/><path d="m3 50c0 .552.448 1 1 1h52c.552 0 1-.448 1-1v-5h-54zm24-3h6v2h-6z"/><path d="m13 34.967c0-2.14.736-4.238 2.072-5.909 1.549-1.935 3.755-3.169 6.213-3.476l3.715-.465v-2.117h-11.032c-1.654 0-3-1.346-3-3v-4c0-.339.028-.672.069-1h-7.037c-.552 0-1 .448-1 1v27h10z"/><path d="m31.613 29.801 2.919 1.752 1.822-4.251-1.993-.249z"/><path d="m33 25.586v-2.586h-6v2.586l3 3z"/></g></svg>