<svg id="_x33_0" enable-background="new 0 0 64 64" height="512" viewBox="0 0 64 64" width="512" xmlns="http://www.w3.org/2000/svg"><g><path d="m25 13h1v-2h-1c-.551 0-1 .448-1 1s.449 1 1 1z"/><path d="m25 9h1c0-1.103.897-2 2-2h8c1.103 0 2 .897 2 2h.559c.928-1.062 1.441-2.404 1.441-3.828v-2.172h-11.337c-2.571 0-4.663 2.092-4.663 4.663 0 .491.085.98.237 1.447.245-.064.498-.11.763-.11z"/><path d="m14.313 26.764.504-1.764h-1.635l.504 1.764c.081.277.547.277.627 0z"/><path d="m15.965 20.982-.54-2.16c-.458.112-.933.178-1.425.178s-.967-.066-1.425-.178l-.54 2.16.576 2.018h2.777z"/><path d="m36.153 22.135-.901-.101-1.682 1.122 1.231 1.232z"/><path d="m10.199 20.083.517-2.067c-1.634-1.074-2.716-2.92-2.716-5.016v-2c0-2.206 1.794-4 4-4h4c2.206 0 4 1.794 4 4v2c0 2.096-1.082 3.942-2.716 5.015l.517 2.067 2.972.33c.42.047.828.137 1.227.255v-11.752c0-1.071-.292-2.123-.843-3.044-1.063-1.77-3.007-2.871-5.073-2.871h-4.169c-2.065 0-4.009 1.101-5.072 2.872-.551.92-.843 1.972-.843 3.043v11.748c.395-.117.804-.203 1.227-.25z"/><path d="m40 12c0-.552-.449-1-1-1h-1v2h1c.551 0 1-.448 1-1z"/><path d="m33.859 20.559-.434-1.737c-.458.112-.933.178-1.425.178s-.967-.066-1.425-.178l-.434 1.737 1.859 1.239z"/><path d="m43 13h1v-2h-1c-.551 0-1 .448-1 1s.449 1 1 1z"/><path d="m58 12c0-.552-.449-1-1-1h-1v2h1c.551 0 1-.448 1-1z"/><path d="m50 17c2.206 0 4-1.794 4-4v-4c0-2.206-1.794-4-4-4s-4 1.794-4 4v4c0 2.206 1.794 4 4 4z"/><path d="m36 13v-4h-8v4c0 2.206 1.794 4 4 4s4-1.794 4-4z"/><path d="m29.199 24.388 1.231-1.232-1.682-1.122-.901.101z"/><path d="m48.575 18.822-.573 2.289c.059 1.051.933 1.889 1.998 1.889s1.939-.838 1.997-1.889l-.573-2.289c-.457.112-.932.178-1.424.178s-.967-.066-1.425-.178z"/><path d="m41 30.236v10.764h2v-13.63c0-2.552-1.912-4.688-4.448-4.969l-.213-.024-3.141 5.235-2.198-2.198v15.586h6v-11.236l1.105-2.211 1.789.895z"/><path d="m41 45.816c1.161-.414 2-1.514 2-2.816h-2z"/><path d="m25 61h6v-11.586l-1.707-1.707 1.414-1.414 2.293 2.293v12.414h6v-18h-14z"/><path d="m59 45.816c1.161-.414 2-1.514 2-2.816v-7h-2z"/><path d="m56.552 22.401-2.725-.303c-.481 1.67-2.005 2.902-3.827 2.902s-3.346-1.232-3.827-2.902l-2.725.303c-.148.016-.287.064-.431.093 1.23 1.266 1.983 2.988 1.983 4.876v11.63h12v-9.236l1.105-2.211 1.789.895-.894 1.788v3.764h2v-6.63c0-2.552-1.912-4.687-4.448-4.969z"/><path d="m25 29.764v11.236h6v-15.586l-2.199 2.198-3.141-5.235-.213.024c-2.535.282-4.447 2.417-4.447 4.969v13.63h2v-10.764l-.895-1.789 1.789-.895z"/><path d="m45 43c0 2.414-1.721 4.434-4 4.899v13.101h8v-11.586l-1.707-1.707 1.414-1.414 2.293 2.293v12.414h6v-20h-12z"/><path d="m9 53h4v8h-4z"/><path d="m18 13v-2c0-1.103-.897-2-2-2h-4c-1.103 0-2 .897-2 2v2c0 2.206 1.794 4 4 4s4-1.794 4-4z"/><path d="m7.616 28.315c-.409 1.225-.616 2.502-.616 3.794v6.891h12v-11.63c0-1.889.753-3.61 1.983-4.876-.144-.029-.283-.077-.431-.093l-2.823-.314-1.493 5.225c-.283.995-1.203 1.688-2.236 1.688s-1.953-.693-2.236-1.688l-1.493-5.225-2.823.314c-2.536.282-4.448 2.417-4.448 4.969v6.63h2.001l-.001-1.891c0-1.508.242-2.997.718-4.427l.333-.999 1.897.633z"/><path d="m3 36v7c0 1.103.613 2.091 1.529 2.612l.475-5.695-.002-3.917z"/><path d="m15 53h4v8h-4z"/><path d="m19 44v-3h-12.083l-.831 10h16.914v-2.101c-2.279-.465-4-2.485-4-4.899z"/><path d="m21 44c0 1.302.839 2.402 2 2.816v-3.816h-2z"/><path d="m21 53h2v8h-2z"/></g></svg>