<svg id="_x33_0" enable-background="new 0 0 64 64" height="512" viewBox="0 0 64 64" width="512" xmlns="http://www.w3.org/2000/svg"><g><path d="m44 42h2c.551 0 1-.448 1-1s-.449-1-1-1h-2c-.551 0-1 .448-1 1s.449 1 1 1z"/><path d="m46 28h-2c-.551 0-1 .449-1 1s.449 1 1 1h2c.551 0 1-.449 1-1s-.449-1-1-1z"/><path d="m44 38h2c.551 0 1-.448 1-1s-.449-1-1-1h-2c-.551 0-1 .448-1 1s.449 1 1 1z"/><path d="m27 24.058c.466-.034.934-.058 1.403-.058h6.597c1.103 0 2 .897 2 2 0 2.206-1.792 4-3.996 4h-3.161c-.758 0-1.44.423-1.78 1.103-.274.549-.64 1.024-1.063 1.433v7.464h14.184c.133-.374.335-.711.596-1-.48-.532-.78-1.229-.78-2s.301-1.468.78-2c-.48-.532-.78-1.229-.78-2s.301-1.468.78-2c-.48-.532-.78-1.229-.78-2 0-1.302.839-2.402 2-2.816v-4.184h-16z"/><path d="m13 41v-12c0-.551-.449-1-1-1h-9v14h9c.551 0 1-.448 1-1z"/><path d="m28 16c-.551 0-1 .449-1 1v3h4.556c-.344-.591-.556-1.268-.556-2v-2z"/><path d="m42 16h-3v2c0 .732-.212 1.409-.556 2h4.556v-3c0-.551-.449-1-1-1z"/><path d="m37 18v-2h-4v2c0 1.103.897 2 2 2s2-.897 2-2z"/><path d="m44 34h2c.551 0 1-.448 1-1 0-.551-.449-1-1-1h-2c-.551 0-1 .449-1 1 0 .552.449 1 1 1z"/><path d="m14.407 17.235 7.795 7.795c.912-.31 1.848-.544 2.798-.716v-2.143l-7.761-7.761c-1.023.858-1.969 1.803-2.832 2.825z"/><path d="m32 3c-13.824 0-25.572 9.603-28.376 23h4.124c2.73-11.053 12.787-19 24.252-19 13.785 0 25 11.215 25 25s-11.215 25-25 25c-9.186 0-17.522-4.97-21.922-13h-4.468c4.704 10.37 14.896 17 26.39 17 15.991 0 29-13.01 29-29 0-15.991-13.009-29-29-29z"/><path d="m49.606 46.778-2.877-2.878c-.235.059-.476.1-.729.1h-1v3c0 .253-.041.494-.1.728l1.878 1.878c1.022-.86 1.969-1.806 2.828-2.828z"/><path d="m27 42v5c0 .552.449 1 1 1h14c.551 0 1-.448 1-1v-3.184c-.847-.302-1.514-.969-1.816-1.816zm4 4h-2v-2h2zm6 0h-4v-2h4zm4 0h-2v-2h2z"/><path d="m17.351 30h-2.351v10h2.414l.293.293c1.98 1.98 4.539 3.231 7.293 3.593v-10.147c-.513.165-1.053.261-1.613.261h-.387v-2h.387c1.229 0 2.334-.684 2.883-1.785.683-1.368 2.051-2.215 3.573-2.215h3.161c1.1 0 1.996-.897 1.996-2h-6.597c-3.903 0-7.731 1.343-10.779 3.781z"/></g></svg>