<svg id="_x33_0" enable-background="new 0 0 64 64" height="512" viewBox="0 0 64 64" width="512" xmlns="http://www.w3.org/2000/svg"><g><path d="m60 1h-20c-1.654 0-3 1.346-3 3v18c0 1.654 1.346 3 3 3h3v1.586c0 1.331 1.083 2.414 2.414 2.414.645 0 1.251-.251 1.707-.707l3.293-3.293h9.586c1.654 0 3-1.346 3-3v-18c0-1.654-1.346-3-3-3zm-6 15h-1l-.515 2.06c-.285 1.14-1.31 1.94-2.485 1.94s-2.2-.8-2.485-1.94l-.515-2.06h-1c-1.105 0-2-.895-2-2s.895-2 2-2h.143l.433-3.03c.243-1.704 1.703-2.97 3.424-2.97s3.181 1.266 3.424 2.97l.433 3.03h.143c1.105 0 2 .895 2 2s-.895 2-2 2z"/><path d="m3 49h30v-40h-30zm19.857-36.515c1.756 2.926 4.693 4.926 8.059 5.487l.249.042-.329 1.973-.249-.042c-.978-.163-1.924-.431-2.827-.792-.453 1.082-1.513 1.847-2.76 1.847-1.657 0-3-1.343-3-3 0-.844.353-1.602.914-2.147-.666-.707-1.262-1.489-1.772-2.339zm-5.959 27.84c.44.48.637.675 1.095.675s.655-.195 1.095-.676c.512-.558 1.213-1.324 2.57-1.324s2.06.765 2.572 1.324c.441.481.639.676 1.099.676s.657-.195 1.099-.676c.512-.559 1.215-1.324 2.572-1.324v2c-.46 0-.657.195-1.099.676-.512.559-1.214 1.324-2.572 1.324s-2.06-.765-2.573-1.324c-.441-.481-.638-.676-1.098-.676-.458 0-.655.195-1.095.676-.513.558-1.214 1.324-2.57 1.324s-2.058-.766-2.569-1.325c-.441-.48-.638-.675-1.095-.675s-.654.195-1.095.675c-.512.559-1.213 1.325-2.569 1.325s-2.057-.766-2.569-1.324c-.441-.481-.638-.676-1.096-.676v-2c1.356 0 2.058.766 2.57 1.325.44.48.637.675 1.095.675s.654-.195 1.095-.675c.511-.559 1.213-1.325 2.569-1.325s2.057.766 2.569 1.325zm-8.898-9.325c0-2 3-5 3-5s3 3 3 5c0 1.657-1.343 3-3 3s-3-1.343-3-3zm-2.916-13.028c3.366-.561 6.303-2.561 8.059-5.487l1.715 1.029c-.51.85-1.106 1.632-1.772 2.339.561.545.914 1.303.914 2.147 0 1.657-1.343 3-3 3-1.247 0-2.307-.765-2.76-1.847-.903.361-1.849.629-2.827.792l-.249.042-.329-1.973z"/><path d="m30 3h-24c-1.654 0-3 1.346-3 3v1h30v-1c0-1.654-1.346-3-3-3z"/><path d="m3 58c0 1.654 1.346 3 3 3h24c1.654 0 3-1.346 3-3v-7h-30zm23-3c0-.552.448-1 1-1h2c.552 0 1 .448 1 1v2c0 .552-.448 1-1 1h-2c-.552 0-1-.448-1-1zm-12 0c0-.552.448-1 1-1h6c.552 0 1 .448 1 1v2c0 .552-.448 1-1 1h-6c-.552 0-1-.448-1-1zm-8 0c0-.552.448-1 1-1h2c.552 0 1 .448 1 1v2c0 .552-.448 1-1 1h-2c-.552 0-1-.448-1-1z"/><path d="m39 33h2v2h-2z"/><path d="m43 33h2v2h-2z"/><path d="m47 33h2v2h-2z"/></g></svg>