<svg id="_x33_0" enable-background="new 0 0 64 64" height="512" viewBox="0 0 64 64" width="512" xmlns="http://www.w3.org/2000/svg"><g><path d="m51 35v-19.082c-2.387-1.386-4-3.964-4-6.918h-26v2h2c1.103 0 2 .897 2 2v2.557c1.958-2.752 5.166-4.557 8.794-4.557h4.411c5.953 0 10.795 4.842 10.795 10.794 0 .882-.108 1.763-.322 2.618l-.536 2.142c.529.679.858 1.521.858 2.446 0 2.206-1.794 4-4 4h-.95c-.474.95-1.108 1.803-1.871 2.526.991.237 1.96.554 2.897.956.23-.851 1.001-1.482 1.924-1.482z"/><path d="m41.608 37.443c-.401-.093-.807-.166-1.216-.228l-2.876 4.314 2.792 1.117z"/><path d="m19 9c0-1.103.897-2 2-2h26.263c.407-1.573 1.278-2.957 2.463-4h-29.726c-1.654 0-3 1.346-3 3v5h2z"/><path d="m30.394 37.45 1.299 5.196 2.792-1.117-2.877-4.315c-.409.061-.813.143-1.214.236z"/><path d="m51 49v-4h-4c-1.103 0-2-.897-2-2v-4.339c-.483-.236-.975-.446-1.477-.631l-1.831 7.324-5.692-2.277-5.692 2.277-1.832-7.329c-1.099.406-2.154.928-3.141 1.564 2.268 2.489 3.665 5.786 3.665 9.411z"/><path d="m27 31h.232c-.147-.644-.232-1.312-.232-2v-2c-1.103 0-2 .897-2 2s.897 2 2 2z"/><path d="m37.561 37.855c-.508.09-1.028.145-1.561.145s-1.053-.055-1.561-.145l1.561 2.342z"/><path d="m55 15c3.309 0 6-2.691 6-6s-2.691-6-6-6-6 2.691-6 6 2.691 6 6 6zm3-9c.552 0 1 .448 1 1s-.448 1-1 1-1-.448-1-1 .448-1 1-1zm.789 5.342.105.211-1.789.895-.105-.212c-.381-.762-1.147-1.236-2-1.236s-1.619.474-2 1.236l-.105.211-1.789-.895.105-.211c.722-1.444 2.174-2.341 3.789-2.341s3.067.897 3.789 2.342zm-6.789-5.342c.552 0 1 .448 1 1s-.448 1-1 1-1-.448-1-1 .448-1 1-1z"/><path d="m55 31.906v-14.906c-.692 0-1.359-.097-2-.263v14.276c.775-.078 1.53.277 2 .893z"/><path d="m45 27v2c0 .688-.085 1.356-.232 2h.232c1.103 0 2-.897 2-2s-.897-2-2-2z"/><path d="m23.455 24.943c-.147.034-.298.057-.455.057h-2v11.37c1.026.49 1.991 1.088 2.861 1.802 1.81-1.236 3.836-2.131 5.965-2.641-.765-.724-1.401-1.579-1.876-2.531h-.95c-2.206 0-4-1.794-4-4 0-.925.329-1.767.858-2.445z"/><path d="m38.206 13h-4.411c-4.85 0-8.795 3.945-8.795 8.794 0 .719.088 1.437.263 2.133l.335 1.34c.438-.165.907-.267 1.402-.267v-.022c0-1.602.952-3.045 2.424-3.676l4.088-1.752c-.33-.785-.512-1.647-.512-2.55h2c0 2.334 1.752 4.27 4.075 4.502l3.224.322c1.54.155 2.701 1.439 2.701 2.986v.19c.495 0 .964.102 1.402.267l.335-1.34c.175-.696.263-1.414.263-2.133 0-4.849-3.945-8.794-8.794-8.794z"/><path d="m43 24.81c0-.516-.387-.944-.9-.995l-3.224-.322c-1.729-.173-3.239-1.001-4.295-2.225l-4.368 1.872c-.737.316-1.213 1.037-1.213 1.838v4.022c0 3.86 3.14 7 7 7s7-3.14 7-7zm-3.211 6.848c-.722 1.445-2.174 2.342-3.789 2.342s-3.067-.897-3.789-2.342l-.105-.211 1.789-.895.105.212c.381.762 1.147 1.236 2 1.236s1.619-.474 2-1.236l.105-.211 1.789.895z"/><path d="m17 28.094v7.065c.683.098 1.352.236 2 .43v-6.602c-.774.081-1.53-.276-2-.893z"/><path d="m53.447 33.13c-.097-.195-.447-.113-.447.106v3.764h-6v6h14v-6h-5.618zm-2.447 7.87h-2v-2h2zm4 0h-2v-2h2zm2-2h2v2h-2z"/><path d="m53 49c0 1.103-.897 2-2 2h-22.16c-.612 4.248-3.131 7.878-6.666 10h29.826c1.654 0 3-1.346 3-3v-13h-2zm-11 8c0 .552-.448 1-1 1h-10c-.552 0-1-.448-1-1v-2c0-.552.448-1 1-1h10c.552 0 1 .448 1 1z"/><path d="m27 49c0-6.617-5.383-12-12-12s-12 5.383-12 12 5.383 12 12 12 12-5.383 12-12zm-12 9c-1.105 0-2-.895-2-2s.895-2 2-2 2 .895 2 2-.895 2-2 2zm2-9c0 .552-.448 1-1 1h-2c-.552 0-1-.448-1-1v-8c0-.552.448-1 1-1h2c.552 0 1 .448 1 1z"/><path d="m18.553 26.87c.097.195.447.113.447-.106v-3.764h4v-10h-20v10h13.618zm-13.553-11.87h16v2h-16zm0 4h16v2h-16z"/></g></svg>