<svg id="_x33_0" enable-background="new 0 0 64 64" height="512" viewBox="0 0 64 64" width="512" xmlns="http://www.w3.org/2000/svg"><g><path d="m51 46c0 1.105.895 2 2 2s2-.895 2-2v-14.283l-4 2.823z"/><path d="m27.016 21.341-.458-.051c-1.649-.183-2.953-1.352-3.389-2.877-.987.373-2.052.587-3.169.587s-2.182-.214-3.17-.587c-.436 1.525-1.74 2.695-3.389 2.878l-3.188.354c-1.478.164-2.737 1.161-3.253 2.548v24.807h1.207c.55-2.12 1.432-3.513 2.224-4.754.877-1.375 1.569-2.461 1.569-4.246 0-.106-.028-.583-.384-2.239-.313-1.453-.492-2.921-.565-4.374-1.256-1.137-2.051-2.774-2.051-4.598v-3.789h2v3.789c0 2.322 1.889 4.211 4.211 4.211 1.412 0 2.721-.701 3.504-1.875l.285-.428v-3.697h2v3.697l.285.428c.783 1.174 2.092 1.875 3.504 1.875 2.322 0 4.211-1.889 4.211-4.211v-.186c-1.277-2.068-2-4.467-2-6.96 0-.101.014-.201.016-.302zm-13.016 9.659c-.552 0-1-.448-1-1s.448-1 1-1 1 .448 1 1-.448 1-1 1zm12 0c-.552 0-1-.448-1-1s.448-1 1-1 1 .448 1 1-.448 1-1 1z"/><path d="m35 49c0 1.103-.897 2-2 2h-26c-1.103 0-2-.897-2-2v-40c0-1.103.897-2 2-2h26c1.103 0 2 .897 2 2v.561c.646-.228 1.316-.384 2-.472v-3.089c0-1.654-1.346-3-3-3h-28c-1.654 0-3 1.346-3 3v52c0 1.654 1.346 3 3 3h28c1.654 0 3-1.346 3-3v-22.423l-2-1.412zm-9 8c0 .552-.448 1-1 1h-10c-.552 0-1-.448-1-1v-2c0-.552.448-1 1-1h10c.552 0 1 .448 1 1z"/><path d="m7 9v11.913c.859-.682 1.904-1.13 3.033-1.256l3.188-.354c.962-.107 1.691-.883 1.765-1.833-2.402-1.619-3.986-4.363-3.986-7.47v-1z"/><path d="m57.063 13.085-.206-.177c-1.436-1.23-3.268-1.908-5.159-1.908-2.116 0-4.107.824-5.604 2.32l-1.094 1.094-1.134-1.134c-1.471-1.471-3.426-2.281-5.506-2.281h-.104s-.001 0-.002 0c-1.858 0-3.658.666-5.069 1.875l-.25.214c-2.501 2.142-3.935 5.261-3.935 8.555 0 3.656 1.783 7.098 4.77 9.206l11.23 7.927 6-4.235v-2.541c0-1.105-.895-2-2-2s-2 .895-2 2v2c0 1.105-.895 2-2 2s-2-.895-2-2v-2c0-1.105-.895-2-2-2h-3c-1.657 0-3-1.343-3-3s1.343-3 3-3h14c1.657 0 3 1.343 3 3v4.717l1.229-.868c2.988-2.108 4.771-5.55 4.771-9.206 0-3.294-1.435-6.414-3.937-8.558zm-15.168 6.704c-.277.138-.585.211-.894.211-.763 0-1.449-.424-1.79-1.105l-.105-.211c-.211-.422-.635-.684-1.106-.684s-.895.262-1.105.684l-.105.211c-.341.682-1.027 1.106-1.789 1.106-.309 0-.619-.074-.896-.212-.985-.493-1.387-1.697-.894-2.683l.105-.211c.893-1.786 2.688-2.895 4.684-2.895s3.791 1.109 4.684 2.895l.105.211c.493.986.092 2.19-.894 2.683zm14 0c-.277.138-.585.211-.894.211-.763 0-1.449-.424-1.79-1.105l-.105-.211c-.211-.422-.635-.684-1.106-.684s-.895.262-1.105.684l-.105.211c-.341.682-1.027 1.106-1.789 1.106-.309 0-.619-.074-.896-.212-.985-.493-1.387-1.697-.894-2.683l.105-.211c.893-1.786 2.688-2.895 4.684-2.895s3.791 1.109 4.684 2.895l.105.211c.493.986.092 2.19-.894 2.683z"/><path d="m10.288 49h19.424c-.475-1.54-1.159-2.628-1.829-3.679-.968-1.518-1.883-2.953-1.883-5.321 0-.286.044-.874.429-2.66.193-.896.321-1.798.417-2.698-.645.228-1.335.358-2.057.358-1.868 0-3.616-.833-4.789-2.255-1.173 1.422-2.921 2.255-4.789 2.255-.722 0-1.412-.13-2.057-.357.095.9.224 1.801.417 2.698.385 1.785.429 2.373.429 2.659 0 2.368-.915 3.803-1.883 5.321-.67 1.051-1.354 2.139-1.829 3.679zm9.712-6c.552 0 1 .448 1 1s-.448 1-1 1-1-.448-1-1 .448-1 1-1z"/><path d="m33 49v-16.247l-.383-.271c-.715-.505-1.354-1.089-1.947-1.712-.343 1.016-.942 1.912-1.721 2.616-.074 1.453-.252 2.922-.565 4.374-.356 1.657-.384 2.134-.384 2.24 0 1.785.692 2.871 1.569 4.246.791 1.241 1.674 2.634 2.224 4.754z"/><path d="m31.633 11.568.25-.214c.352-.302.729-.569 1.117-.816v-1.538h-4v1c0 3.107-1.584 5.851-3.986 7.469.074.95.803 1.726 1.765 1.833l.438.049c.527-3.006 2.061-5.763 4.416-7.783z"/><path d="m20 17c3.86 0 7-3.14 7-7v-1h-14v1c0 3.86 3.14 7 7 7zm-2.105-5.447.105.211c.381.762 1.147 1.236 2 1.236s1.619-.474 2-1.236l.105-.211 1.789.895-.105.211c-.722 1.444-2.174 2.341-3.789 2.341s-3.067-.897-3.789-2.342l-.105-.211z"/></g></svg>