<svg id="_x33_0" enable-background="new 0 0 64 64" height="512" viewBox="0 0 64 64" width="512" xmlns="http://www.w3.org/2000/svg"><g><path d="m14 30.585 7.586-7.585h-17.172l7.586 7.586c.535.534 1.465.535 2-.001z"/><path d="m17.414 30 5.586 5.586v-11.172z"/><path d="m16 31.414-.586.586c-.646.645-1.503 1-2.414 1s-1.769-.355-2.414-1l-.586-.586-5.586 5.586h17.172z"/><path d="m19 49h23.081c-1.909-2.126-3.081-4.925-3.081-8 0-4.43 2.419-8.298 6-10.376v-5.624h-3c-3.859 0-7-3.14-7-7 0-3.221 2.187-5.941 5.154-6.753.139-.786.378-1.536.69-2.247h-21.844v12h3c1.654 0 3 1.346 3 3v12c0 1.654-1.346 3-3 3h-3zm4-30h-2v-2h2zm6 27h-2v-4h2zm5 0h-3v-4h3zm3-9h-10v-2h10zm0-4h-10v-2h10zm-10-4v-2h4v2zm10 0h-4v-2h4zm0-6v2h-10v-2zm-8-6h2v2h-2zm-4 0h2v2h-2zm-3 25h3v4h-3z"/><path d="m17 7h25.015c1.318-1.75 3.192-3.059 5.362-3.649-.414-.217-.878-.351-1.377-.351h-28c-1.654 0-3 1.346-3 3v15h2z"/><path d="m47 25v4.7c.644-.229 1.311-.403 2-.519v-4.181z"/><path d="m3 24.415v11.171l5.586-5.586z"/><path d="m51 31c-5.514 0-10 4.486-10 10s4.486 10 10 10 10-4.486 10-10-4.486-10-10-10zm-5 15v-10l10 5z"/><path d="m17 51v-12h-2v19c0 1.654 1.346 3 3 3h28c1.654 0 3-1.346 3-3v-5.181c-1.683-.284-3.25-.91-4.619-1.819zm7 6c0 .552-.448 1-1 1h-2c-.552 0-1-.448-1-1v-2c0-.552.448-1 1-1h2c.552 0 1 .448 1 1zm12 0c0 .552-.448 1-1 1h-6c-.552 0-1-.448-1-1v-2c0-.552.448-1 1-1h6c.552 0 1 .448 1 1zm8 0c0 .552-.448 1-1 1h-2c-.552 0-1-.448-1-1v-2c0-.552.448-1 1-1h2c.552 0 1 .448 1 1z"/><path d="m57.757 11.053c-.879-3.501-4.078-6.053-7.757-6.053-4.411 0-8 3.589-8 8-2.757 0-5 2.243-5 5s2.243 5 5 5h15c3.309 0 6-2.691 6-6 0-3.052-2.291-5.573-5.243-5.947z"/></g></svg>