<svg id="_x33_0" enable-background="new 0 0 64 64" height="512" viewBox="0 0 64 64" width="512" xmlns="http://www.w3.org/2000/svg"><g><path d="m49.015 39.514-6.667-3.849c-.394 1.284-.962 2.507-1.697 3.639l5.91 3.412c.926-.983 1.746-2.056 2.454-3.202z"/><path d="m12.851 23.253 8.149 4.705v-4.618l-6.607-3.815c-.635 1.176-1.151 2.426-1.542 3.728z"/><path d="m23 23v6.597c0 3.902 1.343 7.73 3.781 10.779l.219.273v2.351h10v-2.414l.293-.293c2.391-2.39 3.707-5.568 3.707-8.95v-11.343c0-.551-.448-1-1-1s-1 .449-1 1v6h-2v-10c0-.551-.448-1-1-1s-1 .449-1 1v10h-2v-12c0-.551-.448-1-1-1s-1 .449-1 1v12h-2v-10c0-.551-.448-1-1-1s-1 .449-1 1l.001 9h-.001v3.157c0 .758.423 1.44 1.104 1.78l.088.049c1.7.842 2.809 2.633 2.809 4.626v.388h-2v-.387c0-1.23-.684-2.334-1.785-2.883l-.088-.049c-1.28-.634-2.128-2.002-2.128-3.524v-3.161c0-1.1-.897-1.996-2-1.996z"/><path d="m32 3c-14.337 0-26 11.664-26 26 0 11.005 6.782 20.625 17 24.381v-4.317c-7.915-3.549-13-11.343-13-20.064 0-12.131 9.869-22 22-22s22 9.869 22 22c0 8.721-5.085 16.515-13 20.064v4.317c10.218-3.756 17-13.376 17-24.381 0-14.336-11.663-26-26-26z"/><path d="m38 45h-12c-.552 0-1 .449-1 1v1h14v-1c0-.551-.448-1-1-1z"/><path d="m25 61h14v-12h-14zm7-9c1.105 0 2 .895 2 2s-.895 2-2 2-2-.895-2-2 .895-2 2-2z"/></g></svg>