<svg id="_x33_0" enable-background="new 0 0 64 64" height="512" viewBox="0 0 64 64" width="512" xmlns="http://www.w3.org/2000/svg"><g><path d="m56 8h-4v-5l-4-1v6h-4v3h12z"/><path d="m21 1h2v6h-2z"/><path d="m17 3h2v4h-2z"/><path d="m25 3h2v4h-2z"/><path d="m3 29h10v2h-10z"/><path d="m3 37h10v2h-10z"/><path d="m27.405 33h.814l.579-2.315c-3.342-.96-5.798-4.038-5.798-7.685v-3.434c0-1.775.775-3.354 2-4.453v-2.113h-2v4h-2v-4h-2v4h-2v-4h-2v4.68c4.251 5.734 6.84 11.252 7.733 16.437 1.432-.72 3.024-1.117 4.672-1.117z"/><path d="m13.498 19h-10.498v2h11.902c-.447-.663-.91-1.329-1.404-2z"/><path d="m15 9h14v2h-14z"/><path d="m41 23c0 3.647-2.456 6.725-5.798 7.685l.579 2.315h.813c3.097 0 6.011 1.364 7.993 3.743.146.175.279.358.413.542v-8.285h14v-12h-18zm11-3h4v6h-4zm-8 0h4v6h-4z"/><path d="m41 15h18v-2h-18.26c.17.411.26.856.26 1.315z"/><path d="m25 19.566v3.434c0 3.309 2.691 6 6 6h2c3.309 0 6-2.691 6-6v-8.685c0-.381-.148-.74-.418-1.011-.194-.193-.462-.304-.736-.304-.278 0-.54.108-.736.305-1.069 1.069-2.487 1.734-3.993 1.871l-4.479.407c-2.074.188-3.638 1.901-3.638 3.983z"/><path d="m31 31c-.073 0-.144-.009-.216-.011l-.503 2.011h3.438l-.503-2.011c-.072.002-.143.011-.216.011z"/><path d="m29 13h-2v.928c.464-.163.944-.291 1.457-.338l.543-.049z"/><path d="m47 57c2.206 0 4 1.794 4 4h10v-6h-14z"/><path d="m47 59h-2v-12h-4v11.139c0 1.073-.36 2.056-.951 2.861h8.951c0-1.103-.897-2-2-2z"/><path d="m47 31h14v2h-14z"/><path d="m3 45h10v2h-10z"/><path d="m41 45h4v-1.595c0-1.962-.692-3.873-1.949-5.381-1.601-1.921-3.955-3.024-6.457-3.024h-9.189c-2.501 0-4.854 1.103-6.457 3.024-1.256 1.506-1.948 3.414-1.948 5.372v1.604h4v-4h2v12h14v-12h2z"/><path d="m47 53h2v-14h2v14h2v-14h2v14h2v-14h2v14h2v-18h-14z"/><path d="m23 53v-6h-4v1.999c0 2.206 1.794 4.001 4 4.001z"/><path d="m17 48.999v-5.603c0-2.425.857-4.788 2.412-6.653.448-.537.949-1.014 1.483-1.444-.522-3.882-2.1-8.001-4.715-12.299h-13.18v4h12v6h-12v2h12v6h-12v2h12v6h-12v4h15.541c-.955-1.063-1.541-2.463-1.541-4.001z"/><path d="m25 58.139c0 1.578 1.284 2.861 2.861 2.861.574 0 1.128-.17 1.603-.492l2.536-1.715 2.535 1.715c.476.322 1.03.492 1.604.492 1.577 0 2.861-1.283 2.861-2.861v-3.139h-14z"/><path d="m23 55h-20v6h20.951c-.591-.805-.951-1.789-.951-2.861z"/></g></svg>