<svg id="_x33_0" enable-background="new 0 0 64 64" height="512" viewBox="0 0 64 64" width="512" xmlns="http://www.w3.org/2000/svg"><g><path d="m17 19.649v-4.649h5c.551 0 1-.449 1-1v-10c0-.551-.449-1-1-1h-18c-.551 0-1 .449-1 1v10c0 .551.449 1 1 1h8.48l3.895 4.869c.187.233.625.081.625-.22zm-6.052-6.287-3.655-3.655 1.414-1.414 2.345 2.345 6.297-5.397 1.302 1.519z"/><path d="m34 40.267v-2.477c0-1.538-1.251-2.79-2.79-2.79-1.37 0-2.527.98-2.752 2.331l-.227 1.363c-.134.802-.068 1.633.188 2.403l.66 1.979-6.185 12.37-1.789-.895.415-.831-4.34 1.86 1.115 2.454c.82 1.803 2.627 2.966 4.605 2.966 2.079 0 3.922-1.247 4.695-3.178l5.833-14.584c.38-.949.572-1.949.572-2.971z"/><path d="m19 17v2.649c0 1.175-.87 2.143-1.999 2.315 0 .012-.001.024-.001.036v19.355c1.192-.867 2.558-1.504 3.996-1.824l5.263-1.169.227-1.359c.075-.45.226-.867.413-1.262-3.616-1.884-5.899-5.587-5.899-9.741v-6.848l1.256-.208c3.311-.552 6.322-2.069 8.744-4.38v-3.564h2v3.564c2.422 2.31 5.433 3.827 8.745 4.38l1.255.208v6.848c0 4.687-2.929 8.779-7.249 10.338.148.461.249.942.249 1.452v.63l5.588 1.241c1.178.263 2.307.699 3.355 1.298.751.429 1.427.951 2.056 1.518v-20.477c0-.012-.001-.024-.001-.036-1.128-.171-1.998-1.139-1.998-2.315v-2.649h-3c-1.654 0-3-1.346-3-3v-5.259c-4.3-2.261-9.7-2.261-14 0v5.259c0 1.654-1.346 3-3 3z"/><path d="m41 20.843c-3.374-.64-6.459-2.172-9-4.464-2.541 2.292-5.627 3.824-9 4.464v5.157c0 3.516 2.009 6.62 5.145 8.108.835-.695 1.905-1.108 3.065-1.108 1.399 0 2.647.613 3.524 1.572 3.718-1.179 6.266-4.617 6.266-8.572zm-15.414 3.157-.293-.293 1.414-1.414.293.293c.526.526 1.474.526 2 0l.293-.293 1.414 1.414-.293.293c-.645.645-1.502 1-2.414 1s-1.77-.355-2.414-1zm8.519 8.447-.105-.211c-.381-.762-1.147-1.236-2-1.236s-1.619.474-2 1.236l-.105.211-1.789-.895.105-.211c.722-1.444 2.174-2.341 3.789-2.341s3.067.897 3.789 2.342l.105.211zm4.309-8.447c-.645.645-1.502 1-2.414 1s-1.77-.355-2.414-1l-.293-.293 1.414-1.414.293.293c.526.526 1.474.526 2 0l.293-.293 1.414 1.414z"/><path d="m20.071 48.371 1.857-.742 1.173 2.932 3.819-7.638-.398-1.192c-.142-.427-.242-.866-.3-1.312l-4.792 1.065c-1.3.289-2.537.882-3.576 1.713-1.813 1.451-2.854 3.616-2.854 5.939 0 1.093.229 2.151.682 3.148l.671 1.477 5.014-2.149z"/><path d="m60 3h-18c-.551 0-1 .449-1 1v10c0 .551.449 1 1 1h5v4.649c0 .301.439.455.625.219l3.895-4.868h8.48c.551 0 1-.449 1-1v-10c0-.551-.449-1-1-1zm-3.375 9.219-1.249 1.562-4.376-3.501-4.375 3.5-1.249-1.562 4.024-3.218-4.024-3.219 1.249-1.562 4.375 3.501 4.375-3.5 1.249 1.562-4.024 3.218z"/><path d="m43 55h6v6h-6z"/><path d="m43.952 42.695c-.875-.499-1.816-.863-2.798-1.081l-5.164-1.147c-.024 1.208-.256 2.389-.705 3.513l-5.833 14.584c-.377.943-.946 1.76-1.639 2.436h13.187v-11.236l1.105-2.211 1.789.895-.894 1.788v2.764h6v-1.605c0-3.587-1.934-6.92-5.048-8.7z"/></g></svg>