<svg id="_x33_0" enable-background="new 0 0 64 64" height="512" viewBox="0 0 64 64" width="512" xmlns="http://www.w3.org/2000/svg"><g><path d="m51.861 13.553 1.945.389 2.377-1.485-2.688-.538 1.699-1.699 3.46.692 2.21-1.381c.085-.053.136-.144.136-.244 0-.158-.129-.287-.287-.287h-5.713v-5.713c-.001-.259-.394-.369-.53-.152l-1.381 2.21.692 3.46-1.699 1.699-.538-2.688-1.485 2.377.389 1.945-7.173 7.173c.499.444.97.915 1.414 1.414z"/><path d="m39.54 37c.491 0 .974.146 1.397.423l.455.303c1.053-1.72 1.608-3.681 1.608-5.726 0-2.673-.961-5.125-2.552-7.034l-2.85 2.85c.876 1.169 1.402 2.614 1.402 4.184 0 3.859-3.141 7-7 7s-7-3.141-7-7 3.141-7 7-7c1.57 0 3.015.526 4.184 1.402l2.85-2.85c-1.909-1.591-4.361-2.552-7.034-2.552-6.065 0-11 4.935-11 11s4.935 11 11 11c2.046 0 4.006-.555 5.726-1.608l-.298-.448c-.282-.43-.428-.913-.428-1.404 0-1.4 1.14-2.54 2.54-2.54z"/><path d="m45 32c0 2.444-.668 4.787-1.941 6.837l2.326 1.551c.576-.303 1.181-.54 1.795-.745 1.187-2.355 1.82-4.987 1.82-7.643 0-4.328-1.639-8.27-4.311-11.275l-2.827 2.827c1.951 2.275 3.138 5.223 3.138 8.448z"/><path d="m39.642 47.182c.206-.615.442-1.219.746-1.796l-1.55-2.326c-2.051 1.272-4.394 1.94-6.838 1.94-7.168 0-13-5.832-13-13s5.832-13 13-13c3.225 0 6.173 1.187 8.447 3.139l2.827-2.827c-3.004-2.673-6.946-4.312-11.274-4.312-.861 0-1.716.07-2.56.197.354.413.56.941.56 1.503 0 1.269-1.031 2.3-2.3 2.3h-4.306c-1.486 2.576-3.838 4.44-6.575 5.356-1.186 2.355-1.819 4.988-1.819 7.644 0 9.374 7.626 17 17 17 2.656 0 5.287-.632 7.642-1.818z"/><path d="m32 27c-2.757 0-5 2.243-5 5s2.243 5 5 5 5-2.243 5-5c0-1.017-.309-1.962-.833-2.753l-3.46 3.46-1.414-1.414 3.46-3.46c-.791-.524-1.736-.833-2.753-.833z"/><path d="m16.538 16.355-.082.33c-.397 1.589-1.818 2.698-3.456 2.698s-3.059-1.109-3.455-2.698l-.083-.33c-1.506.879-2.661 2.303-3.194 4.019 1.78 1.625 4.138 2.626 6.732 2.626 2.55 0 4.921-.971 6.731-2.627-.533-1.715-1.687-3.139-3.193-4.018z"/><path d="m9.611 14.036c-.984-.913-1.611-2.207-1.611-3.653 0-2.757 2.243-5 5-5s5 2.243 5 5c0 1.446-.627 2.74-1.612 3.654 2.137.852 3.878 2.493 4.849 4.625.244-.356.471-.725.671-1.117l.279-.545h5.513c.168 0 .3-.132.3-.3 0-.104-.051-.202-.133-.257l-4.861-3.237-.016-.518c-.155-5.432-4.544-9.688-9.99-9.688-5.514 0-10 4.486-10 10 0 2.099.654 4.048 1.763 5.658.972-2.13 2.712-3.77 4.848-4.622z"/><path d="m11.338 15.609.147.591c.174.696.797 1.183 1.515 1.183s1.341-.486 1.516-1.183l.147-.591c-.539-.133-1.091-.227-1.663-.227-.571.001-1.123.094-1.662.227z"/><circle cx="13" cy="10.383" r="3"/><path d="m54.544 53.95-.088.351c-.397 1.59-1.818 2.699-3.456 2.699s-3.059-1.109-3.455-2.698l-.088-.352c-1.597.925-2.806 2.463-3.294 4.327 1.79 1.683 4.192 2.723 6.837 2.723s5.047-1.04 6.837-2.723c-.487-1.864-1.696-3.402-3.293-4.327z"/><path d="m41.659 58.516c-1.66-2.059-2.659-4.671-2.659-7.516 0-.46.031-.919.084-1.373-.638.256-1.291.475-1.954.66l1.606 10.044c.064.385.399.669.796.669h1.659c.447 0 .809-.362.809-.809 0-.057-.006-.114-.019-.173z"/><path d="m49.332 53.204.153.613c.174.697.797 1.183 1.515 1.183s1.341-.486 1.516-1.183l.153-.613c-.538-.13-1.096-.204-1.669-.204s-1.131.074-1.668.204z"/><circle cx="51" cy="48" r="3"/><path d="m51 41c-1.811 0-3.591.49-5.148 1.419l-.542.322-5.475-3.649c-.091-.06-.192-.092-.295-.092-.298 0-.54.242-.54.54 0 .103.032.204.097.302l3.645 5.468-.322.542c-.93 1.557-1.42 3.337-1.42 5.148 0 2.036.615 3.929 1.664 5.511.949-2.225 2.743-3.962 4.955-4.851-.989-.914-1.619-2.21-1.619-3.66 0-2.757 2.243-5 5-5s5 2.243 5 5c0 1.45-.63 2.746-1.619 3.66 2.212.889 4.006 2.626 4.955 4.851 1.049-1.582 1.664-3.475 1.664-5.511 0-5.514-4.486-10-10-10z"/><path d="m28.142 55-.32 2h8.356l-.32-2z"/><path d="m22.018 60.022c-.012.055-.018.113-.018.169 0 .447.362.809.809.809h1.659c.397 0 .732-.284.798-.676l1.606-10.047c-.884-.248-1.742-.553-2.568-.921z"/><path d="m7 49h2v2h-2z"/><path d="m11 49h2v2h-2z"/><path d="m15 49h2v2h-2z"/></g></svg>