<svg id="_x33_0" enable-background="new 0 0 64 64" height="512" viewBox="0 0 64 64" width="512" xmlns="http://www.w3.org/2000/svg"><g><g><g><path d="m32 62h-28c-1.1 0-2-.9-2-2v-48h19.98c-9.39 3.92-15.98 13.19-15.98 24 0 14.36 11.64 26 26 26z" fill="#e6e9ed"/></g><g><path d="m46 12h6 6 4v48c0 1.1-.9 2-2 2h-28c14.36 0 26-11.64 26-26 0-10.81-6.59-20.08-15.98-24z" fill="#e6e9ed"/></g><g><path d="m60 2.15h-56c-1.1 0-2 .9-2 2v8h60v-8c0-1.1-.9-2-2-2z" fill="#b4dd7f"/></g><g><path d="m40 6v5.25.01c.69.22 1.36.47 2.02.74h15.98v-6z" fill="#fcd770"/></g><g><path d="m42.02 12c9.39 3.92 15.98 13.19 15.98 24 0 14.36-11.64 26-26 26s-26-11.64-26-26c0-10.81 6.59-20.08 15.98-24 3.08-1.29 6.47-2 10.02-2 2.79 0 5.48.44 8 1.26.69.22 1.36.47 2.02.74z" fill="#ff826e"/></g><g><path d="m32 54c4.16 0 7.9-1.82 10.46-4.71l.01.01 3.61 3.61c-3.81 3.18-8.72 5.09-14.08 5.09-12.15 0-22-9.85-22-22 0-5.36 1.91-10.27 5.09-14.08l3.14 3.14c-.15.28-.23.6-.23.94v14c0 7.73 6.27 14 14 14z" fill="#ffeaa7"/></g><g><path d="m54 36c0 5.36-1.91 10.27-5.09 14.08l-4.2-4.2c.83-1.79 1.29-3.78 1.29-5.88v-14c0-1.1-.9-2-2-2h-21.17l-4.91-4.91c3.81-3.18 8.72-5.09 14.08-5.09 12.15 0 22 9.85 22 22z" fill="#ffeaa7"/></g><g><path d="m44.71 45.88 4.2 4.2c-.86 1.02-1.81 1.97-2.83 2.83l-3.61-3.61-.01-.01c.91-1.01 1.67-2.16 2.25-3.41z" fill="#ff826e"/></g><g><path d="m22.83 24h-2.83c-.76 0-1.43.43-1.77 1.06l-3.14-3.14c.86-1.02 1.81-1.97 2.83-2.83z" fill="#ff826e"/></g><g><path d="m46 26v14c0 2.1-.46 4.09-1.29 5.88-.58 1.25-1.34 2.4-2.25 3.41-2.56 2.89-6.3 4.71-10.46 4.71-7.73 0-14-6.27-14-14v-14c0-.34.08-.66.23-.94.34-.63 1.01-1.06 1.77-1.06h2.83 21.17c1.1 0 2 .9 2 2z" fill="#ecc19c"/></g><g><path d="m42 38v2c0 2.76-1.12 5.26-2.93 7.07s-4.31 2.93-7.07 2.93c-5.52 0-10-4.48-10-10v-2z" fill="#ff826e"/></g><g><path d="m30 32h-8c0-2.21 1.79-4 4-4s4 1.79 4 4z" fill="#656d78"/></g><g><path d="m42 32h-8c0-2.21 1.79-4 4-4s4 1.79 4 4z" fill="#656d78"/></g></g><g><path d="m31 32c0-2.757-2.243-5-5-5s-5 2.243-5 5v1h10zm-7.829-1c.413-1.164 1.525-2 2.829-2s2.416.836 2.829 2z"/><path d="m43 32c0-2.757-2.243-5-5-5s-5 2.243-5 5v1h10zm-7.829-1c.413-1.164 1.525-2 2.829-2s2.416.836 2.829 2z"/><path d="m32 51c6.065 0 11-4.935 11-11v-3h-22v3c0 6.065 4.935 11 11 11zm-9-12h18v1c0 4.962-4.038 9-9 9s-9-4.038-9-9z"/><path d="m32 59c12.682 0 23-10.318 23-23s-10.318-23-23-23-23 10.318-23 23 10.318 23 23 23zm-21-23c0-4.709 1.577-9.046 4.205-12.553l1.878 1.878c-.05.218-.083.442-.083.675v14c0 8.271 6.729 15 15 15 4.074 0 7.769-1.638 10.475-4.283l2.078 2.078c-3.507 2.628-7.844 4.205-12.553 4.205-11.58 0-21-9.42-21-21zm33-11c.551 0 1 .449 1 1v14c0 7.168-5.832 13-13 13s-13-5.832-13-13v-14c0-.551.449-1 1-1zm2.102 26.516-2.295-2.295c.418-.534.799-1.097 1.143-1.685l2.567 2.567c-.451.492-.922.963-1.415 1.413zm6.898-15.516c0 4.709-1.577 9.046-4.205 12.553l-2.907-2.907c.712-1.745 1.112-3.649 1.112-5.646v-14c0-1.654-1.346-3-3-3h-20.758l-3.795-3.795c3.507-2.628 7.844-4.205 12.553-4.205 11.58 0 21 9.42 21 21zm-35.102-15.516 2.516 2.516h-.414c-.678 0-1.297.234-1.799.615l-1.716-1.716c.449-.494.92-.965 1.413-1.415z"/><path d="m60 1h-56c-1.654 0-3 1.346-3 3v56c0 1.654 1.346 3 3 3h56c1.654 0 3-1.346 3-3v-56c0-1.654-1.346-3-3-3zm-56 2h56c.551 0 1 .449 1 1v7h-2v-6h-20v4.926c-2.234-.601-4.579-.926-7-.926-3.602 0-7.038.714-10.183 2h-18.817v-7c0-.551.449-1 1-1zm28 8c13.785 0 25 11.215 25 25s-11.215 25-25 25-25-11.215-25-25 11.215-25 25-25zm9-.452v-3.548h4v4h-2.817c-.39-.159-.784-.31-1.183-.452zm6-3.548h4v4h-4zm6 0h4v4h-4zm-49 54c-.551 0-1-.449-1-1v-47h14.877c-7.719 4.757-12.877 13.287-12.877 23 0 11.286 6.964 20.972 16.817 25zm56 0h-17.817c9.853-4.028 16.817-13.714 16.817-25 0-9.713-5.158-18.243-12.877-23h14.877v47c0 .551-.449 1-1 1z"/><path d="m5 5h2v2h-2z"/><path d="m9 5h2v2h-2z"/><path d="m13 5h2v2h-2z"/></g></g></svg>