<svg id="_x33_0" enable-background="new 0 0 64 64" height="512" viewBox="0 0 64 64" width="512" xmlns="http://www.w3.org/2000/svg"><g><g><g><path d="m9.33 38.93 2.31-2.05c.81-.73 1.53-1.55 2.13-2.44l.46.32c-1 1.94-1.23 2.95-1.23 4 0 .16.01.32.02.48l.67 10.09c.17 2.63 2.36 4.67 4.99 4.67h2.62c-.1.18-.2.35-.31.51l-1.24 1.86c-1.16 1.75-2.09 3.64-2.75 5.63h-8l-1.15-1.15c-.54-.54-.85-1.28-.85-2.05 0-1.1.62-2.11 1.61-2.6l.25-.13c1.31-.66 2.14-2 2.14-3.46 0-1.03-.41-2.02-1.13-2.74l-.83-.83c-1.31-1.31-2.04-3.08-2.04-4.92 0-1.98.85-3.87 2.33-5.19z" fill="#656d78"/></g><g><path d="m47.81 36.36c-.23.83-.68 1.58-1.27 2.18-.91.9-2.16 1.46-3.54 1.46-.33 0-.66-.02-.99-.06-4.5-.49-8.01-4.3-8.01-8.94v-5.53c.08-.08.16-.15.24-.23 1.09-1.08 1.76-2.58 1.76-4.24h2v-6h-2v-1c0-1.66-1.34-3-3-3h-.9c-1.89 0-3.61-.85-4.77-2.22l-1.55 1.03c-1.11.74-1.78 1.99-1.78 3.33v1.86h-2v6h2c0 2.22 1.21 4.16 3 5.2v2.18c0 .95-.66 1.76-1.58 1.96l-6.79 1.45c-1.64.35-3.05 1.26-4.05 2.49-.12.16-.24.32-.35.48l-.46-.32c1.44-2.13 2.23-4.66 2.23-7.28v-11.16c0-3.86 1.57-7.36 4.1-9.9 2.54-2.53 6.04-4.1 9.9-4.1 7.43 0 13.51 5.79 13.97 13.1.02.3.03.6.03.9v11.16c0 1.03.12 2.04.36 3.03.83.23 1.58.68 2.18 1.27.17.17.32.35.46.54.89 1.79 1 2.38 1 3 0 .47-.07.93-.19 1.36z" fill="#656d78"/></g><g><path d="m42 40 .01-.06c.33.04.66.06.99.06 1.38 0 2.63-.56 3.54-1.46.59-.6 1.04-1.35 1.27-2.18.18.18.36.35.55.52l2.31 2.05c.14.12.27.25.4.39 1.23 1.29 1.93 3.01 1.93 4.8 0 1.84-.73 3.61-2.04 4.92l-.83.83c-.72.72-1.13 1.71-1.13 2.74 0 1.46.83 2.8 2.14 3.46l.25.13c.99.49 1.61 1.5 1.61 2.6 0 .77-.31 1.51-.85 2.05l-1.15 1.15h-8c-.66-1.99-1.59-3.88-2.75-5.63l-1.24-1.86c-.66-.98-1.01-2.14-1.01-3.33v-3.18h4z" fill="#656d78"/></g><g><path d="m49 32-1-12-.21-.05c-2.23-.56-3.79-2.56-3.79-4.85v-5.1c0-.55.22-1.05.59-1.41.36-.37.86-.59 1.41-.59 1.79 0 3.38 1.15 3.95 2.85l6.73 20.19c.21.64.32 1.3.32 1.97 0 2.92-2.03 5.44-4.87 6.07l-1.06.24c-.13-.14-.26-.27-.4-.39l-2.31-2.05c-.19-.17-.37-.34-.55-.52.12-.43.19-.89.19-1.36 0-.62-.11-1.21-1-3z" fill="#f0d0b4"/></g><g><path d="m21.3 54h9.7c.83 0 1.58-.34 2.12-.88s.88-1.29.88-2.12c0-1.66-1.34-3-3-3h7v3.18c0 1.19.35 2.35 1.01 3.33l1.24 1.86c1.16 1.75 2.09 3.64 2.75 5.63h-26c.66-1.99 1.59-3.88 2.75-5.63l1.24-1.86c.11-.16.21-.33.31-.51z" fill="#f0d0b4"/></g><g><path d="m34 31c0 4.64 3.51 8.45 8.01 8.94l-.01.06h-12-10-2v8h13c1.66 0 3 1.34 3 3 0 .83-.34 1.58-.88 2.12s-1.29.88-2.12.88h-9.7-2.62c-2.63 0-4.82-2.04-4.99-4.67l-.67-10.09c-.01-.16-.02-.32-.02-.48 0-1.05.23-2.06 1.23-4 .11-.16.23-.32.35-.48 1-1.23 2.41-2.14 4.05-2.49l6.79-1.45c.92-.2 1.58-1.01 1.58-1.96v-2.18c.88.51 1.9.8 3 .8 1.54 0 2.94-.58 4-1.53z" fill="#f0d0b4"/></g><g><path d="m36 14v1h-12v-1.86c0-1.34.67-2.59 1.78-3.33l1.55-1.03c1.16 1.37 2.88 2.22 4.77 2.22h.9c1.66 0 3 1.34 3 3z" fill="#f0d0b4"/></g><g><path d="m24 21h12c0 1.66-.67 3.16-1.76 4.24-.08.08-.16.15-.24.23-1.06.95-2.46 1.53-4 1.53-1.1 0-2.12-.29-3-.8-1.79-1.04-3-2.98-3-5.2z" fill="#f0d0b4"/></g><g><path d="m42 40v8h-4-7-13v-8h2 10z" fill="#69d6f4"/></g><g><path d="m38 15v6h-2-12-2v-6h2 12z" fill="#69d6f4"/></g></g><g><circle cx="30" cy="58" r="1"/><path d="m58 33.01c0-.777-.125-1.546-.371-2.284l-6.732-20.196c-.703-2.112-2.671-3.53-4.897-3.53-1.269 0-2.349.794-2.787 1.909-2.535-4.704-7.506-7.909-13.213-7.909-8.271 0-15 6.729-15 15v11.162c0 3.424-1.468 6.693-4.028 8.97l-2.304 2.048c-1.695 1.507-2.668 3.672-2.668 5.941 0 2.123.827 4.12 2.329 5.622l.83.829c.542.543.841 1.265.841 2.033 0 1.096-.609 2.081-1.587 2.57l-.254.126c-1.332.669-2.159 2.007-2.159 3.495 0 1.044.406 2.025 1.144 2.763l1.442 1.441h42.828l1.442-1.441c.738-.738 1.144-1.719 1.144-2.763 0-1.488-.827-2.826-2.161-3.495l-.25-.124c-.98-.49-1.589-1.476-1.589-2.572 0-.769.299-1.49.842-2.033l.83-.829c1.501-1.502 2.328-3.499 2.328-5.622 0-1.501-.433-2.951-1.211-4.2 3.084-.893 5.211-3.659 5.211-6.911zm-10.54-2.01c-.608-.677-1.365-1.217-2.222-1.563-.146-.75-.238-1.511-.238-2.275v-7.614c.591.53 1.28.96 2.061 1.226l.852 10.226zm-30.46-15c0-7.168 5.832-13 13-13s13 5.832 13 13v11.162c0 .617.051 1.233.133 1.845-.045-.001-.088-.007-.133-.007-2.206 0-4 1.794-4 4s1.794 4 4 4h2v-2h-2c-1.103 0-2-.897-2-2s.897-2 2-2c2.206 0 4 1.794 4 4s-1.794 4-4 4c-4.411 0-8-3.589-8-8v-5.111c1.014-1.037 1.704-2.387 1.92-3.889h2.08v-8h-2c0-2.206-1.794-4-4-4h-.901c-2.479 0-4.632-1.765-5.119-4.196l-1.96.392c.168.838.479 1.619.904 2.319l-.697.465c-1.394.93-2.227 2.486-2.227 4.161v.859h-2v8h2.08c.282 1.955 1.369 3.651 2.92 4.736v1.647c0 .469-.333.88-.791.979l-6.784 1.454c-.77.165-1.494.444-2.162.809.48-1.425.737-2.93.737-4.463zm21.176 39.066 1.238 1.857c.855 1.282 1.573 2.649 2.149 4.076h-23.126c.576-1.427 1.294-2.794 2.149-4.076l1.238-1.856c.015-.022.026-.045.04-.067h9.136c2.206 0 4-1.794 4-4 0-.732-.212-1.409-.556-2h2.556v2.184c0 1.386.407 2.729 1.176 3.882zm-19.176-8.066v-6h22v6zm12-8v-2h-2v2h-7.848c.175-.638.498-1.235.969-1.707l.586-.586-1.414-1.414-.586.586c-.847.847-1.407 1.949-1.614 3.121h-2.093v10h14c1.103 0 2 .897 2 2s-.897 2-2 2h-12.322c-2.099 0-3.852-1.64-3.991-3.733l-.673-10.094c-.009-.137-.014-.274-.014-.41 0-2.871 2.037-5.391 4.844-5.992l6.784-1.454c1.374-.295 2.372-1.528 2.372-2.934v-.678c.634.19 1.305.295 2 .295 1.075 0 2.089-.251 3-.685v3.685c0 3.273 1.588 6.175 4.026 8zm-3.801-28.931c1.3 1.203 3.031 1.931 4.9 1.931h.901c1.103 0 2 .897 2 2h-10v-.859c0-1.005.5-1.938 1.336-2.496zm9.801 5.931v4h-14v-4zm-2.101 6c-.465 2.279-2.484 4-4.899 4s-4.434-1.721-4.899-4zm-26.341 38.145c-.36-.361-.558-.839-.558-1.349 0-.727.404-1.38 1.052-1.704l.253-.126c1.662-.831 2.695-2.502 2.695-4.361 0-1.303-.507-2.526-1.428-3.447l-.83-.829c-1.123-1.124-1.742-2.619-1.742-4.208 0-1.698.728-3.319 1.997-4.447l2.063-1.833c-.036.304-.06.61-.06.922 0 .18.006.359.018.541l.673 10.096c.209 3.14 2.839 5.6 5.987 5.6h.787l-.543.814c-1.078 1.618-1.949 3.362-2.617 5.186h-6.891zm41.699-11.816-.83.829c-.92.921-1.427 2.145-1.427 3.447 0 1.858 1.033 3.529 2.697 4.361l.249.124c.65.326 1.054.979 1.054 1.706 0 .51-.198.988-.558 1.349l-.856.855h-6.891c-.668-1.823-1.539-3.568-2.617-5.186l-1.238-1.857c-.549-.824-.84-1.783-.84-2.773v-2.184h4v-8c2.199 0 4.119-1.192 5.164-2.961l1.839 1.635c1.269 1.128 1.997 2.749 1.997 4.447 0 1.589-.619 3.084-1.743 4.208zm1.655-10.223-.534.119c-.016-.014-.03-.031-.046-.045l-2.302-2.046c-.042-.038-.081-.078-.123-.116.057-.332.093-.67.093-1.018 0-.702-.128-1.373-.35-2h3.35v-2h-2.08l-.983-11.798-.907-.225c-1.784-.446-3.03-2.042-3.03-3.881v-5.096c0-.552.449-1 1-1 1.363 0 2.569.869 3 2.162l6.732 20.196c.178.535.268 1.09.268 1.652 0 2.466-1.681 4.561-4.088 5.096z"/></g></g></svg>