<svg id="_x33_0" enable-background="new 0 0 64 64" height="512" viewBox="0 0 64 64" width="512" xmlns="http://www.w3.org/2000/svg"><g><g><g><path d="m62 59v2c0 .55-.45 1-1 1h-58c-.55 0-1-.45-1-1v-2c0-.55.45-1 1-1h13 16 6 6 14 3c.55 0 1 .45 1 1z" fill="#838f9b"/></g><g><path d="m53.94 26.5c1.23-.69 2.06-2 2.06-3.5 0-1.1-.45-2.1-1.17-2.83-.73-.72-1.73-1.17-2.83-1.17-.55 0-1.05.22-1.41.59-.37.36-.59.86-.59 1.41v-7c0-3.32-1.34-6.32-3.51-8.49s-5.17-3.51-8.49-3.51c-6.63 0-12 5.37-12 12v7c0-.55-.22-1.05-.59-1.41-.36-.37-.86-.59-1.41-.59-1.1 0-2.1.45-2.83 1.17-.72.73-1.17 1.73-1.17 2.83 0 1.5.83 2.81 2.06 3.5-1.23.68-2.06 1.99-2.06 3.5 0 .35.04.68.13 1h7.87 5 1l.74-3.69c-.9-.4-1.71-.97-2.4-1.65-.5-.5-.93-1.07-1.28-1.69-.67-1.17-1.06-2.52-1.06-3.97v-1-4-1.74c0-1.4.74-2.7 1.94-3.43l3.06-1.83h.01c.06.8.4 1.51.94 2.05.59.59 1.39.95 2.29.95h3.76c.81 0 1.51-.49 1.82-1.18l1.01 1.01c.75.75 1.17 1.77 1.17 2.83v1.34 4 1c0 1.45-.39 2.8-1.06 3.97-.83 1.47-2.13 2.65-3.68 3.34l.74 3.69.95.18 5.05.94v.01l4.29.8c.6.11 1.16.3 1.69.55 1.21-.69 2.02-1.99 2.02-3.48 0-1.51-.83-2.82-2.06-3.5z" fill="#b27946"/></g><g><path d="m48 48v-15.87l4.29.8c.6.11 1.16.3 1.69.55 2.41 1.13 4.02 3.57 4.02 6.33v18.19h-14v-4-6z" fill="#aab2bd"/></g><g><path d="m48 32.13v15.87h-4-4v-4h3c.55 0 1-.45 1-1v-4c0-.55-.45-1-1-1h-2l1.95-6.82 5.05.94z" fill="#e6e9ed"/></g><g><path d="m46 19v1c0 1.45-.39 2.8-1.06 3.97-.83 1.47-2.13 2.65-3.68 3.34-1 .44-2.1.69-3.26.69s-2.26-.25-3.26-.69c-.9-.4-1.71-.97-2.4-1.65-.5-.5-.93-1.07-1.28-1.69-.67-1.17-1.06-2.52-1.06-3.97v-1h5c.55 0 1-.45 1-1v-1h4v1c0 .55.45 1 1 1z" fill="#f0d0b4"/></g><g><path d="m46 15v4h-5c-.55 0-1-.45-1-1v-1-1c0-.55.45-1 1-1z" fill="#69d6f4"/></g><g><path d="m46 13.66v1.34h-5c-.55 0-1 .45-1 1v1h-4v-1c0-.55-.45-1-1-1h-5v-1.74c0-1.4.74-2.7 1.94-3.43l3.06-1.83h.01c.06.8.4 1.51.94 2.05.59.59 1.39.95 2.29.95h3.76c.81 0 1.51-.49 1.82-1.18l1.01 1.01c.75.75 1.17 1.77 1.17 2.83z" fill="#f0d0b4"/></g><g><path d="m44 54v4h-6c.55 0 1.05-.22 1.41-.59.37-.36.59-.86.59-1.41v-2z" fill="#e6e9ed"/></g><g><path d="m44 48v6h-4-1c-1.66 0-3-1.34-3-3 0-.83.34-1.58.88-2.12s1.29-.88 2.12-.88h1z" fill="#f0d0b4"/></g><g><path d="m44 39v4c0 .55-.45 1-1 1h-3-4-3c-.55 0-1-.45-1-1v-4c0-.55.45-1 1-1h2 6 2c.55 0 1 .45 1 1z" fill="#dfb28b"/></g><g><path d="m42.95 31.18-1.95 6.82-3-4 4-3z" fill="#ccd1d9"/></g><g><path d="m41.26 27.31.74 3.69-4 3-4-3 .74-3.69c1 .44 2.1.69 3.26.69s2.26-.25 3.26-.69z" fill="#f0d0b4"/></g><g><path d="m38 34 3 4h-6z" fill="#e6e9ed"/></g><g><path d="m40 54v2c0 .55-.22 1.05-.59 1.41-.36.37-.86.59-1.41.59-1.1 0-2-.9-2-2v-5c0 1.66 1.34 3 3 3z" fill="#d3a06c"/></g><g><path d="m40 44v4h-1c-.83 0-1.58.34-2.12.88s-.88 1.29-.88 2.12v-7z" fill="#d3a06c"/></g><g><path d="m38 34-3 4-2-7h1z" fill="#ccd1d9"/></g><g><path d="m38 58h-6l-2-4h-2v-23h5l2 7h-2c-.55 0-1 .45-1 1v4c0 .55.45 1 1 1h3v7 5c0 1.1.9 2 2 2z" fill="#e6e9ed"/></g><g><path d="m36 17v1c0 .55-.45 1-1 1h-5v-4h5c.55 0 1 .45 1 1z" fill="#69d6f4"/></g><g><path d="m30 54 2 4h-16v-3c0-.55.45-1 1-1h5 6z" fill="#b27946"/></g><g><path d="m16 31h4.13 7.87v23h-6v-13h-12c-2.21 0-4-1.79-4-4v-16c0-.55.45-1 1-1h1 6 1c.55 0 1 .45 1 1z" fill="#aab2bd"/></g><g><path d="m14 12c1.1 0 2 .9 2 2v2.34c0 1.06-.42 2.08-1.17 2.83l-.83.83h-6l-.54-.54c-.93-.93-1.46-2.2-1.46-3.53v-5.93c0-2.21 1.79-4 4-4 1.1 0 2.1.45 2.83 1.17.72.73 1.17 1.73 1.17 2.83z" fill="#f0d0b4"/></g></g><g><path d="m38 25c1.615 0 3.067-.897 3.789-2.342l.105-.211-1.789-.895-.105.212c-.381.762-1.147 1.236-2 1.236s-1.619-.474-2-1.236l-.105-.211-1.789.895.105.211c.722 1.444 2.174 2.341 3.789 2.341z"/><path d="m61 57h-2v-17.19c0-2.627-1.281-5-3.296-6.468.816-.907 1.296-2.091 1.296-3.342 0-1.328-.532-2.578-1.438-3.5.887-.903 1.438-2.138 1.438-3.5 0-2.757-2.243-5-5-5-.352 0-.686.072-1 .184v-4.184c0-7.168-5.832-13-13-13s-13 5.832-13 13v4.184c-.314-.112-.648-.184-1-.184-2.757 0-5 2.243-5 5 0 1.362.551 2.597 1.438 3.499-.906.923-1.438 2.172-1.438 3.501h-2v-9c0-.729-.396-1.361-.98-1.711.627-.852.98-1.869.98-2.946v-2.343c0-1.302-.839-2.402-2-2.816v-1.184c0-2.757-2.243-5-5-5s-5 2.243-5 5v5.929c0 1.207.355 2.36 1.016 3.341-.604.345-1.016.987-1.016 1.73v16c0 2.757 2.243 5 5 5h11v11h-4c-1.103 0-2 .897-2 2v2h-12c-1.103 0-2 .897-2 2v2c0 1.103.897 2 2 2h58c1.103 0 2-.897 2-2v-2c0-1.103-.897-2-2-2zm-4-17.19v17.19h-12v-8h8v-2h-4v-13.67l3.106.583c2.836.53 4.894 3.011 4.894 5.897zm-24.382 17.19-2-4h-1.618v-21h3.246l1.429 5h-.675c-1.103 0-2 .897-2 2v4c0 1.103.897 2 2 2h2v11c0 .352.072.686.184 1zm1.779-47.472c.672 1.455 2.135 2.472 3.839 2.472h3.764c.722 0 1.376-.267 1.894-.693l.228.228c.566.567.878 1.32.878 2.122v.343h-4c-1.103 0-2 .897-2 2h-2c0-1.103-.897-2-2-2h-4v-.735c0-1.048.558-2.033 1.457-2.572zm10.603 8.472h-4v-2h4zm-14-2h4v2h-4zm0 4h4c1.103 0 2-.897 2-2h2c0 1.103.897 2 2 2h4c0 3.859-3.14 7-7 7s-7-3.141-7-7zm10 27v-2h2c1.103 0 2-.897 2-2v-4c0-1.103-.897-2-2-2h-.674l1.335-4.672 3.339.627v14.045zm2 6h-4c-1.103 0-2-.897-2-2s.897-2 2-2h4zm-3.6-18.8 2.095-1.571-.903 3.161zm-.4 2.8h-2l1-1.334zm-3.592-1.21-.903-3.161 2.095 1.571zm7.592 3.21.001 4h-10.001v-4zm-6 6h2v2c-.732 0-1.409.212-2 .556zm1-16c.871 0 1.711-.131 2.508-.363l.388 1.941-2.896 2.172-2.896-2.172.388-1.941c.797.232 1.637.363 2.508.363zm-1 27v-1.556c.591.344 1.268.556 2 .556v1c0 .552-.449 1-1 1s-1-.448-1-1zm4 0v-1h2v2h-2.184c.112-.314.184-.648.184-1zm11.474-24.053-9.626-1.805-.458-2.293c1.019-.572 1.914-1.336 2.639-2.243 1.445 1.511 3.443 2.394 5.576 2.394h1.395c.643 0 1.252-.132 1.817-.354.728.564 1.183 1.418 1.183 2.354 0 .921-.444 1.768-1.155 2.333-.438-.167-.896-.297-1.371-.386zm-28.474-11.947c.551 0 1 .448 1 1s-.449 1-1 1h-1v2h1c1.654 0 3-1.346 3-3v-7c0-6.065 4.935-11 11-11s11 4.935 11 11v7c0 1.654 1.346 3 3 3h1v-2h-1c-.551 0-1-.448-1-1s.449-1 1-1c1.654 0 3 1.346 3 3s-1.346 3-3 3h-1.395c-1.757 0-3.393-.805-4.476-2.164.553-1.165.871-2.463.871-3.836v-6.343c0-1.336-.52-2.592-1.465-3.536l-.589-.588c.031-.174.054-.351.054-.533 0-1.654-1.346-3-3-3h-1v2h1c.551 0 1 .448 1 1s-.449 1-1 1h-3.764c-1.233 0-2.236-1.003-2.236-2.236 0-.345.082-.691.236-1l.658-1.316-1.789-.895-.658 1.316c-.241.483-.383 1.014-.427 1.553l-2.593 1.556c-1.497.898-2.427 2.541-2.427 4.287v6.735c0 1.373.318 2.671.871 3.836-1.084 1.359-2.719 2.164-4.476 2.164h-1.395c-1.654 0-3-1.346-3-3s1.346-3 3-3zm-1.817 7.646c.565.222 1.175.354 1.817.354h1.395c2.133 0 4.131-.883 5.577-2.394.725.907 1.62 1.671 2.639 2.243l-.431 2.151h-12.18c0-.937.455-1.791 1.183-2.354zm-15.183-17.646c0-1.654 1.346-3 3-3s3 1.346 3 3v1.184c-1.161.414-2 1.514-2 2.816v1h2v-1c0-.552.449-1 1-1s1 .448 1 1v2.343c0 .802-.312 1.556-.878 2.122l-.536.535h-5.172l-.242-.242c-.756-.756-1.172-1.761-1.172-2.829zm14 28v2h-11c-1.654 0-3-1.346-3-3v-16h8v9.586l-2.707 2.707 1.414 1.414 2.707-2.707h10.586v21h-4v-15zm-4 17h12.382l1 2h-13.382zm-14 6v-2h58l.001 2z"/></g></g></svg>