<svg id="_x33_0" enable-background="new 0 0 64 64" height="512" viewBox="0 0 64 64" width="512" xmlns="http://www.w3.org/2000/svg"><g><g><g><path d="m56 52v1c0 4.97-4.03 9-9 9h-36c-4.97 0-9-4.03-9-9v-1c0-1.1.9-2 2-2h4 6 18 6 12 4c1.1 0 2 .9 2 2z" fill="#969faa"/></g><g><path d="m38 55v2c0 .55-.45 1-1 1h-4c-.55 0-1-.45-1-1v-2c0-.55.45-1 1-1h4c.55 0 1 .45 1 1z" fill="#fcd770"/></g><g><path d="m48 55v2c0 .55-.45 1-1 1h-4c-.55 0-1-.45-1-1v-2c0-.55.45-1 1-1h4c.55 0 1 .45 1 1z" fill="#fcd770"/></g><g><path d="m34 10v4h-18-7c-.55 0-1 .45-1 1v28.93 6.07h-4v-36c0-2.21 1.79-4 4-4z" fill="#ccd1d9"/></g><g><path d="m54 30v20h-4v-8-4-8z" fill="#ccd1d9"/></g><g><path d="m50 50h-42v-35c0-.552.448-1 1-1h41z" fill="#69d6f4"/></g><g><path d="m14 37v13h-6v-6.07c0-3.12 2.06-5.83 4.99-6.7.28-.08.57-.15.86-.2z" fill="#f0d0b4"/></g><g><path d="m38 43.93v6.07h-6v-13l.15.03c.66.11 1.28.31 1.86.58 2.39 1.14 3.99 3.57 3.99 6.32z" fill="#f0d0b4"/></g><g><path d="m32 37v13h-18v-13l4-.67v2.67c0 2.76 2.24 5 5 5 1.38 0 2.63-.56 3.54-1.46.9-.91 1.46-2.16 1.46-3.54v-2.67z" fill="#b4dd7f"/></g><g><path d="m18.63 36.27c1.15 1.07 2.69 1.73 4.37 1.73 1.71 0 3.26-.67 4.41-1.77l.59.1v2.67c0 1.38-.56 2.63-1.46 3.54-.91.9-2.16 1.46-3.54 1.46-2.76 0-5-2.24-5-5v-2.67l.59-.1c.01.01.03.03.04.04z" fill="#f0d0b4"/></g><g><path d="m16.63 32.01c.1 1.66.84 3.15 1.96 4.22l-.59.1-4 .67-.15.03c-.29.05-.58.12-.86.2-.61-.55-.99-1.35-.99-2.23 0-.77.29-1.47.77-2-.48-.53-.77-1.23-.77-2 0-1.18.67-2.19 1.66-2.68l-.52-1.05c-.75-1.49-1.14-3.14-1.14-4.81 0-2.86 1.13-5.59 3.15-7.61l.85-.85h18v13.38c-.04.09-.09.19-.14.28l-.52 1.04c.99.49 1.66 1.51 1.66 2.69 0 .77-.29 1.47-.77 2 .48.53.77 1.23.77 2 0 .88-.38 1.67-.99 2.22-.58-.27-1.2-.47-1.86-.58l-.15-.03-4-.67-.59-.1c1.13-1.08 1.85-2.55 1.96-4.22l.63-10.01c-2.62-.65-5.01-2.01-6.92-3.92l-.08-.08-.08.08c-1.91 1.91-4.3 3.27-6.92 3.92z" fill="#656d78"/></g><g><path d="m16 22c2.62-.65 5.01-2.01 6.92-3.92l.08-.08.08.08c1.91 1.91 4.3 3.27 6.92 3.92l-.63 10.01c-.11 1.67-.83 3.14-1.96 4.22-1.15 1.1-2.7 1.77-4.41 1.77-1.68 0-3.22-.66-4.37-1.73-.01-.01-.03-.03-.04-.04-1.12-1.07-1.86-2.56-1.96-4.22z" fill="#f0d0b4"/></g><g><path d="m26 28v3c0 1.66-1.34 3-3 3-.83 0-1.58-.34-2.12-.88s-.88-1.29-.88-2.12v-3z" fill="#ff826e"/></g><g><path d="m34 14v-4c0-1.1.9-2 2-2h20.17.01c.4 1.17 1.51 2 2.82 2 1.04 0 1.95-.52 2.49-1.32.32.35.51.81.51 1.32v18c0 1.1-.9 2-2 2h-6-4l-3.59 3.59c-.26.26-.62.41-1 .41-.78 0-1.41-.63-1.41-1.41v-2.59h-8c-1.1 0-2-.9-2-2v-.62z" fill="#f0d0b4"/></g><g><path d="m54 26h-12c-1.105 0-2-.895-2-2 0-1.105.895-2 2-2h12c1.105 0 2 .895 2 2 0 1.105-.895 2-2 2z" fill="#ff826e"/></g><g><path d="m44 12.56v3.44c0 1.1-.9 2-2 2-.55 0-1.05-.22-1.41-.59-.37-.36-.59-.86-.59-1.41v-2.08c1.42-.17 2.78-.64 4-1.36z" fill="#838f9b"/></g><g><path d="m56 13.92v2.08c0 .55-.22 1.05-.59 1.41-.36.37-.86.59-1.41.59-1.1 0-2-.9-2-2v-3.44c1.22.72 2.58 1.19 4 1.36z" fill="#838f9b"/></g><g><path d="m62 7c0 .62-.19 1.19-.51 1.67v.01c-.54.8-1.45 1.32-2.49 1.32-1.31 0-2.42-.83-2.82-2-.12-.31-.18-.65-.18-1 0-1.66 3-5 3-5s3 3.34 3 5z" fill="#e6e9ed"/></g></g><g><path d="m39 16c0 1.654 1.346 3 3 3s3-1.346 3-3v-2.889c.607-.407 1.179-.876 1.707-1.404l-1.414-1.414c-1.746 1.746-4.067 2.707-6.536 2.707h-1.757v2h1.757c.082 0 .161-.01.243-.012zm4 0c0 .551-.449 1-1 1s-1-.449-1-1v-1.224c.687-.138 1.356-.342 2-.604z"/><path d="m50.707 10.293-1.414 1.414c.528.528 1.1.997 1.707 1.404v2.889c0 1.654 1.346 3 3 3s3-1.346 3-3v-1.012c.081.002.161.012.243.012h1.757v-2h-1.757c-2.469 0-4.79-.961-6.536-2.707zm4.293 5.707c0 .551-.449 1-1 1s-1-.449-1-1v-1.828c.644.262 1.313.466 2 .604z"/><path d="m54 21h-12c-1.654 0-3 1.346-3 3s1.346 3 3 3h12c1.654 0 3-1.346 3-3s-1.346-3-3-3zm-5 2h2v2h-2zm-2 2h-2v-2h2zm-6-1c0-.551.449-1 1-1h1v2h-1c-.551 0-1-.449-1-1zm13 1h-1v-2h1c.551 0 1 .449 1 1s-.449 1-1 1z"/><path d="m63 7c0-1.941-2.712-5.062-3.256-5.668l-.744-.829-.744.829c-.544.606-3.256 3.727-3.256 5.668h-19c-1.302 0-2.402.839-2.816 2h-25.184c-2.757 0-5 2.243-5 5v35.184c-1.161.414-2 1.514-2 2.816v1c0 5.514 4.486 10 10 10h36c5.514 0 10-4.486 10-10v-1c0-1.302-.839-2.402-2-2.816v-18.184h5c1.654 0 3-1.346 3-3v-18c0-.487-.128-.957-.349-1.381.221-.496.349-1.042.349-1.619zm-4-3.451c1.063 1.332 2 2.831 2 3.451 0 1.103-.897 2-2 2s-2-.897-2-2c0-.637.939-2.125 2-3.451zm-13.586 31.451c.645 0 1.251-.251 1.707-.707l1.879-1.879v4.586h-8v2h8v2h-8v2h8v6h-10v-5.07c0-2.739-1.37-5.179-3.513-6.625.321-.585.513-1.238.513-1.918 0-.709-.188-1.397-.538-2 .351-.603.538-1.291.538-2 0-.134-.029-.26-.042-.391.014 0 .028.004.042.004h7v1.586c0 1.331 1.083 2.414 2.414 2.414zm-12.414-7.858-1 2.007.895.447c.682.341 1.105 1.028 1.105 1.791 0 .493-.182.964-.511 1.329l-.608.671.608.671c.329.364.511.836.511 1.329 0 .362-.107.709-.287 1.014-.447-.16-.914-.282-1.397-.363l-3.061-.51c.636-1.012 1.039-2.187 1.118-3.454l.677-10.842-.807-.202c-2.441-.61-4.672-1.873-6.451-3.652l-.792-.792-.792.792c-1.779 1.779-4.01 3.042-6.451 3.652l-.807.202.678 10.842c.079 1.268.482 2.443 1.118 3.455l-3.061.51c-.116.019-.228.049-.342.073-.218-.327-.343-.712-.343-1.112 0-.493.182-.965.511-1.329l.608-.671-.608-.671c-.329-.365-.511-.836-.511-1.329 0-.764.423-1.45 1.105-1.791l.895-.447-.969-1.937c-.675-1.348-1.031-2.858-1.031-4.366 0-2.608 1.016-5.061 2.86-6.905l.554-.554h16.586zm-4.624 4.807c-.177 2.832-2.538 5.051-5.376 5.051s-5.199-2.218-5.376-5.051l-.575-9.203c2.204-.676 4.235-1.825 5.951-3.365 1.716 1.54 3.747 2.688 5.952 3.365zm-9.376 5.869c1.157.748 2.531 1.182 4 1.182 1.468 0 2.843-.434 4-1.182v1.182c0 2.206-1.794 4-4 4s-4-1.794-4-4zm-8-15.359c0 1.816.429 3.636 1.242 5.262l.129.259c-.863.748-1.371 1.837-1.371 3.02 0 .709.188 1.397.538 2-.35.603-.538 1.291-.538 2 0 .623.159 1.226.43 1.773-.933.463-1.755 1.097-2.43 1.862v-23.635h4.666c-1.727 2.098-2.666 4.706-2.666 7.459zm2 15.816v10.725h-4v-5.07c0-2.59 1.631-4.823 4-5.655zm2-.428 2-.333v1.486c0 3.309 2.691 6 6 6s6-2.691 6-6v-1.486l2 .333v11.153h-16zm18 .428c2.369.832 4 3.066 4 5.655v5.07h-4zm-25-27.275h25v2h-24c-1.103 0-2 .897-2 2v34h-2v-35c0-1.654 1.346-3 3-3zm47 42c0 4.411-3.589 8-8 8h-36c-4.411 0-8-3.589-8-8v-1c0-.551.449-1 1-1h50c.551 0 1 .449 1 1zm-2-4h-2v-18h2zm7-20h-10.414l-3.879 3.879c-.238.238-.707.045-.707-.293v-3.586h-9c-.551 0-1-.449-1-1v-18c0-.551.449-1 1-1h19.556c.694 1.19 1.97 2 3.444 2 .732 0 1.409-.212 2-.556v17.556c0 .551-.449 1-1 1z"/><path d="m47 53h-4c-1.103 0-2 .897-2 2v2c0 1.103.897 2 2 2h4c1.103 0 2-.897 2-2v-2c0-1.103-.897-2-2-2zm-4 4v-2h4l.001 2z"/><path d="m37 53h-4c-1.103 0-2 .897-2 2v2c0 1.103.897 2 2 2h4c1.103 0 2-.897 2-2v-2c0-1.103-.897-2-2-2zm-4 4v-2h4l.001 2z"/><circle cx="20" cy="24" r="1"/><circle cx="26" cy="24" r="1"/><path d="m19 31c0 2.206 1.794 4 4 4s4-1.794 4-4v-4h-8zm2-2h4v2c0 1.103-.897 2-2 2s-2-.897-2-2z"/><path d="m41 45h2v2h-2z"/><path d="m45 45h2v2h-2z"/></g></g></svg>