<svg id="_x33_0" enable-background="new 0 0 64 64" height="512" viewBox="0 0 64 64" width="512" xmlns="http://www.w3.org/2000/svg"><g><g><g><path d="m45 59v2c0 .55-.45 1-1 1h-24c-.55 0-1-.45-1-1v-2c0-.55.45-1 1-1h3 18 3c.55 0 1 .45 1 1z" fill="#969faa"/></g><g><path d="m40 54 1 4h-18l1-4z" fill="#aab2bd"/></g><g><path d="m62 46v6c0 1.1-.9 2-2 2h-20-16-20c-1.1 0-2-.9-2-2v-6h6 17 14 17z" fill="#ccd1d9"/></g><g><path d="m62 46h-60v-32c0-1.105.895-2 2-2h56c1.105 0 2 .895 2 2z" fill="#69d6f4"/></g><g><path d="m20 38 5 8h-17l.6-.6c4.02-4.02 6.6-9.27 7.34-14.91l3.06 5.51z" fill="#969faa"/></g><g><path d="m56 46h-17l5-8 1-2 3.06-5.51c.74 5.64 3.32 10.89 7.34 14.91z" fill="#969faa"/></g><g><path d="m50 19v4.37c0 2.38-.61 4.72-1.76 6.8l-.18.32-3.06 5.51-1 2-5 8h-14l-5-8-1-2-3.06-5.51-.18-.32c-1.15-2.08-1.76-4.42-1.76-6.8v-4.37c0-2.5.54-4.87 1.51-7 2.66-5.9 8.6-10 15.49-10h1 1c6.89 0 12.83 4.1 15.49 10 .97 2.13 1.51 4.5 1.51 7z" fill="#aab2bd"/></g><g><path d="m46 19.05c0 2.58-.76 5.09-2.19 7.24l-.79 1.18c-2 3-3.55 6.29-4.58 9.74-.86 2.84-3.47 4.79-6.44 4.79-1.48 0-2.88-.49-4.01-1.33s-2-2.04-2.43-3.46c-1.03-3.45-2.58-6.74-4.58-9.74l-.79-1.18c-1.43-2.15-2.19-4.66-2.19-7.24 0-7.21 5.84-13.05 13.05-13.05h1.9c3.61 0 6.87 1.46 9.23 3.82s3.82 5.62 3.82 9.23z" fill="#e6e9ed"/></g><g><path d="m30 16.12v.88c0 2.76-2.24 5-5 5h-.88c-1.17 0-2.12-.95-2.12-2.12 0-.56.22-1.1.62-1.5l3.76-3.76c.4-.4.94-.62 1.5-.62.58 0 1.12.24 1.5.62s.62.92.62 1.5z" fill="#838f9b"/></g><g><path d="m41.38 18.38c.4.4.62.94.62 1.5 0 1.17-.95 2.12-2.12 2.12h-.88c-2.76 0-5-2.24-5-5v-.88c0-.58.24-1.12.62-1.5s.92-.62 1.5-.62c.56 0 1.1.22 1.5.62z" fill="#838f9b"/></g><g><path d="m36 27.62c0 .25-.03.51-.07.75l-1.54 7.67c-.23 1.14-1.23 1.96-2.39 1.96s-2.16-.82-2.39-1.96l-1.54-7.67c-.04-.24-.07-.5-.07-.75 0-.9.72-1.62 1.62-1.62.25 0 .5.06.72.17.52.26 1.09.39 1.66.39s1.14-.13 1.66-.39c.22-.11.47-.17.72-.17.9 0 1.62.72 1.62 1.62z" fill="#838f9b"/></g></g><g><path d="m29.618 25c-1.443 0-2.618 1.174-2.618 2.618 0 .318.032.639.095.952l1.532 7.665c.321 1.603 1.739 2.765 3.373 2.765s3.052-1.162 3.373-2.765l1.532-7.665c.063-.313.095-.634.095-.952 0-1.444-1.175-2.618-2.618-2.618-.404 0-.81.096-1.171.276-.758.379-1.664.379-2.422 0-.361-.18-.767-.276-1.171-.276zm4.487 2.065c.388-.196.896.117.895.553 0 .187-.019.375-.056.561l-1.532 7.664c-.135.67-.728 1.157-1.412 1.157s-1.277-.487-1.412-1.157l-1.532-7.665c-.037-.185-.056-.373-.056-.56 0-.341.277-.618.618-.618.096 0 .191.022.276.065 1.319.66 2.893.66 4.211 0z"/><path d="m24.121 23h.879c3.309 0 6-2.691 6-6v-.879c0-1.721-1.4-3.121-3.121-3.121-.822 0-1.626.333-2.207.914l-3.758 3.758c-.59.589-.914 1.373-.914 2.207 0 1.721 1.4 3.121 3.121 3.121zm-.793-3.914 3.758-3.758c.209-.208.498-.328.793-.328.618 0 1.121.503 1.121 1.121v.879c0 2.206-1.794 4-4 4h-.879c-.618 0-1.121-.503-1.121-1.121 0-.3.116-.581.328-.793z"/><path d="m39 23h.879c1.721 0 3.121-1.4 3.121-3.121 0-.834-.324-1.618-.914-2.207l-3.758-3.758c-.581-.581-1.385-.914-2.207-.914-1.721 0-3.121 1.4-3.121 3.121v.879c0 3.309 2.691 6 6 6zm-4-6.879c0-.618.503-1.121 1.121-1.121.295 0 .584.12.793.328l3.758 3.758c.212.212.328.493.328.793 0 .618-.503 1.121-1.121 1.121h-.879c-2.206 0-4-1.794-4-4z"/><path d="m20.15 28.028c1.946 2.919 3.445 6.105 4.455 9.47.988 3.291 3.959 5.502 7.395 5.502s6.407-2.211 7.395-5.502c1.01-3.364 2.509-6.551 4.455-9.47l.791-1.186c1.544-2.316 2.359-5.01 2.359-7.793 0-7.747-6.303-14.049-14.049-14.049h-1.902c-7.746 0-14.049 6.302-14.049 14.049 0 2.783.815 5.478 2.359 7.793zm10.899-21.028h1.902c6.644 0 12.049 5.405 12.049 12.049 0 2.387-.7 4.698-2.023 6.684l-.791 1.186c-2.057 3.083-3.64 6.45-4.707 10.005-.732 2.438-2.933 4.076-5.479 4.076s-4.747-1.638-5.479-4.076c-1.067-3.555-2.65-6.921-4.707-10.005l-.791-1.186c-1.323-1.986-2.023-4.297-2.023-6.684 0-6.644 5.405-12.049 12.049-12.049z"/><path d="m60 11h-10.899c-2.953-5.917-9.052-10-16.101-10h-1-1c-7.049 0-13.148 4.083-16.101 10h-10.899c-1.654 0-3 1.346-3 3v38c0 1.654 1.346 3 3 3h18.72l-.5 2h-2.22c-1.103 0-2 .897-2 2v2c0 1.103.897 2 2 2h24c1.103 0 2-.897 2-2v-2c0-1.103-.897-2-2-2h-2.22l-.5-2h18.72c1.654 0 3-1.346 3-3v-38c0-1.654-1.346-3-3-3zm0 2c.552 0 1 .449 1 1v31h-4.586l-.304-.304c-3.774-3.774-6.247-8.746-7.006-14.025l.008-.015c1.236-2.222 1.888-4.741 1.888-7.284v-4.372c0-2.106-.383-4.12-1.05-6zm-29-10h1 1c8.822 0 16 7.178 16 16v4.372c0 2.204-.565 4.387-1.636 6.313l-3.238 5.829 1.748.971 1.724-3.103c1.034 4.3 3.13 8.312 6.077 11.617h-12.871l4.044-6.47-1.695-1.061-4.707 7.532h-12.892l-4.706-7.53-1.695 1.061 4.043 6.469h-12.871c2.947-3.305 5.043-7.317 6.077-11.617l1.724 3.102 1.748-.971-3.238-5.829c-1.071-1.926-1.636-4.109-1.636-6.313v-4.372c0-8.822 7.178-16 16-16zm-27 10h10.05c-.667 1.88-1.05 3.894-1.05 6v4.372c0 2.542.652 5.062 1.888 7.285l.008.014c-.759 5.279-3.232 10.251-7.006 14.025l-.304.304h-4.586v-31c0-.551.448-1 1-1zm40.002 48h-24.002v-2h24zm-4.282-4h-15.44l.5-2h14.44zm20.28-4h-56c-.552 0-1-.448-1-1v-5h58v5c0 .552-.448 1-1 1z"/><path d="m55 49h2v2h-2z"/><path d="m51 49h2v2h-2z"/><path d="m47 49h2v2h-2z"/></g></g></svg>