<svg id="_x33_0" enable-background="new 0 0 64 64" height="512" viewBox="0 0 64 64" width="512" xmlns="http://www.w3.org/2000/svg"><g><g><g><path d="m58 37.13c.94.67 1.76 1.51 2.41 2.48 1.04 1.56 1.59 3.39 1.59 5.26v6.13h-6v11h-9c-1.84-3.68-5.6-6-9.71-6h-5.29c3.99 0 7.37-2.6 8.55-6.19l.39.13.89.89c.75.75 1.77 1.17 2.83 1.17h3.34l-.86-2.58c-.62-1.85-2.25-3.16-4.15-3.38l.44-1.32c.38-1.14.57-2.33.57-3.54 0-2.12-.59-4.1-1.62-5.79l.21.2c.9.9 2.13 1.41 3.41 1.41s2.51-.51 3.41-1.41l.59-.59 3.69.46c1.57.2 3.05.78 4.31 1.67z" fill="#b4dd7f"/></g><g><path d="m8 52h-6v-4.85c0-2.66 1.06-5.21 2.94-7.09 1.34-1.34 3.05-2.28 4.91-2.69l3.31-.74 1.84 7.37 5.03-2.01h.01c.17 1.46.32 2.1.53 2.73l.44 1.32c-1.9.22-3.53 1.53-4.15 3.38l-.86 2.58h3.34c1.06 0 2.08-.42 2.83-1.17l.9-.9.38-.13c.44 1.36 1.2 2.58 2.19 3.56 1.62 1.63 3.88 2.64 6.36 2.64h-5.29c-4.11 0-7.87 2.32-9.71 6h-9z" fill="#fcd770"/></g><g><path d="m16 36 4.06 4.06c-.04.37-.06.74-.06 1.12 0 .27.01.54.04.81h-.01l-5.03 2.01-1.84-7.37z" fill="#ffc729"/></g><g><path d="m47 62h-30c1.84-3.68 5.6-6 9.71-6h5.29 5.29c4.11 0 7.87 2.32 9.71 6z" fill="#ff826e"/></g><g><path d="m12 18v6h-1c-.83 0-1.58-.34-2.12-.88s-.88-1.29-.88-2.12c0-1.66 1.34-3 3-3z" fill="#f0d0b4"/></g><g><path d="m29 18c1.66 0 3 1.34 3 3 0 .83-.34 1.58-.88 2.12s-1.29.88-2.12.88h-1v-6z" fill="#f0d0b4"/></g><g><path d="m12 16v2h-1c-1.66 0-3 1.34-3 3l-1.63-4.9c-.25-.73-.37-1.49-.37-2.26 0-1.46.44-2.85 1.23-4.01.78-1.15 1.91-2.09 3.26-2.63l.51-.2c.93-1.55 2.23-2.8 3.76-3.66 1.52-.86 3.26-1.34 5.07-1.34h5.22c2.73 0 4.95 2.22 4.95 4.95v.05c-.01 1.29-.53 2.53-1.45 3.45l-1.04 1.04c-.46-.32-1.02-.49-1.6-.49-.81 0-1.53.32-2.06.85s-.85 1.25-.85 2.06c0 .03 0 .06.01.09h-.01l-3.15.9c-2.56.73-5.2 1.1-7.85 1.1z" fill="#b27946"/></g><g><path d="m27.51 11.49 1.04-1.04c.92-.92 1.44-2.16 1.45-3.45l1.3 1.3c.86.86 1.54 1.88 2 2.99s.7 2.31.7 3.53c0 .12 0 .24-.01.36-.05 1.31-.37 2.6-.96 3.77l-1.03 2.05c0-1.66-1.34-3-3-3h-1l-3.06-1.22c-1.14-.46-1.9-1.56-1.93-2.78-.01-.03-.01-.06-.01-.09 0-.81.32-1.53.85-2.06s1.25-.85 2.06-.85c.58 0 1.14.17 1.6.49z" fill="#b27946"/></g><g><path d="m58 17.17v19.96c-1.26-.89-2.74-1.47-4.31-1.67l-3.69-.46-.92-4.61c2.89-1.21 4.92-4.06 4.92-7.39v-3c0-1.66-1.34-3-3-3h-3c-1.3 0-2.56-.42-3.6-1.2-.89-.67-1.57-1.56-1.97-2.57l-.03.01c-2.66 1.06-4.4 3.64-4.4 6.5v3.26c0 2.21.9 4.21 2.34 5.66.73.73 1.61 1.32 2.58 1.73l-.89 4.46c-.39-.56-.83-1.09-1.31-1.57-1.76-1.77-4.11-2.95-6.73-3.22l.01-.06v-14c0-.28.01-.55.04-.82.41-4.03 3.82-7.18 7.96-7.18 1.28-1.28 3.02-2 4.83-2 3.09 0 5.88 1.25 7.9 3.27s3.27 4.81 3.27 7.9z" fill="#b27946"/></g><g><path d="m21.01 46.04c.19-.03.39-.04.59-.04h1.4v1c0 .98.16 1.92.45 2.8l-.38.13-.9.9c-.75.75-1.77 1.17-2.83 1.17h-3.34l.86-2.58c.62-1.85 2.25-3.16 4.15-3.38z" fill="#656d78"/></g><g><path d="m29.18 38.23-2.55.73c-2.15.62-3.63 2.58-3.63 4.81v2.23h-1.4c-.2 0-.4.01-.59.04l-.44-1.32c-.21-.63-.36-1.27-.53-2.73-.03-.27-.04-.54-.04-.81 0-.38.02-.75.06-1.12.29-2.99 1.77-5.63 3.95-7.44 1.94-1.64 4.44-2.62 7.17-2.62h1.64c.4 0 .79.02 1.17.06 2.62.27 4.97 1.45 6.73 3.22.48.48.92 1.01 1.31 1.57.12.17.23.34.34.52l.01.02c1.03 1.69 1.62 3.67 1.62 5.79 0 1.21-.19 2.4-.57 3.54l-.44 1.32c-.19-.03-.39-.04-.59-.04h-1.4v-1.32c0-2.08-1.59-3.81-3.67-3.99l-5.54-.46c-.79-.07-1.49-.43-1.99-.97-.27-.29-.48-.64-.62-1.03z" fill="#656d78"/></g><g><path d="m42.99 46.04c1.9.22 3.53 1.53 4.15 3.38l.86 2.58h-3.34c-1.06 0-2.08-.42-2.83-1.17l-.89-.89-.39-.13c.29-.89.45-1.83.45-2.81v-1h1.4c.2 0 .4.01.59.04z" fill="#656d78"/></g><g><path d="m2 52h6v10h-6z" fill="#f0d0b4"/></g><g><path d="m56 51h6v11h-6z" fill="#f0d0b4"/></g><g><path d="m24 30.93v1.68l.01.01c-2.18 1.81-3.66 4.45-3.95 7.44l-4.06-4.06v-5l.03-.06c1.17.67 2.52 1.06 3.97 1.06 1.46 0 2.83-.39 4-1.07z" fill="#f0d0b4"/></g><g><path d="m28 18v6c0 2.96-1.61 5.55-4 6.93-1.17.68-2.54 1.07-4 1.07-1.45 0-2.8-.39-3.97-1.06-.62-.35-1.19-.78-1.69-1.28-1.44-1.45-2.34-3.45-2.34-5.66v-6-2c2.65 0 5.29-.37 7.85-1.1l3.15-.9h.01c.03 1.22.79 2.32 1.93 2.78z" fill="#f0d0b4"/></g><g><path d="m41 46v1c0 .98-.16 1.92-.45 2.81-1.18 3.59-4.56 6.19-8.55 6.19-2.48 0-4.74-1.01-6.36-2.64-.99-.98-1.75-2.2-2.19-3.56-.29-.88-.45-1.82-.45-2.8v-1-2.23c0-2.23 1.48-4.19 3.63-4.81l2.55-.73c.14.39.35.74.62 1.03.5.54 1.2.9 1.99.97l5.54.46c2.08.18 3.67 1.91 3.67 3.99z" fill="#f0d0b4"/></g><g><path d="m49.08 30.39.92 4.61-.59.59c-.9.9-2.13 1.41-3.41 1.41s-2.51-.51-3.41-1.41l-.21-.2-.01-.02c-.11-.18-.22-.35-.34-.52l.89-4.46c.95.39 1.99.61 3.08.61s2.13-.22 3.08-.61z" fill="#f0d0b4"/></g><g><path d="m54 20v3c0 3.33-2.03 6.18-4.92 7.39-.95.39-1.99.61-3.08.61s-2.13-.22-3.08-.61c-.97-.41-1.85-1-2.58-1.73-1.44-1.45-2.34-3.45-2.34-5.66v-3.26c0-2.86 1.74-5.44 4.4-6.5l.03-.01c.4 1.01 1.08 1.9 1.97 2.57 1.04.78 2.3 1.2 3.6 1.2h3c1.66 0 3 1.34 3 3z" fill="#f0d0b4"/></g></g><g><path d="m20 29c2.226 0 4.194-1.418 4.897-3.53l.051-.154-1.897-.633-.051.155c-.431 1.293-1.637 2.162-3 2.162s-2.569-.869-3-2.163l-.051-.154-1.897.633.051.153c.703 2.113 2.671 3.531 4.897 3.531z"/><path d="m32 52c2.226 0 4.194-1.418 4.897-3.53l.051-.154-1.897-.633-.051.155c-.431 1.293-1.637 2.162-3 2.162s-2.569-.869-3-2.163l-.051-.154-1.897.633.051.153c.703 2.113 2.671 3.531 4.897 3.531z"/><path d="m49.051 23.684-.051.154c-.431 1.293-1.637 2.162-3 2.162s-2.569-.869-3-2.163l-.051-.154-1.897.633.051.153c.703 2.113 2.671 3.531 4.897 3.531s4.194-1.418 4.897-3.53l.051-.154z"/><path d="m61.239 39.056c-.62-.931-1.38-1.743-2.239-2.419v-19.466c0-6.711-5.46-12.171-12.171-12.171-1.953 0-3.797.71-5.237 2.009-3.056.137-5.714 1.81-7.236 4.258-.505-1.364-1.292-2.618-2.352-3.677l-1.024-1.024c-.198-3.102-2.778-5.566-5.93-5.566h-5.219c-3.831 0-7.442 1.981-9.507 5.193l-.202.081c-3.111 1.245-5.122 4.214-5.122 7.566 0 .876.141 1.744.418 2.577l1.606 4.816c.123 2.095 1.85 3.767 3.976 3.767h.059c.3 2.696 1.793 5.037 3.941 6.478v3.72l-5.367 1.193c-2.05.456-3.919 1.481-5.404 2.966-2.083 2.082-3.229 4.851-3.229 7.795v15.848h62v-18.129c0-2.076-.609-4.087-1.761-5.815zm-.239 5.815v5.129h-4v-4h-2v15h-7.406c-1.998-3.526-5.604-5.759-9.649-5.977 1.279-.95 2.32-2.194 3.028-3.636l.149.149c.944.944 2.199 1.464 3.535 1.464h4.73l-1.299-3.897c-.611-1.832-2.041-3.213-3.803-3.797l.089-.268c.416-1.245.626-2.541.626-3.853 0-1.174-.176-2.307-.488-3.382.481.126.978.197 1.488.197 1.557 0 3.021-.606 4.121-1.707l.24-.24 3.208.401c2.449.306 4.638 1.659 6.006 3.712.932 1.398 1.425 3.025 1.425 4.705zm-41.963-4.42c-.014.244-.037.486-.037.734 0 .045.005.09.005.136l-3.313 1.325-1.315-5.261 1.304-.29zm2.567 6.549h.396c0 .795.103 1.565.279 2.307l-.815.815c-.558.558-1.331.878-2.121.878h-1.956l.422-1.265c.545-1.636 2.07-2.735 3.795-2.735zm.396-3.229v1.229h-.279l-.198-.594c-.347-1.041-.523-2.124-.523-3.221 0-5.616 4.569-10.185 10.185-10.185h1.63c5.616 0 10.185 4.569 10.185 10.185 0 1.097-.176 2.18-.522 3.22l-.199.595h-.279v-.319c0-2.58-2.014-4.769-4.585-4.983l-5.538-.461c-1.052-.089-1.877-.985-1.877-2.041 0-.883.563-1.663 1.4-1.942l.917-.306-.633-1.897-.916.306c-1.656.552-2.768 2.094-2.768 3.839 0 .111.005.222.014.331l-1.662.475c-2.562.732-4.352 3.105-4.352 5.769zm7-24.771c1.103 0 2 .897 2 2s-.897 2-2 2zm-.059 6h.059c2.104 0 3.815-1.638 3.97-3.704l.03-.06v7.773c-.062-.001-.123-.009-.185-.009h-1.63c-1.522 0-2.974.293-4.319.805 1.125-1.328 1.873-2.985 2.075-4.805zm17.059 5c-3.86 0-7-3.14-7-7v-3.261c0-2.164 1.138-4.111 2.976-5.181.463.786 1.08 1.484 1.824 2.042 1.204.903 2.695 1.4 4.2 1.4h3c1.103 0 2 .897 2 2v3c0 3.86-3.14 7-7 7zm0 2c.802 0 1.577-.116 2.317-.314l.597 2.985-.207.207c-1.446 1.446-3.968 1.446-5.414 0l-.183-.183c-.008-.012-.015-.025-.022-.037l.595-2.973c.74.199 1.515.315 2.317.315zm-4 15h.396c1.725 0 3.25 1.099 3.795 2.735l.422 1.265h-1.956c-.79 0-1.563-.32-2.121-.878l-.815-.815c.176-.742.279-1.512.279-2.307zm-18-3.229c0-1.776 1.193-3.358 2.901-3.846l1.772-.506c.667 1.004 1.768 1.705 3.037 1.811l5.538.461c1.544.128 2.752 1.442 2.752 2.99v2.319c0 4.411-3.589 8-8 8s-8-3.589-8-8zm13.292 13.229c3.178 0 6.072 1.506 7.909 4h-26.402c1.837-2.494 4.731-4 7.909-4zm4.708-48h.414l.293-.293c1.101-1.101 2.564-1.707 4.122-1.707 5.608 0 10.171 4.563 10.171 10.171v18.226c-.994-.47-2.066-.788-3.183-.928l-2.978-.373-.63-3.148c2.847-1.512 4.791-4.506 4.791-7.948v-3c0-2.206-1.794-4-4-4h-3c-1.075 0-2.141-.355-3-1-1.252-.939-2-2.434-2-4h-2c0 .575.072 1.144.21 1.692-2.584 1.384-4.21 4.061-4.21 7.047v3.261c0 3.442 1.944 6.436 4.791 7.949l-.332 1.659c-1.72-1.734-3.959-2.946-6.459-3.401v-13.207c0-3.86 3.14-7 7-7zm-12.743 2.157c.612-.611 1.067-1.335 1.362-2.121 1.534 1.551 2.381 3.603 2.381 5.786 0 1.271-.3 2.543-.869 3.679l-.013.025c-.733-.922-1.851-1.526-3.118-1.526h-.807l-2.877-1.151c-.799-.319-1.316-1.082-1.316-1.943 0-1.051.855-1.906 1.906-1.906.821 0 1.548.523 1.808 1.303l.338 1.013 1.897-.633-.338-1.013c-.15-.448-.381-.849-.664-1.203zm-18.392-3.026.819-.328.173-.289c1.671-2.784 4.726-4.514 7.974-4.514h5.219c2.178 0 3.95 1.772 3.95 3.95 0 1.055-.411 2.047-1.157 2.793l-.53.53c-.441-.171-.913-.273-1.407-.273-1.921 0-3.513 1.397-3.837 3.226l-2.497.713c-2.463.704-5.01 1.061-7.572 1.061-.551 0-1-.449-1-1s.449-1 1-1h1v-2h-1c-1.654 0-3 1.346-3 3 0 1.302.839 2.402 2 2.816v.184c-1.127 0-2.143.473-2.871 1.226l-.814-2.441c-.209-.629-.315-1.284-.315-1.945 0-2.529 1.517-4.77 3.865-5.709zm-1.865 12.869c0-1.103.897-2 2-2v4c-1.103 0-2-.897-2-2zm4 3v-7.035c2.41-.082 4.801-.44 7.121-1.103l2.115-.604c.382 1.096 1.212 1.998 2.337 2.448l2.427.971v5.323c0 3.86-3.14 7-7 7s-7-3.14-7-7zm7 9c.874 0 1.717-.131 2.517-.365-1.456 1.476-2.529 3.324-3.084 5.383l-2.433-2.432v-3.111c.94.334 1.947.525 3 .525zm-14.357 7.771c1.216-1.216 2.745-2.055 4.423-2.428l2.357-.524 1.884 7.535 4.902-1.961c.102.555.236 1.106.416 1.645l.089.268c-1.762.584-3.192 1.965-3.803 3.797l-1.298 3.897h4.73c1.335 0 2.591-.52 3.535-1.464l.149-.149c.708 1.442 1.75 2.686 3.028 3.636-4.046.218-7.651 2.451-9.649 5.977h-7.406v-14h-2v4h-4v-3.848c0-2.41.938-4.676 2.643-6.381zm-2.643 12.229h4v8h-4zm54 8v-9h4v9z"/></g></g></svg>