<svg id="_x33_0" enable-background="new 0 0 64 64" height="512" viewBox="0 0 64 64" width="512" xmlns="http://www.w3.org/2000/svg"><g><g><g><path d="m56 54h-52c-.55 0-1.05.22-1.41.59-.37.36-.59.86-.59 1.41 0 3.31 2.69 6 6 6h44c1.66 0 3.16-.67 4.24-1.76 1.09-1.08 1.76-2.58 1.76-4.24 0-1.1-.9-2-2-2z" fill="#969faa"/></g><g><path d="m56 54h-52v-38c0-1.105.895-2 2-2h48c1.105 0 2 .895 2 2z" fill="#ccd1d9"/></g><g><path d="m8 18h44v32h-44z" fill="#69d6f4"/></g><g><path d="m62 15v6c0 .55-.45 1-1 1h-5l-1.66 3.32c-.21.42-.64.68-1.1.68-.69 0-1.24-.55-1.24-1.24v-2.76h-5c-.55 0-1-.45-1-1v-3-3c0-.55.45-1 1-1h14c.55 0 1 .45 1 1z" fill="#ffeaa7"/></g><g><path d="m41 4h-2c-3.113.602-4.702-.533-6-2l-.15.05c-1.7.57-2.85 2.16-2.85 3.95 0 0-.5.25-1 .62-.5.38-1 .88-1 1.38h-.01c-1.328 1.336-2.658 1.331-3.99 0v-.76c0-1.47.34-2.92 1-4.24l-1.95.39c-.89.18-1.65.66-2.19 1.32-.54.65-.86 1.49-.86 2.4-.776 1.99-2.868 2.518-6 1.89l.5 1.5c.32.96 1.01 1.75 1.91 2.21.63.31 1.17.76 1.59 1.29.11.14.21.28.3.43.45.73.7 1.57.7 2.46 0 .38-.04.75-.13 1.11-.08.34-.2.67-.36.99l-1.02 2.02c-.32.65-.49 1.37-.49 2.1 0 .89.25 1.73.7 2.46.45.72 1.1 1.33 1.89 1.72.93.47 1.95.71 2.99.71h.49.01c-.06-.32-.08-.66-.08-1v-4.52c0-1.55.77-3 2.06-3.86.61-.4 1.33-.62 2.06-.62.58 0 1.15.13 1.66.39.765.39 1.675.39 2.44 0 .51-.26 1.08-.39 1.66-.39.73 0 1.45.22 2.06.62 1.29.86 2.06 2.31 2.06 3.86v4.52c0 .34-.02.68-.08 1h.01.49c1.04 0 2.06-.24 2.99-.71.79-.39 1.44-1 1.89-1.72.45-.73.7-1.57.7-2.46 0-.73-.17-1.45-.49-2.1l-1.02-2.02c-.16-.32-.28-.65-.36-.99-.09-.36-.13-.73-.13-1.11 0-.89.25-1.73.7-2.46.09-.15.19-.29.3-.43.42-.53.96-.98 1.59-1.29.9-.46 1.59-1.25 1.91-2.21l.5-1.5c0-2.761-2.239-5-5-5z" fill="#b27946"/></g><g><path d="m36 50h-12-8v-4.99c0-1.95.66-3.84 1.88-5.36 1.36-1.7 3.32-2.82 5.48-3.13l3.64-.52v1c0 1.66 1.34 3 3 3 .83 0 1.58-.34 2.12-.88s.88-1.29.88-2.12v-1l3.64.52c2.16.31 4.12 1.43 5.48 3.13 1.22 1.52 1.88 3.41 1.88 5.36v4.99z" fill="#b4dd7f"/></g><g><path d="m22 54h16v4h-16z" fill="#fcd770"/></g><g><path d="m37 22.48v4.52c0 .34-.02.68-.08 1-.33 2.36-1.84 4.34-3.92 5.32-.91.44-1.92.68-3 .68s-2.09-.24-3-.68c-.73-.34-1.39-.81-1.95-1.37-1.05-1.05-1.76-2.41-1.97-3.95-.06-.32-.08-.66-.08-1v-4.52c0-1.55.77-3 2.06-3.86.61-.4 1.33-.62 2.06-.62.58 0 1.15.13 1.66.39.77.38 1.67.38 2.44 0 .51-.26 1.08-.39 1.66-.39.73 0 1.45.22 2.06.62 1.29.86 2.06 2.31 2.06 3.86z" fill="#f0d0b4"/></g><g><path d="m33 36v1c0 .83-.34 1.58-.88 2.12s-1.29.88-2.12.88c-1.66 0-3-1.34-3-3v-1-2.67-.01c.91.44 1.92.68 3 .68s2.09-.24 3-.68v.01z" fill="#f0d0b4"/></g><g><ellipse cx="30" cy="28" fill="#ff826e" rx="3" ry="2"/></g></g><g><path d="m26.5 20.919h1.999v3.162h-1.999z" transform="matrix(.316 -.949 .949 .316 -2.542 41.474)"/><path d="m30.919 21.5h3.162v1.999h-3.162z" transform="matrix(.949 -.317 .317 .949 -5.451 11.444)"/><path d="m26 28c0 1.683 1.757 3 4 3s4-1.317 4-3-1.757-3-4-3-4 1.317-4 3zm4-1c1.221 0 2 .592 2 1s-.779 1-2 1-2-.592-2-1 .779-1 2-1z"/><path d="m25 12.586c0 1.179.459 2.287 1.292 3.121l1.415-1.414c-.456-.456-.707-1.063-.707-1.707 0-.756.294-1.466.828-2 .745-.744 1.172-1.774 1.172-2.828v-.758h-2v.758c0 .526-.213 1.042-.586 1.414-.912.912-1.414 2.124-1.414 3.414z"/><path d="m19.505 10.753-.4.8 1.789.895.4-.8c.516-1.031.516-2.264 0-3.295-.192-.385-.294-.817-.294-1.248 0-1.324.943-2.475 2.241-2.734l.169-.033c-.27.94-.41 1.92-.41 2.898v.764h2v-.764c0-1.309.309-2.619.895-3.789l.914-1.828-3.96.791c-2.23.446-3.849 2.421-3.849 4.695 0 .739.175 1.48.505 2.142.236.472.236 1.034 0 1.506z"/><path d="m32.403 3.372.104.314c.42 1.26 1.204 2.347 2.267 3.145 1.394 1.045 2.226 2.709 2.226 4.45 0 1.486-.579 2.883-1.632 3.936l-.078.078 1.419 1.41.075-.076c1.429-1.428 2.216-3.327 2.216-5.348 0-2.368-1.131-4.629-3.025-6.05-.736-.553-1.279-1.306-1.57-2.178l-.773-2.321-1.102.372c-2.112.703-3.53 2.67-3.53 4.896h2c0-1.074.54-2.051 1.403-2.628z"/><path d="m30.553 14.105.953 1.76c1.538-.768 2.494-2.315 2.494-4.036 0-.697-.165-1.395-.476-2.018l-.629-1.259-1.789.895.629 1.259c.173.347.265.735.265 1.123 0 .958-.532 1.819-1.447 2.276z"/><path d="m41 10h2c0-2.201-.857-4.271-2.414-5.828l-.879-.879-1.414 1.414.879.879c1.179 1.18 1.828 2.747 1.828 4.414z"/><path d="m49 17h2v2h-2z"/><path d="m53 17h2v2h-2z"/><path d="m57 17h2v2h-2z"/><path d="m61 13h-16.059c.691-.568 1.217-1.312 1.507-2.181l.501-1.503-1.897-.633-.501 1.503c-.237.712-.737 1.289-1.409 1.625-1.938.969-3.142 2.917-3.142 5.084 0 .878.208 1.757.6 2.542l1.011 2.021c.254.509.389 1.079.389 1.647 0 1.404-.78 2.666-2.037 3.294-.612.306-1.281.496-1.963.567v-4.485c0-1.889-.938-3.643-2.511-4.69-1.382-.922-3.237-1.036-4.72-.294-.481.24-1.057.24-1.538 0-1.482-.741-3.338-.627-4.721.294-1.572 1.048-2.51 2.802-2.51 4.69v4.485c-.682-.07-1.352-.26-1.964-.567-1.256-.628-2.036-1.889-2.036-3.294 0-.568.135-1.139.389-1.647l1.011-2.021c.393-.785.6-1.664.6-2.542 0-2.167-1.204-4.114-3.141-5.083-.672-.336-1.172-.913-1.409-1.625l-.501-1.503-1.897.633.501 1.503c.289.869.816 1.612 1.507 2.181h-9.06c-1.654 0-3 1.346-3 3v37.184c-1.161.413-2 1.513-2 2.815 0 3.859 3.14 7 7 7h44c3.86 0 7-3.141 7-7 0-1.302-.839-2.402-2-2.816v-30.184h4c1.103 0 2-.897 2-2v-6c0-1.103-.897-2-2-2zm-18.476 2h2.476v2h-2.988c-.001-.035-.012-.07-.012-.105 0-.685.188-1.335.524-1.895zm-4.782 13.981c1.08-.046 2.152-.309 3.117-.793 1.937-.968 3.141-2.916 3.141-5.083 0-.878-.208-1.757-.6-2.542l-.782-1.563h2.382v2c0 1.103.897 2 2 2h4v26h-6v-3.992c0-2.166-.745-4.29-2.098-5.981-1.528-1.909-3.702-3.151-6.122-3.497l-2.78-.398v-1.215c1.833-1.064 3.203-2.833 3.742-4.936zm-.742 14.019v2.172c0 1.424-.513 2.767-1.441 3.828h-11.118c-.928-1.062-1.441-2.404-1.441-3.828v-2.172h-2v2.172c0 1.364.352 2.672 1.003 3.828h-5.003v-3.992c0-1.713.589-3.394 1.66-4.731 1.208-1.511 2.929-2.493 4.843-2.767l2.513-.359c.081 2.135 1.83 3.849 3.984 3.849s3.903-1.714 3.985-3.849l2.512.359c1.915.273 3.635 1.256 4.843 2.767 1.07 1.338 1.66 3.019 1.66 4.731v3.992h-5.003c.651-1.156 1.003-2.464 1.003-3.828v-2.172zm-7-8c.692 0 1.359-.097 2-.263v2.263c0 1.103-.897 2-2 2s-2-.897-2-2v-2.263c.641.166 1.308.263 2 .263zm-6-12.519c0-1.219.605-2.35 1.619-3.026.447-.298.968-.455 1.505-.455.419 0 .838.099 1.212.286 1.042.521 2.285.521 3.327 0 .854-.427 1.922-.361 2.717.169 1.014.677 1.62 1.808 1.62 3.026v4.519c0 3.309-2.691 6-6 6s-6-2.691-6-6zm-4.859 5.707c.965.484 2.037.747 3.117.793.539 2.103 1.908 3.872 3.742 4.936v1.215l-2.78.397c-2.42.346-4.594 1.588-6.122 3.497-1.353 1.692-2.098 3.816-2.098 5.982v3.992h-6v-30h8.382l-.782 1.563c-.393.785-.6 1.664-.6 2.542 0 2.167 1.204 4.115 3.141 5.083zm-13.141-13.188h11.476c.336.56.524 1.21.524 1.895 0 .035-.011.07-.012.105h-10.988v34h46v-24.024c.079.008.155.024.236.024.71 0 1.346-.342 1.764-.892v26.892h-50v-37c0-.552.449-1 1-1zm17 40h14v2h-14zm29 6h-44c-2.757 0-5-2.243-5-5 0-.552.449-1 1-1h17v4h18v-4h17c.551 0 1 .448 1 1 0 2.757-2.243 5-5 5zm9-40h-5.618l-1.935 3.869c-.098.197-.447.114-.447-.105v-3.764h-6v-6h14z"/></g></g></svg>