<svg id="_x33_0" enable-background="new 0 0 64 64" height="512" viewBox="0 0 64 64" width="512" xmlns="http://www.w3.org/2000/svg"><g><g><g><path d="m32 4v8c0 1.1-.9 2-2 2h-4v2.67c0 .73-.6 1.33-1.33 1.33-.42 0-.82-.2-1.07-.53l-2.6-3.47h-15c-1.1 0-2-.9-2-2v-8c0-1.1.9-2 2-2h24c1.1 0 2 .9 2 2z" fill="#e6e9ed"/></g><g><path d="m22.02 57.91-.02.09v4h-14v-12.32c0 1.99 1.25 3.77 3.13 4.44l4.93 1.76 4.94 1.76c.33.12.67.21 1.02.27z" fill="#b4dd7f"/></g><g><path d="m19 50-2.94 5.88-4.93-1.76c-1.88-.67-3.13-2.45-3.13-4.44 0-1.08.37-2.09 1-2.9s1.52-1.41 2.57-1.67l.43-.11v-.29h.2s3.52 1.29 5.8 1.29l.76.76c1.32 1.32 2.35 2.9 3.02 4.63z" fill="#b4dd7f"/></g><g><path d="m14.12 27.86v.02c-1.36 1.36-2.12 3.2-2.12 5.12h-.39c-1.44 0-2.61 1.17-2.61 2.61v.05c0 .84.42 1.62 1.11 2.08l1.89 1.26v4l-5.21-1.95c-.84-.31-1.54-.87-2.03-1.58-.48-.71-.76-1.55-.76-2.45 0-.67.16-1.33.45-1.93l.55-1.09-.65-.65c-1.51-1.51-2.35-3.54-2.35-5.67 0-1.16.26-2.3.73-3.34.48-1.04 1.18-1.98 2.07-2.74 2.71-2.32 6.16-3.6 9.74-3.6h3.46c1.38 0 2.63.56 3.54 1.46.9.91 1.46 2.16 1.46 3.54 0 1.63-.79 3.09-2 4-.83.63-1.87 1-3 1h-3c-.31 0-.6-.05-.88-.14z" fill="#b27946"/></g><g><path d="m52.03 44.12c.62 2.5.95 5.06.97 7.63l-2.58.22c.38 1.04.58 2.14.58 3.25 0 .52-.04 1.04-.13 1.55l-.87 5.23h-20l-.87-5.23c-.09-.51-.13-1.03-.13-1.55 0-.67.07-1.32.21-1.97v-.01l4.29-9.24h2.5l1.37 4.1c.38 1.14 1.44 1.9 2.63 1.9s2.25-.76 2.63-1.9l1.37-4.1h8z" fill="#fcd770"/></g><g><path d="m37.58 23.25-3.61 2.17c-.6.36-.97 1.01-.97 1.71v1.87h-1c-.79 0-1.51.31-2.04.8l-.77-3.83c-.12-.64-.19-1.3-.19-1.96 0-2.77 1.12-5.27 2.93-7.08s4.31-2.93 7.08-2.93h1.98c5.53 0 10.01 4.48 10.01 10.01v4.88 1.28c0 .45.04.9.13 1.34l-.17.02c-.22-1.43-1.46-2.53-2.96-2.53h-1v-1c0-1.1-.9-2-2-2h-2.88c-1.36 0-2.66-.54-3.62-1.5-.37-.37-.68-.79-.92-1.25z" fill="#656d78"/></g><g><path d="m31.6 40c1.32 0 2.4 1.08 2.4 2.4 0 .4-.1.78-.28 1.13l-.22.47-4.29 9.24v.01l-.55 1.18c-1.01 2.18-3.19 3.57-5.59 3.57-.35 0-.71-.03-1.05-.09-.35-.06-.69-.15-1.02-.27l-4.94-1.76 2.94-5.88 2.78 1.39 1.22.61 4-6 .71-2.84c.19-.76.58-1.45 1.13-2l.06-.06c.71-.71 1.65-1.1 2.64-1.1z" fill="#f0d0b4"/></g><g><path d="m18 42.97v3.03c-2.28 0-5.8-1.29-5.8-1.29h-.2v-1.71-4l-1.89-1.26c-.69-.46-1.11-1.24-1.11-2.08v-.05c0-1.44 1.17-2.61 2.61-2.61h.39c0-1.92.76-3.76 2.12-5.12v-.02c.28.09.57.14.88.14h3c1.13 0 2.17-.37 3-1l1.9 6.64c.07.24.1.48.1.73 0 1-.56 1.91-1.46 2.36l-.54.27v2 .59c0 .9-.36 1.77-1 2.41-.54.54-1.25.88-2 .97z" fill="#f0d0b4"/></g><g><path d="m55 44-2-9c-.96-.96-1.6-2.18-1.87-3.49-.09-.44-.13-.89-.13-1.34v-1.28c0-.8.32-1.52.84-2.05.53-.52 1.25-.84 2.05-.84 1.25 0 2.37.82 2.75 2.02l5.1 16.16c.17.54.26 1.11.26 1.68 0 2.9-2.23 5.33-5.13 5.57l-3.87.32c-.02-2.57-.35-5.13-.97-7.63l-.03-.12z" fill="#f0d0b4"/></g><g><path d="m50.96 31.53c.03.15.04.31.04.47 0 .83-.34 1.58-.88 2.12s-1.29.88-2.12.88h-1.29c.19-.63.29-1.3.29-2v-4h1c1.5 0 2.74 1.1 2.96 2.53z" fill="#f0d0b4"/></g><g><path d="m43.06 39.3.94 4.7-1.37 4.1c-.38 1.14-1.44 1.9-2.63 1.9s-2.25-.76-2.63-1.9l-1.37-4.1.94-4.7c.92.45 1.96.7 3.06.7s2.14-.25 3.06-.7z" fill="#f0d0b4"/></g><g><path d="m46.71 35c-.56 1.89-1.9 3.45-3.65 4.3-.92.45-1.96.7-3.06.7s-2.14-.25-3.06-.7l-1.89-1.35c-.81-.81-1.43-1.82-1.76-2.95-.19-.63-.29-1.3-.29-2v-4-1.87c0-.7.37-1.35.97-1.71l3.61-2.17c.24.46.55.88.92 1.25.96.96 2.26 1.5 3.62 1.5h2.88c1.1 0 2 .9 2 2v1 4c0 .7-.1 1.37-.29 2z" fill="#f0d0b4"/></g><g><path d="m33.29 35h-1.29c-.83 0-1.58-.34-2.12-.88s-.88-1.29-.88-2.12c0-.87.37-1.65.96-2.2.53-.49 1.25-.8 2.04-.8h1v4c0 .7.1 1.37.29 2z" fill="#f0d0b4"/></g></g><g><path d="m9 7h2v2h-2z"/><path d="m13 7h2v2h-2z"/><path d="m17 7h2v2h-2z"/><path d="m21 7h2v2h-2z"/><path d="m25 7h2v2h-2z"/><path d="m6 15h14.5l2.3 3.067c.438.584 1.137.933 1.867.933 1.286 0 2.333-1.047 2.333-2.333v-1.667h3c1.654 0 3-1.346 3-3v-8c0-1.654-1.346-3-3-3h-24c-1.654 0-3 1.346-3 3v8c0 1.654 1.346 3 3 3zm-1-11c0-.551.448-1 1-1h24c.552 0 1 .449 1 1v8c0 .551-.448 1-1 1h-5v3.667c0 .289-.429.431-.601.2l-2.899-3.867h-15.5c-.552 0-1-.449-1-1z"/><path d="m43.789 34.658.105-.211-1.789-.895-.105.212c-.381.762-1.147 1.236-2 1.236s-1.619-.474-2-1.236l-.105-.211-1.789.895.105.21c.722 1.445 2.174 2.342 3.789 2.342s3.067-.897 3.789-2.342z"/><path d="m62.695 43.882-5.104-16.167c-.513-1.624-2.002-2.715-3.705-2.715-.688 0-1.325.195-1.886.509v-1.501c0-6.07-4.938-11.008-11.009-11.008h-1.982c-6.071 0-11.009 4.938-11.009 11.009 0 .722.072 1.448.214 2.159l.671 3.354c-.545.684-.885 1.538-.885 2.478 0 2.206 1.794 4 4 4h.589c.645 1.588 1.786 2.917 3.23 3.807l-.638 3.193h-.254c.035-.197.073-.395.073-.596 0-1.876-1.526-3.404-3.463-3.404-1.258 0-2.445.494-3.403 1.452-.68.679-1.162 1.532-1.394 2.464l-.668 2.673-3.415 5.121-.112-.056c-.725-1.722-1.749-3.273-3.075-4.598l-.47-.47v-1.836c.633-.214 1.22-.556 1.707-1.042.834-.834 1.293-1.942 1.293-3.122v-1.968c1.234-.622 2-1.866 2-3.249 0-.338-.047-.675-.14-1l-1.724-6.034c1.146-1.093 1.864-2.63 1.864-4.335 0-3.309-2.691-6-6-6h-3.464c-3.81 0-7.499 1.365-10.39 3.844-2 1.713-3.146 4.206-3.146 6.839 0 2.406.938 4.668 2.639 6.369l.145.145-.224.447c-.367.732-.56 1.553-.56 2.373 0 2.199 1.384 4.195 3.442 4.968l4.558 1.708v.536c-2.371.743-4 2.938-4 5.45v13.321h16v-4.006c.023 0 .045.006.067.006h.001c1.932 0 3.742-.801 5.066-2.128.003.02.004.041.008.061l1.011 6.067h21.693l1.012-6.068c.094-.565.142-1.14.142-1.711 0-.794-.094-1.588-.274-2.361l5.232-.436c3.388-.283 6.042-3.168 6.042-6.568 0-.67-.103-1.335-.305-1.974zm-17.876-.882-.638-3.193c1.443-.89 2.585-2.22 3.23-3.807h.589c1.321 0 2.485-.651 3.213-1.641.254.399.544.778.872 1.132l1.668 7.509zm3.181-10v-3c1.103 0 2 .897 2 2s-.897 2-2 2h-.069c.041-.328.069-.661.069-1zm-16 1c-1.103 0-2-.897-2-2s.897-2 2-2v3c0 .339.028.672.069 1zm0-6.868v.868c-.469 0-.913.096-1.331.245l-.494-2.469c-.116-.582-.175-1.176-.175-1.767 0-4.967 4.041-9.009 9.009-9.009h1.982c4.968 0 9.009 4.042 9.009 9.009v4.548c-.591-.345-1.268-.557-2-.557 0-1.654-1.346-3-3-3h-2.879c-1.102 0-2.136-.429-2.914-1.207-.767-.768-1.207-1.83-1.207-2.914v-.879h-2v.879c0 .678.109 1.338.32 1.962l-2.864 1.719c-.898.539-1.456 1.524-1.456 2.572zm2 5.868v-5.868c0-.349.186-.678.485-.857l2.78-1.668c.161.209.337.41.527.6 1.156 1.156 2.693 1.793 4.329 1.793h2.879c.552 0 1 .449 1 1v5c0 3.309-2.691 6-6 6s-6-2.691-6-6zm6 8c.804 0 1.579-.122 2.312-.344l.656 3.279-1.283 3.851c-.243.726-.919 1.214-1.685 1.214s-1.442-.488-1.685-1.213l-1.283-3.851.656-3.279c.733.221 1.508.343 2.312.343zm-32.854-.889c-1.284-.481-2.146-1.724-2.146-3.094 0-.511.12-1.022.349-1.478l.868-1.735-1.164-1.165c-1.324-1.324-2.053-3.084-2.053-4.956 0-2.048.893-3.988 2.448-5.321 2.529-2.168 5.756-3.362 9.088-3.362h3.464c2.206 0 4 1.794 4 4s-1.794 4-4 4h-3c-1.103 0-2-.897-2-2s.897-2 2-2h1v-2h-1c-2.206 0-4 1.794-4 4 0 1.289.624 2.426 1.574 3.158-.834 1.143-1.357 2.473-1.519 3.885-1.728.268-3.055 1.77-3.055 3.621 0 1.172.582 2.26 1.558 2.91l1.442.961v2.022zm4.666 5.967 1.188-.297v-7.316l-2.333-1.555c-.418-.279-.667-.744-.667-1.3 0-.888.723-1.61 1.61-1.61h1.39v-1c0-1.503.532-2.922 1.498-4.051.167.021.33.051.502.051h3c.849 0 1.656-.18 2.388-.499l1.548 5.418c.043.147.064.298.064.451 0 .625-.347 1.186-.905 1.465l-1.095.547v1.618h-1.586c-.645 0-1.251-.251-1.707-.708l-1.414 1.415c.834.834 1.942 1.293 3.121 1.293h1.546c-.084.487-.31.937-.667 1.292-.456.457-1.063.708-1.707.708h-2.586v2h2v2.414l1.057 1.057c.498.498.936 1.041 1.338 1.608l-3.948-1.974-.895 1.789 3.106 1.553-2.096 4.192-4.099-1.464c-1.473-.526-2.463-1.931-2.463-3.496 0-1.706 1.156-3.187 2.812-3.601zm9.188 14.922h-12v-7.002c.521.45 1.118.82 1.791 1.06l9.868 3.524c.111.04.228.056.341.09zm2.068-4c-.594 0-1.178-.101-1.737-.301l-3.871-1.383 1.988-3.975 3.895 1.948 4.585-6.878.753-3.011c.145-.581.444-1.111.929-1.595.519-.519 1.203-.805 1.987-.805.773 0 1.403.63 1.403 1.404 0 .228-.057.455-.187.703l-5.064 10.906c-.843 1.815-2.68 2.987-4.681 2.987zm27.833-6.434-1.007-2.013-1.789.895 1.007 2.013c.581 1.161.888 2.461.888 3.76 0 .461-.038.926-.114 1.382l-.733 4.397h-18.306l-.732-4.396c-.077-.457-.115-.922-.115-1.383 0-.564.061-1.128.174-1.681l3.965-8.54h1.141l1.139 3.419c.515 1.544 1.954 2.581 3.581 2.581s3.066-1.037 3.581-2.582l1.139-3.418h6.48c.436 1.916.692 3.87.765 5.833l-.916.076c-.052-.113-.092-.232-.148-.343zm5.89-.135-2.832.236c-.076-1.905-.314-3.801-.713-5.667h1.34l1.707 1.707 1.414-1.414-1.794-1.794-2-9-.206-.206c-1.101-1.101-1.707-2.565-1.707-4.122v-1.286c0-1.039.846-1.885 1.886-1.885.826 0 1.549.529 1.798 1.318l5.105 16.167c.14.444.211.905.211 1.371 0 2.369-1.849 4.378-4.209 4.575z"/></g></g></svg>