<svg id="_x33_0" enable-background="new 0 0 64 64" height="512" viewBox="0 0 64 64" width="512" xmlns="http://www.w3.org/2000/svg"><g><g><g><path d="m39 57v4c0 .55-.45 1-1 1h-28c-.55 0-1-.45-1-1v-4c0-.55.45-1 1-1h5 18 5c.55 0 1 .45 1 1z" fill="#969faa"/></g><g><path d="m29 48 4 8h-18l4-8z" fill="#aab2bd"/></g><g><path d="m48 48h-19-10-15c-1.1 0-2-.9-2-2v-6h33.35c2.25 4.73 7.07 8 12.65 8z" fill="#ccd1d9"/></g><g><path d="m48 12v4h-5c-1.1 0-2 .9-2 2v4c-4 2-7 6.91-7 12 0 2.14.48 4.18 1.35 6h-33.35v-26c0-1.1.9-2 2-2z" fill="#69d6f4"/></g><g><path d="m55 18v4h-14v-4c0-1.1.9-2 2-2h5 5c1.1 0 2 .9 2 2z" fill="#aab2bd"/></g><g><path d="m55 22c4 2 7 6.91 7 12 0 7.73-6.27 14-14 14-5.58 0-10.4-3.27-12.65-8-.87-1.82-1.35-3.86-1.35-6 0-5.09 3-10 7-12z" fill="#969faa"/></g><g><path d="m50 42c0 .55-.22 1.05-.59 1.41-.36.37-.86.59-1.41.59-1.1 0-2-.9-2-2 0 .55-.22 1.05-.59 1.41-.36.37-.86.59-1.41.59-1.1 0-2-.9-2-2v-3l-1.33-1c-.84-.63-1.51-1.44-1.97-2.35-.45-.91-.7-1.93-.7-2.98 0-3.69 2.98-6.67 6.67-6.67h6.66c1.85 0 3.51.74 4.72 1.95s1.95 2.87 1.95 4.72c0 2.1-.99 4.07-2.67 5.33l-1.33 1v3c0 .55-.22 1.05-.59 1.41-.36.37-.86.59-1.41.59-1.1 0-2-.9-2-2z" fill="#e6e9ed"/></g><g><circle cx="52" cy="34" fill="#838f9b" r="2"/></g><g><circle cx="44" cy="34" fill="#838f9b" r="2"/></g></g><g><path d="m52 31c-1.654 0-3 1.346-3 3s1.346 3 3 3 3-1.346 3-3-1.346-3-3-3zm0 4c-.552 0-1-.448-1-1s.448-1 1-1 1 .448 1 1-.448 1-1 1z"/><path d="m44 31c-1.654 0-3 1.346-3 3s1.346 3 3 3 3-1.346 3-3-1.346-3-3-3zm0 4c-.552 0-1-.448-1-1s.448-1 1-1 1 .448 1 1-.448 1-1 1z"/><path d="m51.333 25h-6.666c-4.228 0-7.667 3.439-7.667 7.667 0 2.4 1.146 4.693 3.067 6.133l.933.7v2.5c0 1.654 1.346 3 3 3 .771 0 1.468-.301 2-.78.532.48 1.229.78 2 .78s1.468-.301 2-.78c.532.48 1.229.78 2 .78 1.654 0 3-1.346 3-3v-2.5l.933-.7c1.921-1.44 3.067-3.733 3.067-6.133 0-4.228-3.439-7.667-7.667-7.667zm3.399 12.2-1.732 1.3v3.5c0 .552-.448 1-1 1s-1-.448-1-1v-3h-2v3c0 .552-.448 1-1 1s-1-.448-1-1v-3h-2v3c0 .552-.448 1-1 1s-1-.448-1-1v-3.5l-1.733-1.3c-1.419-1.064-2.267-2.759-2.267-4.533 0-3.125 2.542-5.667 5.667-5.667h6.666c3.125 0 5.667 2.542 5.667 5.667 0 1.774-.848 3.469-2.268 4.533z"/><path d="m56 21.411v-3.411c0-1.654-1.346-3-3-3h-4v-5c0-.552.448-1 1-1h5v-2h-5c-1.654 0-3 1.346-3 3v1h-43c-1.654 0-3 1.346-3 3v32c0 1.654 1.346 3 3 3h13.382l-3 6h-4.382c-1.103 0-2 .897-2 2v4c0 1.103.897 2 2 2h28c1.103 0 2-.897 2-2v-4c0-1.103-.897-2-2-2h-4.382l-3-6h17.382c8.271 0 15-6.729 15-15 0-5.141-2.852-10.215-7-12.589zm-2-3.411v3h-12v-3c0-.552.448-1 1-1h10c.552 0 1 .448 1 1zm-50-5h43v2h-4c-1.654 0-3 1.346-3 3v3.411c-4.148 2.374-7 7.447-7 12.589 0 1.755.319 3.433.875 5h-30.875v-25c0-.552.448-1 1-1zm34.002 48h-28.002v-4h28zm-6.62-6h-14.764l3-6h8.764zm-27.382-8c-.552 0-1-.448-1-1v-5h31.743c1.329 2.507 3.35 4.587 5.805 6zm44 0c-7.168 0-13-5.832-13-13 0-4.489 2.622-9.07 6.258-11h13.485c3.635 1.93 6.257 6.511 6.257 11 0 7.168-5.832 13-13 13z"/><path d="m59 7h4v2h-4z"/><path d="m57.5 10.379h2v4.243h-2z" transform="matrix(.707 -.707 .707 .707 8.295 45.027)"/><path d="m56.379 2.5h4.243v2h-4.243z" transform="matrix(.707 -.707 .707 .707 14.659 42.391)"/><path d="m23 43h2v2h-2z"/><path d="m27 43h2v2h-2z"/><path d="m19 43h2v2h-2z"/><path d="m7 17h2v8h-2z"/><path d="m17 17h-6v8h6zm-2 6h-2v-4h2z"/><path d="m19 17h2v8h-2z"/><path d="m29 17h-6v8h6zm-2 6h-2v-4h2z"/><path d="m27 27h2v8h-2z"/><path d="m25 27h-6v8h6zm-2 6h-2v-4h2z"/><path d="m15 27h2v8h-2z"/><path d="m13 27h-6v8h6zm-2 6h-2v-4h2z"/></g></g></svg>