<svg id="_x33_0" enable-background="new 0 0 64 64" height="512" viewBox="0 0 64 64" width="512" xmlns="http://www.w3.org/2000/svg"><g><g><g><path d="m26 56h-6v-5c0-.55-.34-1-.75-1h-4.5c-.41 0-.75.45-.75 1v5h-6-6v-3.89c0-3.48 2.24-6.55 5.54-7.61.12-.04.24-.08.36-.11l5.1-1.39.21.11c1.18.58 2.47.89 3.79.89s2.61-.31 3.79-.89l.21-.11 5.1 1.39c.12.03.24.07.36.11 3.3 1.06 5.54 4.13 5.54 7.61v3.89z" fill="#fcd770"/></g><g><g><path d="m61.17 2.83c-.52-.51-1.23-.83-2.02-.83-.1 0-.2.01-.3.02l-34.31 3.71c-1.44.15-2.54 1.37-2.54 2.83 0 0 .008 3.419.016 7.996 1.763.571 3.328 1.548 4.604 2.824.51.51.97 1.06 1.38 1.66 1.26 1.85 2 4.08 2 6.49 0 .16 0 .31-.01.47-.06 2.78-.74 5.51-1.99 8l.3 1.82c.12.73.14 1.46.07 2.18h7.63v6.62c0 .76.62 1.38 1.38 1.38.39 0 .77-.17 1.03-.47l6.59-7.53h12.31c1.51 0 2.76-1.18 2.84-2.68l1.85-32.24c0-.05 0-.11 0-.16v-.07c0-.79-.32-1.5-.83-2.02z" fill="#e6e9ed"/></g></g><g><path d="m34 27v.2c0 .44-.45.8-1 .8h-3.01c.01-.16.01-.31.01-.47 0-2.41-.74-4.64-2-6.49v-8.24c0-.44.45-.8 1-.8h4c.55 0 1 .36 1 .8v.2z" fill="#fcd770"/></g><g><path d="m20 51v5h-1-5v-5c0-.55.34-1 .75-1h4.5c.41 0 .75.45.75 1z" fill="#aab2bd"/></g><g><path d="m16.34 27.67h-.01l-1.19 1.19c-.73.73-1.72 1.14-2.76 1.14h-.47c-.69 0-1.34-.18-1.91-.49v3.49c0 1.94.78 3.68 2.05 4.95.55.55 1.18 1 1.88 1.34l-.93 3.71-5.1 1.39c-.12.03-.24.07-.36.11-1.56-1.84-2.24-4.28-1.84-6.68l.3-1.82c-1.32-2.63-2-5.53-2-8.47 0-6.37 5.16-11.53 11.53-11.53h2.94c1.23 0 2.42.19 3.53.55 1.77.57 3.34 1.55 4.62 2.83.51.51.97 1.06 1.38 1.66 1.26 1.85 2 4.08 2 6.49 0 .16 0 .31-.01.47-.06 2.78-.74 5.51-1.99 8l.3 1.82c.12.73.14 1.46.07 2.18-.17 1.65-.82 3.22-1.91 4.5-.12-.04-.24-.08-.36-.11l-5.1-1.39-.93-3.71c2.33-1.13 3.93-3.52 3.93-6.29v-5l-.86.86c-.73.73-1.72 1.14-2.76 1.14h-.47c-1.08 0-2.06-.44-2.77-1.14-.34-.34-.61-.74-.8-1.19z" fill="#656d78"/></g><g><circle cx="54" cy="56" fill="#ff826e" r="2"/></g><g><circle cx="38" cy="56" fill="#ff826e" r="2"/></g><g><circle cx="46" cy="56" fill="#ff826e" r="2"/></g><g><path d="m22 59c0-.83-.34-1.58-.88-2.12s-1.29-.88-2.12-.88h1 6 6v2c0 2.21-1.79 4-4 4h-9c1.66 0 3-1.34 3-3z" fill="#f0d0b4"/></g><g><path d="m21.12 56.88c.54.54.88 1.29.88 2.12 0 1.66-1.34 3-3 3h-13c-2.21 0-4-1.79-4-4v-2h6 6 5c.83 0 1.58.34 2.12.88z" fill="#f0d0b4"/></g><g><path d="m52 24c1.1 0 2 .9 2 2 0 .55-.22 1.05-.59 1.41-.36.37-.86.59-1.41.59h-2v3c0 1.66-1.34 3-3 3-.61 0-1.17-.35-1.45-.89l-1.17-2.35c-.84-1.69-2.58-2.76-4.47-2.76h-1.67c-1.47 0-2.92-.34-4.24-1v-14c1.32-.66 2.77-1 4.24-1h13.76c1.1 0 2 .9 2 2 0 .55-.22 1.05-.59 1.41-.36.37-.86.59-1.41.59 1.1 0 2 .9 2 2 0 .55-.22 1.05-.59 1.41-.36.37-.86.59-1.41.59 1.1 0 2 .9 2 2 0 .55-.22 1.05-.59 1.41-.36.37-.86.59-1.41.59z" fill="#f0d0b4"/></g><g><path d="m20.07 39.29.93 3.71-.21.11c-1.18.58-2.47.89-3.79.89s-2.61-.31-3.79-.89l-.21-.11.93-3.71c.92.46 1.96.71 3.07.71s2.15-.25 3.07-.71z" fill="#f0d0b4"/></g><g><path d="m17.14 28.86c.71.7 1.69 1.14 2.77 1.14h.47c1.04 0 2.03-.41 2.76-1.14l.86-.86v5c0 2.77-1.6 5.16-3.93 6.29-.92.46-1.96.71-3.07.71s-2.15-.25-3.07-.71c-.7-.34-1.33-.79-1.88-1.34-1.27-1.27-2.05-3.01-2.05-4.95v-3.49c.57.31 1.22.49 1.91.49h.47c1.04 0 2.03-.41 2.76-1.14l1.19-1.19h.01c.19.45.46.85.8 1.19z" fill="#f0d0b4"/></g></g><g><path d="m17 37c1.615 0 3.067-.897 3.789-2.342l.105-.211-1.789-.895-.105.212c-.381.762-1.147 1.236-2 1.236s-1.619-.474-2-1.236l-.105-.211-1.789.895.105.21c.722 1.445 2.174 2.342 3.789 2.342z"/><path d="m38 53c-1.654 0-3 1.346-3 3s1.346 3 3 3 3-1.346 3-3-1.346-3-3-3zm0 4c-.552 0-1-.449-1-1s.448-1 1-1 1 .449 1 1-.448 1-1 1z"/><path d="m46 53c-1.654 0-3 1.346-3 3s1.346 3 3 3 3-1.346 3-3-1.346-3-3-3zm0 4c-.552 0-1-.449-1-1s.448-1 1-1 1 .449 1 1-.448 1-1 1z"/><path d="m54 53c-1.654 0-3 1.346-3 3s1.346 3 3 3 3-1.346 3-3-1.346-3-3-3zm0 4c-.552 0-1-.449-1-1s.448-1 1-1 1 .449 1 1-.448 1-1 1z"/><path d="m59.153 1c-.14 0-.277.007-.413.022l-34.306 3.709c-1.957.211-3.434 1.856-3.434 3.825v6.701c-.817-.168-1.662-.257-2.528-.257h-2.943c-6.909 0-12.529 5.62-12.529 12.528 0 2.971.677 5.945 1.961 8.624l-.25 1.499c-.374 2.241.099 4.51 1.285 6.408-3.007 1.499-4.996 4.599-4.996 8.051v5.89c0 2.757 2.243 5 5 5h22c2.757 0 5-2.243 5-5v-5.89c0-3.453-1.989-6.553-4.996-8.052.59-.944 1-1.979 1.218-3.058h5.778v5.624c0 1.31 1.065 2.376 2.376 2.376.684 0 1.335-.295 1.788-.811l6.29-7.189h11.857c2.037 0 3.725-1.593 3.84-3.627l1.843-32.238c.004-.072.006-.144.006-.288 0-2.121-1.726-3.847-3.847-3.847zm-43.625 16h2.943c5.806 0 10.529 4.723 10.529 10.528 0 2.772-.655 5.547-1.895 8.025l-.146.291.356 2.136c.316 1.896-.137 3.817-1.236 5.37l-4.252-1.16-.602-2.409c2.263-1.416 3.775-3.922 3.775-6.781v-4.586l.707-.707-1.414-1.414-1.855 1.855c-.549.55-1.28.852-2.057.852h-.473c-1.603 0-2.908-1.305-2.908-2.908 0-.975.484-1.879 1.295-2.42l1.26-.84-1.109-1.664-1.26.84c-1.369.912-2.186 2.439-2.186 4.084 0 .452.081.882.196 1.298l-.759.759c-.548.549-1.279.851-2.056.851h-.473c-1.603 0-2.908-1.305-2.908-2.908 0-.975.484-1.879 1.295-2.42l1.26-.84-1.109-1.664-1.26.84c-1.369.912-2.186 2.439-2.186 4.084 0 1.614.794 3.037 2 3.932v2.976c0 2.859 1.512 5.365 3.774 6.78l-.602 2.409-4.252 1.16c-1.099-1.553-1.552-3.474-1.236-5.37l.356-2.136-.146-.291c-1.239-2.477-1.894-5.252-1.894-8.024 0-5.805 4.723-10.528 10.528-10.528zm15.445 10c-.096-2.291-.803-4.423-1.973-6.237v-7.763l4 .017v13.983zm-19.973 3.908c.295.056.597.092.908.092h.473c1.312 0 2.545-.511 3.471-1.438l.323-.323c.901 1.067 2.231 1.76 3.734 1.76h.473c.943 0 1.842-.273 2.619-.767v2.768c0 3.309-2.691 6-6 6s-6-2.691-6-6v-2.092zm3.62 9.73c.752.235 1.552.362 2.38.362s1.628-.127 2.38-.362l.448 1.792c-1.792.725-3.863.725-5.654 0zm-8.62 20.362c-1.654 0-3-1.346-3-3v-1h16c1.103 0 2 .897 2 2s-.897 2-2 2zm13-6h-4v-4h4zm9 6h-5.556c.344-.591.556-1.268.556-2s-.212-1.409-.556-2h8.556v1c0 1.654-1.346 3-3 3zm3-8.89v2.89h-4v-4h-2v4h-4v-4c0-1.122-.769-2-1.75-2h-4.5c-.981 0-1.75.878-1.75 2v4h-4v-4h-2v4h-4v-2.89c0-3.148 2.121-5.925 5.158-6.753l4.749-1.295c1.273.609 2.682.938 4.093.938s2.82-.329 4.093-.938l4.749 1.295c3.037.828 5.158 3.605 5.158 6.753zm28.155-14.851c-.055.976-.866 1.741-1.843 1.741h-12.766l-6.887 7.871c-.21.24-.658.07-.659-.247v-7.624h-7.598c-.009-.449-.038-.9-.113-1.35l-.25-1.499c1.072-2.236 1.714-4.678 1.899-7.152h2.062c.629 0 1.184-.268 1.551-.678 1.176.443 2.43.679 3.685.679h1.674c1.525 0 2.896.847 3.577 2.211l1.171 2.342c.447.892 1.344 1.447 2.342 1.447 2.206 0 4-1.794 4-4v-2h1c1.654 0 3-1.346 3-3 0-.771-.301-1.468-.78-2 .48-.532.78-1.229.78-2s-.301-1.468-.78-2c.48-.532.78-1.229.78-2s-.301-1.468-.78-2c.48-.532.78-1.229.78-2 0-1.654-1.346-3-3-3h-13.764c-1.255 0-2.509.236-3.685.678-.367-.41-.922-.678-1.551-.678h-4c-1.103 0-2 .808-2 1.8v5.577c-1.153-1.076-2.506-1.935-4-2.517v-7.304c0-.945.709-1.735 1.648-1.836l34.31-3.708c1.067-.122 2.042.747 2.042 1.907zm-20.919-24.259h13.764c.552 0 1 .449 1 1s-.448 1-1 1h-3v2h3c.552 0 1 .449 1 1s-.448 1-1 1h-3v2h3c.552 0 1 .449 1 1s-.448 1-1 1h-3v2h3c.552 0 1 .449 1 1s-.448 1-1 1h-3v4c0 1.103-.897 2-2 2-.235 0-.447-.131-.553-.342l-1.171-2.341c-1.022-2.046-3.079-3.317-5.366-3.317h-1.674c-1.108 0-2.212-.234-3.236-.657v-12.686c1.024-.423 2.128-.657 3.236-.657z"/></g></g></svg>