<svg id="_x33_0" enable-background="new 0 0 64 64" height="512" viewBox="0 0 64 64" width="512" xmlns="http://www.w3.org/2000/svg"><g><g><g><path d="m8 24v-5-8c0-1.66 1.34-3 3-3h7.56c-.98 1.45-1.56 3.21-1.56 5.1 0 .6.06 1.2.18 1.78l.78 3.92c-.59.55-.96 1.33-.96 2.2 0 .83.34 1.58.88 2.12s1.29.88 2.12.88h1.04.01c.23 2.64 1.4 5.01 3.17 6.78.45.45.93.85 1.45 1.22h-14.67c-1.66 0-3-1.34-3-3z" fill="#b4dd7f"/></g><g><path d="m56 24v5c0 1.66-1.34 3-3 3h-14.67c2.57-1.81 4.33-4.7 4.62-8h.01 1.04c.83 0 1.58-.34 2.12-.88s.88-1.29.88-2.12c0-1.66-1.34-3-3-3h-1.1c-.19-.93-.64-1.77-1.27-2.44v-.01c3.13-1.08 5.37-4.05 5.37-7.55h6c1.66 0 3 1.34 3 3v8z" fill="#b4dd7f"/></g><g><path d="m51 46h-3.76c-.16-.24-.35-.47-.56-.68-.81-.82-1.94-1.32-3.18-1.32-1.56 0-2.94.79-3.74 2h-15.52c-.16-.24-.35-.47-.56-.68-.81-.82-1.94-1.32-3.18-1.32-1.56 0-2.94.79-3.74 2h-3.76c.59-4.16 3.84-7.44 7.99-8.08l6.01-.92.34.5c1.04 1.56 2.79 2.5 4.66 2.5.94 0 1.84-.24 2.64-.66.8-.44 1.5-1.06 2.02-1.84l.34-.5 6.01.92c4.15.64 7.4 3.92 7.99 8.08z" fill="#ff826e"/></g><g><path d="m23 52h18 1v1c0 .83.34 1.58.88 2.12s1.29.88 2.12.88c1.66 0 3-1.34 3-3v-1h14v8c0 1.1-.9 2-2 2h-56c-1.1 0-2-.9-2-2v-8h14v1c0 .83.34 1.58.88 2.12s1.29.88 2.12.88c1.66 0 3-1.34 3-3v-1z" fill="#b4dd7f"/></g><g><path d="m13 46h3.76c-.48.72-.76 1.58-.76 2.5v3.5h-14v-4c0-1.1.9-2 2-2z" fill="#e6e9ed"/></g><g><path d="m41 52h-18c1.1 0 2-.9 2-2v-1.5c0-.92-.28-1.78-.76-2.5h15.52c-.48.72-.76 1.58-.76 2.5v1.5c0 1.1.9 2 2 2z" fill="#e6e9ed"/></g><g><path d="m62 48v4h-14v-3.5c0-.92-.28-1.78-.76-2.5h3.76 9c1.1 0 2 .9 2 2z" fill="#e6e9ed"/></g><g><path d="m48 52v1c0 1.66-1.34 3-3 3-.83 0-1.58-.34-2.12-.88s-.88-1.29-.88-2.12v-1h-1c-1.1 0-2-.9-2-2v-1.5c0-.92.28-1.78.76-2.5.8-1.21 2.18-2 3.74-2 1.24 0 2.37.5 3.18 1.32.21.21.4.44.56.68.48.72.76 1.58.76 2.5z" fill="#f0d0b4"/></g><g><path d="m25 48.5v1.5c0 1.1-.9 2-2 2h-1v1c0 1.66-1.34 3-3 3-.83 0-1.58-.34-2.12-.88s-.88-1.29-.88-2.12v-1-3.5c0-.92.28-1.78.76-2.5.8-1.21 2.18-2 3.74-2 1.24 0 2.37.5 3.18 1.32.21.21.4.44.56.68.48.72.76 1.58.76 2.5z" fill="#f0d0b4"/></g><g><path d="m36.06 33.23.94 3.77-.34.5c-.52.78-1.22 1.4-2.02 1.84-.8.42-1.7.66-2.64.66-1.87 0-3.62-.94-4.66-2.5l-.34-.5.94-3.77c1.26.5 2.63.77 4.06.77s2.8-.27 4.06-.77z" fill="#f0d0b4"/></g><g><path d="m33.54 14h-7.54c-2.42 0-4.44 1.72-4.9 4h-1.1c-.79 0-1.51.31-2.04.8l-.78-3.92c-.12-.58-.18-1.18-.18-1.78 0-1.89.58-3.65 1.56-5.1.32-.48.69-.93 1.1-1.34 1.65-1.64 3.92-2.66 6.44-2.66h12.43c2.94 0 5.84-.68 8.47-2v6c0 3.5-2.24 6.47-5.37 7.55-.82.29-1.71.45-2.63.45h-2c-1.48 0-2.77-.8-3.46-2z" fill="#b27946"/></g><g><path d="m46.12 23.12c-.54.54-1.29.88-2.12.88h-1.04-.01c.03-.33.05-.66.05-1v-4c0-.34-.03-.68-.1-1h1.1c1.66 0 3 1.34 3 3 0 .83-.34 1.58-.88 2.12z" fill="#f0d0b4"/></g><g><path d="m38.33 32c-.7.49-1.46.91-2.27 1.23-1.26.5-2.63.77-4.06.77s-2.8-.27-4.06-.77l-2.27-1.23c-.52-.37-1-.77-1.45-1.22-1.77-1.77-2.94-4.14-3.17-6.78-.03-.33-.05-.66-.05-1v-4c0-.34.03-.68.1-1 .46-2.28 2.48-4 4.9-4h7.54c.69 1.2 1.98 2 3.46 2h2c.92 0 1.81-.16 2.63-.45v.01c.63.67 1.08 1.51 1.27 2.44.07.32.1.66.1 1v4c0 .34-.02.67-.05 1-.29 3.3-2.05 6.19-4.62 8z" fill="#f0d0b4"/></g><g><path d="m21 23c0 .34.02.67.05 1h-.01-1.04c-.83 0-1.58-.34-2.12-.88s-.88-1.29-.88-2.12c0-.87.37-1.65.96-2.2.53-.49 1.25-.8 2.04-.8h1.1c-.07.32-.1.66-.1 1z" fill="#f0d0b4"/></g><g><circle cx="27" cy="22" fill="#838f9b" r="2"/></g><g><circle cx="37" cy="22" fill="#838f9b" r="2"/></g></g><g><path d="m30 22c0-1.654-1.346-3-3-3s-3 1.346-3 3 1.346 3 3 3 3-1.346 3-3zm-4 0c0-.551.448-1 1-1s1 .449 1 1-.448 1-1 1-1-.449-1-1z"/><path d="m37 25c1.654 0 3-1.346 3-3s-1.346-3-3-3-3 1.346-3 3 1.346 3 3 3zm0-4c.552 0 1 .449 1 1s-.448 1-1 1-1-.449-1-1 .448-1 1-1z"/><path d="m28.211 29.342-.105.211 1.789.895.105-.212c.381-.762 1.147-1.236 2-1.236s1.619.474 2 1.236l.105.211 1.789-.895-.105-.21c-.722-1.445-2.174-2.342-3.789-2.342s-3.067.897-3.789 2.342z"/><path d="m60 45h-8.168c-.953-4.206-4.34-7.398-8.669-8.063l-5.354-.824-.582-2.327c.481-.234.949-.491 1.392-.785h14.381c2.206 0 4-1.794 4-4v-4.465l5.555-3.703-1.109-1.664-5.446 3.629-3-2-3.555 2.37 1.109 1.664 2.446-1.63 2 1.333v4.465c0 1.103-.897 2-2 2h-12.081c1.485-1.654 2.515-3.716 2.9-6h.181c2.206 0 4-1.794 4-4s-1.794-4-4-4h-.36c-.126-.357-.286-.7-.478-1.028 2.591-1.358 4.442-3.938 4.779-6.972h5.059c1.103 0 2 .897 2 2v6.132l-2-1.333-3.555 2.37 1.109 1.664 2.446-1.631 3 2 6.555-4.37-1.109-1.664-4.446 2.964v-6.132c0-2.206-1.794-4-4-4h-5v-6.618l-1.447.724c-2.479 1.239-5.254 1.894-8.025 1.894h-12.43c-3.276 0-6.184 1.575-8.03 4h-7.068c-2.206 0-4 1.794-4 4v6.132l-4.445-2.964-1.109 1.664 6.554 4.37 3-2 2.445 1.63 1.109-1.664-3.554-2.37-2 1.333v-6.131c0-1.103.897-2 2-2h5.878c-.56 1.254-.878 2.639-.878 4.099 0 .662.066 1.328.196 1.98l.688 3.442c-.544.685-.884 1.539-.884 2.479 0 2.206 1.794 4 4 4h.181c.386 2.284 1.416 4.346 2.9 6h-12.081c-1.103 0-2-.897-2-2v-4.465l2-1.333 2.445 1.63 1.109-1.664-3.554-2.37-3 2-5.445-3.63-1.109 1.664 5.554 3.703v4.465c0 2.206 1.794 4 4 4h14.381c.443.294.911.551 1.392.785l-.582 2.327-5.354.824c-4.329.666-7.716 3.857-8.669 8.063h-8.168c-1.654 0-3 1.346-3 3v12c0 1.654 1.346 3 3 3h56c1.654 0 3-1.346 3-3v-11.999c0-1.654-1.346-3-3-3zm1 3v3h-12v-2.5c0-.521-.078-1.022-.213-1.5h11.213c.552 0 1 .449 1 1zm-15-27c0 1.103-.897 2-2 2v-4c1.103 0 2 .897 2 2zm-28 0c0-1.103.897-2 2-2v4c-1.103 0-2-.897-2-2zm2.35-4h-.35c-.469 0-.913.096-1.331.245l-.511-2.558c-.105-.523-.158-1.058-.158-1.588 0-4.466 3.633-8.099 8.099-8.099h12.43c2.55 0 5.104-.5 7.471-1.454v4.454c0 3.86-3.141 7-7 7h-2c-1.654 0-3-1.346-3-3s1.346-3 3-3v-2c-2.757 0-5 2.243-5 5 0 .342.035.677.101 1h-6.101c-2.607 0-4.824 1.673-5.65 4zm1.65 2c0-2.206 1.794-4 4-4h7.026c.914 1.207 2.348 2 3.974 2h2c.781 0 1.535-.11 2.258-.298.475.671.742 1.464.742 2.298v4c0 5.514-4.486 10-10 10s-10-4.486-10-10zm10 16c1.163 0 2.284-.175 3.348-.485l.575 2.298-.091.136c-.856 1.284-2.289 2.051-3.832 2.051s-2.976-.767-3.832-2.051l-.091-.136.575-2.298c1.064.31 2.185.485 3.348.485zm-10.858 3.913 5.382-.828c1.231 1.825 3.274 2.915 5.476 2.915s4.245-1.09 5.476-2.915l5.382.828c3.35.515 5.991 2.904 6.894 6.087h-2.013c-1.01-1.221-2.535-2-4.239-2s-3.229.779-4.239 2h-14.522c-1.01-1.221-2.535-2-4.239-2s-3.229.779-4.239 2h-2.013c.903-3.183 3.543-5.571 6.894-6.087zm19.858 12.087c-.552 0-1-.449-1-1v-1.5c0-1.93 1.57-3.5 3.5-3.5s3.5 1.57 3.5 3.5v4.5c0 1.103-.897 2-2 2s-2-.897-2-2v-2zm-2.829 0h-12.342c.11-.313.171-.649.171-1v-1.5c0-.521-.078-1.022-.213-1.5h12.427c-.136.478-.214.979-.214 1.5v1.5c0 .351.061.687.171 1zm-14.171-2.5v1.5c0 .551-.448 1-1 1h-2v2c0 1.103-.897 2-2 2s-2-.897-2-2v-4.5c0-1.93 1.57-3.5 3.5-3.5s3.5 1.57 3.5 3.5zm-20-1.5h11.213c-.135.478-.213.979-.213 1.5v2.5h-12v-3c0-.551.448-1 1-1zm56 14h-56c-.552 0-1-.449-1-1v-7h12c0 2.206 1.794 4 4 4s4-1.794 4-4h18c0 2.206 1.794 4 4 4s4-1.794 4-4h12v7c0 .551-.448 1-1 1z"/></g></g></svg>