<svg id="_x33_0" enable-background="new 0 0 64 64" height="512" viewBox="0 0 64 64" width="512" xmlns="http://www.w3.org/2000/svg"><g><g><g><path d="m44 59v2c0 .55-.45 1-1 1h-26c-.55 0-1-.45-1-1v-2c0-.55.45-1 1-1h5 16 5c.55 0 1 .45 1 1z" fill="#969faa"/></g><g><path d="m22 52h16v6h-16z" fill="#aab2bd"/></g><g><path d="m58 44v6c0 1.1-.9 2-2 2h-18-16-18c-1.1 0-2-.9-2-2v-6h12 6 20 6z" fill="#ccd1d9"/></g><g><path d="m58 44h-56v-28c0-1.105.895-2 2-2h54z" fill="#69d6f4"/></g><g><path d="m40 44h-20-6v-9.03c0-1.92.65-3.79 1.85-5.29 1.38-1.72 3.37-2.83 5.56-3.11l.79-.1 2.8 6.53 5-3 5 3 2.8-6.53.79.1c2.19.28 4.18 1.39 5.56 3.11 1.2 1.5 1.85 3.37 1.85 5.29v9.03z" fill="#b4dd7f"/></g><g><path d="m30 30-5 3-2.8-6.53 3.8-.47z" fill="#a0d468"/></g><g><path d="m37.8 26.47-2.8 6.53-5-3 4-4z" fill="#a0d468"/></g><g><path d="m34 22v4l-4 4-4-4v-4z" fill="#f0d0b4"/></g><g><path d="m36.39 2.21 1.21.61.01.01-1.09.99-1.95 2.43c-.38.47-.96.75-1.56.75h-1.44c-.09 0-.19.01-.28.02l1.22-3.65c.27-.82 1.04-1.37 1.9-1.37h1.09c.31 0 .61.07.89.21z" fill="#d3a06c"/></g><g><path d="m28.89 8.38 1.57-1.04c.25-.17.54-.28.83-.32.09-.01.19-.02.28-.02h1.44c.6 0 1.18-.28 1.56-.75l1.95-2.43 1.09-.99c.78-.54 1.71-.83 2.68-.83.45 0 .9.06 1.33.18l3.47.99c1.72.49 2.91 2.06 2.91 3.85v6.98 4h-26.03v-1.76c0-2.71-1.08-5.32-3-7.24h6 2.39c.4 0 .78-.12 1.11-.34z" fill="#dfb28b"/></g><g><circle cx="41.97" cy="12" fill="#ff826e" r="2"/></g><g><path d="m21.97 16.24v1.76h-10v-2c0-.7.1-1.37.29-2 .86-2.89 3.53-5 6.71-5 1.92 1.92 3 4.53 3 7.24z" fill="#e6e9ed"/></g><g><path d="m48 18v2c0 1.1-.9 2-2 2h-12-8-12.03c-1.11 0-2-.9-2-2v-2h10z" fill="#cf9e76"/></g></g><g><path d="m41.968 15c1.654 0 3-1.346 3-3s-1.346-3-3-3-3 1.346-3 3 1.345 3 3 3zm0-4c.552 0 1 .448 1 1s-.448 1-1 1-1-.448-1-1 .448-1 1-1z"/><path d="m57 43h-10v-8.033c0-2.14-.736-4.238-2.072-5.909-1.549-1.935-3.755-3.169-6.213-3.476l-3.715-.465v-2.117h11c1.654 0 3-1.346 3-3v-5h6v-2h-6v-5.979c0-2.223-1.493-4.2-3.632-4.809l-3.478-.989c-1.457-.412-3.002-.214-4.307.466l-.745-.373c-.416-.207-.88-.316-1.342-.316h-1.087c-1.293 0-2.437.824-2.846 2.051l-1.051 3.151c-.21.08-.414.175-.604.302l-1.992 1.328c-.164.11-.355.168-.554.168h-8.395c-3.35 0-6.221 2.072-7.411 5h-7.556c-1.654 0-3 1.346-3 3v34c0 1.654 1.346 3 3 3h17v4h-4c-1.103 0-2 .897-2 2v2c0 1.103.897 2 2 2h26c1.103 0 2-.897 2-2v-2c0-1.103-.897-2-2-2h-4v-4h17c1.654 0 3-1.346 3-3v-27h-2zm-13.635-12.692c1.055 1.317 1.635 2.971 1.635 4.659v8.033h-4v-6.586l1.707-1.707-1.414-1.414-2.293 2.293v7.414h-18v-7.414l-2.293-2.293-1.414 1.414 1.707 1.707v6.586h-4v-8.033c0-1.688.58-3.342 1.635-4.659 1.221-1.526 2.96-2.499 4.898-2.741l.048-.006 2.951 6.887 5.468-3.282 5.468 3.281 2.951-6.887.048.006c1.938.243 3.678 1.215 4.898 2.742zm-17.726-3.255 2.748 2.748-2.919 1.751-1.822-4.251zm8.722 0 1.993.249-1.822 4.251-2.919-1.751zm-1.361-1.467-3 3-3-3v-2.586h6zm13-4.586h-32.032c-.552 0-1-.448-1-1v-1h34.032v1c0 .552-.448 1-1 1zm-11.591-18h1.087c.118 0 .231.04.341.08-.033.039-.071.07-.103.11l-1.946 2.434c-.191.239-.476.376-.781.376h-.318l.771-2.316c.137-.41.519-.684.949-.684zm-5.857 6.748c.27.547.415 1.148.415 1.765v.487h2v-.486c0-.995-.258-1.959-.725-2.828l.775-.516c.167-.111.359-.17.556-.17h1.434c.916 0 1.77-.41 2.343-1.126l1.947-2.434c.952-1.191 2.571-1.71 4.047-1.294l3.478.989c1.282.366 2.178 1.553 2.178 2.886v9.979h-24.032v-.758c0-2.256-.661-4.41-1.889-6.242h3.444c.28.352.445.79.445 1.242v.758h2v-.758c0-.425-.087-.842-.219-1.242h.613c.413 0 .816-.089 1.19-.252zm-10.006.273c1.559 1.706 2.422 3.895 2.422 6.221v.758h-8v-1c0-3.166 2.466-5.761 5.578-5.979zm-14.546 4.979h7.037c-.041.328-.069.661-.069 1v4c0 1.654 1.346 3 3 3h11.032v2.117l-3.715.465c-2.458.307-4.664 1.541-6.213 3.476-1.336 1.671-2.072 3.769-2.072 5.909v8.033h-10v-27c0-.552.448-1 1-1zm39.002 46h-26.002v-2h26zm-6.002-4h-14v-4h14zm19-6h-52c-.552 0-1-.448-1-1v-5h54v5c0 .552-.448 1-1 1z"/><path d="m27 47h6v2h-6z"/><path d="m58 1c-2.757 0-5 2.243-5 5h2c0-1.654 1.346-3 3-3s3 1.346 3 3-1.346 3-3 3h-1v8h2v-6.101c2.279-.465 4-2.484 4-4.899 0-2.757-2.243-5-5-5z"/><path d="m57 19h2v2h-2z"/></g></g></svg>