<svg id="_x33_0" enable-background="new 0 0 64 64" height="512" viewBox="0 0 64 64" width="512" xmlns="http://www.w3.org/2000/svg"><g><g><g><circle cx="32" cy="32" fill="#ff826e" r="30"/></g><g><path d="m43.74 47.99 2.97 2.96c-4.06 3.17-9.17 5.05-14.71 5.05-9.29 0-17.35-5.28-21.34-13h1.34c1.1 0 2-.9 2-2h3c2.41 2.41 5.62 3.82 9 3.98v2.02c0 1.1.9 2 2 2h14c.74 0 1.39-.41 1.74-1.01z" fill="#ffeaa7"/></g><g><path d="m26 21v.76l-8.71-8.71c4.06-3.17 9.16-5.05 14.71-5.05 13.25 0 24 10.75 24 24 0 5.54-1.88 10.65-5.05 14.71l-3.97-3.97c.16-.09.3-.2.43-.33.37-.36.59-.86.59-1.41 0-1.1-.9-2-2-2 .55 0 1.05-.22 1.41-.59.37-.36.59-.86.59-1.41 0-1.1-.9-2-2-2 .55 0 1.05-.22 1.41-.59.37-.36.59-.86.59-1.41 0-1.1-.9-2-2-2 .55 0 1.05-.22 1.41-.59.37-.36.59-.86.59-1.41 0-1.1-.9-2-2-2h-2v-6-4c0-1.1-.9-2-2-2h-4-6-4c-1.1 0-2 .9-2 2z" fill="#ffeaa7"/></g><g><path d="m26 21.76v3.4c-1.39.18-2.75.53-4.06 1.03v-.01l-8.89-8.89c1.22-1.59 2.65-3.01 4.24-4.24z" fill="#ff826e"/></g><g><path d="m46.98 42.74 3.97 3.97c-1.22 1.59-2.65 3.02-4.24 4.24l-2.97-2.96c.17-.29.26-.63.26-.99v-4h2c.36 0 .69-.09.98-.26z" fill="#ff826e"/></g><g><path d="m44 17v4h-9c1.66 0 3-1.34 3-3v-3h4c1.1 0 2 .9 2 2z" fill="#969faa"/></g><g><path d="m32 18c0 .83.34 1.58.88 2.12s1.29.88 2.12.88h-9v-4c0-1.1.9-2 2-2h4z" fill="#969faa"/></g><g><path d="m44 43v4c0 .36-.09.7-.26.99-.35.6-1 1.01-1.74 1.01h-14c-1.1 0-2-.9-2-2v-2.02-3.98h16c0 1.1.9 2 2 2z" fill="#969faa"/></g><g><path d="m38 15v3c0 1.66-1.34 3-3 3-.83 0-1.58-.34-2.12-.88s-.88-1.29-.88-2.12v-3z" fill="#e6e9ed"/></g><g><path d="m44 21v6c-.55 0-1.05.22-1.41.59-.37.36-.59.86-.59 1.41 0 1.1.9 2 2 2-.55 0-1.05.22-1.41.59-.37.36-.59.86-.59 1.41 0 1.1.9 2 2 2-.55 0-1.05.22-1.41.59-.37.36-.59.86-.59 1.41 0 1.1.9 2 2 2-.55 0-1.05.22-1.41.59-.37.36-.59.86-.59 1.41h-16v-8.91c.48-.38.88-.86 1.17-1.43.5-1.02 1.54-1.66 2.67-1.66h3.16c1.66 0 3-1.34 3-3 0-.55-.45-1-1-1h-6.6c-.81 0-1.61.05-2.4.16v-3.4-.76h9z" fill="#69d6f4"/></g><g><path d="m14 29v12c0 1.1-.9 2-2 2h-1.34-6.58-2.08v-16h.41 6.11 3.48c1.1 0 2 .9 2 2z" fill="#ccd1d9"/></g><g><path d="m26 32.09v8.91 3.98c-3.38-.16-6.59-1.57-9-3.98h-3v-12h3c1.5-1.21 3.18-2.15 4.94-2.81 1.31-.5 2.67-.85 4.06-1.03.79-.11 1.59-.16 2.4-.16h6.6c.55 0 1 .45 1 1 0 1.66-1.34 3-3 3-.99 0-2.11 0-3.16 0-1.13 0-2.17.64-2.67 1.66-.29.57-.69 1.05-1.17 1.43z" fill="#f0d0b4"/></g><g><path d="m46 27c1.1 0 2 .9 2 2 0 .55-.22 1.05-.59 1.41-.36.37-.86.59-1.41.59h-2c-1.1 0-2-.9-2-2 0-.55.22-1.05.59-1.41.36-.37.86-.59 1.41-.59z" fill="#f0d0b4"/></g><g><path d="m46 31c1.1 0 2 .9 2 2 0 .55-.22 1.05-.59 1.41-.36.37-.86.59-1.41.59h-2c-1.1 0-2-.9-2-2 0-.55.22-1.05.59-1.41.36-.37.86-.59 1.41-.59z" fill="#f0d0b4"/></g><g><path d="m46 35c1.1 0 2 .9 2 2 0 .55-.22 1.05-.59 1.41-.36.37-.86.59-1.41.59h-2c-1.1 0-2-.9-2-2 0-.55.22-1.05.59-1.41.36-.37.86-.59 1.41-.59z" fill="#f0d0b4"/></g><g><path d="m44 39h2c1.1 0 2 .9 2 2 0 .55-.22 1.05-.59 1.41-.13.13-.27.24-.43.33-.29.17-.62.26-.98.26h-2c-1.1 0-2-.9-2-2 0-.55.22-1.05.59-1.41.36-.37.86-.59 1.41-.59z" fill="#f0d0b4"/></g></g><g><path d="m33 44h4v2h-4z"/><path d="m39 44h2v2h-2z"/><path d="m29 44h2v2h-2z"/><path d="m32 1c-14.918 0-27.57 10.465-30.412 25h-.588v18h2.428c4.851 11.56 15.981 19 28.572 19 17.093 0 31-13.906 31-31 0-17.093-13.907-31-31-31zm-29 27h9c.551 0 1 .449 1 1v12c0 .552-.449 1-1 1h-9zm12 2h2.351l.274-.219c3.047-2.438 6.875-3.781 10.778-3.781h6.597c0 1.103-.896 2-1.996 2h-3.161c-1.522 0-2.89.847-3.572 2.215-.549 1.101-1.654 1.785-2.884 1.785h-.387v2h.387c.56 0 1.1-.096 1.613-.261v10.148c-2.754-.362-5.313-1.613-7.293-3.593l-.293-.294h-2.414zm12 12h14.184c.302.847.969 1.514 1.816 1.816v3.184c0 .552-.449 1-1 1h-14c-.551 0-1-.448-1-1zm20-9c0 .552-.449 1-1 1h-2c-.551 0-1-.448-1-1 0-.551.449-1 1-1h2c.551 0 1 .449 1 1zm0 4c0 .552-.449 1-1 1h-2c-.551 0-1-.448-1-1s.449-1 1-1h2c.551 0 1 .448 1 1zm-3 5c-.551 0-1-.448-1-1s.449-1 1-1h2c.551 0 1 .448 1 1s-.449 1-1 1zm2-12h-2c-.551 0-1-.449-1-1s.449-1 1-1h2c.551 0 1 .449 1 1s-.449 1-1 1zm-3-10h-4.556c.344-.591.556-1.268.556-2v-2h3c.551 0 1 .449 1 1zm-6-2c0 1.103-.897 2-2 2s-2-.897-2-2v-2h4zm-5.444 2h-4.556v-3c0-.551.449-1 1-1h3v2c0 .732.212 1.409.556 2zm-4.556 2h16v4.184c-1.161.414-2 1.514-2 2.816 0 .771.301 1.468.78 2-.48.532-.78 1.229-.78 2s.301 1.468.78 2c-.48.532-.78 1.229-.78 2s.301 1.468.78 2c-.261.289-.463.626-.596 1h-14.184v-7.464c.423-.408.789-.884 1.063-1.433.339-.68 1.021-1.103 1.78-1.103h3.161c2.204 0 3.996-1.794 3.996-4 0-1.103-.897-2-2-2h-6.597c-.469 0-.937.024-1.403.058zm-12.184 20h1.779c2.312 2.184 5.256 3.538 8.406 3.895v1.105c0 1.654 1.346 3 3 3h14c.66 0 1.265-.221 1.761-.583l1.417 1.417c-3.736 2.621-8.279 4.166-13.179 4.166-8.096 0-15.482-4.19-19.648-11.036 1.146-.136 2.088-.91 2.464-1.964zm31.962 7.606-1.878-1.878c.059-.234.1-.475.1-.728v-3h1c.253 0 .494-.041.729-.1l2.878 2.878c-.86 1.022-1.807 1.968-2.829 2.828zm4.056-4.429-2.417-2.417c.363-.495.583-1.1.583-1.76 0-.771-.301-1.468-.78-2 .48-.532.78-1.229.78-2s-.301-1.468-.78-2c.48-.532.78-1.229.78-2s-.301-1.468-.78-2c.48-.532.78-1.229.78-2 0-1.654-1.346-3-3-3h-1v-9c0-1.654-1.346-3-3-3h-14c-1.654 0-3 1.346-3 3v2.344l-6.162-6.162c3.769-2.64 8.329-4.182 13.162-4.182 12.682 0 23 10.318 23 23 0 4.9-1.545 9.442-4.166 13.177zm-33.595-30.766 7.761 7.761v2.143c-.949.172-1.886.406-2.798.716l-7.795-7.795c.863-1.023 1.809-1.968 2.832-2.825zm-4.063 4.422 7.023 7.023c-1.249.588-2.444 1.297-3.545 2.144h-1.839c-.414-1.161-1.514-2-2.816-2h-2.187c.706-2.613 1.856-5.026 3.364-7.167zm18.824 42.167c-11.494 0-21.686-6.63-26.39-17h4.468c4.4 8.03 12.735 13 21.922 13 13.785 0 25-11.215 25-25s-11.215-25-25-25c-11.465 0-21.522 7.947-24.252 19h-4.124c2.804-13.397 14.552-23 28.376-23 15.991 0 29 13.009 29 29 0 15.99-13.009 29-29 29z"/></g></g></svg>