<svg id="_x33_0" enable-background="new 0 0 64 64" height="512" viewBox="0 0 64 64" width="512" xmlns="http://www.w3.org/2000/svg"><g><g><g><path d="m46 62h-28c-2.209 0-4-1.791-4-4v-52c0-2.209 1.791-4 4-4h28c2.209 0 4 1.791 4 4v52c0 2.209-1.791 4-4 4z" fill="#969faa"/></g><g><path d="m18 8h28v42h-28z" fill="#69d6f4"/></g><g><path d="m22 42h12v4h-12z" fill="#b4dd7f"/></g><g><path d="m24 55v2c0 .55-.45 1-1 1h-2c-.55 0-1-.45-1-1v-2c0-.55.45-1 1-1h2c.55 0 1 .45 1 1z" fill="#fcd770"/></g><g><path d="m36 55v2c0 .55-.45 1-1 1h-6c-.55 0-1-.45-1-1v-2c0-.55.45-1 1-1h6c.55 0 1 .45 1 1z" fill="#fcd770"/></g><g><path d="m44 55v2c0 .55-.45 1-1 1h-2c-.55 0-1-.45-1-1v-2c0-.55.45-1 1-1h2c.55 0 1 .45 1 1z" fill="#fcd770"/></g><g><path d="m43.09 14.15c-.06-.37-.09-.76-.09-1.15 0-1.96.8-3.73 2.1-5 1.26-1.24 2.98-2 4.9-2 3.53 0 6.44 2.61 6.93 6h.07c2.76 0 5 2.24 5 5s-2.24 5-5 5h-7-4-4c-2.21 0-4-1.79-4-4s1.79-4 4-4c.38 0 .74.05 1.09.15z" fill="#e6e9ed"/></g><g><path d="m51 52c-.34 0-.67-.02-1-.05-1.97-.17-3.8-.87-5.33-1.95-2.83-1.99-4.67-5.28-4.67-9 0-4.28 2.44-7.98 6-9.8 1.22-.63 2.57-1.03 4-1.15.33-.03.66-.05 1-.05 6.08 0 11 4.92 11 11s-4.92 11-11 11z" fill="#e6e9ed"/></g><g><path d="m56 41-10 5v-10z" fill="#ff826e"/></g><g><path d="m2.59 22.59 7.41 7.41-7.41 7.41c-.37-.36-.59-.86-.59-1.41v-12c0-.55.22-1.05.59-1.41z" fill="#dfb28b"/></g><g><path d="m24 24v12c0 .55-.22 1.05-.59 1.41l-7.41-7.41 7.41-7.41c.37.36.59.86.59 1.41z" fill="#dfb28b"/></g><g><path d="m16 30 7.41 7.41c-.36.37-.86.59-1.41.59h-4-4-10c-.55 0-1.05-.22-1.41-.59l7.41-7.41 1.29 1.29c.46.46 1.07.71 1.71.71s1.25-.25 1.71-.71z" fill="#d3a06c"/></g><g><path d="m23.41 22.59-7.41 7.41-1.29 1.29c-.46.46-1.07.71-1.71.71s-1.25-.25-1.71-.71l-1.29-1.29-7.41-7.41c.36-.37.86-.59 1.41-.59h10 4 4c.55 0 1.05.22 1.41.59z" fill="#cf9e76"/></g></g><g><path d="m35 53h-6c-1.103 0-2 .897-2 2v2c0 1.103.897 2 2 2h6c1.103 0 2-.897 2-2v-2c0-1.103-.897-2-2-2zm-6 4v-2h6l.001 2z"/><path d="m43 53h-2c-1.103 0-2 .897-2 2v2c0 1.103.897 2 2 2h2c1.103 0 2-.897 2-2v-2c0-1.103-.897-2-2-2zm-2 4v-2h2l.001 2z"/><path d="m23 53h-2c-1.103 0-2 .897-2 2v2c0 1.103.897 2 2 2h2c1.103 0 2-.897 2-2v-2c0-1.103-.897-2-2-2zm-2 4v-2h2l.001 2z"/><path d="m51 29v-6h6c3.309 0 6-2.691 6-6 0-3.052-2.291-5.573-5.243-5.947-.807-3.211-3.564-5.617-6.852-5.995-.443-2.307-2.471-4.058-4.905-4.058h-28c-2.757 0-5 2.243-5 5v15h-9c-1.654 0-3 1.346-3 3v12c0 1.654 1.346 3 3 3h9v19c0 2.757 2.243 5 5 5h28c2.757 0 5-2.243 5-5v-5c6.617 0 12-5.383 12-12s-5.383-12-12-12zm-2 .181c-.689.116-1.356.291-2 .519v-6.7h2zm-27.414-6.181-7.586 7.585c-.535.535-1.465.535-2 0l-7.586-7.585zm1.414 12.586-5.586-5.586 5.586-5.586zm-14.414-5.586-5.586 5.586v-11.171zm1.414 1.414.586.586c.646.645 1.503 1 2.414 1s1.769-.355 2.414-1l.586-.586 5.586 5.586h-17.172zm9 7.586h3c1.654 0 3-1.346 3-3v-12c0-1.654-1.346-3-3-3h-3v-12h24.082c-.684 1.178-1.082 2.542-1.082 4-2.757 0-5 2.243-5 5s2.243 5 5 5h3v7.624c-3.581 2.078-6 5.946-6 10.376 0 3.075 1.172 5.874 3.081 8h-23.081zm36.701-27.854c-2.685.595-4.701 2.992-4.701 5.854h2c0-2.206 1.794-4 4-4s4 1.794 4 4-1.794 4-4 4h-15c-1.654 0-3-1.346-3-3s1.346-3 3-3 3 1.346 3 3v1h2v-1c0-2.03-1.221-3.774-2.964-4.556-.011-.149-.036-.295-.036-.444 0-3.309 2.691-6 6-6 2.619 0 4.911 1.725 5.701 4.146zm-40.701-5.146c0-1.654 1.346-3 3-3h28c1.336 0 2.458.884 2.845 2.093-1.566.228-2.983.908-4.119 1.907h-27.726v14h-2zm34 52c0 1.654-1.346 3-3 3h-28c-1.654 0-3-1.346-3-3v-19h2v12h27.381c1.369.909 2.936 1.535 4.619 1.819zm2-7c-5.514 0-10-4.486-10-10s4.486-10 10-10 10 4.486 10 10-4.486 10-10 10z"/><path d="m45 47.618 13.236-6.618-13.236-6.618zm2-10 6.764 3.382-6.764 3.382z"/><path d="m21 47h14v-6h-14zm6-2v-2h2v2zm6 0h-2v-2h2zm-10-2h2v2h-2z"/><path d="m27 35h10v2h-10z"/><path d="m27 31h10v2h-10z"/><path d="m27 27h4v2h-4z"/><path d="m33 27h4v2h-4z"/><path d="m27 23h10v2h-10z"/><path d="m21 17h2v2h-2z"/><path d="m25 17h2v2h-2z"/><path d="m29 17h2v2h-2z"/></g></g></svg>