<svg id="_x33_0" enable-background="new 0 0 64 64" height="512" viewBox="0 0 64 64" width="512" xmlns="http://www.w3.org/2000/svg"><g><g><g><circle cx="32" cy="29" fill="#ff826e" r="27"/></g><g><path d="m39.2 39.62 7.53 4.35c-1.92 1.89-4.19 3.41-6.73 4.45v-.42-2c0-1.1-.9-2-2-2v-3c.43-.43.84-.9 1.2-1.38z" fill="#ffeaa7"/></g><g><path d="m24 48v.42c-7.63-3.14-13-10.65-13-19.42 0-1.82.23-3.59.67-5.27l10.33 5.96c.02 4.11 1.43 8.09 4 11.31v3c-1.1 0-2 .9-2 2z" fill="#ffeaa7"/></g><g><path d="m26 16v9c0-1.66-1.34-3-3-3-.47 0-.87.33-.97.78l-8.01-4.63c3.67-6.08 10.35-10.15 17.98-10.15 11.6 0 21 9.4 21 21 0 3.68-.94 7.14-2.61 10.15l-8.68-5.01c.19-.91.29-1.85.29-2.8v-11.34c0-1.1-.9-2-2-2-.55 0-1.05.22-1.41.59-.37.36-.59.86-.59 1.41v-4c0-1.1-.9-2-2-2-.55 0-1.05.22-1.41.59-.37.36-.59.86-.59 1.41v-2c0-1.1-.9-2-2-2-.55 0-1.05.22-1.41.59-.37.36-.59.86-.59 1.41v2c0-1.1-.9-2-2-2-.55 0-1.05.22-1.41.59-.37.36-.59.86-.59 1.41z" fill="#ffeaa7"/></g><g><path d="m14.02 18.15 8.01 4.63c-.02.07-.03.14-.03.22v6.6.09l-10.33-5.96c.51-1.99 1.31-3.87 2.35-5.58z" fill="#ff826e"/></g><g><path d="m41.71 34.14 8.68 5.01c-.98 1.78-2.22 3.4-3.66 4.82l-7.53-4.35c1.24-1.62 2.09-3.49 2.51-5.48z" fill="#ff826e"/></g><g><path d="m40 48.42v6.38 7.2h-16v-7.2-6.38-.42h16z" fill="#4fc1e9"/></g><g><path d="m40 46v2h-16v-2c0-1.1.9-2 2-2h12c1.1 0 2 .9 2 2z" fill="#e6e9ed"/></g><g><circle cx="32" cy="54" fill="#fcd770" r="2"/></g><g><path d="m26 25v-9c0-.55.22-1.05.59-1.41.36-.37.86-.59 1.41-.59 1.1 0 2 .9 2 2v-2c0-.55.22-1.05.59-1.41.36-.37.86-.59 1.41-.59 1.1 0 2 .9 2 2v2c0-.55.22-1.05.59-1.41.36-.37.86-.59 1.41-.59 1.1 0 2 .9 2 2v4c0-.55.22-1.05.59-1.41.36-.37.86-.59 1.41-.59 1.1 0 2 .9 2 2v11.34c0 .95-.1 1.89-.29 2.8-.42 1.99-1.27 3.86-2.51 5.48-.36.48-.77.95-1.2 1.38v3h-12v-3c-2.57-3.22-3.98-7.2-4-11.31 0-.03 0-.06 0-.09v-6.6c0-.08.01-.15.03-.22.1-.45.5-.78.97-.78 1.66 0 3 1.34 3 3z" fill="#f0d0b4"/></g></g><g><path d="m32 51c-1.654 0-3 1.346-3 3s1.346 3 3 3 3-1.346 3-3-1.346-3-3-3zm0 4c-.552 0-1-.449-1-1s.448-1 1-1 1 .449 1 1-.448 1-1 1z"/><path d="m60 29c0-15.439-12.561-28-28-28s-28 12.561-28 28c0 12.098 7.61 22.644 19 26.501v7.499h18v-7.499c11.39-3.857 19-14.403 19-26.501zm-32.873 2.68.088.049c1.101.549 1.785 1.654 1.785 2.884v.387h2v-.387c0-1.994-1.108-3.784-2.809-4.626l-.088-.049c-.68-.34-1.103-1.022-1.103-1.781v-3.157h.001l-.001-9c0-.551.448-1 1-1s1 .449 1 1v10h2v-12c0-.551.448-1 1-1s1 .449 1 1v12h2v-10c0-.551.448-1 1-1s1 .449 1 1v10h2v-6c0-.551.448-1 1-1s1 .449 1 1v11.343c0 3.381-1.316 6.56-3.707 8.95l-.293.293v2.414h-10v-2.351l-.219-.274c-2.438-3.048-3.781-6.876-3.781-10.778v-6.597c1.103 0 2 .896 2 1.996v3.161c0 1.522.848 2.89 2.127 3.523zm-1.127 13.32h12c.552 0 1 .449 1 1v1h-14v-1c0-.551.448-1 1-1zm13-1.816v-1.779c.152-.16.285-.332.429-.498l5.624 3.247c-1.222 1.05-2.574 1.969-4.052 2.712v-.866c-.001-1.302-.84-2.402-2.001-2.816zm7.56-.468-5.91-3.412c.735-1.132 1.302-2.355 1.697-3.639l6.667 3.849c-.707 1.146-1.527 2.219-2.454 3.202zm3.425-4.951-7.175-4.143c.116-.748.19-1.507.19-2.278v-11.344c0-1.654-1.346-3-3-3-.352 0-.686.072-1 .184v-1.184c0-1.654-1.346-3-3-3-.395 0-.77.081-1.116.22-.345-1.275-1.501-2.22-2.884-2.22s-2.538.945-2.884 2.22c-.346-.139-.721-.22-1.116-.22-1.654 0-3 1.346-3 3l.001 5.556c-.591-.344-1.269-.556-2.001-.556-.479 0-.913.176-1.258.458l-6.312-3.645c3.598-5.313 9.683-8.813 16.57-8.813 11.028 0 20 8.972 20 20 0 3.112-.716 6.093-2.015 8.765zm-35.592-18.24 6.607 3.815v4.618l-8.149-4.705c.391-1.302.907-2.552 1.542-3.728zm-2.033 5.755 8.668 5.005c.145 3.996 1.529 7.888 3.971 11.061v1.839c-1.161.414-2 1.514-2 2.816v.867c-6.728-3.384-10.999-10.242-10.999-17.868 0-1.272.132-2.513.36-3.72zm12.64 35.72v-12h14v12zm16-7.619v-4.317c7.915-3.549 13-11.343 13-20.064 0-12.131-9.869-22-22-22s-22 9.869-22 22c0 8.721 5.085 16.515 13 20.064v4.317c-10.218-3.756-17-13.376-17-24.381 0-14.336 11.663-26 26-26s26 11.664 26 26c0 11.005-6.782 20.625-17 24.381z"/></g></g></svg>