<svg id="_x33_0" enable-background="new 0 0 64 64" height="512" viewBox="0 0 64 64" width="512" xmlns="http://www.w3.org/2000/svg"><g><g><g><path d="m28.55 14.59c-.96.08-1.83.43-2.55.98v-3.57h4v2.45.01z" fill="#ffeaa7"/></g><g><path d="m30 8v4h-4-4-4-4v-4h4 4 4z" fill="#fcd770"/></g><g><path d="m22 12h4v3.57c-1.22.91-2 2.37-2 4v3.43c0 3.53 2.61 6.45 6.01 6.92l-.01.08-1 4h-1.6c-1.97 0-3.86.62-5.43 1.73-.53-4.84-2.58-9.51-5.22-13.73-.86-1.38-1.79-2.72-2.75-4v-6h4z" fill="#ffeaa7"/></g><g><path d="m52 3v5h-4v-6z" fill="#fcd770"/></g><g><path d="m56 8v4h-12v-4h4 4z" fill="#fcd770"/></g><g><path d="m37.85 12h6.15 12 4v4h-20v-1.69c0-.64-.26-1.26-.71-1.71-.38-.38-.9-.6-1.44-.6z" fill="#ccd1d9"/></g><g><path d="m60 16v14h-14v4 4 5.41c0-2.2-.77-4.34-2.18-6.03-.9-1.07-2-1.92-3.24-2.49-1.23-.58-2.59-.89-3.99-.89h-1.59l-1-4-.01-.08c3.4-.47 6.01-3.39 6.01-6.92v-7z" fill="#e6e9ed"/></g><g><path d="m62 30v4h-16v-4h14z" fill="#aab2bd"/></g><g><path d="m58 54h-4-4-4v-8-2.59-5.41-4h16v20z" fill="#ccd1d9"/></g><g><path d="m16.75 22h-14.75v-4h12c.96 1.28 1.89 2.62 2.75 4z" fill="#ccd1d9"/></g><g><path d="m24 54v4.14c0 1.06.43 2.03 1.13 2.73s1.67 1.13 2.73 1.13h-25.86v-8h21z" fill="#838f9b"/></g><g><path d="m62 54v8h-12v-1c0-1.66-1.34-3-3-3h-1v-4h4 4 4z" fill="#838f9b"/></g><g><path d="m18 49c0-.92 0-2.02 0-3 0-1.25 0-2.32 0-2.6 0-2.2.77-4.33 2.18-6.02.53-.63 1.13-1.18 1.79-1.65-.53-4.84-2.58-9.51-5.22-13.73h-14.75v32h21c-2.76 0-5-2.24-5-5z" fill="#e6e9ed"/></g><g><path d="m2 44h12v4h-12z" fill="#69d6f4"/></g><g><path d="m2 36h12v4h-12z" fill="#69d6f4"/></g><g><path d="m2 28h12v4h-12z" fill="#69d6f4"/></g><g><path d="m44 20h4v6h-4z" fill="#69d6f4"/></g><g><path d="m52 20h4v6h-4z" fill="#69d6f4"/></g><g><path d="m24 46h-6c0-1.25 0-2.32 0-2.6 0-2.2.77-4.33 2.18-6.02.53-.63 1.13-1.18 1.79-1.65 1.57-1.11 3.46-1.73 5.43-1.73h1.6 6 1.59c1.4 0 2.76.31 3.99.89 1.24.57 2.34 1.42 3.24 2.49 1.41 1.69 2.18 3.83 2.18 6.03v2.59h-6v8h-16z" fill="#b4dd7f"/></g><g><path d="m40 54v4.14c0 2.13-1.73 3.86-3.86 3.86-.77 0-1.53-.23-2.17-.66l-1.97-1.34-1.97 1.34c-.64.43-1.4.66-2.17.66-1.06 0-2.03-.43-2.73-1.13s-1.13-1.67-1.13-2.73v-4.14z" fill="#d3a06c"/></g><g><path d="m50 61v1h-13.86c2.13 0 3.86-1.73 3.86-3.86v-4.14-8h6v8 4h1c1.66 0 3 1.34 3 3z" fill="#f0d0b4"/></g><g><path d="m24 46v8h-1c-2.76 0-5-2.24-5-5 0-.92 0-2.02 0-3z" fill="#f0d0b4"/></g><g><path d="m34 30 1 4h-6l1-4 .01-.08c.32.06.65.08.99.08h2c.34 0 .67-.02.99-.08z" fill="#f0d0b4"/></g><g><path d="m39.29 12.6c.45.45.71 1.07.71 1.71v1.69 7c0 3.53-2.61 6.45-6.01 6.92-.32.06-.65.08-.99.08h-2c-.34 0-.67-.02-.99-.08-3.4-.47-6.01-3.39-6.01-6.92v-3.43c0-1.63.78-3.09 2-4 .72-.55 1.59-.9 2.55-.98l1.45-.13 3.03-.28c1.27-.12 2.47-.68 3.37-1.58.38-.38.9-.6 1.45-.6.54 0 1.06.22 1.44.6z" fill="#b27946"/></g></g><g><path d="m61 29v-18h-4v-4h-4v-4.781l-6-1.5v6.281h-4v4h-5.154v.036c-.79 0-1.58.285-2.15.855-.739.739-1.72 1.198-2.76 1.293l-1.936.175v-6.359h-4v-4h-2v4h-2v-6h-2v6h-2v-4h-2v4h-4v10h-12v46h26.861c.975 0 1.917-.289 2.725-.836l1.414-.957 1.414.957c.807.547 1.75.836 2.725.836h26.861v-34zm-4 10v14h-2v-14h-2v14h-2v-14h-2v14h-2v-18h14v18h-2v-14zm-18 2v12h-14v-12h-2v4h-4v-1.604c0-1.958.692-3.866 1.948-5.372 1.602-1.921 3.955-3.024 6.457-3.024h9.189c2.502 0 4.855 1.103 6.457 3.024 1.257 1.508 1.949 3.419 1.949 5.381v1.595h-4v-4zm-24 8v-6h-12v-2h12v-6h-12v-2h12v-6h-12v-4h13.18c2.615 4.298 4.193 8.417 4.714 12.299-.534.43-1.035.907-1.483 1.444-1.554 1.865-2.411 4.229-2.411 6.653v5.603c0 1.538.586 2.938 1.541 4.001h-15.541v-4zm-12-2v-2h10v2zm0-8v-2h10v2zm0-8v-2h10v2zm16-14v-4h2v4h2v-4h2v2.113c-1.225 1.099-2 2.677-2 4.453v3.434c0 3.647 2.456 6.725 5.798 7.685l-.579 2.315h-.814c-1.648 0-3.239.397-4.671 1.118-.894-5.186-3.483-10.704-7.734-16.438v-4.68h2v4zm14.216 13.989.503 2.011h-3.438l.503-2.011c.072.002.143.011.216.011h2c.073 0 .144-.009.216-.011zm-14.216 18.01v-1.999h4v6c-2.206 0-4-1.795-4-4.001zm28-15.999v-2h14v2zm-2-4v8.285c-.133-.183-.267-.367-.413-.542-1.982-2.379-4.896-3.743-7.993-3.743h-.813l-.579-2.315c3.342-.96 5.798-4.038 5.798-7.685v-6h18v12zm14-14h-18v-.685c0-.459-.09-.904-.26-1.315h18.26zm-10-11.719 2 .5v3.219h-2zm-4 5.719h10v2h-10zm-11.884 6.176c1.506-.137 2.924-.802 3.993-1.871.197-.197.458-.305.737-.305.274 0 .542.111.736.304.27.271.418.63.418 1.011v8.685c0 3.309-2.691 6-6 6h-2c-3.309 0-6-2.691-6-6v-3.434c0-2.082 1.564-3.795 3.638-3.983zm-4.659-1.586c-.512.047-.993.175-1.457.338v-.928h2v.541zm.543-4.59v2h-14v-2zm-15.502 10c.495.671.958 1.337 1.405 2h-11.903v-2zm-10.498 36h20v3.139c0 1.073.36 2.056.951 2.861h-20.951zm31.535 5.508-2.535-1.715-2.536 1.715c-.475.322-1.029.492-1.603.492-1.577 0-2.861-1.283-2.861-2.861v-3.139h14v3.139c0 1.578-1.284 2.861-2.861 2.861-.574 0-1.128-.17-1.604-.492zm5.514.492c.591-.805.951-1.789.951-2.861v-11.139h4v12h2c1.103 0 2 .897 2 2zm10.951 0c0-2.206-1.794-4-4-4v-2h14v6z"/><path d="m43 27h6v-8h-6zm2-6h2v4h-2z"/><path d="m51 19v8h6v-8zm4 6h-2v-4h2z"/></g></g></svg>