<svg id="_x33_0" enable-background="new 0 0 64 64" height="512" viewBox="0 0 64 64" width="512" xmlns="http://www.w3.org/2000/svg"><g><g><g><path d="m36.71 54 .64 4h-10.7l.64-4z" fill="#cf9e76"/></g><g><path d="m28 49.55-.71 4.45-.64 4-.4 2.49c-.14.87-.9 1.51-1.78 1.51h-1.66c-1 0-1.81-.81-1.81-1.81 0-.13.01-.25.04-.38l2.55-11.89c1.37.72 2.85 1.28 4.41 1.63z" fill="#b27946"/></g><g><path d="m42.59 58.1.37 1.71c.03.13.04.25.04.38 0 1-.81 1.81-1.81 1.81h-1.66c-.88 0-1.64-.64-1.78-1.51l-.4-2.49-.64-4-.71-4.45c1.57-.35 3.06-.91 4.44-1.65h.01c-.3.98-.45 2.02-.45 3.1 0 2.71.98 5.18 2.59 7.1z" fill="#b27946"/></g><g><circle cx="32" cy="32" fill="#ccd1d9" r="18"/></g><g><path d="m40.49 23.51c2.17 2.17 3.51 5.17 3.51 8.49 0 2.66-.87 5.12-2.33 7.11l-1.28-.85c-.26-.17-.55-.26-.85-.26-.85 0-1.54.69-1.54 1.54 0 .3.09.59.26.85l.85 1.28c-1.99 1.46-4.45 2.33-7.11 2.33-6.63 0-12-5.37-12-12s5.37-12 12-12c3.32 0 6.32 1.34 8.49 3.51z" fill="#ff826e"/></g><g><path d="m36.24 27.76c1.09 1.08 1.76 2.58 1.76 4.24 0 3.31-2.69 6-6 6s-6-2.69-6-6 2.69-6 6-6c1.66 0 3.16.67 4.24 1.76z" fill="#fc6e51"/></g><g><path d="m60.71 8h-4.71v-4.71c0-.71-.58-1.29-1.29-1.29-.44 0-.85.23-1.09.6l-1.59 2.55-3.03 4.85.83 4.17 4.17.83 4.85-3.03 2.55-1.59c.37-.24.6-.65.6-1.09 0-.71-.58-1.29-1.29-1.29z" fill="#b4dd7f"/></g><g><path d="m9 10.38c0 2.21 1.79 4 4 4-1.01 0-1.98.19-2.87.53-.8.3-1.53.72-2.19 1.25-1.39 1.12-2.4 2.7-2.81 4.52-1.94-1.98-3.13-4.69-3.13-7.68 0-6.08 4.92-11 11-11 5.97 0 10.82 4.74 10.99 10.66l3.05 2.03 1.38.92c.36.24.58.65.58 1.09 0 .72-.58 1.3-1.3 1.3h-4.9c-.51.99-1.16 1.89-1.93 2.68-.6-2.68-2.52-4.82-5-5.77-.89-.34-1.86-.53-2.87-.53 2.21 0 4-1.79 4-4s-1.79-4-4-4-4 1.79-4 4z" fill="#e6e9ed"/></g><g><path d="m47 48c0 2.21 1.79 4 4 4-1.01 0-1.98.19-2.87.53-2.58.98-4.55 3.25-5.07 6.08-.16-.16-.32-.33-.47-.51-1.61-1.92-2.59-4.39-2.59-7.1 0-1.08.15-2.12.45-3.1.26-.91.64-1.77 1.11-2.56l-2.45-3.67-.85-1.28c-.17-.26-.26-.55-.26-.85 0-.85.69-1.54 1.54-1.54.3 0 .59.09.85.26l1.28.85 3.67 2.45c.79-.47 1.65-.85 2.56-1.11.98-.3 2.02-.45 3.1-.45 6.08 0 11 4.92 11 11 0 2.96-1.16 5.64-3.06 7.61-.35-1.91-1.36-3.55-2.77-4.73-.68-.57-1.46-1.03-2.3-1.35-.89-.34-1.86-.53-2.87-.53 2.21 0 4-1.79 4-4s-1.79-4-4-4-4 1.79-4 4z" fill="#e6e9ed"/></g><g><path d="m20.87 20.68c-1.3 1.34-2.93 2.34-4.77 2.88-.98.29-2.02.44-3.1.44-3.09 0-5.88-1.27-7.87-3.32.41-1.82 1.42-3.4 2.81-4.52.66-.53 1.39-.95 2.19-1.25l.38 1.53c.29 1.14 1.31 1.94 2.49 1.94s2.2-.8 2.49-1.94l.38-1.53c2.48.95 4.4 3.09 5 5.77z" fill="#fcd770"/></g><g><path d="m15.87 14.91-.38 1.53c-.29 1.14-1.31 1.94-2.49 1.94s-2.2-.8-2.49-1.94l-.38-1.53c.89-.34 1.86-.53 2.87-.53s1.98.19 2.87.53z" fill="#f0d0b4"/></g><g><circle cx="13" cy="10.38" fill="#f0d0b4" r="4"/></g><g><path d="m58.94 58.61v.01c-2.01 2.08-4.82 3.38-7.94 3.38s-5.93-1.3-7.94-3.38v-.01c.52-2.83 2.49-5.1 5.07-6.08l.38 1.53c.29 1.14 1.31 1.94 2.49 1.94s2.2-.8 2.49-1.94l.38-1.53c.84.32 1.62.78 2.3 1.35 1.41 1.18 2.42 2.82 2.77 4.73z" fill="#fcd770"/></g><g><path d="m53.87 52.53-.38 1.53c-.29 1.14-1.31 1.94-2.49 1.94s-2.2-.8-2.49-1.94l-.38-1.53c.89-.34 1.86-.53 2.87-.53s1.98.19 2.87.53z" fill="#f0d0b4"/></g><g><circle cx="51" cy="48" fill="#f0d0b4" r="4"/></g></g><g><path d="m51 39c-.461 0-.919.031-1.374.084.898-2.241 1.374-4.654 1.374-7.084 0-4.879-1.864-9.32-4.898-12.688l4.06-4.06 4.032.806 7.732-4.833c.673-.42 1.074-1.145 1.074-1.938 0-1.261-1.026-2.287-2.287-2.287h-3.713v-3.713c0-1.261-1.026-2.287-2.287-2.287-.793 0-1.518.401-1.938 1.074l-4.833 7.732.806 4.031-4.059 4.06c-3.37-3.033-7.81-4.897-12.689-4.897-1.618 0-3.22.213-4.772.615l-2.264-1.508c-.446-6.269-5.605-11.107-11.964-11.107-6.617 0-12 5.383-12 12s5.383 12 12 12c.465 0 .923-.039 1.377-.091-.9 2.243-1.377 4.659-1.377 7.091 0 6.998 3.814 13.109 9.462 16.406l-2.4 11.201c-.041.193-.062.39-.062.584 0 1.549 1.26 2.809 2.809 2.809h1.659c1.379 0 2.544-.986 2.771-2.353l.264-1.647h8.995l.264 1.654c.226 1.36 1.391 2.346 2.77 2.346h1.659c1.378 0 2.522-.999 2.758-2.311 1.983 1.447 4.415 2.311 7.051 2.311 6.617 0 12-5.383 12-12s-5.383-12-12-12zm2.807-25.059-1.945-.389 1.634-1.634 2.688.538zm7.193-4.654c0 .1-.051.19-.135.243l-2.21 1.381-3.46-.692 1.219-1.219h4.299c.158 0 .287.129.287.287zm-6.53-6.152c.137-.217.529-.106.53.152v4.299l-1.219 1.219-.692-3.46zm-2.926 4.682.538 2.688-1.634 1.634-.389-1.945zm-2.544 24.183c0 2.656-.633 5.288-1.819 7.642-.614.206-1.219.442-1.795.745l-2.326-1.551c1.272-2.049 1.94-4.392 1.94-6.836 0-3.225-1.187-6.173-3.139-8.447l2.827-2.827c2.673 3.004 4.312 6.946 4.312 11.274zm-12 7.54c0 .491.146.974.428 1.404l.298.448c-1.72 1.053-3.68 1.608-5.726 1.608-6.065 0-11-4.935-11-11s4.935-11 11-11c2.673 0 5.125.96 7.034 2.552l-2.85 2.85c-1.169-.876-2.614-1.402-4.184-1.402-3.859 0-7 3.141-7 7s3.141 7 7 7 7-3.141 7-7c0-1.57-.526-3.015-1.402-4.184l2.85-2.85c1.591 1.909 2.552 4.361 2.552 7.034 0 2.045-.555 4.006-1.608 5.726l-.455-.303c-.423-.277-.906-.423-1.397-.423-1.4 0-2.54 1.14-2.54 2.54zm0-7.54c0 2.757-2.243 5-5 5s-5-2.243-5-5 2.243-5 5-5c1.017 0 1.962.309 2.753.833l-3.46 3.46 1.414 1.414 3.46-3.46c.524.791.833 1.736.833 2.753zm-24-29c5.446 0 9.835 4.256 9.99 9.688l.016.518 4.861 3.237c.082.055.133.154.133.257 0 .168-.132.3-.3.3h-5.513l-.278.545c-.2.391-.428.761-.671 1.117-.971-2.132-2.712-3.773-4.849-4.625.984-.914 1.611-2.208 1.611-3.654 0-2.757-2.243-5-5-5s-5 2.243-5 5c0 1.446.627 2.74 1.611 3.654-2.136.852-3.876 2.492-4.848 4.622-1.109-1.611-1.763-3.56-1.763-5.659 0-5.514 4.486-10 10-10zm-3 7.383c0-1.654 1.346-3 3-3s3 1.346 3 3-1.346 3-3 3-3-1.346-3-3zm3 5c.572 0 1.124.093 1.663.227l-.147.59c-.175.696-.798 1.183-1.516 1.183s-1.341-.486-1.515-1.183l-.147-.591c.539-.133 1.091-.226 1.662-.226zm-6.731 4.99c.533-1.716 1.687-3.14 3.194-4.019l.083.33c.396 1.589 1.817 2.698 3.455 2.698s3.059-1.109 3.456-2.698l.082-.33c1.506.879 2.66 2.303 3.193 4.018-1.811 1.657-4.182 2.628-6.732 2.628-2.594 0-4.952-1.001-6.731-2.627zm8.731 11.627c0-2.656.633-5.289 1.82-7.644 2.737-.916 5.089-2.78 6.575-5.356h4.305c1.269 0 2.3-1.031 2.3-2.3 0-.563-.206-1.091-.56-1.503.844-.127 1.699-.197 2.56-.197 4.328 0 8.27 1.639 11.274 4.311l-2.827 2.827c-2.275-1.951-5.222-3.138-8.447-3.138-7.168 0-13 5.832-13 13s5.832 13 13 13c2.444 0 4.787-.668 6.837-1.941l1.55 2.326c-.303.577-.54 1.181-.746 1.796-2.354 1.187-4.985 1.819-7.641 1.819-9.374 0-17-7.626-17-17zm20.538 21h-7.077l.366-2.287c1.034.175 2.09.287 3.173.287 1.066 0 2.128-.097 3.175-.274zm-10.272 7.324c-.066.392-.401.676-.798.676h-1.659c-.447 0-.809-.362-.809-.809 0-.057.006-.114.018-.169l2.286-10.667c.827.368 1.685.673 2.568.921zm2.556-3.324.32-2h7.716l.32 2zm13.369 4h-1.659c-.397 0-.732-.284-.797-.669l-1.605-10.044c.663-.185 1.315-.404 1.954-.66-.053.454-.084.913-.084 1.373 0 2.845.999 5.457 2.659 7.516l.322 1.502c.013.059.019.117.019.173 0 .447-.362.809-.809.809zm2.972-2.723c.487-1.865 1.697-3.403 3.294-4.327l.088.352c.396 1.589 1.817 2.698 3.455 2.698s3.059-1.109 3.456-2.698l.088-.351c1.597.925 2.806 2.463 3.293 4.327-1.79 1.682-4.192 2.722-6.837 2.722s-5.047-1.04-6.837-2.723zm3.837-10.277c0-1.654 1.346-3 3-3s3 1.346 3 3-1.346 3-3 3-3-1.346-3-3zm3 5c.573 0 1.131.074 1.668.204l-.153.613c-.174.697-.797 1.183-1.515 1.183s-1.341-.486-1.515-1.183l-.153-.613c.537-.13 1.095-.204 1.668-.204zm8.336 3.511c-.949-2.225-2.743-3.962-4.955-4.851.989-.914 1.619-2.21 1.619-3.66 0-2.757-2.243-5-5-5s-5 2.243-5 5c0 1.45.63 2.746 1.619 3.66-2.212.889-4.006 2.626-4.955 4.851-1.049-1.582-1.664-3.475-1.664-5.511 0-1.811.49-3.591 1.419-5.148l.322-.542-3.645-5.468c-.064-.098-.096-.199-.096-.302 0-.298.242-.54.54-.54.103 0 .204.032.295.092l5.475 3.649.542-.322c1.557-.929 3.337-1.419 5.148-1.419 5.514 0 10 4.486 10 10 0 2.036-.615 3.929-1.664 5.511z"/><path d="m7 49h2v2h-2z"/><path d="m11 49h2v2h-2z"/><path d="m15 49h2v2h-2z"/></g></g></svg>