<svg id="_x33_0" enable-background="new 0 0 64 64" height="512" viewBox="0 0 64 64" width="512" xmlns="http://www.w3.org/2000/svg"><g><path d="m37 9h-2c-.818 0-1.521.495-1.831 1.201-1.731.521-3.52.799-5.331.799h-4.838c-2.206 0-4 1.794-4 4v2c0 2.206 1.794 4 4 4h2v5c0 1.654 1.346 3 3 3s3-1.346 3-3v-4.721c.732.127 1.455.305 2.169.52.31.706 1.013 1.201 1.831 1.201h2c1.103 0 2-.897 2-2v-10c0-1.103-.897-2-2-2zm-4 3.329v7.342c-1.685-.44-3.414-.671-5.162-.671h-.838v-6h.838c1.748 0 3.477-.231 5.162-.671zm-10 6.671c-1.103 0-2-.897-2-2v-2c0-1.103.897-2 2-2h2v6zm6 7c0 .552-.449 1-1 1s-1-.448-1-1v-5h.838c.389 0 .776.022 1.162.047zm6-5v-10h2l.001 10z"/><path d="m41 15h4v2h-4z"/><path d="m41 18.586h2v2.828h-2z" transform="matrix(.707 -.707 .707 .707 -1.841 35.556)"/><path d="m40.586 11h2.828v2h-2.828z" transform="matrix(.707 -.707 .707 .707 3.816 33.213)"/><path d="m55.719 29.249c.037-.081.066-.164.096-.249h4.185c1.654 0 3-1.346 3-3v-2c0-1.654-1.346-3-3-3h-11.281c.174-.976.281-1.975.281-3 0-9.374-7.626-17-17-17s-17 7.626-17 17c0 1.025.107 2.024.281 3h-11.281c-1.654 0-3 1.346-3 3v2c0 1.654 1.346 3 3 3h4.184c.03.084.059.168.096.249l-7.144 12.247-.162.354.042.336c.628 5.025 4.92 8.814 9.984 8.814s9.356-3.789 9.992-8.874l.042-.337-7.315-12.54c.037-.081.066-.164.096-.249h5.246c2.289 2.689 5.399 4.647 8.938 5.505v16.495h-4c-2.757 0-5 2.243-5 5v5c0 1.103.897 2 2 2h22c1.103 0 2-.897 2-2v-5c0-2.757-2.243-5-5-5h-4v-16.495c3.539-.858 6.649-2.816 8.938-5.505h5.246c.03.084.059.168.096.249l-7.145 12.247-.163.354.042.336c.631 5.025 4.923 8.814 9.987 8.814s9.356-3.789 9.992-8.874l.042-.337zm-2.719-.249c-.551 0-1-.448-1-1s.449-1 1-1 1 .448 1 1-.449 1-1 1zm0 2c.451 0 .875-.107 1.258-.286l6 10.286h-14.517l6.001-10.286c.384.179.807.286 1.258.286zm-40.742-.286 6 10.286h-14.517l6.001-10.286c.384.179.807.286 1.258.286s.875-.107 1.258-.286zm-1.258-1.714c-.551 0-1-.448-1-1s.449-1 1-1 1 .448 1 1-.449 1-1 1zm0 20c-3.675 0-6.84-2.492-7.784-6h15.575c-.923 3.486-4.1 6-7.791 6zm2.816-22c-.414-1.161-1.514-2-2.816-2s-2.402.839-2.816 2h-4.184c-.551 0-1-.448-1-1v-2c0-.552.449-1 1-1h11.753c.439 1.425 1.074 2.761 1.851 4zm7.184 34v-2h22.001l.001 2zm22-5v1h-22v-1c0-1.654 1.346-3 3-3h16c1.654 0 3 1.346 3 3zm-9-5h-4v-16.128c.657.077 1.322.128 2 .128s1.343-.051 2-.128zm-2-18c-8.271 0-15-6.729-15-15s6.729-15 15-15 15 6.729 15 15-6.729 15-15 15zm16.247-10h11.753c.551 0 1 .448 1 1v2c0 .552-.449 1-1 1h-4.184c-.414-1.161-1.514-2-2.816-2s-2.402.839-2.816 2h-3.788c.777-1.239 1.412-2.575 1.851-4zm4.753 26c-3.675 0-6.84-2.492-7.784-6h15.575c-.923 3.486-4.1 6-7.791 6z"/></g></svg>