<svg id="_x33_0" enable-background="new 0 0 64 64" height="512" viewBox="0 0 64 64" width="512" xmlns="http://www.w3.org/2000/svg"><g><path d="m31 32c0-2.757-2.243-5-5-5s-5 2.243-5 5v1h10zm-7.829-1c.413-1.164 1.525-2 2.829-2s2.416.836 2.829 2z"/><path d="m43 32c0-2.757-2.243-5-5-5s-5 2.243-5 5v1h10zm-7.829-1c.413-1.164 1.525-2 2.829-2s2.416.836 2.829 2z"/><path d="m32 51c6.065 0 11-4.935 11-11v-3h-22v3c0 6.065 4.935 11 11 11zm-9-12h18v1c0 4.962-4.038 9-9 9s-9-4.038-9-9z"/><path d="m32 59c12.682 0 23-10.318 23-23s-10.318-23-23-23-23 10.318-23 23 10.318 23 23 23zm-21-23c0-4.709 1.577-9.046 4.205-12.553l1.878 1.878c-.05.218-.083.442-.083.675v14c0 8.271 6.729 15 15 15 4.074 0 7.769-1.638 10.475-4.283l2.078 2.078c-3.507 2.628-7.844 4.205-12.553 4.205-11.58 0-21-9.42-21-21zm33-11c.551 0 1 .449 1 1v14c0 7.168-5.832 13-13 13s-13-5.832-13-13v-14c0-.551.449-1 1-1zm2.102 26.516-2.295-2.295c.418-.534.799-1.097 1.143-1.685l2.567 2.567c-.451.492-.922.963-1.415 1.413zm6.898-15.516c0 4.709-1.577 9.046-4.205 12.553l-2.907-2.907c.712-1.745 1.112-3.649 1.112-5.646v-14c0-1.654-1.346-3-3-3h-20.758l-3.795-3.795c3.507-2.628 7.844-4.205 12.553-4.205 11.58 0 21 9.42 21 21zm-35.102-15.516 2.516 2.516h-.414c-.678 0-1.297.234-1.799.615l-1.716-1.716c.449-.494.92-.965 1.413-1.415z"/><path d="m60 1h-56c-1.654 0-3 1.346-3 3v56c0 1.654 1.346 3 3 3h56c1.654 0 3-1.346 3-3v-56c0-1.654-1.346-3-3-3zm-56 2h56c.551 0 1 .449 1 1v7h-2v-6h-20v4.926c-2.234-.601-4.579-.926-7-.926-3.602 0-7.038.714-10.183 2h-18.817v-7c0-.551.449-1 1-1zm28 8c13.785 0 25 11.215 25 25s-11.215 25-25 25-25-11.215-25-25 11.215-25 25-25zm9-.452v-3.548h4v4h-2.817c-.39-.159-.784-.31-1.183-.452zm6-3.548h4v4h-4zm6 0h4v4h-4zm-49 54c-.551 0-1-.449-1-1v-47h14.877c-7.719 4.757-12.877 13.287-12.877 23 0 11.286 6.964 20.972 16.817 25zm56 0h-17.817c9.853-4.028 16.817-13.714 16.817-25 0-9.713-5.158-18.243-12.877-23h14.877v47c0 .551-.449 1-1 1z"/><path d="m5 5h2v2h-2z"/><path d="m9 5h2v2h-2z"/><path d="m13 5h2v2h-2z"/></g></svg>