<svg id="_x33_0" enable-background="new 0 0 64 64" height="512" viewBox="0 0 64 64" width="512" xmlns="http://www.w3.org/2000/svg"><g><path d="m32 31c-1.615 0-3.067.897-3.789 2.342l-.105.211 1.789.895.105-.212c.381-.762 1.147-1.236 2-1.236s1.619.474 2 1.236l.105.211 1.789-.895-.105-.21c-.722-1.445-2.174-2.342-3.789-2.342z"/><path d="m56.555 30.655-13.292-2.954c-.038-.054-.086-.101-.127-.154.57-2.349.864-4.764.864-7.183 0-4.061-3.304-7.364-7.364-7.364-.111 0-.221.011-.331.016-2.089-1.315-4.485-2.016-6.96-2.016h-1.168c-2.92 0-5.783 1.004-8.063 2.829l-.898.719c-.774.617-1.216 1.537-1.216 2.526 0 .864.336 1.676.947 2.288l.639.638-.511.51c-.453.454-.757 1.01-.924 1.611l-2.537-.564c-.513-.924-1.486-1.557-2.614-1.557-.359 0-.698.074-1.017.19-.086-1.192-.916-2.204-2.09-2.497l-2.439-.61c-.222-.055-.447-.083-.673-.083-1.273 0-2.338.865-2.667 2.034-.104-.011-.207-.034-.312-.034-1.545 0-2.802 1.257-2.802 2.802v3.816c0 1.264.853 2.377 2.056 2.701l.263.076.671 2.687-.967 11.6c-.015.185-.023.372-.023.558 0 3.727 3.033 6.76 6.761 6.76h4.239c0 1.103.897 2 2 2h5v11h28.535l.853-1.279c1.054-1.583 1.612-3.424 1.612-5.325 0-1.033-.166-2.054-.493-3.037l-2.131-6.396c-.316-.95-.783-1.839-1.386-2.643-1.557-2.076-3.929-3.431-6.509-3.718l-4.68-.52-.576-2.303c.191-.119.375-.246.554-.381l16.69 4.493c.265.073.539.109.811.109h.118c1.388 0 2.622-.932 3.003-2.265l1.478-5.172c.08-.279.121-.568.121-.86 0-1.475-1.006-2.728-2.445-3.048zm-16.555.345v-3c1.103 0 2 .897 2 2s-.897 2-2 2h-.069c.041-.328.069-.661.069-1zm-19.639-13.052c-.232-.234-.361-.544-.361-.874 0-.377.169-.729.464-.964l.899-.72c1.927-1.541 4.347-2.39 6.814-2.39h1.168c1.393 0 2.758.262 4.036.763-.713.352-1.374.816-1.953 1.395l-.136.136 1.416 1.412.135-.135c1.012-1.013 2.36-1.571 3.793-1.571 2.958 0 5.364 2.406 5.364 5.364 0 1.981-.22 3.958-.628 5.894-.43-.158-.888-.258-1.372-.258v-2h-2v1.497c-.478.322-1.037.503-1.619.503h-.473c-1.603 0-2.908-1.305-2.908-2.908 0-.975.484-1.879 1.295-2.42l1.26-.84-1.109-1.664-1.26.84c-1.369.912-2.186 2.439-2.186 4.084 0 .452.081.882.196 1.298l-.759.759c-.548.549-1.279.851-2.056.851h-.473c-1.603 0-2.908-1.305-2.908-2.908 0-.975.484-1.879 1.295-2.42l1.26-.84-1.109-1.664-1.26.84c-1.369.912-2.186 2.439-2.186 4.084 0 1.093.372 2.094.978 2.91-.675.004-1.302.189-1.859.489l-1.784-2.379c-.216-.287-.335-.643-.335-1.004 0-.447.175-.869.49-1.185l1.924-1.923zm1.639 12.052c0-1.103.897-2 2-2v3c0 .339.028.672.069 1h-.069c-1.103 0-2-.897-2-2zm-1.362-2.15c-.399.622-.638 1.357-.638 2.15 0 .287.033.565.091.835l-4.355-1.172c.169-.559.264-1.147.264-1.753v-4.219l2.165.481c.124.409.312.799.57 1.141zm-5.828 3.635 7.106 1.913c.608.375 1.318.602 2.084.602h.589c.638 1.571 1.763 2.891 3.185 3.78l-.555 2.22h-15.219v-6.382l.684-.342c.862-.431 1.576-1.053 2.126-1.791zm21.557 10.562.939.104-1.753 3.507-1.865-.932zm-8.781-.047 2.726 2.726-1.865.932-1.829-3.658zm-21.586-22.219c0-.431.351-.781.781-.781.063 0 .127.008.189.023l2.438.609c.349.088.592.399.592.759v1.429l-3.165-.527c-.483-.082-.835-.497-.835-.987zm-3 5.838v-3.816c0-.501.483-.894.977-.783l.127.028c.287 1.131 1.204 2.018 2.404 2.217l3.492.582v.739l-.293.293c-.79.79-1.325 1.767-1.564 2.832l-4.549-1.317c-.35-.095-.594-.414-.594-.775zm6.761 22.381c-2.625 0-4.761-2.135-4.761-4.76 0-.133.006-.266.016-.396l.98-11.761.015-.165-.47-1.879 4.459 1.292v-1.331c0-1.022.398-1.984 1.121-2.707l.879-.879v-1.233-1.181c0-.551.448-1 1-1s1 .449 1 1v4.91c0 1.525-.847 2.896-2.211 3.578l-1.789.894v11.618h2v-2h2v6zm12.134.553-1.789.895.276.552h-4.382v-8h8.382l3.171 6.342 3.447-1.724v14.382h-8v-10.236zm21.889 8.249-.784.784v-2.35zm4.94 3.81-.259.388h-5.465v-.586l2.293-2.293c.713-.712 1.699-1.121 2.707-1.121v-2c-.896 0-1.779.218-2.576.611l-.58-1.159c1.491-.548 2.898-1.309 4.162-2.27l.603 1.811c.26.777.391 1.585.391 2.403 0 1.505-.441 2.963-1.276 4.216zm-2.333-15.091c.474.631.839 1.329 1.088 2.075l.852 2.557c-1.295 1.092-2.786 1.939-4.387 2.497l-.826-1.65.776-1.552-1.789-.895-1.105 2.211v10.236h-8v-14.382l3.447 1.724 2.977-5.955 1.836.204c2.034.225 3.903 1.294 5.131 2.93zm-11.498-4.828-2.893 2.893-2.893-2.893.513-2.055c.752.235 1.552.362 2.38.362s1.628-.127 2.38-.361zm-2.893-3.693c-3.309 0-6-2.691-6-6v-3.386c.587.248 1.232.386 1.908.386h.473c1.312 0 2.545-.511 3.471-1.438l.323-.323c.901 1.067 2.231 1.76 3.734 1.76h.473c.558 0 1.102-.105 1.619-.286v3.287c-.001 3.309-2.692 6-6.001 6zm24.956-2.989-1.479 5.175c-.136.48-.58.814-1.079.814h-.118c-.099 0-.197-.013-.292-.039l-15.579-4.195c.404-.542.744-1.132 1.002-1.767h.589c2.206 0 4-1.794 4-4 0-.03-.008-.059-.009-.089l12.13 2.696c.509.114.879.575.879 1.097 0 .104-.015.207-.044.308z"/><path d="m60.717 13.049c1.43-.999 2.283-2.621 2.283-4.369 0-2.034-1.13-3.863-2.949-4.772l-4.778-2.389c-.678-.34-1.438-.519-2.196-.519h-.169c-2.706 0-4.908 2.202-4.908 4.908 0 .435.061.86.17 1.269l-.016.004c-2.446.611-4.154 2.798-4.154 5.319 0 1.985 1.069 3.751 2.713 4.715l-1.313.985 1.2 1.6 2.401-1.8c1.252-.939 1.999-2.435 1.999-4h-2c0 .653-.228 1.279-.613 1.793-1.414-.47-2.387-1.781-2.387-3.293 0-1.601 1.085-2.99 2.639-3.378l.471-.118c.306.375.662.712 1.076.988l1.26.84 1.109-1.664-1.26-.84c-.811-.54-1.295-1.445-1.295-2.42 0-1.603 1.305-2.908 2.908-2.908h.169c.449 0 .899.106 1.301.307l4.778 2.389c1.138.569 1.844 1.712 1.844 2.984 0 1.118-.556 2.155-1.485 2.775l-.971.647c-.338-.065-.687-.102-1.044-.102h-1.5v2h1.5c1.93 0 3.5 1.57 3.5 3.5s-1.57 3.5-3.5 3.5h-.455c-1.679 0-3.045-1.366-3.045-3.045 0-.47.111-.941.321-1.362l.573-1.146-1.789-.895-.573 1.146c-.348.698-.532 1.479-.532 2.257 0 .419.066.819.163 1.209-1.501.257-2.938.818-4.214 1.668l-.504.336 1.109 1.664.504-.336c1.211-.807 2.602-1.284 4.045-1.431.925 1.169 2.339 1.935 3.942 1.935h.455c3.032 0 5.5-2.467 5.5-5.5 0-1.831-.903-3.451-2.283-4.451z"/></g></svg>