<svg id="_x33_0" enable-background="new 0 0 64 64" height="512" viewBox="0 0 64 64" width="512" xmlns="http://www.w3.org/2000/svg"><g><circle cx="30" cy="58" r="1"/><path d="m58 33.01c0-.777-.125-1.546-.371-2.284l-6.732-20.196c-.703-2.112-2.671-3.53-4.897-3.53-1.269 0-2.349.794-2.787 1.909-2.535-4.704-7.506-7.909-13.213-7.909-8.271 0-15 6.729-15 15v11.162c0 3.424-1.468 6.693-4.028 8.97l-2.304 2.048c-1.695 1.507-2.668 3.672-2.668 5.941 0 2.123.827 4.12 2.329 5.622l.83.829c.542.543.841 1.265.841 2.033 0 1.096-.609 2.081-1.587 2.57l-.254.126c-1.332.669-2.159 2.007-2.159 3.495 0 1.044.406 2.025 1.144 2.763l1.442 1.441h42.828l1.442-1.441c.738-.738 1.144-1.719 1.144-2.763 0-1.488-.827-2.826-2.161-3.495l-.25-.124c-.98-.49-1.589-1.476-1.589-2.572 0-.769.299-1.49.842-2.033l.83-.829c1.501-1.502 2.328-3.499 2.328-5.622 0-1.501-.433-2.951-1.211-4.2 3.084-.893 5.211-3.659 5.211-6.911zm-10.54-2.01c-.608-.677-1.365-1.217-2.222-1.563-.146-.75-.238-1.511-.238-2.275v-7.614c.591.53 1.28.96 2.061 1.226l.852 10.226zm-30.46-15c0-7.168 5.832-13 13-13s13 5.832 13 13v11.162c0 .617.051 1.233.133 1.845-.045-.001-.088-.007-.133-.007-2.206 0-4 1.794-4 4s1.794 4 4 4h2v-2h-2c-1.103 0-2-.897-2-2s.897-2 2-2c2.206 0 4 1.794 4 4s-1.794 4-4 4c-4.411 0-8-3.589-8-8v-5.111c1.014-1.037 1.704-2.387 1.92-3.889h2.08v-8h-2c0-2.206-1.794-4-4-4h-.901c-2.479 0-4.632-1.765-5.119-4.196l-1.96.392c.168.838.479 1.619.904 2.319l-.697.465c-1.394.93-2.227 2.486-2.227 4.161v.859h-2v8h2.08c.282 1.955 1.369 3.651 2.92 4.736v1.647c0 .469-.333.88-.791.979l-6.784 1.454c-.77.165-1.494.444-2.162.809.48-1.425.737-2.93.737-4.463zm21.176 39.066 1.238 1.857c.855 1.282 1.573 2.649 2.149 4.076h-23.126c.576-1.427 1.294-2.794 2.149-4.076l1.238-1.856c.015-.022.026-.045.04-.067h9.136c2.206 0 4-1.794 4-4 0-.732-.212-1.409-.556-2h2.556v2.184c0 1.386.407 2.729 1.176 3.882zm-19.176-8.066v-6h22v6zm12-8v-2h-2v2h-7.848c.175-.638.498-1.235.969-1.707l.586-.586-1.414-1.414-.586.586c-.847.847-1.407 1.949-1.614 3.121h-2.093v10h14c1.103 0 2 .897 2 2s-.897 2-2 2h-12.322c-2.099 0-3.852-1.64-3.991-3.733l-.673-10.094c-.009-.137-.014-.274-.014-.41 0-2.871 2.037-5.391 4.844-5.992l6.784-1.454c1.374-.295 2.372-1.528 2.372-2.934v-.678c.634.19 1.305.295 2 .295 1.075 0 2.089-.251 3-.685v3.685c0 3.273 1.588 6.175 4.026 8zm-3.801-28.931c1.3 1.203 3.031 1.931 4.9 1.931h.901c1.103 0 2 .897 2 2h-10v-.859c0-1.005.5-1.938 1.336-2.496zm9.801 5.931v4h-14v-4zm-2.101 6c-.465 2.279-2.484 4-4.899 4s-4.434-1.721-4.899-4zm-26.341 38.145c-.36-.361-.558-.839-.558-1.349 0-.727.404-1.38 1.052-1.704l.253-.126c1.662-.831 2.695-2.502 2.695-4.361 0-1.303-.507-2.526-1.428-3.447l-.83-.829c-1.123-1.124-1.742-2.619-1.742-4.208 0-1.698.728-3.319 1.997-4.447l2.063-1.833c-.036.304-.06.61-.06.922 0 .18.006.359.018.541l.673 10.096c.209 3.14 2.839 5.6 5.987 5.6h.787l-.543.814c-1.078 1.618-1.949 3.362-2.617 5.186h-6.891zm41.699-11.816-.83.829c-.92.921-1.427 2.145-1.427 3.447 0 1.858 1.033 3.529 2.697 4.361l.249.124c.65.326 1.054.979 1.054 1.706 0 .51-.198.988-.558 1.349l-.856.855h-6.891c-.668-1.823-1.539-3.568-2.617-5.186l-1.238-1.857c-.549-.824-.84-1.783-.84-2.773v-2.184h4v-8c2.199 0 4.119-1.192 5.164-2.961l1.839 1.635c1.269 1.128 1.997 2.749 1.997 4.447 0 1.589-.619 3.084-1.743 4.208zm1.655-10.223-.534.119c-.016-.014-.03-.031-.046-.045l-2.302-2.046c-.042-.038-.081-.078-.123-.116.057-.332.093-.67.093-1.018 0-.702-.128-1.373-.35-2h3.35v-2h-2.08l-.983-11.798-.907-.225c-1.784-.446-3.03-2.042-3.03-3.881v-5.096c0-.552.449-1 1-1 1.363 0 2.569.869 3 2.162l6.732 20.196c.178.535.268 1.09.268 1.652 0 2.466-1.681 4.561-4.088 5.096z"/></g></svg>