<svg id="_x33_0" enable-background="new 0 0 64 64" height="512" viewBox="0 0 64 64" width="512" xmlns="http://www.w3.org/2000/svg"><g><path d="m34 31.764c-.381.762-1.147 1.236-2 1.236s-1.619-.474-2-1.236l-.105-.211-1.789.895.105.211c.722 1.444 2.174 2.341 3.789 2.341s3.067-.897 3.789-2.342l.105-.211-1.789-.895z"/><path d="m63 27.735v-1.493c0-2.836-1.055-5.504-2.959-7.581 1.583-.384 2.718-1.112 2.927-2.281.072-.4.053-1.025-.446-1.722-1.093-1.525-4.112-2.826-7.881-3.396-4.307-.646-9.154-.19-9.61 2.354-.071.392-.047.998.419 1.675-1.33.455-2.424 1.427-3.018 2.69-1.844-2.982-5.137-4.981-8.896-4.981h-3.072c-3.759 0-7.051 1.999-8.897 4.983-.538-1.144-1.48-2.065-2.644-2.565-.598-2.336-2.24-4.238-4.507-5.147l-2.519-1.007.47 2.82c.162.97.112 1.964-.122 2.915h-.003c-1.291 0-2.548.227-3.753.656-.671-1.341-.932-2.878-.675-4.423l.472-2.821-2.52 1.008c-2.891 1.157-4.759 3.916-4.759 7.03 0 1.17.275 2.34.797 3.386l.552 1.108c-.874 1.629-1.356 3.442-1.356 5.299v1.493c0 2.981 1.233 5.875 3.385 7.938l.979.939-1.224 2.858c-2.161 2.287-3.14 5.9-3.14 8.53v2c0 3.044.774 5.525 2.674 8.564 1.736 2.778 4.727 4.436 8.003 4.436h40.646c3.275 0 6.267-1.658 8.003-4.436 1.9-3.039 2.674-5.52 2.674-8.564v-2c0-2.63-.979-6.243-3.14-8.53l-1.224-2.857.979-.939c2.152-2.064 3.385-4.957 3.385-7.939zm-11.714-14.734c.898 0 1.923.069 3.057.241 4.392.663 6.654 2.252 6.657 2.787-.152.512-2.905 1.401-7.343.729-4.396-.663-6.659-2.256-6.657-2.786.109-.38 1.665-.971 4.286-.971zm-1.551 10.278c1.889.707 3.476 2.015 4.529 3.771l1.17 1.95h.566c.552 0 1 .448 1 1 0 .378-.147.732-.414 1l-1.771 1.771 2.82 6.579-3.293.941c-.231.066-.451.161-.678.241l-.852-3.411-1.135-.188c-1.41-.235-2.609-.983-3.445-2.027 1.392-.269 2.594-1.154 3.246-2.458l-1.789-.895c-.446.892-1.343 1.447-2.341 1.447h-.099c-.15-.507-.249-1.035-.249-1.589 0-.232.014-.464.043-.694l.729-5.83c.876-.229 1.604-.815 1.963-1.608zm1.453 15.598.622 2.489c-.889.507-1.715 1.124-2.442 1.851-.303.303-.586.627-.854.963-.233-.284-.481-.559-.744-.822-1.485-1.485-3.354-2.512-5.404-2.967l-5.598-1.244-.47-1.411c1.388-.889 2.484-2.191 3.112-3.736h.59c2.206 0 4-1.794 4-4 0-.901-.31-1.724-.815-2.393l.278-.833c.284-.855.451-1.74.509-2.636.536.376 1.138.64 1.781.769l-.695 5.561c-.038.313-.058.627-.058.943 0 3.675 2.593 6.789 6.188 7.466zm-10.188 10.123v5.999l-2 .001v-6c0-1.103-.897-2-2-2h-8c-1.103 0-2 .897-2 2v5.999l-4-.001v-5.998h-2v5.997l-6-.002v-3.844c0-2.41.938-4.677 2.643-6.381 1.216-1.216 2.746-2.056 4.424-2.428l5.615-1.248.198.198c1.084 1.086 2.586 1.708 4.12 1.708s3.036-.622 4.121-1.707l.198-.198 5.615 1.248c1.678.372 3.208 1.212 4.424 2.428 1.704 1.705 2.642 3.971 2.642 6.381v3.844l-6 .002v-5.998zm-10 6h-2v-6h8v12h-2.556c.344-.591.556-1.268.556-2 0-2.206-1.794-4-4-4zm-16.369-11.783c-.726-.727-1.552-1.344-2.442-1.851l.622-2.489c3.596-.677 6.189-3.791 6.189-7.466 0-.316-.02-.63-.059-.942l-.695-5.562c.643-.128 1.245-.393 1.781-.769.058.896.225 1.78.51 2.636l.278.833c-.505.669-.815 1.492-.815 2.393 0 2.206 1.794 4 4 4h.589c.628 1.545 1.724 2.847 3.112 3.736l-.47 1.411-5.598 1.244c-2.05.455-3.919 1.481-5.404 2.967-.263.263-.511.538-.744.822-.268-.336-.551-.66-.854-.963zm-7.217-12.217c-.267-.268-.414-.622-.414-1 0-.552.448-1 1-1h.566l1.17-1.95c1.053-1.755 2.64-3.064 4.529-3.771.359.793 1.087 1.378 1.963 1.608l.729 5.831c.029.229.043.461.043.693 0 .553-.099 1.082-.249 1.589h-.099c-.998 0-1.896-.555-2.342-1.447l-1.789.895c.653 1.304 1.854 2.189 3.246 2.458-.835 1.044-2.035 1.792-3.445 2.027l-1.135.188-.852 3.411c-.226-.081-.447-.176-.679-.242l-3.292-.94 2.819-6.579zm16.655 1h-.069c-1.103 0-2-.897-2-2s.897-2 2-2v3c0 .339.028.672.069 1zm10.787 7.73-.149.149c-.713.713-1.699 1.121-2.707 1.121s-1.994-.408-2.707-1.121l-.149-.149.376-1.128c.782.255 1.614.398 2.48.398s1.698-.143 2.48-.398zm-2.856-2.73c-3.309 0-6-2.691-6-6v-5.586c0-.645.251-1.251.707-1.707s1.063-.707 1.707-.707c.84 0 1.652.246 2.351.712 1.263.843 2.735 1.288 4.255 1.288h1.98c.552 0 1 .448 1 1v5c0 3.309-2.691 6-6 6zm8-6v-3c1.103 0 2 .897 2 2s-.897 2-2 2h-.069c.041-.328.069-.661.069-1zm-9.536-16h3.072c4.667 0 8.464 3.797 8.464 8.464 0 .911-.146 1.813-.434 2.677l-.054.161c-.467-.192-.976-.302-1.512-.302 0-1.654-1.346-3-3-3h-1.98c-1.123 0-2.211-.329-3.146-.952-1.027-.686-2.224-1.048-3.46-1.048-1.179 0-2.287.459-3.121 1.293s-1.293 1.942-1.293 3.121v.586c-.535 0-1.045.11-1.512.301l-.053-.161c-.289-.864-.435-1.765-.435-2.676 0-4.667 3.797-8.464 8.464-8.464zm-16.03-2.496c.982.583 1.76 1.463 2.234 2.496h-2.378c.156-.822.213-1.662.144-2.496zm-8.686-.856c-.241 2.822.816 5.573 2.871 7.499-1.028 1.119-2.464 1.79-4.002 1.849l-1.024-2.054c-.383-.77-.586-1.632-.586-2.493 0-2.006 1.053-3.811 2.741-4.801zm.022 22.582c-1.76-1.688-2.77-4.055-2.77-6.495v-1.493c0-1.114.22-2.208.608-3.242h.789c2.591 0 4.997-1.287 6.436-3.442l.525-.787-.758-.568c-.335-.251-.633-.534-.914-.831.828-.24 1.682-.372 2.556-.372h4.671c1.702 0 3.113 1.383 3.144 3.082l.002.121c.015.74-.264 1.439-.783 1.969-.524.534-1.227.828-1.981.828h-.255c-.404 0-.875-.22-.994-.642-.131-.465.047-.796.165-.952.195-.258.49-.406.809-.406h1v-2h-1c-.951 0-1.827.438-2.404 1.2-.234.309-.384.658-.485 1.02-2.561.802-4.717 2.48-6.109 4.801l-.624 1.04c-1.367.28-2.398 1.491-2.398 2.939 0 .912.355 1.77 1 2.414l.814.814-.609 1.42zm-.401 23.274c-1.705-2.729-2.369-4.833-2.369-7.504v-2c0-2.477.937-5.204 2.321-6.868l3.787 1.081c1.55.444 2.971 1.28 4.108 2.418.403.403.756.853 1.081 1.323-.847 1.58-1.297 3.355-1.297 5.198v3.843h-1.382l-2.724-5.447-1.789.895 2.724 5.446c.34.683 1.025 1.106 1.789 1.106h1.382v1.005c0 1.13.391 2.162 1.026 3h-2.349c-2.581 0-4.94-1.307-6.308-3.496zm12.631 3.496c-1.654 0-3-1.346-3-3v-1.004l16 .004c1.103 0 2 .897 2 2s-.897 2-2 2zm21 0v-4l10-.003v1.003c0 1.654-1.346 3-3 3zm22-11c0 2.671-.664 4.775-2.369 7.504-1.368 2.189-3.727 3.496-6.308 3.496h-2.349c.635-.838 1.026-1.87 1.026-3v-1.004h1.382c.764 0 1.449-.424 1.789-1.105l2.724-5.447-1.789-.895-2.724 5.447h-1.382v-3.843c0-1.844-.45-3.618-1.297-5.199.325-.47.677-.919 1.081-1.323 1.138-1.138 2.559-1.974 4.107-2.417l3.788-1.082c1.384 1.664 2.321 4.391 2.321 6.868zm-3.814-16.771.814-.815c.645-.645 1-1.502 1-2.414 0-1.448-1.031-2.659-2.397-2.939l-.624-1.04c-1.392-2.32-3.548-3.998-6.109-4.801-.101-.362-.251-.711-.485-1.02-.577-.763-1.453-1.2-2.404-1.2h-1v2h1c.318 0 .613.148.809.406.118.156.296.487.165.953-.12.421-.591.641-.995.641h-.255c-.754 0-1.457-.294-1.98-.828-.52-.529-.798-1.229-.783-1.969l.002-.121c.03-1.699 1.441-3.082 3.143-3.082h.505c1.473.772 3.477 1.39 5.767 1.736 1.132.17 2.3.265 3.416.265.228 0 .447-.013.67-.021.294.23.586.464.849.727 1.745 1.746 2.706 4.066 2.706 6.535v1.493c0 2.439-1.01 4.807-2.77 6.495l-.436.418z"/><path d="m24 7c1.654 0 3-1.346 3-3s-1.346-3-3-3-3 1.346-3 3 1.346 3 3 3zm0-4c.552 0 1 .448 1 1s-.448 1-1 1-1-.448-1-1 .448-1 1-1z"/><path d="m32 7c1.654 0 3-1.346 3-3s-1.346-3-3-3-3 1.346-3 3 1.346 3 3 3zm0-4c.552 0 1 .448 1 1s-.448 1-1 1-1-.448-1-1 .448-1 1-1z"/><path d="m40 7c1.654 0 3-1.346 3-3s-1.346-3-3-3-3 1.346-3 3 1.346 3 3 3zm0-4c.552 0 1 .448 1 1s-.448 1-1 1-1-.448-1-1 .448-1 1-1z"/></g></svg>