<svg id="_x33_0" enable-background="new 0 0 64 64" height="512" viewBox="0 0 64 64" width="512" xmlns="http://www.w3.org/2000/svg"><g><path d="m30.706 29.709-1.412-1.416-.294.293c-.535.535-1.464.536-2.001-.001l-.293-.292-1.412 1.416.292.291c.646.646 1.503 1.001 2.414 1.001s1.769-.355 2.413-1z"/><path d="m37 28.586c-.535.535-1.464.536-2.001-.001l-.293-.292-1.412 1.416.292.291c.646.646 1.503 1.001 2.414 1.001s1.769-.355 2.413-1l.293-.292-1.412-1.416z"/><path d="m29.293 35.294 1.414 1.414.586-.586c.723-.723 1.684-1.121 2.707-1.121v-2c-1.558 0-3.021.606-4.121 1.707z"/><path d="m10 5c-2.206 0-4 1.794-4 4h2c0-1.103.897-2 2-2s2 .897 2 2-.897 2-2 2h-1v4h2v-2.127c1.724-.444 3-2.013 3-3.873 0-2.206-1.794-4-4-4z"/><path d="m9 17h2v2h-2z"/><path d="m54 7c1.103 0 2 .897 2 2s-.897 2-2 2h-1v4h2v-2.127c1.724-.444 3-2.013 3-3.873 0-2.206-1.794-4-4-4s-4 1.794-4 4h2c0-1.103.897-2 2-2z"/><path d="m53 17h2v2h-2z"/><path d="m10 35c-2.206 0-4 1.794-4 4h2c0-1.103.897-2 2-2s2 .897 2 2-.897 2-2 2h-1v4h2v-2.127c1.724-.444 3-2.013 3-3.873 0-2.206-1.794-4-4-4z"/><path d="m9 47h2v2h-2z"/><path d="m54 35c-2.206 0-4 1.794-4 4h2c0-1.103.897-2 2-2s2 .897 2 2-.897 2-2 2h-1v4h2v-2.127c1.724-.444 3-2.013 3-3.873 0-2.206-1.794-4-4-4z"/><path d="m53 47h2v2h-2z"/><path d="m54 31c-3.142 0-5.909 1.62-7.519 4.067l-1.974-1.974c.903-.735 1.493-1.841 1.493-3.093 0-2.205-1.794-3.999-4-3.999v-.502c2.346-.982 4-3.3 4-5.999 0-.826-.161-1.613-.443-2.34l1.547-.677c.322.488.651.947.963 1.377 1.037 1.431 1.933 2.666 1.933 4.14v3c0 2.206 1.794 4 4 4s4-1.794 4-4v-3c0-1.474.896-2.709 1.933-4.14 1.366-1.885 3.067-4.233 3.067-7.86 0-4.963-4.037-9-9-9s-9 4.037-9 9c0 1.89.466 3.428 1.102 4.739l-1.551.679c-1.193-1.472-3.013-2.417-5.051-2.417h-.672c-1.138 0-2.15.509-2.852 1.3-1.741-.836-3.646-1.3-5.582-1.3h-2.49c-2.782 0-5.296 1.157-7.097 3.011l-2.909-1.273c.636-1.311 1.102-2.849 1.102-4.739 0-4.963-4.037-9-9-9s-9 4.037-9 9c0 3.627 1.701 5.975 3.067 7.86 1.037 1.431 1.933 2.666 1.933 4.14v3c0 2.206 1.794 4 4 4s4-1.794 4-4v-3c0-1.474.896-2.709 1.933-4.14.312-.43.641-.889.963-1.378l2.637 1.153c-.966 1.529-1.533 3.332-1.533 5.269 0 .811.1 1.618.296 2.401l.562 2.249c-.529.679-.858 1.521-.858 2.447 0 1.252.59 2.358 1.493 3.092l-1.974 1.974c-1.61-2.447-4.377-4.067-7.519-4.067-4.963 0-9 4.037-9 9 0 3.627 1.701 5.975 3.067 7.86 1.037 1.431 1.933 2.666 1.933 4.14v3c0 2.206 1.794 4 4 4s4-1.794 4-4v-3c0-1.122.52-2.106 1.226-3.143-.144.591-.226 1.205-.226 1.838 0 .233.01.467.031.699l.661 7.271c.226 2.472 2.266 4.335 4.747 4.335h27.474l1.056-11.604c.021-.233.031-.467.031-.701 0-.633-.082-1.247-.226-1.838.706 1.037 1.226 2.021 1.226 3.143v3c0 2.206 1.794 4 4 4s4-1.794 4-4v-3c0-1.474.896-2.709 1.933-4.14 1.366-1.885 3.067-4.233 3.067-7.86 0-4.963-4.037-9-9-9zm2-6c0 1.103-.897 2-2 2s-2-.897-2-2v-2h4zm-2-22c3.859 0 7 3.141 7 7 0 2.979-1.366 4.863-2.688 6.687-.951 1.312-1.919 2.666-2.214 4.313h-4.198c-.295-1.648-1.263-3.001-2.214-4.313-1.32-1.824-2.686-3.708-2.686-6.687 0-3.859 3.141-7 7-7zm-42 22c0 1.103-.897 2-2 2s-2-.897-2-2v-2h4zm2.313-8.313c-.951 1.312-1.919 2.666-2.214 4.313h-4.198c-.295-1.648-1.263-3.001-2.214-4.313-1.321-1.824-2.687-3.708-2.687-6.687 0-3.859 3.141-7 7-7s7 3.141 7 7c0 2.979-1.366 4.863-2.687 6.687zm31.228 20.268c-.344.953-.541 1.975-.541 3.045 0 1.829.433 3.331 1.037 4.614-.989-.773-2.174-1.317-3.491-1.537l-1.574-.262c.006-.094.028-.185.028-.28 0-1.713-.965-3.189-2.37-3.96 1.111-.972 2.01-2.195 2.616-3.611.135-.316.249-.638.349-.963h.405c.183 0 .357-.03.533-.054zm-9.541 9.631-3.586-3.586 2.258-2.258c.478-.478 1.115-.742 1.793-.742 1.397 0 2.535 1.138 2.535 2.535 0 .678-.264 1.314-.742 1.793zm-6.5-3.5-.5-.5v-1.998c.832.248 1.706.378 2.601.397zm14.5-13.085c0 1.103-.897 2-2 2h-.035c.018-.236.036-.473.036-.712v-3.288c1.102 0 1.999.898 1.999 2zm-3.999 1.288c0 .997-.199 1.969-.628 2.97-.694 1.62-1.932 2.959-3.484 3.797-.718.091-1.397.336-1.99.745-.562.127-1.139.199-1.721.199h-.375c-3.125-.002-5.939-1.859-7.172-4.731-.419-.978-.631-2.013-.631-3.077v-4.192c0-1.074.355-2.14 1-3 .939-1.252 2.435-1.999 4-1.999h1.133c1.743 2.072 4.196 3.485 7.006 3.887.529.075 1.063.113 1.589.113h.772c.169 0 .335-.013.5-.025zm-12.097-16.288h2.49c1.623 0 3.22.385 4.681 1.08-.048.242-.075.492-.075.748v.343c0 2.111 1.718 3.829 3.828 3.829 1.008 0 1.994-.409 2.707-1.122l1.172-1.171-1.414-1.414-1.172 1.171c-.341.341-.813.536-1.293.536-1.008 0-1.828-.82-1.828-1.829v-.343c0-1.008.82-1.828 1.828-1.828h.672c2.481 0 4.5 2.019 4.5 4.5s-2.019 4.5-4.5 4.5h-.772c-.432 0-.871-.031-1.325-.097-3.484-.497-6.341-2.881-7.454-6.22l-1.896.633c.198.594.454 1.155.739 1.696-2.115.065-4.118 1.091-5.39 2.787-.702.935-1.15 2.046-1.319 3.2h-.083c-.495 0-.965.102-1.403.267l-.362-1.448c-.156-.623-.235-1.268-.235-1.915 0-4.357 3.546-7.903 7.904-7.903zm-7.904 14.999c0-1.103.897-1.999 2-1.999v3.191c0 .272.019.54.041.809h-.041c-1.103 0-2-.897-2-2.001zm1.467 3.947c.176.024.35.054.533.054h.416c.107.357.229.71.377 1.056.867 2.023 2.372 3.622 4.207 4.658v2.439l-5.548.924c-1.316.22-2.501.764-3.489 1.537.604-1.284 1.037-2.786 1.037-4.615 0-1.07-.197-2.092-.541-3.045zm-9.467 21.053c0 1.103-.897 2-2 2s-2-.897-2-2v-2h4zm.099-4h-4.198c-.295-1.648-1.263-3.001-2.214-4.313-1.321-1.824-2.687-3.708-2.687-6.687 0-3.859 3.141-7 7-7s7 3.141 7 7c0 2.979-1.366 4.863-2.688 6.687-.95 1.312-1.918 2.665-2.213 4.313zm5.586 7.483-.661-7.271c-.016-.171-.024-.344-.024-.517 0-2.809 2.011-5.183 4.781-5.646l5.876-.979.429.429-8.793 8.793 1.414 1.414 10.293-10.292 3.586 3.586-12.19 12.189c-.522.523-1.217.811-1.957.811-1.44 0-2.624-1.082-2.754-2.517zm29.292-7.27-.89 9.787h-4.992l.901-9.909-1.992-.182-.917 10.091h-14.673l15.258-15.258c.297-.297.53-.638.731-.995l1.815.302c2.771.464 4.782 2.838 4.782 5.646 0 .173-.008.346-.023.518zm9.023 3.787c0 1.103-.897 2-2 2s-2-.897-2-2v-2h4zm2.313-8.313c-.951 1.312-1.919 2.666-2.214 4.313h-4.198c-.295-1.648-1.263-3.001-2.214-4.313-1.321-1.824-2.687-3.708-2.687-6.687 0-3.859 3.141-7 7-7s7 3.141 7 7c0 2.979-1.366 4.863-2.687 6.687z"/></g></svg>