<svg id="_x33_0" enable-background="new 0 0 64 64" height="512" viewBox="0 0 64 64" width="512" xmlns="http://www.w3.org/2000/svg"><g><path d="m38 25c1.615 0 3.067-.897 3.789-2.342l.105-.211-1.789-.895-.105.212c-.381.762-1.147 1.236-2 1.236s-1.619-.474-2-1.236l-.105-.211-1.789.895.105.211c.722 1.444 2.174 2.341 3.789 2.341z"/><path d="m61 57h-2v-17.19c0-2.627-1.281-5-3.296-6.468.816-.907 1.296-2.091 1.296-3.342 0-1.328-.532-2.578-1.438-3.5.887-.903 1.438-2.138 1.438-3.5 0-2.757-2.243-5-5-5-.352 0-.686.072-1 .184v-4.184c0-7.168-5.832-13-13-13s-13 5.832-13 13v4.184c-.314-.112-.648-.184-1-.184-2.757 0-5 2.243-5 5 0 1.362.551 2.597 1.438 3.499-.906.923-1.438 2.172-1.438 3.501h-2v-9c0-.729-.396-1.361-.98-1.711.627-.852.98-1.869.98-2.946v-2.343c0-1.302-.839-2.402-2-2.816v-1.184c0-2.757-2.243-5-5-5s-5 2.243-5 5v5.929c0 1.207.355 2.36 1.016 3.341-.604.345-1.016.987-1.016 1.73v16c0 2.757 2.243 5 5 5h11v11h-4c-1.103 0-2 .897-2 2v2h-12c-1.103 0-2 .897-2 2v2c0 1.103.897 2 2 2h58c1.103 0 2-.897 2-2v-2c0-1.103-.897-2-2-2zm-4-17.19v17.19h-12v-8h8v-2h-4v-13.67l3.106.583c2.836.53 4.894 3.011 4.894 5.897zm-24.382 17.19-2-4h-1.618v-21h3.246l1.429 5h-.675c-1.103 0-2 .897-2 2v4c0 1.103.897 2 2 2h2v11c0 .352.072.686.184 1zm1.779-47.472c.672 1.455 2.135 2.472 3.839 2.472h3.764c.722 0 1.376-.267 1.894-.693l.228.228c.566.567.878 1.32.878 2.122v.343h-4c-1.103 0-2 .897-2 2h-2c0-1.103-.897-2-2-2h-4v-.735c0-1.048.558-2.033 1.457-2.572zm10.603 8.472h-4v-2h4zm-14-2h4v2h-4zm0 4h4c1.103 0 2-.897 2-2h2c0 1.103.897 2 2 2h4c0 3.859-3.14 7-7 7s-7-3.141-7-7zm10 27v-2h2c1.103 0 2-.897 2-2v-4c0-1.103-.897-2-2-2h-.674l1.335-4.672 3.339.627v14.045zm2 6h-4c-1.103 0-2-.897-2-2s.897-2 2-2h4zm-3.6-18.8 2.095-1.571-.903 3.161zm-.4 2.8h-2l1-1.334zm-3.592-1.21-.903-3.161 2.095 1.571zm7.592 3.21.001 4h-10.001v-4zm-6 6h2v2c-.732 0-1.409.212-2 .556zm1-16c.871 0 1.711-.131 2.508-.363l.388 1.941-2.896 2.172-2.896-2.172.388-1.941c.797.232 1.637.363 2.508.363zm-1 27v-1.556c.591.344 1.268.556 2 .556v1c0 .552-.449 1-1 1s-1-.448-1-1zm4 0v-1h2v2h-2.184c.112-.314.184-.648.184-1zm11.474-24.053-9.626-1.805-.458-2.293c1.019-.572 1.914-1.336 2.639-2.243 1.445 1.511 3.443 2.394 5.576 2.394h1.395c.643 0 1.252-.132 1.817-.354.728.564 1.183 1.418 1.183 2.354 0 .921-.444 1.768-1.155 2.333-.438-.167-.896-.297-1.371-.386zm-28.474-11.947c.551 0 1 .448 1 1s-.449 1-1 1h-1v2h1c1.654 0 3-1.346 3-3v-7c0-6.065 4.935-11 11-11s11 4.935 11 11v7c0 1.654 1.346 3 3 3h1v-2h-1c-.551 0-1-.448-1-1s.449-1 1-1c1.654 0 3 1.346 3 3s-1.346 3-3 3h-1.395c-1.757 0-3.393-.805-4.476-2.164.553-1.165.871-2.463.871-3.836v-6.343c0-1.336-.52-2.592-1.465-3.536l-.589-.588c.031-.174.054-.351.054-.533 0-1.654-1.346-3-3-3h-1v2h1c.551 0 1 .448 1 1s-.449 1-1 1h-3.764c-1.233 0-2.236-1.003-2.236-2.236 0-.345.082-.691.236-1l.658-1.316-1.789-.895-.658 1.316c-.241.483-.383 1.014-.427 1.553l-2.593 1.556c-1.497.898-2.427 2.541-2.427 4.287v6.735c0 1.373.318 2.671.871 3.836-1.084 1.359-2.719 2.164-4.476 2.164h-1.395c-1.654 0-3-1.346-3-3s1.346-3 3-3zm-1.817 7.646c.565.222 1.175.354 1.817.354h1.395c2.133 0 4.131-.883 5.577-2.394.725.907 1.62 1.671 2.639 2.243l-.431 2.151h-12.18c0-.937.455-1.791 1.183-2.354zm-15.183-17.646c0-1.654 1.346-3 3-3s3 1.346 3 3v1.184c-1.161.414-2 1.514-2 2.816v1h2v-1c0-.552.449-1 1-1s1 .448 1 1v2.343c0 .802-.312 1.556-.878 2.122l-.536.535h-5.172l-.242-.242c-.756-.756-1.172-1.761-1.172-2.829zm14 28v2h-11c-1.654 0-3-1.346-3-3v-16h8v9.586l-2.707 2.707 1.414 1.414 2.707-2.707h10.586v21h-4v-15zm-4 17h12.382l1 2h-13.382zm-14 6v-2h58l.001 2z"/></g></svg>