<svg id="_x33_0" enable-background="new 0 0 64 64" height="512" viewBox="0 0 64 64" width="512" xmlns="http://www.w3.org/2000/svg"><g><path d="m47 12c0 2.757 2.243 5 5 5s5-2.243 5-5v-1h-10zm7.829 1c-.413 1.164-1.525 2-2.829 2s-2.416-.836-2.829-2z"/><path d="m56.293 4.293-2.707 2.707 2.707 2.707 1.414-1.414-1.293-1.293 1.293-1.293z"/><path d="m47.707 9.707 2.707-2.707-2.707-2.707-1.414 1.414 1.293 1.293-1.293 1.293z"/><path d="m7 54c0 2.757 2.243 5 5 5s5-2.243 5-5v-1h-10zm7.829 1c-.413 1.164-1.525 2-2.829 2s-2.416-.836-2.829-2z"/><path d="m16.293 46.293-2.707 2.707 2.707 2.707 1.414-1.414-1.293-1.293 1.293-1.293z"/><path d="m7.707 51.707 2.707-2.707-2.707-2.707-1.414 1.414 1.293 1.293-1.293 1.293z"/><path d="m60 1h-16c-1.302 0-2.402.839-2.816 2h-21.184c-2.757 0-5 2.243-5 5v31.042c-.135-.024-.272-.042-.414-.042-.636 0-1.258.258-1.707.707l-3.293 3.293h-5.586c-1.654 0-3 1.346-3 3v14c0 1.654 1.346 3 3 3h40c2.757 0 5-2.243 5-5v-33.036c.74.128 1.572-.123 2.121-.671l3.293-3.293h5.586c1.654 0 3-1.346 3-3v-14c0-1.654-1.346-3-3-3zm-13 48h-2v-6.729c0-1.679-.555-3.343-1.563-4.687-1.211-1.616-2.975-2.688-4.966-3.019l-2.471-.412v-1.153h1c2.206 0 4-1.794 4-4 0-1.731-1.111-3.194-2.653-3.75.411-.619.653-1.359.653-2.156 0-1.684-1.073-3.172-2.671-3.705l-1.167-.389c-1.293-.431-2.162-1.637-2.162-3v-1.869l-1.555 1.037c-1.987 1.325-3.224 3.475-3.408 5.832h-.037c-1.654 0-3 1.346-3 3 0 .495.132.956.346 1.368-1.38.632-2.346 2.018-2.346 3.632 0 2.206 1.794 4 4 4h1v1.153l-2.472.412c-1.991.33-3.755 1.402-4.966 3.019-1.007 1.344-1.562 3.008-1.562 4.687v.729h-2v-32h24v7c0 1.654 1.346 3 3 3h3zm-24-2h2v2h-2zm2-6v4h-2.184c-.302-.847-.969-1.514-1.816-1.816v-.914c0-1.249.413-2.487 1.162-3.487.901-1.201 2.213-1.999 3.694-2.245l2.332-.389c.498 1.644 2.008 2.851 3.812 2.851s3.314-1.207 3.812-2.851l2.332.389c1.481.246 2.793 1.044 3.694 2.245.749 1 1.162 2.238 1.162 3.487v2.73h-4v-4h-2v8h-10v-8zm2-17c0-.551.448-1 1-1h4v-2h-1.946c.122-1.152.567-2.233 1.306-3.104.549 1.391 1.688 2.508 3.17 3.001l1.167.389c.78.26 1.304.986 1.304 1.808-.001 1.051-.855 1.906-2.001 1.906h-7c-.552 0-1-.449-1-1zm0 3h10c1.103 0 2 .897 2 2s-.897 2-2 2h-10c-1.103 0-2-.897-2-2s.897-2 2-2zm7 6v2c0 1.103-.897 2-2 2s-2-.897-2-2v-2zm5 14h4v2h-4zm-19-42h21v4h-24v-1c0-1.654 1.346-3 3-3zm-16 56c-.552 0-1-.448-1-1v-14c0-.552.448-1 1-1h6.414l3.879-3.879c.238-.238.707-.045.707.293v3.586h5c.552 0 1 .448 1 1v14c0 .552-.448 1-1 1zm40 0h-21.184c.112-.314.184-.648.184-1v-9h24v7c0 1.654-1.346 3-3 3zm17-43c0 .551-.448 1-1 1h-6.414l-3.88 3.879c-.235.237-.705.044-.706-.293v-3.586h-5c-.552 0-1-.449-1-1v-14c0-.551.448-1 1-1h16c.552 0 1 .449 1 1z"/><path d="m35 53h-6c-1.103 0-2 .897-2 2v2c0 1.103.897 2 2 2h6c1.103 0 2-.897 2-2v-2c0-1.103-.897-2-2-2zm-6 4v-2h6l.002 2z"/></g></svg>