<svg id="_x33_0" enable-background="new 0 0 64 64" height="512" viewBox="0 0 64 64" width="512" xmlns="http://www.w3.org/2000/svg"><g><path d="m47 25c1.654 0 3-1.346 3-3s-1.346-3-3-3-3 1.346-3 3 1.346 3 3 3zm0-4c.552 0 1 .449 1 1s-.448 1-1 1-1-.449-1-1 .448-1 1-1z"/><path d="m49.293 26.293-2.293 2.293-2.293-2.293-1.414 1.414 2.293 2.293-2.293 2.293 1.414 1.414 2.293-2.293 2.293 2.293 1.414-1.414-2.293-2.293 2.293-2.293z"/><path d="m58.293 26.293-2.293 2.293-2.293-2.293-1.414 1.414 2.293 2.293-2.293 2.293 1.414 1.414 2.293-2.293 2.293 2.293 1.414-1.414-2.293-2.293 2.293-2.293z"/><path d="m40.293 26.293-2.293 2.293-2.293-2.293-1.414 1.414 2.293 2.293-2.293 2.293 1.414 1.414 2.293-2.293 2.293 2.293 1.414-1.414-2.293-2.293 2.293-2.293z"/><path d="m60 13h-9.747l.736-8.829c.008-.084.011-.168.011-.251 0-1.61-1.31-2.92-2.92-2.92h-2.16c-1.61 0-2.92 1.31-2.92 2.92 0 .083.003.167.011.243l.735 8.837h-6.402c-.364-.624-.785-1.217-1.26-1.772l-.071-.083c-2.258-2.634-5.543-4.145-9.013-4.145-1.626 0-3.058.792-3.972 1.997l-5.358-.029c-.024 0-.048 0-.072 0-4.423 0-8.68 2.08-11.397 5.575l-.085.11c-2.018 2.593-3.124 5.819-3.118 9.083l.002 2.267c0 .937.448 1.833 1.2 2.397 1.89 1.418 3.288 3.449 3.937 5.72l.664 2.324-1.409 2.584c-.176-.016-.353-.028-.531-.028-3.232 0-5.861 2.629-5.861 5.861v18.139h21.056c3.829 0 6.944-3.115 6.944-6.944v-12.056c0-.807-.324-1.537-.844-2.077l.017-.035c.541-1.081.827-2.292.827-3.5v-5.074c.716-.973 1.377-1.985 2-3.022v3.708c0 1.654 1.346 3 3 3h10v1.586c0 1.331 1.083 2.414 2.414 2.414.636 0 1.258-.258 1.707-.707l3.293-3.293h8.586c1.654 0 3-1.346 3-3v-18c0-1.654-1.346-3-3-3zm-14.08-10h2.16c.507 0 .92.413.92.92l-.92 11.08h-2.16l-.92-11.08c0-.507.413-.92.92-.92zm-35.859 30.571c-.769-2.688-2.424-5.093-4.66-6.771-.255-.191-.401-.481-.401-.799l-.003-2.269c-.006-2.821.952-5.609 2.697-7.854l.085-.11c2.342-3.01 6.008-4.801 9.817-4.801h.063l4.443.024c-.067.327-.102.664-.102 1.009 0 2.206 1.794 4 4 4s4-1.794 4-4h-2c0 1.103-.897 2-2 2s-2-.897-2-2c0-1.654 1.346-3 3-3 2.885 0 5.617 1.256 7.495 3.448l.071.083c1.57 1.83 2.434 4.167 2.434 6.579v.647c0 1.788-1.454 3.243-3.242 3.243-.867 0-1.681-.337-2.293-.95l-2.344-2.343c-1.085-1.085-2.587-1.707-4.121-1.707s-3.036.622-4.121 1.707l-1.748 1.748c-.86-.918-2.072-1.455-3.402-1.455-2.056 0-3.729 1.673-3.729 3.729 0 .246.024.492.072.732l.876 4.378-2.782 5.101zm4.991-4.411-1.019-5.091c-.022-.111-.033-.225-.033-.34 0-.953.775-1.729 1.764-1.729.998 0 1.896.555 2.342 1.447l.621 1.241 3.566-3.567c.713-.712 1.699-1.121 2.707-1.121s1.994.409 2.707 1.121l2.343 2.343c.475.475 1.027.841 1.625 1.1-.835 1.988-1.834 3.901-3.001 5.71-.706-1.905-2.526-3.274-4.674-3.274-2.468 0-4.512 1.802-4.915 4.158-1.205.389-2.085 1.509-2.085 2.842v2.882l-1.783-.891-.895 1.789 1.407.704-1.189 2.972c-.827-.287-1.702-.456-2.602-.456h-.664l-.091-.1c-.515-.562-1.134-1.006-1.811-1.327zm10.948 11.84h-5.558c-.918-1.055-1.442-2.426-1.442-3.828v-3.172c0-.552.448-1 1-1s1 .448 1 1v1h2v-1c0-1.259-.782-2.336-1.884-2.78.346-1.275 1.501-2.22 2.884-2.22 1.654 0 3 1.346 3 3v6.388c0 .899-.213 1.801-.615 2.606l-.021.043c-.121-.015-.24-.037-.364-.037zm-7 1.383v2.852l-.116-.203c-.63-1.104-1.515-2.008-2.544-2.688l1.076-2.69c.337 1.003.875 1.934 1.584 2.729zm-1.853 3.64 1.853 3.242v.164l-5.748-6.271c1.623.367 3.052 1.389 3.895 2.865zm9.853 10.033c0 2.726-2.218 4.944-4.944 4.944-1.103 0-2.188-.375-3.054-1.057l-12.384-9.729-1.236 1.572 11.727 9.214h-14.109v-16.139c0-2.129 1.732-3.861 3.861-3.861 1.079 0 2.117.456 2.847 1.252l9.292 10.137v1.611h2v-11h5c.552 0 1 .448 1 1zm34-22.056c0 .552-.448 1-1 1h-9.414l-3.879 3.879c-.238.238-.707.045-.707-.293v-3.586h-12c-.552 0-1-.448-1-1v-7.486c.231-.502.456-1.008.667-1.523.031.001.06.009.091.009 2.89 0 5.242-2.352 5.242-5.243v-.647c0-1.412-.251-2.801-.723-4.11h5.636l.014.166c.086 1.028.961 1.834 1.993 1.834h2.16c1.032 0 1.907-.806 1.992-1.834l.014-.166h9.914c.552 0 1 .449 1 1z"/><path d="m61 43h-28c-1.103 0-2 .897-2 2v16c0 1.103.897 2 2 2h28c1.103 0 2-.897 2-2v-16c0-1.103-.897-2-2-2zm.001 14h-4.001v-12h4zm-24.001 0v-12h18v12zm-2-12v12h-2v-12zm-2 16v-2h28.002v2z"/></g></svg>