<svg id="_x33_0" enable-background="new 0 0 64 64" height="512" viewBox="0 0 64 64" width="512" xmlns="http://www.w3.org/2000/svg"><g><path d="m9 7h2v2h-2z"/><path d="m13 7h2v2h-2z"/><path d="m17 7h2v2h-2z"/><path d="m21 7h2v2h-2z"/><path d="m25 7h2v2h-2z"/><path d="m6 15h14.5l2.3 3.067c.438.584 1.137.933 1.867.933 1.286 0 2.333-1.047 2.333-2.333v-1.667h3c1.654 0 3-1.346 3-3v-8c0-1.654-1.346-3-3-3h-24c-1.654 0-3 1.346-3 3v8c0 1.654 1.346 3 3 3zm-1-11c0-.551.448-1 1-1h24c.552 0 1 .449 1 1v8c0 .551-.448 1-1 1h-5v3.667c0 .289-.429.431-.601.2l-2.899-3.867h-15.5c-.552 0-1-.449-1-1z"/><path d="m43.789 34.658.105-.211-1.789-.895-.105.212c-.381.762-1.147 1.236-2 1.236s-1.619-.474-2-1.236l-.105-.211-1.789.895.105.21c.722 1.445 2.174 2.342 3.789 2.342s3.067-.897 3.789-2.342z"/><path d="m62.695 43.882-5.104-16.167c-.513-1.624-2.002-2.715-3.705-2.715-.688 0-1.325.195-1.886.509v-1.501c0-6.07-4.938-11.008-11.009-11.008h-1.982c-6.071 0-11.009 4.938-11.009 11.009 0 .722.072 1.448.214 2.159l.671 3.354c-.545.684-.885 1.538-.885 2.478 0 2.206 1.794 4 4 4h.589c.645 1.588 1.786 2.917 3.23 3.807l-.638 3.193h-.254c.035-.197.073-.395.073-.596 0-1.876-1.526-3.404-3.463-3.404-1.258 0-2.445.494-3.403 1.452-.68.679-1.162 1.532-1.394 2.464l-.668 2.673-3.415 5.121-.112-.056c-.725-1.722-1.749-3.273-3.075-4.598l-.47-.47v-1.836c.633-.214 1.22-.556 1.707-1.042.834-.834 1.293-1.942 1.293-3.122v-1.968c1.234-.622 2-1.866 2-3.249 0-.338-.047-.675-.14-1l-1.724-6.034c1.146-1.093 1.864-2.63 1.864-4.335 0-3.309-2.691-6-6-6h-3.464c-3.81 0-7.499 1.365-10.39 3.844-2 1.713-3.146 4.206-3.146 6.839 0 2.406.938 4.668 2.639 6.369l.145.145-.224.447c-.367.732-.56 1.553-.56 2.373 0 2.199 1.384 4.195 3.442 4.968l4.558 1.708v.536c-2.371.743-4 2.938-4 5.45v13.321h16v-4.006c.023 0 .045.006.067.006h.001c1.932 0 3.742-.801 5.066-2.128.003.02.004.041.008.061l1.011 6.067h21.693l1.012-6.068c.094-.565.142-1.14.142-1.711 0-.794-.094-1.588-.274-2.361l5.232-.436c3.388-.283 6.042-3.168 6.042-6.568 0-.67-.103-1.335-.305-1.974zm-17.876-.882-.638-3.193c1.443-.89 2.585-2.22 3.23-3.807h.589c1.321 0 2.485-.651 3.213-1.641.254.399.544.778.872 1.132l1.668 7.509zm3.181-10v-3c1.103 0 2 .897 2 2s-.897 2-2 2h-.069c.041-.328.069-.661.069-1zm-16 1c-1.103 0-2-.897-2-2s.897-2 2-2v3c0 .339.028.672.069 1zm0-6.868v.868c-.469 0-.913.096-1.331.245l-.494-2.469c-.116-.582-.175-1.176-.175-1.767 0-4.967 4.041-9.009 9.009-9.009h1.982c4.968 0 9.009 4.042 9.009 9.009v4.548c-.591-.345-1.268-.557-2-.557 0-1.654-1.346-3-3-3h-2.879c-1.102 0-2.136-.429-2.914-1.207-.767-.768-1.207-1.83-1.207-2.914v-.879h-2v.879c0 .678.109 1.338.32 1.962l-2.864 1.719c-.898.539-1.456 1.524-1.456 2.572zm2 5.868v-5.868c0-.349.186-.678.485-.857l2.78-1.668c.161.209.337.41.527.6 1.156 1.156 2.693 1.793 4.329 1.793h2.879c.552 0 1 .449 1 1v5c0 3.309-2.691 6-6 6s-6-2.691-6-6zm6 8c.804 0 1.579-.122 2.312-.344l.656 3.279-1.283 3.851c-.243.726-.919 1.214-1.685 1.214s-1.442-.488-1.685-1.213l-1.283-3.851.656-3.279c.733.221 1.508.343 2.312.343zm-32.854-.889c-1.284-.481-2.146-1.724-2.146-3.094 0-.511.12-1.022.349-1.478l.868-1.735-1.164-1.165c-1.324-1.324-2.053-3.084-2.053-4.956 0-2.048.893-3.988 2.448-5.321 2.529-2.168 5.756-3.362 9.088-3.362h3.464c2.206 0 4 1.794 4 4s-1.794 4-4 4h-3c-1.103 0-2-.897-2-2s.897-2 2-2h1v-2h-1c-2.206 0-4 1.794-4 4 0 1.289.624 2.426 1.574 3.158-.834 1.143-1.357 2.473-1.519 3.885-1.728.268-3.055 1.77-3.055 3.621 0 1.172.582 2.26 1.558 2.91l1.442.961v2.022zm4.666 5.967 1.188-.297v-7.316l-2.333-1.555c-.418-.279-.667-.744-.667-1.3 0-.888.723-1.61 1.61-1.61h1.39v-1c0-1.503.532-2.922 1.498-4.051.167.021.33.051.502.051h3c.849 0 1.656-.18 2.388-.499l1.548 5.418c.043.147.064.298.064.451 0 .625-.347 1.186-.905 1.465l-1.095.547v1.618h-1.586c-.645 0-1.251-.251-1.707-.708l-1.414 1.415c.834.834 1.942 1.293 3.121 1.293h1.546c-.084.487-.31.937-.667 1.292-.456.457-1.063.708-1.707.708h-2.586v2h2v2.414l1.057 1.057c.498.498.936 1.041 1.338 1.608l-3.948-1.974-.895 1.789 3.106 1.553-2.096 4.192-4.099-1.464c-1.473-.526-2.463-1.931-2.463-3.496 0-1.706 1.156-3.187 2.812-3.601zm9.188 14.922h-12v-7.002c.521.45 1.118.82 1.791 1.06l9.868 3.524c.111.04.228.056.341.09zm2.068-4c-.594 0-1.178-.101-1.737-.301l-3.871-1.383 1.988-3.975 3.895 1.948 4.585-6.878.753-3.011c.145-.581.444-1.111.929-1.595.519-.519 1.203-.805 1.987-.805.773 0 1.403.63 1.403 1.404 0 .228-.057.455-.187.703l-5.064 10.906c-.843 1.815-2.68 2.987-4.681 2.987zm27.833-6.434-1.007-2.013-1.789.895 1.007 2.013c.581 1.161.888 2.461.888 3.76 0 .461-.038.926-.114 1.382l-.733 4.397h-18.306l-.732-4.396c-.077-.457-.115-.922-.115-1.383 0-.564.061-1.128.174-1.681l3.965-8.54h1.141l1.139 3.419c.515 1.544 1.954 2.581 3.581 2.581s3.066-1.037 3.581-2.582l1.139-3.418h6.48c.436 1.916.692 3.87.765 5.833l-.916.076c-.052-.113-.092-.232-.148-.343zm5.89-.135-2.832.236c-.076-1.905-.314-3.801-.713-5.667h1.34l1.707 1.707 1.414-1.414-1.794-1.794-2-9-.206-.206c-1.101-1.101-1.707-2.565-1.707-4.122v-1.286c0-1.039.846-1.885 1.886-1.885.826 0 1.549.529 1.798 1.318l5.105 16.167c.14.444.211.905.211 1.371 0 2.369-1.849 4.378-4.209 4.575z"/></g></svg>