<svg id="_x33_0" enable-background="new 0 0 64 64" height="512" viewBox="0 0 64 64" width="512" xmlns="http://www.w3.org/2000/svg"><g><path d="m17 37c1.615 0 3.067-.897 3.789-2.342l.105-.211-1.789-.895-.105.212c-.381.762-1.147 1.236-2 1.236s-1.619-.474-2-1.236l-.105-.211-1.789.895.105.21c.722 1.445 2.174 2.342 3.789 2.342z"/><path d="m38 53c-1.654 0-3 1.346-3 3s1.346 3 3 3 3-1.346 3-3-1.346-3-3-3zm0 4c-.552 0-1-.449-1-1s.448-1 1-1 1 .449 1 1-.448 1-1 1z"/><path d="m46 53c-1.654 0-3 1.346-3 3s1.346 3 3 3 3-1.346 3-3-1.346-3-3-3zm0 4c-.552 0-1-.449-1-1s.448-1 1-1 1 .449 1 1-.448 1-1 1z"/><path d="m54 53c-1.654 0-3 1.346-3 3s1.346 3 3 3 3-1.346 3-3-1.346-3-3-3zm0 4c-.552 0-1-.449-1-1s.448-1 1-1 1 .449 1 1-.448 1-1 1z"/><path d="m59.153 1c-.14 0-.277.007-.413.022l-34.306 3.709c-1.957.211-3.434 1.856-3.434 3.825v6.701c-.817-.168-1.662-.257-2.528-.257h-2.943c-6.909 0-12.529 5.62-12.529 12.528 0 2.971.677 5.945 1.961 8.624l-.25 1.499c-.374 2.241.099 4.51 1.285 6.408-3.007 1.499-4.996 4.599-4.996 8.051v5.89c0 2.757 2.243 5 5 5h22c2.757 0 5-2.243 5-5v-5.89c0-3.453-1.989-6.553-4.996-8.052.59-.944 1-1.979 1.218-3.058h5.778v5.624c0 1.31 1.065 2.376 2.376 2.376.684 0 1.335-.295 1.788-.811l6.29-7.189h11.857c2.037 0 3.725-1.593 3.84-3.627l1.843-32.238c.004-.072.006-.144.006-.288 0-2.121-1.726-3.847-3.847-3.847zm-43.625 16h2.943c5.806 0 10.529 4.723 10.529 10.528 0 2.772-.655 5.547-1.895 8.025l-.146.291.356 2.136c.316 1.896-.137 3.817-1.236 5.37l-4.252-1.16-.602-2.409c2.263-1.416 3.775-3.922 3.775-6.781v-4.586l.707-.707-1.414-1.414-1.855 1.855c-.549.55-1.28.852-2.057.852h-.473c-1.603 0-2.908-1.305-2.908-2.908 0-.975.484-1.879 1.295-2.42l1.26-.84-1.109-1.664-1.26.84c-1.369.912-2.186 2.439-2.186 4.084 0 .452.081.882.196 1.298l-.759.759c-.548.549-1.279.851-2.056.851h-.473c-1.603 0-2.908-1.305-2.908-2.908 0-.975.484-1.879 1.295-2.42l1.26-.84-1.109-1.664-1.26.84c-1.369.912-2.186 2.439-2.186 4.084 0 1.614.794 3.037 2 3.932v2.976c0 2.859 1.512 5.365 3.774 6.78l-.602 2.409-4.252 1.16c-1.099-1.553-1.552-3.474-1.236-5.37l.356-2.136-.146-.291c-1.239-2.477-1.894-5.252-1.894-8.024 0-5.805 4.723-10.528 10.528-10.528zm15.445 10c-.096-2.291-.803-4.423-1.973-6.237v-7.763l4 .017v13.983zm-19.973 3.908c.295.056.597.092.908.092h.473c1.312 0 2.545-.511 3.471-1.438l.323-.323c.901 1.067 2.231 1.76 3.734 1.76h.473c.943 0 1.842-.273 2.619-.767v2.768c0 3.309-2.691 6-6 6s-6-2.691-6-6v-2.092zm3.62 9.73c.752.235 1.552.362 2.38.362s1.628-.127 2.38-.362l.448 1.792c-1.792.725-3.863.725-5.654 0zm-8.62 20.362c-1.654 0-3-1.346-3-3v-1h16c1.103 0 2 .897 2 2s-.897 2-2 2zm13-6h-4v-4h4zm9 6h-5.556c.344-.591.556-1.268.556-2s-.212-1.409-.556-2h8.556v1c0 1.654-1.346 3-3 3zm3-8.89v2.89h-4v-4h-2v4h-4v-4c0-1.122-.769-2-1.75-2h-4.5c-.981 0-1.75.878-1.75 2v4h-4v-4h-2v4h-4v-2.89c0-3.148 2.121-5.925 5.158-6.753l4.749-1.295c1.273.609 2.682.938 4.093.938s2.82-.329 4.093-.938l4.749 1.295c3.037.828 5.158 3.605 5.158 6.753zm28.155-14.851c-.055.976-.866 1.741-1.843 1.741h-12.766l-6.887 7.871c-.21.24-.658.07-.659-.247v-7.624h-7.598c-.009-.449-.038-.9-.113-1.35l-.25-1.499c1.072-2.236 1.714-4.678 1.899-7.152h2.062c.629 0 1.184-.268 1.551-.678 1.176.443 2.43.679 3.685.679h1.674c1.525 0 2.896.847 3.577 2.211l1.171 2.342c.447.892 1.344 1.447 2.342 1.447 2.206 0 4-1.794 4-4v-2h1c1.654 0 3-1.346 3-3 0-.771-.301-1.468-.78-2 .48-.532.78-1.229.78-2s-.301-1.468-.78-2c.48-.532.78-1.229.78-2s-.301-1.468-.78-2c.48-.532.78-1.229.78-2 0-1.654-1.346-3-3-3h-13.764c-1.255 0-2.509.236-3.685.678-.367-.41-.922-.678-1.551-.678h-4c-1.103 0-2 .808-2 1.8v5.577c-1.153-1.076-2.506-1.935-4-2.517v-7.304c0-.945.709-1.735 1.648-1.836l34.31-3.708c1.067-.122 2.042.747 2.042 1.907zm-20.919-24.259h13.764c.552 0 1 .449 1 1s-.448 1-1 1h-3v2h3c.552 0 1 .449 1 1s-.448 1-1 1h-3v2h3c.552 0 1 .449 1 1s-.448 1-1 1h-3v2h3c.552 0 1 .449 1 1s-.448 1-1 1h-3v4c0 1.103-.897 2-2 2-.235 0-.447-.131-.553-.342l-1.171-2.341c-1.022-2.046-3.079-3.317-5.366-3.317h-1.674c-1.108 0-2.212-.234-3.236-.657v-12.686c1.024-.423 2.128-.657 3.236-.657z"/></g></svg>