<svg id="_x33_0" enable-background="new 0 0 64 64" height="512" viewBox="0 0 64 64" width="512" xmlns="http://www.w3.org/2000/svg"><g><path d="m61 1h-2c-1.103 0-2 .897-2 2h-2c0-1.103-.897-2-2-2h-10c-1.103 0-2 .897-2 2h-2c0-1.103-.897-2-2-2h-2c-1.103 0-2 .897-2 2h-30c-1.103 0-2 .897-2 2v56c0 1.103.897 2 2 2h44c1.103 0 2-.897 2-2v-20.101c2.279-.465 4-2.484 4-4.899v-17c0-1.103-.897-2-2-2v-4h2c1.103 0 2-.897 2-2h2c0 1.103.897 2 2 2h2c1.103 0 2-.897 2-2v-8c0-1.103-.897-2-2-2zm-20 4v4h-2v-4zm-6-2h2v8h-2zm-2 2v6h-30v-6zm-30 56v-48h34c1.103 0 2-.897 2-2h2c0 1.103.897 2 2 2h2v4c-1.103 0-2 .897-2 2v17c0 2.414 1.721 4.434 4 4.899v20.101zm48-25c0 1.654-1.346 3-3 3s-3-1.346-3-3v-17h6zm-2-19h-2v-4h2zm-6-6v-8h10l.002 8zm12-2v-4h2v4zm4 2v-8h2l.002 8z"/><path d="m5 7h2v2h-2z"/><path d="m9 7h2v2h-2z"/><path d="m13 7h2v2h-2z"/><path d="m43 57h2v2h-2z"/><path d="m39 57h2v2h-2z"/><path d="m35 57h2v2h-2z"/><path d="m19 31h-2v2h-12v2h2.656l-2.614 8.713-.042 2.287c0 2.757 2.243 5 5 5s5-2.243 5-5v-2l-2.661-9h4.661v22h-8v2h18v-2h-8v-22h4.656l-2.614 8.713-.042 2.287c0 2.757 2.243 5 5 5s5-2.243 5-5v-2l-2.661-9h2.661v-2h-12zm-9 18c-1.654 0-3-1.346-3-3v-1h6v1c0 1.654-1.346 3-3 3zm2.656-6h-5.312l2.4-8h.512zm13.344 6c-1.654 0-3-1.346-3-3v-1h6v1c0 1.654-1.346 3-3 3zm2.656-6h-5.312l2.4-8h.512z"/><path d="m35 53h10v2h-10z"/><path d="m35 49h10v2h-10z"/><path d="m35 45h4v2h-4z"/><path d="m41 45h4v2h-4z"/><path d="m35 41h10v2h-10z"/><path d="m35 37h6v2h-6z"/><path d="m35 33h2v2h-2z"/><path d="m39 33h2v2h-2z"/><path d="m19 15h-14v14h14zm-2 12h-10v-10h10z"/><path d="m21 27h20v2h-20z"/><path d="m21 23h4v2h-4z"/><path d="m27 23h14v2h-14z"/><path d="m21 19h20v2h-20z"/><path d="m21 15h8v2h-8z"/><path d="m31 15h10v2h-10z"/></g></svg>