<svg id="_x33_0" enable-background="new 0 0 64 64" height="512" viewBox="0 0 64 64" width="512" xmlns="http://www.w3.org/2000/svg"><path d="m56.773 20.413-2.995-.333-.498-2.062c1.089-.714 1.928-1.772 2.371-3.018h1.349c1.654 0 3-1.346 3-3s-1.346-3-3-3h-1c0-3.309-2.691-6-6-6s-6 2.691-6 6h-1c-.771 0-1.468.301-2 .78-.101-.091-.203-.184-.316-.261.856-1.275 1.316-2.775 1.316-4.347v-2.172c0-1.103-.897-2-2-2h-11.337c-2.586 0-4.827 1.484-5.931 3.641-1.447-2.247-3.966-3.641-6.648-3.641h-4.169c-2.764 0-5.365 1.473-6.788 3.844-.737 1.23-1.127 2.637-1.127 4.071v12.715c-1.823 1.271-3 3.375-3 5.74v15.63c0 2.144 1.39 4.028 3.353 4.717l-.44 5.283h3.087v10h52v-15.101c2.279-.465 4-2.484 4-4.899v-15.63c0-3.572-2.677-6.563-6.227-6.957zm.227-9.413c.551 0 1 .448 1 1s-.449 1-1 1h-1v-2zm4 16.37v6.63h-2v-3.764l.895-1.789-1.789-.895-1.106 2.212v9.236h-12v-11.63c0-1.889-.753-3.61-1.983-4.876.144-.029.283-.077.431-.093l2.725-.303c.481 1.67 2.005 2.902 3.827 2.902s3.346-1.232 3.827-2.902l2.725.303c2.536.282 4.448 2.417 4.448 4.969zm-30 22.044v11.586h-6v-18h14v18h-6v-12.414l-2.293-2.293-1.414 1.414zm-12 3.586v8h-4v-8zm2 0h2v8h-2zm15.153-30.865-1.352 2.253-1.232-1.232 1.682-1.121zm6.847 5.235v13.63h-2v-10.764l.895-1.789-1.789-.895-1.106 2.212v11.236h-6v-15.586l2.199 2.198 3.141-5.235.213.024c2.535.282 4.447 2.417 4.447 4.969zm-14.252-5.336 1.682 1.121-1.232 1.232-1.352-2.253zm5.111-1.475-1.859 1.239-1.859-1.239.434-1.737c.458.112.933.178 1.425.178s.967-.066 1.425-.178zm-1.859-3.559c-2.206 0-4-1.794-4-4v-4h8v4c0 2.206-1.794 4-4 4zm-3.284 1.015-.517 2.067-2.972.33c-.423.047-.832.133-1.227.25v-5.848c.314.114.648.186 1 .186h1.35c.442 1.245 1.279 2.302 2.366 3.015zm-2.716-5.015h-1c-.551 0-1-.448-1-1s.449-1 1-1h1zm-.552 9.401.213-.024 3.141 5.235 2.198-2.198v15.586h-6v-11.236l-1.105-2.211-1.789.895.894 1.788v10.764h-2v-13.63c0-2.552 1.912-4.687 4.448-4.969zm-4.448 20.599h2v3.816c-1.161-.414-2-1.514-2-2.816zm20 0h2c0 1.302-.839 2.402-2 2.816zm10.997-21.889c-.058 1.051-.932 1.889-1.997 1.889s-1.939-.838-1.997-1.889l.573-2.289c.457.112.932.178 1.424.178s.967-.066 1.425-.178zm-5.997-12.111c0-2.206 1.794-4 4-4s4 1.794 4 4v4c0 2.206-1.794 4-4 4s-4-1.794-4-4zm.716 9.015-.517 2.067-2.971.33c-.78.087-1.525.305-2.227.638-.687-.326-1.434-.55-2.228-.638l-2.972-.33-.517-2.067c1.086-.714 1.924-1.771 2.366-3.015h1.35c.771 0 1.468-.301 2-.78.532.48 1.229.78 2 .78h1.35c.442 1.245 1.279 2.302 2.366 3.015zm-8.716-7.015h1c.551 0 1 .448 1 1s-.449 1-1 1h-1zm5 0h1v2h-1c-.551 0-1-.448-1-1s.449-1 1-1zm-14.337-8h11.337v2.172c0 1.424-.513 2.766-1.441 3.828h-.559c0-1.103-.897-2-2-2h-8c-1.103 0-2 .897-2 2h-1c-.265 0-.518.046-.763.11-.152-.467-.237-.956-.237-1.447 0-2.571 2.092-4.663 4.663-4.663zm-22.663 5.915c0-1.071.292-2.123.843-3.043 1.063-1.771 3.007-2.872 5.073-2.872h4.169c2.066 0 4.01 1.101 5.072 2.871.551.921.843 1.973.843 3.044v11.753c-.399-.119-.807-.209-1.227-.255l-2.972-.33-.517-2.067c1.634-1.074 2.716-2.92 2.716-5.016v-2c0-2.206-1.794-4-4-4h-4c-2.206 0-4 1.794-4 4v2c0 2.096 1.082 3.942 2.716 5.015l-.517 2.067-2.972.33c-.423.048-.832.134-1.227.251zm8 8.085c-2.206 0-4-1.794-4-4v-2c0-1.103.897-2 2-2h4c1.103 0 2 .897 2 2v2c0 2.206-1.794 4-4 4zm1.965 3.982-.576 2.018h-2.777l-.576-2.018.54-2.16c.457.112.932.178 1.424.178s.967-.066 1.425-.178zm-1.148 4.018-.504 1.764c-.08.277-.547.277-.627 0l-.503-1.764zm-7.369-2.599 2.823-.314 1.493 5.225c.283.995 1.203 1.688 2.236 1.688s1.953-.693 2.236-1.688l1.493-5.225 2.823.314c.148.016.286.064.431.093-1.23 1.266-1.983 2.988-1.983 4.876v11.63h-12v-6.891c0-1.292.207-2.569.616-3.794l.333-.999-1.897-.633-.333.999c-.477 1.43-.719 2.92-.719 4.427l.001 1.891h-2.001v-6.63c0-2.552 1.912-4.687 4.448-4.969zm-4.448 20.599v-7h2.002l.002 3.917-.475 5.695c-.916-.521-1.529-1.509-1.529-2.612zm3.917-2h12.083v3c0 2.414 1.721 4.434 4 4.899v2.101h-16.914zm2.083 12h4v8h-4zm42 8v-12.414l-2.293-2.293-1.414 1.414 1.707 1.707v11.586h-8v-13.101c2.279-.465 4-2.484 4-4.899v-2h12v20zm8-15.184v-9.816h2v7c0 1.302-.839 2.402-2 2.816z"/></svg>