<svg id="_x33_0" enable-background="new 0 0 64 64" height="512" viewBox="0 0 64 64" width="512" xmlns="http://www.w3.org/2000/svg"><g><path d="m33 44h4v2h-4z"/><path d="m39 44h2v2h-2z"/><path d="m29 44h2v2h-2z"/><path d="m32 1c-14.918 0-27.57 10.465-30.412 25h-.588v18h2.428c4.851 11.56 15.981 19 28.572 19 17.093 0 31-13.906 31-31 0-17.093-13.907-31-31-31zm-29 27h9c.551 0 1 .449 1 1v12c0 .552-.449 1-1 1h-9zm12 2h2.351l.274-.219c3.047-2.438 6.875-3.781 10.778-3.781h6.597c0 1.103-.896 2-1.996 2h-3.161c-1.522 0-2.89.847-3.572 2.215-.549 1.101-1.654 1.785-2.884 1.785h-.387v2h.387c.56 0 1.1-.096 1.613-.261v10.148c-2.754-.362-5.313-1.613-7.293-3.593l-.293-.294h-2.414zm12 12h14.184c.302.847.969 1.514 1.816 1.816v3.184c0 .552-.449 1-1 1h-14c-.551 0-1-.448-1-1zm20-9c0 .552-.449 1-1 1h-2c-.551 0-1-.448-1-1 0-.551.449-1 1-1h2c.551 0 1 .449 1 1zm0 4c0 .552-.449 1-1 1h-2c-.551 0-1-.448-1-1s.449-1 1-1h2c.551 0 1 .448 1 1zm-3 5c-.551 0-1-.448-1-1s.449-1 1-1h2c.551 0 1 .448 1 1s-.449 1-1 1zm2-12h-2c-.551 0-1-.449-1-1s.449-1 1-1h2c.551 0 1 .449 1 1s-.449 1-1 1zm-3-10h-4.556c.344-.591.556-1.268.556-2v-2h3c.551 0 1 .449 1 1zm-6-2c0 1.103-.897 2-2 2s-2-.897-2-2v-2h4zm-5.444 2h-4.556v-3c0-.551.449-1 1-1h3v2c0 .732.212 1.409.556 2zm-4.556 2h16v4.184c-1.161.414-2 1.514-2 2.816 0 .771.301 1.468.78 2-.48.532-.78 1.229-.78 2s.301 1.468.78 2c-.48.532-.78 1.229-.78 2s.301 1.468.78 2c-.261.289-.463.626-.596 1h-14.184v-7.464c.423-.408.789-.884 1.063-1.433.339-.68 1.021-1.103 1.78-1.103h3.161c2.204 0 3.996-1.794 3.996-4 0-1.103-.897-2-2-2h-6.597c-.469 0-.937.024-1.403.058zm-12.184 20h1.779c2.312 2.184 5.256 3.538 8.406 3.895v1.105c0 1.654 1.346 3 3 3h14c.66 0 1.265-.221 1.761-.583l1.417 1.417c-3.736 2.621-8.279 4.166-13.179 4.166-8.096 0-15.482-4.19-19.648-11.036 1.146-.136 2.088-.91 2.464-1.964zm31.962 7.606-1.878-1.878c.059-.234.1-.475.1-.728v-3h1c.253 0 .494-.041.729-.1l2.878 2.878c-.86 1.022-1.807 1.968-2.829 2.828zm4.056-4.429-2.417-2.417c.363-.495.583-1.1.583-1.76 0-.771-.301-1.468-.78-2 .48-.532.78-1.229.78-2s-.301-1.468-.78-2c.48-.532.78-1.229.78-2s-.301-1.468-.78-2c.48-.532.78-1.229.78-2 0-1.654-1.346-3-3-3h-1v-9c0-1.654-1.346-3-3-3h-14c-1.654 0-3 1.346-3 3v2.344l-6.162-6.162c3.769-2.64 8.329-4.182 13.162-4.182 12.682 0 23 10.318 23 23 0 4.9-1.545 9.442-4.166 13.177zm-33.595-30.766 7.761 7.761v2.143c-.949.172-1.886.406-2.798.716l-7.795-7.795c.863-1.023 1.809-1.968 2.832-2.825zm-4.063 4.422 7.023 7.023c-1.249.588-2.444 1.297-3.545 2.144h-1.839c-.414-1.161-1.514-2-2.816-2h-2.187c.706-2.613 1.856-5.026 3.364-7.167zm18.824 42.167c-11.494 0-21.686-6.63-26.39-17h4.468c4.4 8.03 12.735 13 21.922 13 13.785 0 25-11.215 25-25s-11.215-25-25-25c-11.465 0-21.522 7.947-24.252 19h-4.124c2.804-13.397 14.552-23 28.376-23 15.991 0 29 13.009 29 29 0 15.99-13.009 29-29 29z"/></g></svg>