<svg id="_x33_0" enable-background="new 0 0 64 64" height="512" viewBox="0 0 64 64" width="512" xmlns="http://www.w3.org/2000/svg"><g><circle cx="52" cy="7" r="1"/><circle cx="58" cy="7" r="1"/><path d="m51.211 11.342-.105.211 1.789.895.105-.212c.381-.762 1.147-1.236 2-1.236s1.619.474 2 1.236l.105.211 1.789-.895-.105-.211c-.722-1.444-2.174-2.341-3.789-2.341s-3.067.897-3.789 2.342z"/><path d="m49 39h2v2h-2z"/><path d="m53 39h2v2h-2z"/><path d="m57 39h2v2h-2z"/><path d="m5 19h16v2h-16z"/><path d="m5 15h16v2h-16z"/><path d="m16 39h-2c-1.103 0-2 .897-2 2v8c0 1.103.897 2 2 2h2c1.103 0 2-.897 2-2v-8c0-1.103-.897-2-2-2zm-2 10v-8h2l.001 8z"/><path d="m15 53c-1.654 0-3 1.346-3 3s1.346 3 3 3 3-1.346 3-3-1.346-3-3-3zm0 4c-.551 0-1-.449-1-1s.449-1 1-1 1 .449 1 1-.449 1-1 1z"/><path d="m61 35h-4v-18.263c3.445-.892 6-4.017 6-7.737 0-4.411-3.589-8-8-8-.585 0-1.153.067-1.703.187-.422-.114-.854-.187-1.297-.187h-32c-2.757 0-5 2.243-5 5v5h-12c-1.103 0-2 .897-2 2v10c0 1.103.897 2 2 2h12v10c-7.72 0-14 6.28-14 14s6.28 14 14 14c1.079 0 2.126-.135 3.136-.367.592.239 1.216.367 1.864.367h32c2.757 0 5-2.243 5-5v-13h4c1.103 0 2-.897 2-2v-6c0-1.103-.897-2-2-2zm-6-3.094c-.47-.616-1.225-.97-2-.893v-14.276c.641.166 1.308.263 2 .263zm-29.665 7.683c.987-.636 2.042-1.159 3.141-1.564l1.832 7.329 5.692-2.277 5.692 2.277 1.831-7.324c.502.185.994.396 1.477.631v4.339c0 1.103.897 2 2 2h4v4h-22c0-3.625-1.397-6.922-3.665-9.411zm19.665-10.589v-2c1.103 0 2 .897 2 2s-.897 2-2 2h-.232c.147-.644.232-1.312.232-2zm1.737-5.073-.335 1.34c-.438-.165-.907-.267-1.402-.267v-.19c0-1.547-1.161-2.831-2.701-2.985l-3.224-.322c-2.323-.233-4.075-2.169-4.075-4.503h-2c0 .903.182 1.765.513 2.549l-4.088 1.752c-1.473.632-2.425 2.075-2.425 3.677v.022c-.495 0-.964.102-1.402.267l-.335-1.34c-.175-.696-.263-1.414-.263-2.133 0-4.849 3.945-8.794 8.794-8.794h4.411c4.85 0 8.795 3.945 8.795 8.794 0 .719-.088 1.437-.263 2.133zm-15.13 13.287 2.877 4.315-2.792 1.117-1.299-5.196c.402-.093.806-.175 1.214-.236zm2.832.641c.508.09 1.028.145 1.561.145s1.053-.055 1.561-.145l-1.561 2.342zm5.953-.64c.409.062.815.135 1.216.228l-1.301 5.203-2.792-1.117zm-4.392-1.215c-3.86 0-7-3.14-7-7v-4.022c0-.801.476-1.522 1.212-1.838l4.368-1.872c1.056 1.224 2.566 2.051 4.295 2.225l3.224.322c.513.051.9.479.9.995v4.19c.001 3.86-3.139 7-6.999 7zm-9-9v2c0 .688.085 1.356.232 2h-.232c-1.103 0-2-.897-2-2s.897-2 2-2zm-3.545-2.057.403 1.612c-.529.678-.858 1.52-.858 2.445 0 2.206 1.794 4 4 4h.95c.475.952 1.111 1.807 1.876 2.531-2.129.51-4.155 1.405-5.965 2.641-.87-.714-1.835-1.312-2.861-1.802v-11.37h2c.157 0 .308-.023.455-.057zm21.622 11.539c-.937-.402-1.906-.719-2.897-.956.763-.723 1.397-1.576 1.871-2.526h.949c2.206 0 4-1.794 4-4 0-.925-.329-1.767-.858-2.445l.536-2.142c.214-.855.322-1.736.322-2.619 0-5.952-4.842-10.794-10.794-10.794h-4.411c-3.628 0-6.836 1.805-8.794 4.557v-2.557c0-1.103-.897-2-2-2h-2v-2h26c0 2.953 1.613 5.532 4 6.918v19.082h-4c-.924 0-1.695.631-1.924 1.482zm15.923-27.482c0 3.309-2.691 6-6 6s-6-2.691-6-6 2.691-6 6-6 6 2.691 6 6zm-44-3c0-1.654 1.346-3 3-3h29.726c-1.185 1.043-2.056 2.427-2.463 4h-26.263c-1.103 0-2 .897-2 2v2h-2zm-14 7h20v10h-4v3.764c0 .219-.35.301-.447.105l-1.935-3.869h-13.618zm14 15.094c.47.617 1.226.973 2 .893v6.602c-.648-.193-1.317-.332-2-.43zm-14 20.906c0-6.617 5.383-12 12-12s12 5.383 12 12-5.383 12-12 12-12-5.383-12-12zm52 9c0 1.654-1.346 3-3 3h-29.826c3.536-2.122 6.054-5.752 6.666-10h22.16c1.103 0 2-.897 2-2v-4h2zm6-15h-14v-6h6v-3.764c0-.219.35-.301.447-.105l1.935 3.869h5.618z"/><path d="m41 53h-10c-1.103 0-2 .897-2 2v2c0 1.103.897 2 2 2h10c1.103 0 2-.897 2-2v-2c0-1.103-.897-2-2-2zm-10 4v-2h10l.001 2z"/><path d="m38 30.764c-.381.762-1.147 1.236-2 1.236s-1.619-.474-2-1.236l-.105-.211-1.789.895.105.211c.722 1.444 2.174 2.341 3.789 2.341s3.067-.897 3.789-2.342l.105-.211-1.789-.895z"/></g></svg>