<svg id="_x33_0" enable-background="new 0 0 64 64" height="512" viewBox="0 0 64 64" width="512" xmlns="http://www.w3.org/2000/svg"><g><path d="m25 53h-10c-1.103 0-2 .897-2 2v2c0 1.103.897 2 2 2h10c1.103 0 2-.897 2-2v-2c0-1.103-.897-2-2-2zm-10 4v-2h10l.001 2z"/><path d="m57.684 16.658-.105-.211c-1.065-2.126-3.202-3.447-5.579-3.447s-4.514 1.321-5.578 3.447l-.105.211c-.358.716-.416 1.529-.162 2.29s.788 1.377 1.502 1.734c.416.208.88.318 1.343.318 1.143 0 2.171-.636 2.684-1.659l.105-.211c.083-.166.339-.166.422 0l.105.211c.512 1.024 1.54 1.659 2.685 1.659.463 0 .927-.109 1.341-.316.716-.358 1.25-.974 1.503-1.735.254-.761.197-1.575-.161-2.291zm-2.237 2.237c-.479.239-1.103.032-1.342-.447l-.105-.212c-.381-.762-1.148-1.236-2-1.236s-1.619.474-2 1.236l-.105.211c-.24.479-.858.69-1.343.447-.238-.119-.415-.324-.5-.578s-.066-.525.053-.763l.105-.211c.724-1.445 2.175-2.342 3.79-2.342s3.066.897 3.789 2.342l.105.211c.247.493.046 1.095-.447 1.342z"/><path d="m43.578 16.447c-1.064-2.126-3.201-3.447-5.578-3.447s-4.514 1.321-5.578 3.447l-.105.211c-.358.716-.416 1.529-.162 2.29s.788 1.377 1.502 1.734c.416.208.88.318 1.343.318 1.143 0 2.171-.636 2.684-1.659l.105-.211c.083-.166.339-.166.422 0l.105.211c.512 1.024 1.54 1.659 2.685 1.659.463 0 .927-.109 1.341-.316.716-.358 1.25-.974 1.503-1.735.254-.761.196-1.574-.162-2.29zm-2.131 2.448c-.479.239-1.102.032-1.342-.447l-.105-.212c-.381-.762-1.148-1.236-2-1.236s-1.619.474-2 1.236l-.105.211c-.24.479-.858.69-1.343.447-.238-.119-.415-.324-.5-.578s-.066-.525.053-.763l.105-.211c.724-1.445 2.175-2.342 3.79-2.342s3.066.897 3.789 2.342l.105.211c.247.493.046 1.095-.447 1.342z"/><path d="m58.366 11.567-.207-.178c-1.798-1.54-4.092-2.389-6.461-2.389-2.501 0-4.862.919-6.696 2.598-1.656-1.533-3.757-2.425-6.002-2.57v-3.028c0-2.757-2.243-5-5-5h-28c-2.757 0-5 2.243-5 5v52c0 2.757 2.243 5 5 5h28c2.757 0 5-2.243 5-5v-21.011l6 4.235 5-3.53v8.306c0 1.654 1.346 3 3 3s3-1.346 3-3v-12.541l1.383-.976c3.517-2.483 5.617-6.535 5.617-10.84 0-3.879-1.689-7.552-4.634-10.076zm-21.366 46.433c0 1.654-1.346 3-3 3h-28c-1.654 0-3-1.346-3-3v-52c0-1.654 1.346-3 3-3h28c1.654 0 3 1.346 3 3v3.089c-.684.088-1.354.244-2 .472v-.561c0-1.103-.897-2-2-2h-26c-1.103 0-2 .897-2 2v40c0 1.103.897 2 2 2h26c1.103 0 2-.897 2-2v-14.835l2 1.412zm-17-41c-3.86 0-7-3.14-7-7v-1h14v1c0 3.86-3.14 7-7 7zm-5.014.469c-.074.95-.803 1.726-1.765 1.833l-3.188.354c-1.129.127-2.174.575-3.033 1.257v-11.913h4v1c0 3.107 1.584 5.851 3.986 7.469zm-7.986 6.724c.516-1.387 1.775-2.384 3.253-2.548l3.188-.354c1.649-.183 2.953-1.353 3.389-2.878.988.373 2.053.587 3.17.587s2.182-.214 3.17-.587c.436 1.525 1.74 2.695 3.389 2.877l.458.051c-.003.101-.017.201-.017.302 0 2.494.723 4.892 2 6.96v.186c0 2.322-1.889 4.211-4.211 4.211-1.412 0-2.721-.701-3.504-1.875l-.285-.428v-3.697h-2v3.697l-.285.428c-.783 1.174-2.092 1.875-3.504 1.875-2.322 0-4.211-1.889-4.211-4.211v-3.789h-2v3.789c0 1.824.795 3.461 2.05 4.598.074 1.453.252 2.922.565 4.374.357 1.656.385 2.133.385 2.239 0 1.785-.692 2.871-1.569 4.246-.792 1.241-1.674 2.634-2.224 4.754h-1.207zm5.117 21.128c.968-1.518 1.883-2.953 1.883-5.321 0-.286-.044-.874-.429-2.66-.193-.896-.321-1.798-.417-2.698.645.228 1.335.358 2.057.358 1.868 0 3.616-.833 4.789-2.255 1.173 1.422 2.921 2.255 4.789 2.255.722 0 1.412-.13 2.057-.357-.095.9-.224 1.801-.417 2.698-.385 1.785-.429 2.373-.429 2.659 0 2.368.915 3.803 1.883 5.321.67 1.051 1.354 2.138 1.829 3.679h-19.424c.475-1.54 1.159-2.628 1.829-3.679zm19.676 3.679c-.55-2.12-1.432-3.513-2.224-4.754-.877-1.375-1.569-2.461-1.569-4.246 0-.106.028-.583.384-2.239.313-1.453.492-2.921.565-4.374.778-.705 1.377-1.601 1.721-2.616.592.623 1.232 1.207 1.947 1.712l.383.27v16.247zm-4.575-29.649-.438-.049c-.962-.107-1.691-.883-1.765-1.833 2.401-1.618 3.985-4.362 3.985-7.469v-1h4v1.538c-.388.247-.764.514-1.117.816l-.25.214c-2.355 2.02-3.889 4.777-4.415 7.783zm26.782 26.649c0 .551-.449 1-1 1s-1-.449-1-1v-14c0-1.654-1.346-3-3-3s-3 1.346-3 3v2c0 .551-.449 1-1 1s-1-.449-1-1v-2c0-1.654-1.346-3-3-3h-3c-1.103 0-2-.897-2-2s.897-2 2-2h14c1.103 0 2 .897 2 2zm2.229-15.15-.229.162v-4.012c0-2.206-1.794-4-4-4h-14c-2.206 0-4 1.794-4 4s1.794 4 4 4h3c.551 0 1 .449 1 1v2c0 1.654 1.346 3 3 3s3-1.346 3-3v-2c0-.551.449-1 1-1s1 .449 1 1v3.247l-5 3.529-11.23-7.927c-2.987-2.108-4.77-5.55-4.77-9.206 0-3.294 1.434-6.413 3.934-8.555l.25-.214c1.411-1.209 3.21-1.875 5.069-1.875h.002.104c2.08 0 4.036.811 5.506 2.281l1.135 1.134 1.094-1.094c1.497-1.496 3.488-2.32 5.604-2.32 1.891 0 3.723.678 5.159 1.908l.206.177c2.502 2.144 3.937 5.264 3.937 8.558 0 3.656-1.783 7.098-4.771 9.207z"/><circle cx="14" cy="30" r="1"/><circle cx="20" cy="44" r="1"/><circle cx="26" cy="30" r="1"/><path d="m22 11.764c-.381.762-1.147 1.236-2 1.236s-1.619-.474-2-1.236l-.105-.211-1.789.895.105.211c.722 1.444 2.174 2.341 3.789 2.341s3.067-.897 3.789-2.342l.105-.211-1.789-.895z"/></g></svg>