<?xml version="1.0" encoding="UTF-8" standalone="no"?>
<!-- Created with Inkscape (http://www.inkscape.org/) -->

<svg
   xmlns:dc="http://purl.org/dc/elements/1.1/"
   xmlns:cc="http://creativecommons.org/ns#"
   xmlns:rdf="http://www.w3.org/1999/02/22-rdf-syntax-ns#"
   xmlns:svg="http://www.w3.org/2000/svg"
   xmlns="http://www.w3.org/2000/svg"
   xmlns:sodipodi="http://sodipodi.sourceforge.net/DTD/sodipodi-0.dtd"
   xmlns:inkscape="http://www.inkscape.org/namespaces/inkscape"
   width="144mm"
   height="36mm"
   viewBox="0 0 144 36"
   version="1.1"
   id="svg8"
   inkscape:export-filename="/home/aluno/j.png"
   inkscape:export-xdpi="96"
   inkscape:export-ydpi="96"
   inkscape:version="0.92.4 (5da689c313, 2019-01-14)"
   sodipodi:docname="logo.svg">
  <defs
     id="defs2" />
  <sodipodi:namedview
     id="base"
     pagecolor="#ffffff"
     bordercolor="#666666"
     borderopacity="1.0"
     inkscape:pageopacity="0.0"
     inkscape:pageshadow="2"
     inkscape:zoom="0.98994949"
     inkscape:cx="194.6181"
     inkscape:cy="-6.7147804"
     inkscape:document-units="mm"
     inkscape:current-layer="layer1"
     showgrid="false"
     objecttolerance="1"
     gridtolerance="1"
     guidetolerance="1"
     inkscape:window-width="1600"
     inkscape:window-height="786"
     inkscape:window-x="0"
     inkscape:window-y="27"
     inkscape:window-maximized="1" />
  <metadata
     id="metadata5">
    <rdf:RDF>
      <cc:Work
         rdf:about="">
        <dc:format>image/svg+xml</dc:format>
        <dc:type
           rdf:resource="http://purl.org/dc/dcmitype/StillImage" />
        <dc:title></dc:title>
      </cc:Work>
    </rdf:RDF>
  </metadata>
  <g
     inkscape:label="Camada 1"
     inkscape:groupmode="layer"
     id="layer1"
     transform="translate(0,-261)">
    <g
       id="g4716">
      <rect
         y="260.78085"
         x="0.13268098"
         height="36.348656"
         width="144.86008"
         id="rect10"
         style="fill:#ffffff;stroke-width:0.26458332" />
      <path
         inkscape:connector-curvature="0"
         id="path4672"
         d="m 13.287015,294.22404 c -4.90261,-1.35243 -9.725831,-5.41569 -11.338289,-9.55179 -0.631287,-1.61931 -0.852379,-2.97076 -0.852379,-5.21025 0,-4.06093 1.024454,-6.66186 3.808336,-9.66879 3.136266,-3.38754 6.17235,-4.94665 10.950361,-5.6233 7.474154,-1.05847 15.601631,3.02912 18.555225,9.33207 0.896794,1.91376 1.021683,2.64229 1.021683,5.96002 0,3.34869 -0.117004,4.01686 -1.025898,5.85864 -2.091065,4.23731 -5.682829,7.23573 -10.420433,8.69903 -2.814712,0.86937 -7.933489,0.96716 -10.698606,0.20437 z m 7.336119,-2.46453 c 9.237408,-1.51287 14.191437,-9.88537 10.437547,-17.63987 -0.423077,-0.87396 -0.986393,-1.76925 -1.251815,-1.98953 -0.365268,-0.30315 -2.818628,1.6747 -10.091952,8.13594 -5.285152,4.69504 -9.609367,8.73104 -9.609367,8.96888 0,0.60843 2.640186,1.83617 5.102678,2.37285 2.653885,0.57839 2.785228,0.58208 5.412909,0.15173 z m -3.309689,-13.47149 c 5.285028,-4.69949 9.52737,-8.67683 9.427424,-8.83855 -0.385064,-0.62305 -3.621865,-1.88024 -5.941168,-2.30759 -9.85392,-1.81566 -18.831198,6.93711 -15.998298,15.5982 0.699459,2.13848 1.904501,4.09246 2.52386,4.09246 0.208472,0 4.703153,-3.84503 9.988182,-8.54452 z"
         style="fill:#44aa00;stroke:#fdfdfd;stroke-width:0.14285713;stroke-miterlimit:4;stroke-dasharray:none;stroke-opacity:1" />
      <text
         transform="scale(0.9622184,1.0392651)"
         id="text143"
         y="276.99347"
         x="11.573498"
         style="font-style:normal;font-variant:normal;font-weight:bold;font-stretch:normal;font-size:20.20055962px;line-height:1.25;font-family:sans-serif;-inkscape-font-specification:'sans-serif Bold';letter-spacing:0px;word-spacing:0px;fill:#000000;fill-opacity:1;stroke:#fdfdfd;stroke-width:0.1;stroke-miterlimit:4;stroke-dasharray:none;stroke-opacity:1"
         xml:space="preserve"><tspan
           style="font-style:normal;font-variant:normal;font-weight:bold;font-stretch:normal;font-family:sans-serif;-inkscape-font-specification:'sans-serif Bold';fill:#000000;stroke:#fdfdfd;stroke-width:0.1;stroke-miterlimit:4;stroke-dasharray:none;stroke-opacity:1"
           y="276.99347"
           x="11.573498"
           id="tspan141"
           sodipodi:role="line">Antibullying</tspan></text>
    </g>
    <path
       style="fill:#008000;stroke:#fdfdfd;stroke-width:0.03374578;stroke-miterlimit:4;stroke-dasharray:none;stroke-opacity:1"
       d=""
       id="path4684"
       inkscape:connector-curvature="0"
       transform="matrix(0.26458333,0,0,0.26458333,0,261)" />
  </g>
</svg>
