<svg id="_x33_0" enable-background="new 0 0 64 64" height="512" viewBox="0 0 64 64" width="512" xmlns="http://www.w3.org/2000/svg" xmlns:xlink="http://www.w3.org/1999/xlink"><linearGradient id="SVGID_1_" gradientUnits="userSpaceOnUse" x1="32" x2="32" y1="63" y2="1"><stop offset="0" stop-color="#9f2fff"/><stop offset="1" stop-color="#0bb1d3"/></linearGradient><path d="m35.789 33.342.105.21-1.789.895-.105-.211c-.381-.762-1.147-1.236-2-1.236s-1.619.474-2 1.236l-.105.211-1.789-.895.105-.211c.722-1.444 2.174-2.341 3.789-2.341s3.067.897 3.789 2.342zm-34.789-7.723v-3.816c0-1.546 1.257-2.803 2.802-2.803.105 0 .208.023.313.034.329-1.169 1.393-2.034 2.666-2.034.226 0 .451.028.673.083l2.439.61c1.174.294 2.003 1.306 2.09 2.497.319-.116.658-.19 1.017-.19 1.128 0 2.101.633 2.613 1.557l2.537.564c.168-.601.472-1.157.924-1.611l.512-.51-.639-.638c-.611-.612-.947-1.424-.947-2.288 0-.989.442-1.909 1.215-2.526l.898-.719c2.281-1.825 5.144-2.829 8.064-2.829h1.168c2.475 0 4.872.701 6.96 2.016.11-.005.22-.016.331-.016 4.06 0 7.364 3.303 7.364 7.364 0 2.42-.294 4.834-.864 7.184.041.052.088.099.127.154l13.292 2.954c1.439.319 2.445 1.572 2.445 3.047 0 .292-.041.582-.121.86l-1.478 5.172c-.38 1.333-1.615 2.265-3.003 2.265h-.118c-.272 0-.546-.036-.811-.107l-16.689-4.493c-.179.134-.364.261-.554.381l.576 2.303 4.68.52c2.58.287 4.952 1.642 6.509 3.718.603.804 1.069 1.693 1.386 2.643l2.131 6.396c.326.981.492 2.002.492 3.035 0 1.901-.558 3.742-1.612 5.325l-.853 1.279h-28.535v-11h-5c-1.103 0-2-.897-2-2h-4.239c-3.728 0-6.761-3.033-6.761-6.76 0-.186.008-.373.022-.558l.967-11.6-.671-2.687-.263-.076c-1.202-.323-2.055-1.436-2.055-2.7zm22 25.145v10.236h8v-14.382l-3.447 1.724-3.171-6.342h-8.382v8h4.382l-.276-.553 1.789-.895zm3.618-8.764 1.829 3.658 1.865-.932-2.726-2.726zm7.07 2.726 1.865.932 1.753-3.507-.939-.104zm9.312 10.51v2.35l.784-.784zm7 1.16c0-.818-.131-1.626-.391-2.404l-.603-1.811c-1.264.961-2.671 1.723-4.162 2.27l.58 1.159c.797-.392 1.68-.61 2.576-.61v2c-1.008 0-1.994.409-2.707 1.121l-2.293 2.293v.586h5.465l.259-.388c.835-1.253 1.276-2.711 1.276-4.216zm-8.739-13.806-1.836-.204-2.977 5.955-3.448-1.723v14.382h8v-10.236l1.105-2.211 1.789.895-.776 1.552.825 1.651c1.601-.558 3.092-1.406 4.387-2.497l-.852-2.557c-.249-.746-.614-1.444-1.088-2.075-1.227-1.637-3.096-2.706-5.129-2.932zm-6.881-3.951c-.752.234-1.552.361-2.38.361s-1.628-.127-2.38-.361l-.513 2.055 2.893 2.892 2.893-2.893zm3.62-7.639v-3.286c-.517.181-1.061.286-1.619.286h-.473c-1.503 0-2.833-.693-3.734-1.76l-.323.323c-.925.926-2.159 1.437-3.47 1.437h-.473c-.676 0-1.321-.138-1.908-.386v3.386c0 3.309 2.691 6 6 6s6-2.691 6-6zm-14 1h.069c-.041-.328-.069-.661-.069-1v-3c-1.103 0-2 .897-2 2s.897 2 2 2zm16-4v3c0 .339-.028.672-.069 1h.069c1.103 0 2-.897 2-2s-.897-2-2-2zm3.991 1.911c.001.03.009.059.009.089 0 2.206-1.794 4-4 4h-.589c-.258.635-.598 1.225-1.002 1.767l15.579 4.195c.095.025.194.038.292.038h.118c.499 0 .942-.334 1.079-.814l1.479-5.175c.029-.101.044-.204.044-.308 0-.521-.37-.982-.879-1.096zm-21.577-9.911-1.924 1.923c-.315.317-.49.738-.49 1.185 0 .36.119.717.335 1.004l1.784 2.379c.557-.3 1.184-.486 1.859-.489-.606-.816-.978-1.817-.978-2.91 0-1.645.817-3.172 2.186-4.084l1.26-.84 1.109 1.664-1.26.84c-.811.54-1.295 1.445-1.295 2.42 0 1.603 1.305 2.908 2.908 2.908h.473c.777 0 1.508-.302 2.057-.852l.759-.759c-.116-.415-.197-.845-.197-1.297 0-1.645.817-3.172 2.186-4.084l1.26-.84 1.109 1.664-1.26.84c-.811.54-1.295 1.445-1.295 2.42 0 1.603 1.305 2.908 2.908 2.908h.473c.582 0 1.141-.181 1.619-.503v-1.497h2v2c.484 0 .942.1 1.372.258.408-1.937.628-3.913.628-5.894 0-2.958-2.406-5.364-5.364-5.364-1.433 0-2.78.558-3.793 1.571l-.135.135-1.416-1.412.136-.136c.579-.579 1.24-1.043 1.953-1.395-1.278-.501-2.643-.763-4.036-.763h-1.168c-2.467 0-4.887.849-6.813 2.39l-.899.72c-.296.236-.465.587-.465.964 0 .33.129.64.361.874zm-3.679 5.313c-.258-.343-.446-.732-.57-1.141l-2.165-.481v4.219c0 .606-.095 1.194-.264 1.753l4.355 1.172c-.058-.27-.091-.548-.091-.835 0-.793.239-1.528.638-2.15zm-6.051 7.963-.684.342v6.382h15.219l.555-2.22c-1.422-.89-2.547-2.209-3.185-3.78h-.589c-.766 0-1.476-.227-2.085-.602l-7.106-1.913c-.549.738-1.263 1.36-2.125 1.791zm-.684-10.276v1.181 1.233l-.879.879c-.723.723-1.121 1.685-1.121 2.707v1.331l-4.459-1.292.47 1.879-.015.165-.98 11.761c-.01.13-.016.262-.016.396 0 2.625 2.136 4.76 4.761 4.76h4.239v-6h-2v2h-2v-11.618l1.789-.895c1.364-.681 2.211-2.052 2.211-3.577v-4.91c0-.551-.448-1-1-1s-1 .449-1 1zm-6-2.694c0 .491.352.906.835.986l3.165.527v-1.429c0-.359-.243-.671-.591-.758l-2.438-.609c-.063-.015-.126-.023-.19-.023-.43 0-.781.35-.781.781zm-3 5.313c0 .362.244.681.594.774l4.549 1.317c.239-1.064.774-2.042 1.564-2.832l.293-.292v-.739l-3.493-.583c-1.2-.2-2.117-1.087-2.404-2.217l-.127-.028c-.493-.111-.976.282-.976.783zm60-16.939c0-2.034-1.13-3.863-2.949-4.772l-4.778-2.389c-.678-.34-1.438-.519-2.196-.519h-.169c-2.706 0-4.908 2.202-4.908 4.908 0 .435.061.86.17 1.269l-.016.004c-2.446.611-4.154 2.798-4.154 5.319 0 1.985 1.069 3.751 2.713 4.715l-1.313.985 1.2 1.6 2.401-1.8c1.252-.939 1.999-2.435 1.999-4h-2c0 .653-.228 1.279-.613 1.793-1.414-.47-2.387-1.781-2.387-3.293 0-1.601 1.085-2.99 2.639-3.378l.471-.118c.306.375.662.712 1.076.988l1.26.84 1.109-1.664-1.26-.84c-.811-.54-1.295-1.445-1.295-2.42 0-1.603 1.305-2.908 2.908-2.908h.169c.449 0 .899.106 1.301.307l4.778 2.389c1.138.569 1.844 1.712 1.844 2.984 0 1.118-.556 2.155-1.485 2.775l-.971.647c-.338-.065-.687-.102-1.044-.102h-1.5v2h1.5c1.93 0 3.5 1.57 3.5 3.5s-1.57 3.5-3.5 3.5h-.455c-1.679 0-3.045-1.366-3.045-3.045 0-.47.111-.941.321-1.362l.573-1.146-1.789-.895-.573 1.146c-.348.698-.532 1.479-.532 2.257 0 .419.066.819.163 1.209-1.501.257-2.938.818-4.214 1.668l-.504.336 1.109 1.664.504-.336c1.211-.807 2.602-1.284 4.045-1.431.925 1.169 2.339 1.935 3.942 1.935h.455c3.032 0 5.5-2.467 5.5-5.5 0-1.831-.903-3.451-2.283-4.451 1.43-.999 2.283-2.621 2.283-4.369z" fill="url(#SVGID_1_)"/></svg>