<svg id="_x33_0" enable-background="new 0 0 64 64" height="512" viewBox="0 0 64 64" width="512" xmlns="http://www.w3.org/2000/svg" xmlns:xlink="http://www.w3.org/1999/xlink"><linearGradient id="SVGID_1_" gradientUnits="userSpaceOnUse" x1="32" x2="32" y1="63" y2="1"><stop offset="0" stop-color="#9f2fff"/><stop offset="1" stop-color="#0bb1d3"/></linearGradient><path d="m29 58c0-.552.448-1 1-1s1 .448 1 1-.448 1-1 1-1-.448-1-1zm-19-5.395c0-.769-.299-1.49-.842-2.033l-.83-.829c-1.501-1.502-2.328-3.499-2.328-5.622 0-2.27.973-4.435 2.668-5.941l2.304-2.048c2.56-2.276 4.028-5.546 4.028-8.97v-11.162c0-8.271 6.729-15 15-15 5.707 0 10.678 3.205 13.213 7.909.438-1.115 1.518-1.909 2.787-1.909 2.226 0 4.194 1.418 4.897 3.529l6.732 20.196c.246.739.371 1.507.371 2.285 0 3.253-2.127 6.018-5.211 6.911.778 1.249 1.211 2.7 1.211 4.2 0 2.123-.827 4.12-2.329 5.622l-.83.829c-.542.543-.841 1.265-.841 2.033 0 1.096.609 2.081 1.589 2.571l.25.124c1.334.67 2.161 2.008 2.161 3.496 0 1.044-.406 2.025-1.144 2.763l-1.442 1.441h-42.828l-1.442-1.441c-.738-.738-1.144-1.719-1.144-2.763 0-1.488.827-2.826 2.159-3.494l.254-.126c.978-.489 1.587-1.475 1.587-2.571zm4-13.842c0 .137.005.273.014.41l.673 10.094c.139 2.093 1.892 3.733 3.991 3.733h12.322c1.103 0 2-.897 2-2s-.897-2-2-2h-14v-10h2.093c.207-1.172.767-2.274 1.614-3.121l.586-.586 1.414 1.414-.586.586c-.472.472-.794 1.069-.969 1.707h7.848v-2h2v2h6.026c-2.438-1.825-4.026-4.727-4.026-8v-3.685c-.911.434-1.925.685-3 .685-.695 0-1.366-.105-2-.295v.678c0 1.406-.998 2.64-2.372 2.934l-6.784 1.454c-2.807.601-4.844 3.121-4.844 5.992zm12.336-28.118c-.836.557-1.336 1.491-1.336 2.496v.859h10c0-1.103-.897-2-2-2h-.901c-1.868 0-3.599-.728-4.9-1.931zm-3.336 5.355v4h14v-4zm2.101 6c.465 2.279 2.484 4 4.899 4s4.434-1.721 4.899-4zm15.899 25v-6h-22v6zm-20.414 9.924c-.855 1.282-1.573 2.649-2.149 4.076h23.127c-.576-1.427-1.294-2.794-2.149-4.076l-1.238-1.857c-.77-1.154-1.177-2.497-1.177-3.883v-2.184h-2.556c.344.591.556 1.268.556 2 0 2.206-1.794 4-4 4h-9.136c-.014.022-.026.045-.04.067zm31.414-12.803c0-1.698-.728-3.319-1.997-4.447l-1.839-1.635c-1.045 1.769-2.965 2.961-5.164 2.961v8h-4v2.184c0 .99.291 1.949.84 2.773l1.238 1.857c1.078 1.618 1.949 3.362 2.617 5.186h6.891l.856-.855c.36-.36.558-.839.558-1.349 0-.727-.404-1.38-1.054-1.705l-.249-.124c-1.664-.832-2.697-2.503-2.697-4.362 0-1.303.507-2.526 1.428-3.447l.83-.829c1.123-1.124 1.742-2.619 1.742-4.208zm-4.54-13.121h.454l-.852-10.226c-.781-.266-1.47-.696-2.061-1.226v7.614c0 .764.092 1.525.237 2.275.857.346 1.613.886 2.222 1.563zm-2.46-15.904c0 1.839 1.246 3.436 3.03 3.882l.907.225.983 11.797h2.08v2h-3.35c.223.627.35 1.298.35 2 0 .348-.036.686-.093 1.018.042.038.081.078.123.116l2.302 2.046c.016.014.03.031.046.045l.534-.119c2.407-.535 4.088-2.63 4.088-5.096 0-.562-.09-1.117-.268-1.651l-6.732-20.197c-.431-1.293-1.637-2.162-3-2.162-.551 0-1 .448-1 1zm-28 12.066c0 1.533-.257 3.038-.736 4.462.668-.364 1.391-.644 2.162-.809l6.784-1.454c.457-.098.79-.509.79-.978v-1.647c-1.551-1.085-2.638-2.781-2.92-4.736h-2.08v-8h2v-.859c0-1.675.833-3.23 2.227-4.16l.697-.465c-.425-.7-.736-1.481-.904-2.319l1.961-.393c.486 2.431 2.639 4.196 5.118 4.196h.901c2.206 0 4 1.794 4 4h2v8h-2.08c-.216 1.502-.906 2.853-1.92 3.889v5.111c0 4.411 3.589 8 8 8 2.206 0 4-1.794 4-4s-1.794-4-4-4c-1.103 0-2 .897-2 2s.897 2 2 2h2v2h-2c-2.206 0-4-1.794-4-4s1.794-4 4-4c.045 0 .088.006.133.007-.082-.612-.133-1.228-.133-1.845v-11.162c0-7.168-5.832-13-13-13s-13 5.832-13 13zm-7.695 29.804-.253.126c-.648.324-1.052.977-1.052 1.704 0 .51.198.988.558 1.349l.856.855h6.891c.668-1.823 1.539-3.568 2.617-5.186l.543-.814h-.787c-3.148 0-5.777-2.46-5.986-5.601l-.673-10.096c-.013-.181-.019-.361-.019-.54 0-.311.024-.618.06-.922l-2.063 1.833c-1.269 1.128-1.997 2.749-1.997 4.447 0 1.589.619 3.084 1.743 4.208l.83.829c.92.921 1.427 2.145 1.427 3.447 0 1.859-1.033 3.53-2.695 4.361z" fill="url(#SVGID_1_)"/></svg>