<svg id="_x33_0" enable-background="new 0 0 64 64" height="512" viewBox="0 0 64 64" width="512" xmlns="http://www.w3.org/2000/svg" xmlns:xlink="http://www.w3.org/1999/xlink"><linearGradient id="SVGID_1_" gradientUnits="userSpaceOnUse" x1="32" x2="32" y1="63" y2="1"><stop offset="0" stop-color="#9f2fff"/><stop offset="1" stop-color="#0bb1d3"/></linearGradient><path d="m30.413 30.001c-.645.645-1.502 1-2.413 1s-1.769-.355-2.414-1.001l-.292-.291 1.412-1.416.293.292c.537.537 1.466.536 2.001.001l.294-.293 1.412 1.416zm6.587-1.415c-.535.535-1.464.536-2.001-.001l-.293-.292-1.412 1.416.292.291c.646.646 1.503 1.001 2.414 1.001s1.769-.355 2.413-1l.293-.292-1.412-1.416zm-7.707 6.708 1.414 1.414.586-.586c.723-.723 1.684-1.121 2.707-1.121v-2c-1.558 0-3.021.606-4.121 1.707zm-19.293-30.294c-2.206 0-4 1.794-4 4h2c0-1.103.897-2 2-2s2 .897 2 2-.897 2-2 2h-1v4h2v-2.127c1.724-.444 3-2.013 3-3.873 0-2.206-1.794-4-4-4zm-1 14h2v-2h-2zm45-12c1.103 0 2 .897 2 2s-.897 2-2 2h-1v4h2v-2.127c1.724-.444 3-2.013 3-3.873 0-2.206-1.794-4-4-4s-4 1.794-4 4h2c0-1.103.897-2 2-2zm-1 12h2v-2h-2zm-3 6v-3c0-1.474-.896-2.709-1.933-4.14-.312-.43-.641-.889-.963-1.377l-1.547.677c.282.727.443 1.514.443 2.34 0 2.699-1.653 5.018-4 5.999v.502c2.206 0 4 1.794 4 3.999 0 1.252-.59 2.358-1.493 3.093l1.974 1.974c1.61-2.447 4.377-4.067 7.519-4.067 4.963 0 9 4.037 9 9 0 3.627-1.701 5.975-3.067 7.86-1.037 1.431-1.933 2.666-1.933 4.14v3c0 2.206-1.794 4-4 4s-4-1.794-4-4v-3c0-1.122-.52-2.106-1.226-3.143.144.591.226 1.205.226 1.838 0 .233-.01.468-.031.7l-1.056 11.605h-27.474c-2.481 0-4.521-1.863-4.747-4.335l-.661-7.271c-.021-.232-.031-.465-.031-.699 0-.633.082-1.247.226-1.838-.706 1.037-1.226 2.021-1.226 3.143v3c0 2.206-1.794 4-4 4s-4-1.794-4-4v-3c0-1.474-.896-2.709-1.933-4.14-1.366-1.885-3.067-4.233-3.067-7.86 0-4.963 4.037-9 9-9 3.142 0 5.909 1.62 7.519 4.067l1.974-1.974c-.903-.734-1.493-1.84-1.493-3.092 0-.926.329-1.768.858-2.446l-.562-2.249c-.196-.784-.296-1.591-.296-2.402 0-1.937.567-3.74 1.533-5.268l-2.637-1.153c-.323.488-.651.947-.963 1.378-1.037 1.43-1.933 2.665-1.933 4.139v3c0 2.206-1.794 4-4 4s-4-1.794-4-4v-3c0-1.474-.896-2.709-1.933-4.14-1.366-1.885-3.067-4.233-3.067-7.86 0-4.963 4.037-9 9-9s9 4.037 9 9c0 1.89-.466 3.428-1.102 4.739l2.909 1.273c1.801-1.854 4.315-3.011 7.097-3.011h2.49c1.936 0 3.841.464 5.582 1.3.702-.791 1.714-1.3 2.852-1.3h.672c2.038 0 3.858.944 5.051 2.417l1.551-.679c-.636-1.311-1.102-2.849-1.102-4.739 0-4.963 4.037-9 9-9s9 4.037 9 9c0 3.627-1.701 5.975-3.067 7.86-1.037 1.431-1.933 2.666-1.933 4.14v3c0 2.206-1.794 4-4 4s-4-1.794-4-4zm-38-2h-4v2c0 1.103.897 2 2 2s2-.897 2-2zm5-13c0-3.859-3.141-7-7-7s-7 3.141-7 7c0 2.979 1.366 4.863 2.687 6.687.951 1.312 1.919 2.665 2.214 4.313h4.198c.295-1.648 1.263-3.001 2.214-4.313 1.321-1.824 2.687-3.708 2.687-6.687zm5 21.192v-3.191c-1.103 0-2 .896-2 1.999 0 1.104.897 2.001 2 2.001h.041c-.022-.268-.041-.537-.041-.809zm-3.541 5.763c.344.953.541 1.975.541 3.045 0 1.829-.433 3.331-1.037 4.614.988-.772 2.173-1.317 3.489-1.537l5.548-.924v-2.439c-1.835-1.035-3.34-2.635-4.207-4.658-.148-.346-.27-.699-.377-1.056h-.416c-.183 0-.357-.03-.533-.054zm16.213 3.787-2.258 2.258 3.586 3.586 2.258-2.258c.478-.478.742-1.115.742-1.793 0-1.397-1.138-2.535-2.535-2.535-.678 0-1.315.264-1.793.742zm-3.071.243c-.895-.019-1.769-.149-2.601-.397v1.998l.5.5zm-19.601 12.015h-4v2c0 1.103.897 2 2 2s2-.897 2-2zm2.312-6.313c1.322-1.824 2.688-3.708 2.688-6.687 0-3.859-3.141-7-7-7s-7 3.141-7 7c0 2.979 1.366 4.863 2.687 6.687.951 1.312 1.919 2.665 2.214 4.313h4.198c.295-1.648 1.263-3.001 2.213-4.313zm6.127 14.313c.739 0 1.435-.288 1.957-.811l12.19-12.189-3.586-3.586-10.293 10.293-1.414-1.414 8.793-8.793-.429-.429-5.876.979c-2.77.463-4.781 2.837-4.781 5.645 0 .173.008.346.023.517l.661 7.271c.131 1.435 1.315 2.517 2.755 2.517zm26.561-10.305c0-2.809-2.011-5.183-4.782-5.646l-1.815-.302c-.201.357-.433.697-.731.995l-15.258 15.258h14.672l.917-10.091 1.992.182-.9 9.909h4.992l.89-9.787c.015-.172.023-.345.023-.518zm9 2.305h-4v2c0 1.103.897 2 2 2s2-.897 2-2zm-9-13c0 2.979 1.366 4.863 2.687 6.687.951 1.312 1.919 2.666 2.214 4.313h4.198c.295-1.648 1.263-3.001 2.214-4.313 1.321-1.824 2.687-3.708 2.687-6.687 0-3.859-3.141-7-7-7s-7 3.141-7 7zm-4.467-6.053c-.176.024-.35.054-.533.054h-.405c-.099.325-.213.647-.349.963-.607 1.417-1.506 2.639-2.616 3.611 1.405.771 2.37 2.247 2.37 3.96 0 .095-.022.186-.027.28l1.574.262c1.317.22 2.502.764 3.491 1.537-.605-1.283-1.038-2.785-1.038-4.614 0-1.07.197-2.092.541-3.045zm-.533-5.946v3.288c0 .239-.018.475-.036.712h.036c1.103 0 2-.897 2-2 0-1.102-.897-2-2-2zm-2-2.025c-.166.013-.331.025-.5.025h-.772c-.525 0-1.06-.038-1.589-.113-2.81-.401-5.263-1.815-7.006-3.887h-1.133c-1.565 0-3.061.747-4 1.999-.645.86-1 1.926-1 3v4.192c0 1.063.212 2.099.631 3.076 1.232 2.872 4.047 4.729 7.172 4.731h.375c.582 0 1.159-.072 1.721-.199.592-.409 1.272-.654 1.99-.745 1.553-.839 2.79-2.178 3.484-3.797.429-1.001.628-1.973.628-2.97zm4-6.475c0-2.481-2.019-4.5-4.5-4.5h-.672c-1.008 0-1.828.82-1.828 1.828v.343c0 1.009.82 1.829 1.828 1.829.48 0 .952-.195 1.293-.536l1.172-1.171 1.414 1.414-1.172 1.171c-.713.713-1.699 1.122-2.707 1.122-2.11 0-3.828-1.718-3.828-3.829v-.343c0-.256.027-.506.076-.748-1.462-.695-3.059-1.08-4.681-1.08h-2.49c-4.358 0-7.904 3.546-7.904 7.903 0 .646.079 1.292.235 1.916l.362 1.448c.438-.165.907-.267 1.403-.267h.082c.169-1.154.616-2.265 1.319-3.2 1.272-1.697 3.275-2.723 5.39-2.787-.285-.541-.541-1.102-.739-1.696l1.896-.633c1.113 3.339 3.97 5.723 7.454 6.22.454.065.894.097 1.325.097h.772c2.481-.001 4.5-2.02 4.5-4.501zm12 3.499h-4v2c0 1.103.897 2 2 2s2-.897 2-2zm-4.099-2h4.198c.295-1.648 1.263-3.001 2.214-4.313 1.321-1.824 2.687-3.708 2.687-6.687 0-3.859-3.141-7-7-7s-7 3.141-7 7c0 2.979 1.366 4.863 2.687 6.687.951 1.312 1.919 2.665 2.214 4.313zm-41.901 14c-2.206 0-4 1.794-4 4h2c0-1.103.897-2 2-2s2 .897 2 2-.897 2-2 2h-1v4h2v-2.127c1.724-.444 3-2.013 3-3.873 0-2.206-1.794-4-4-4zm-1 14h2v-2h-2zm45-12c1.103 0 2 .897 2 2s-.897 2-2 2h-1v4h2v-2.127c1.724-.444 3-2.013 3-3.873 0-2.206-1.794-4-4-4s-4 1.794-4 4h2c0-1.103.897-2 2-2zm-1 12h2v-2h-2z" fill="url(#SVGID_1_)"/></svg>