<svg id="_x33_0" enable-background="new 0 0 64 64" height="512" viewBox="0 0 64 64" width="512" xmlns="http://www.w3.org/2000/svg" xmlns:xlink="http://www.w3.org/1999/xlink"><linearGradient id="SVGID_1_" gradientUnits="userSpaceOnUse" x1="32" x2="32" y1="63" y2="1"><stop offset="0" stop-color="#9f2fff"/><stop offset="1" stop-color="#0bb1d3"/></linearGradient><path d="m34.211 22.658-.105-.211 1.789-.895.105.212c.381.762 1.147 1.236 2 1.236s1.619-.474 2-1.236l.105-.211 1.789.895-.105.211c-.722 1.444-2.174 2.341-3.789 2.341s-3.067-.897-3.789-2.342zm-33.211 38.342v-2c0-1.103.897-2 2-2h12v-2c0-1.103.897-2 2-2h4v-11h-11c-2.757 0-5-2.243-5-5v-16c0-.743.412-1.385 1.016-1.73-.661-.981-1.016-2.134-1.016-3.341v-5.929c0-2.757 2.243-5 5-5s5 2.243 5 5v1.184c1.161.414 2 1.514 2 2.816v2.343c0 1.078-.353 2.094-.98 2.946.584.35.98.982.98 1.711v9h2c0-1.329.532-2.578 1.438-3.501-.887-.902-1.438-2.137-1.438-3.499 0-2.757 2.243-5 5-5 .352 0 .686.072 1 .184v-4.184c0-7.168 5.832-13 13-13s13 5.832 13 13v4.184c.314-.112.648-.184 1-.184 2.757 0 5 2.243 5 5 0 1.362-.551 2.597-1.438 3.5.906.922 1.438 2.172 1.438 3.5 0 1.251-.48 2.435-1.296 3.341 2.015 1.468 3.296 3.841 3.296 6.469v17.19h2c1.103 0 2 .897 2 2v2c0 1.103-.897 2-2 2h-58c-1.103 0-2-.897-2-2zm51.106-27.087-3.106-.583v13.67h4v2h-8v8h12v-17.19c0-2.886-2.058-5.367-4.894-5.897zm-16.922 23.087c-.112-.314-.184-.648-.184-1v-11h-2c-1.103 0-2-.897-2-2v-4c0-1.103.897-2 2-2h.674l-1.429-5h-3.245v21h1.618l2 4zm-2.727-46.308c-.899.539-1.457 1.525-1.457 2.573v.735h4c1.103 0 2 .897 2 2h2c0-1.103.897-2 2-2h4v-.343c0-.802-.312-1.556-.878-2.122l-.228-.228c-.518.426-1.172.693-1.894.693h-3.764c-1.704 0-3.167-1.017-3.839-2.472zm12.543 5.308h-4v2h4zm-14 2h4v-2h-4zm7 9c3.86 0 7-3.141 7-7h-4c-1.103 0-2-.897-2-2h-2c0 1.103-.897 2-2 2h-4c0 3.859 3.14 7 7 7zm9 20v-14.045l-3.34-.627-1.334 4.672h.674c1.103 0 2 .897 2 2v4c0 1.103-.897 2-2 2h-2v2zm-4 2h-4c-1.103 0-2 .897-2 2s.897 2 2 2h4zm-2.408-13.21.903-3.161-2.095 1.571zm-2.592-.124-1 1.334h2zm-1.4-1.466-2.095-1.571.903 3.161zm-3.6 4.8v4h10.001l-.001-4zm4 8.556c.591-.344 1.268-.556 2-.556v-2h-2zm-1.508-18.919-.388 1.941 2.896 2.172 2.896-2.172-.388-1.941c-.797.232-1.637.363-2.508.363s-1.711-.131-2.508-.363zm2.508 28.363c.551 0 1-.448 1-1v-1c-.732 0-1.409-.212-2-.556v1.556c0 .552.449 1 1 1zm2.816 0h2.184v-2h-2v1c0 .352-.072.686-.184 1zm13.029-24.667c.711-.565 1.155-1.412 1.155-2.333 0-.936-.455-1.79-1.183-2.354-.565.222-1.174.354-1.817.354h-1.395c-2.133 0-4.131-.883-5.577-2.394-.725.907-1.62 1.671-2.639 2.243l.458 2.293 9.626 1.805c.476.089.934.219 1.372.386zm-32.845-9.333c0 1.654 1.346 3 3 3h1.395c1.757 0 3.393-.805 4.476-2.164-.553-1.165-.871-2.463-.871-3.836v-6.735c0-1.746.93-3.389 2.427-4.287l2.593-1.556c.044-.539.186-1.07.427-1.553l.658-1.316 1.789.895-.658 1.316c-.154.308-.236.655-.236 1 0 1.233 1.003 2.236 2.236 2.236h3.764c.551 0 1-.448 1-1s-.449-1-1-1h-1v-2h1c1.654 0 3 1.346 3 3 0 .182-.023.359-.054.533l.589.588c.945.944 1.465 2.2 1.465 3.536v6.343c0 1.373-.318 2.671-.871 3.836 1.084 1.359 2.719 2.164 4.476 2.164h1.395c1.654 0 3-1.346 3-3s-1.346-3-3-3c-.551 0-1 .448-1 1s.449 1 1 1h1v2h-1c-1.654 0-3-1.346-3-3v-7c0-6.065-4.935-11-11-11s-11 4.935-11 11v7c0 1.654-1.346 3-3 3h-1v-2h1c.551 0 1-.448 1-1s-.449-1-1-1c-1.654 0-3 1.346-3 3zm0 7h12.18l.43-2.151c-1.019-.572-1.914-1.336-2.639-2.243-1.445 1.511-3.443 2.394-5.576 2.394h-1.395c-.642 0-1.252-.132-1.817-.354-.728.563-1.183 1.417-1.183 2.354zm-14-14.071c0 1.068.416 2.073 1.172 2.829l.242.242h5.172l.535-.535c.567-.567.879-1.32.879-2.122v-2.343c0-.552-.449-1-1-1s-1 .448-1 1v1h-2v-1c0-1.302.839-2.402 2-2.816v-1.184c0-1.654-1.346-3-3-3s-3 1.346-3 3zm16 22.071v15h4v-21h-10.586l-2.707 2.707-1.414-1.414 2.707-2.707v-9.586h-8v16c0 1.654 1.346 3 3 3h11v-2zm-6 19h13.382l-1-2h-12.382zm-14 4h58.001l-.001-2h-58z" fill="url(#SVGID_1_)"/></svg>