<svg id="_x33_0" enable-background="new 0 0 64 64" height="512" viewBox="0 0 64 64" width="512" xmlns="http://www.w3.org/2000/svg" xmlns:xlink="http://www.w3.org/1999/xlink"><linearGradient id="SVGID_1_" gradientUnits="userSpaceOnUse" x1="32" x2="32" y1="63" y2=".503"><stop offset="0" stop-color="#9f2fff"/><stop offset="1" stop-color="#0bb1d3"/></linearGradient><path d="m39 16c0 1.654 1.346 3 3 3s3-1.346 3-3v-2.889c.607-.407 1.179-.876 1.707-1.404l-1.414-1.414c-1.746 1.746-4.067 2.707-6.536 2.707h-1.757v2h1.757c.082 0 .161-.01.243-.012zm4 0c0 .551-.449 1-1 1s-1-.449-1-1v-1.224c.687-.138 1.356-.342 2-.604zm7.707-5.707-1.414 1.414c.528.528 1.1.997 1.707 1.404v2.889c0 1.654 1.346 3 3 3s3-1.346 3-3v-1.012c.081.002.161.012.243.012h1.757v-2h-1.757c-2.469 0-4.79-.961-6.536-2.707zm4.293 5.707c0 .551-.449 1-1 1s-1-.449-1-1v-1.828c.644.262 1.313.466 2 .604zm-1 5h-12c-1.654 0-3 1.346-3 3s1.346 3 3 3h12c1.654 0 3-1.346 3-3s-1.346-3-3-3zm-5 2h2v2h-2zm-2 2h-2v-2h2zm-6-1c0-.551.449-1 1-1h1v2h-1c-.551 0-1-.449-1-1zm13 1h-1v-2h1c.551 0 1 .449 1 1s-.449 1-1 1zm5.744-23.668-.744-.829-.744.829c-.544.606-3.256 3.727-3.256 5.668h-19c-1.302 0-2.402.839-2.816 2h-25.184c-2.757 0-5 2.243-5 5v35.184c-1.161.414-2 1.514-2 2.816v1c0 5.514 4.486 10 10 10h36c5.514 0 10-4.486 10-10v-1c0-1.302-.839-2.402-2-2.816v-18.184h5c1.654 0 3-1.346 3-3v-18c0-.487-.128-.957-.349-1.381.221-.496.349-1.042.349-1.619 0-1.941-2.712-5.062-3.256-5.668zm-.744 2.217c1.062 1.332 2 2.831 2 3.451 0 1.103-.897 2-2 2s-2-.897-2-2c0-.637.939-2.125 2-3.451zm-13.586 31.451c.645 0 1.251-.251 1.707-.707l1.879-1.879v4.586h-8v2h8v2h-8v2h8v6h-10v-5.07c0-2.739-1.37-5.179-3.513-6.625.321-.585.513-1.238.513-1.918 0-.709-.188-1.397-.538-2 .351-.603.538-1.291.538-2 0-.134-.029-.26-.042-.391.014 0 .028.004.042.004h7v1.586c0 1.331 1.083 2.414 2.414 2.414zm-12.414-7.858-1 2.007.895.447c.682.341 1.105 1.028 1.105 1.791 0 .493-.182.964-.511 1.329l-.608.671.608.671c.329.364.511.836.511 1.329 0 .362-.107.709-.287 1.014-.447-.16-.914-.282-1.397-.363l-3.061-.51c.636-1.012 1.039-2.187 1.118-3.454l.677-10.842-.807-.202c-2.441-.61-4.672-1.873-6.451-3.652l-.792-.792-.792.792c-1.779 1.779-4.01 3.042-6.451 3.652l-.807.202.678 10.842c.079 1.268.482 2.443 1.118 3.455l-3.061.51c-.116.019-.228.049-.342.073-.218-.327-.343-.712-.343-1.112 0-.493.182-.965.511-1.329l.608-.671-.608-.671c-.329-.365-.511-.836-.511-1.329 0-.764.423-1.45 1.105-1.791l.895-.447-.969-1.937c-.675-1.348-1.031-2.858-1.031-4.366 0-2.608 1.016-5.061 2.86-6.905l.554-.554h16.586zm-4.624 4.807c-.177 2.832-2.538 5.051-5.376 5.051s-5.199-2.218-5.376-5.051l-.575-9.203c2.204-.676 4.235-1.825 5.951-3.365 1.716 1.54 3.747 2.688 5.952 3.365zm-9.376 5.869c1.157.748 2.531 1.182 4 1.182 1.468 0 2.843-.434 4-1.182v1.182c0 2.206-1.794 4-4 4s-4-1.794-4-4zm-8-15.359c0 1.816.429 3.636 1.242 5.262l.129.259c-.863.748-1.371 1.837-1.371 3.02 0 .709.187 1.397.538 2-.351.603-.538 1.291-.538 2 0 .623.159 1.226.43 1.773-.933.463-1.755 1.097-2.43 1.862v-23.635h4.666c-1.727 2.098-2.666 4.706-2.666 7.459zm2 15.816v10.725h-4v-5.07c0-2.59 1.631-4.823 4-5.655zm2-.428 2-.333v1.486c0 3.309 2.691 6 6 6s6-2.691 6-6v-1.486l2 .333v11.153h-16zm18 .428c2.369.832 4 3.066 4 5.655v5.07h-4zm-25-27.275h25v2h-24c-1.103 0-2 .897-2 2v34h-2v-35c0-1.654 1.346-3 3-3zm47 42c0 4.411-3.589 8-8 8h-36c-4.411 0-8-3.589-8-8v-1c0-.551.449-1 1-1h50c.551 0 1 .449 1 1zm-2-4h-2v-18h2zm7-20h-10.414l-3.879 3.879c-.238.238-.707.045-.707-.293v-3.586h-9c-.551 0-1-.449-1-1v-18c0-.551.449-1 1-1h19.556c.694 1.19 1.97 2 3.444 2 .732 0 1.409-.212 2-.556v17.556c0 .551-.449 1-1 1zm-13 24h-4c-1.103 0-2 .897-2 2v2c0 1.103.897 2 2 2h4c1.103 0 2-.897 2-2v-2c0-1.103-.897-2-2-2zm-4 4v-2h4l.001 2zm-6-4h-4c-1.103 0-2 .897-2 2v2c0 1.103.897 2 2 2h4c1.103 0 2-.897 2-2v-2c0-1.103-.897-2-2-2zm-4 4v-2h4l.001 2zm-14-33c0-.552.448-1 1-1s1 .448 1 1-.448 1-1 1-1-.448-1-1zm6 0c0-.552.448-1 1-1s1 .448 1 1-.448 1-1 1-1-.448-1-1zm-6 7c0 2.206 1.794 4 4 4s4-1.794 4-4v-4h-8zm2-2h4v2c0 1.103-.897 2-2 2s-2-.897-2-2zm20 16h2v2h-2zm6 2h-2v-2h2z" fill="url(#SVGID_1_)"/></svg>