<svg id="_x33_0" enable-background="new 0 0 64 64" height="512" viewBox="0 0 64 64" width="512" xmlns="http://www.w3.org/2000/svg" xmlns:xlink="http://www.w3.org/1999/xlink"><linearGradient id="SVGID_1_" gradientUnits="userSpaceOnUse" x1="32" x2="32" y1="63" y2="1"><stop offset="0" stop-color="#9f2fff"/><stop offset="1" stop-color="#0bb1d3"/></linearGradient><path d="m29.618 25c-1.443 0-2.618 1.174-2.618 2.618 0 .318.032.639.095.952l1.532 7.665c.321 1.603 1.739 2.765 3.373 2.765s3.052-1.162 3.373-2.765l1.532-7.665c.063-.313.095-.634.095-.952 0-1.444-1.175-2.618-2.618-2.618-.404 0-.81.096-1.171.276-.758.379-1.664.379-2.422 0-.361-.18-.767-.276-1.171-.276zm4.487 2.065c.388-.196.896.117.895.553 0 .187-.019.375-.056.561l-1.532 7.664c-.135.67-.728 1.157-1.412 1.157s-1.277-.487-1.412-1.157l-1.532-7.665c-.037-.185-.056-.373-.056-.56 0-.341.277-.618.618-.618.096 0 .191.022.276.065 1.319.66 2.893.66 4.211 0zm-9.984-4.065h.879c3.309 0 6-2.691 6-6v-.879c0-1.721-1.4-3.121-3.121-3.121-.822 0-1.626.333-2.207.914l-3.758 3.758c-.59.589-.914 1.373-.914 2.207 0 1.721 1.4 3.121 3.121 3.121zm-.793-3.914 3.758-3.758c.209-.208.498-.328.793-.328.618 0 1.121.503 1.121 1.121v.879c0 2.206-1.794 4-4 4h-.879c-.618 0-1.121-.503-1.121-1.121 0-.3.116-.581.328-.793zm15.672 3.914h.879c1.721 0 3.121-1.4 3.121-3.121 0-.834-.324-1.618-.914-2.207l-3.758-3.758c-.581-.581-1.385-.914-2.207-.914-1.721 0-3.121 1.4-3.121 3.121v.879c0 3.309 2.691 6 6 6zm-4-6.879c0-.618.503-1.121 1.121-1.121.295 0 .584.12.793.328l3.758 3.758c.212.212.328.493.328.793 0 .618-.503 1.121-1.121 1.121h-.879c-2.206 0-4-1.794-4-4zm-14.85 11.907c1.946 2.919 3.445 6.105 4.455 9.47.988 3.291 3.959 5.502 7.395 5.502s6.407-2.211 7.395-5.502c1.01-3.364 2.509-6.551 4.455-9.47l.791-1.186c1.544-2.316 2.359-5.01 2.359-7.793 0-7.747-6.303-14.049-14.049-14.049h-1.902c-7.746 0-14.049 6.302-14.049 14.049 0 2.783.815 5.478 2.359 7.793zm10.899-21.028h1.902c6.644 0 12.049 5.405 12.049 12.049 0 2.387-.7 4.698-2.023 6.684l-.791 1.186c-2.057 3.083-3.64 6.45-4.707 10.005-.732 2.438-2.933 4.076-5.479 4.076s-4.747-1.638-5.479-4.076c-1.067-3.555-2.65-6.921-4.707-10.005l-.791-1.186c-1.323-1.986-2.023-4.297-2.023-6.684 0-6.644 5.405-12.049 12.049-12.049zm28.951 4h-10.899c-2.953-5.917-9.052-10-16.101-10h-1-1c-7.049 0-13.148 4.083-16.101 10h-10.899c-1.654 0-3 1.346-3 3v38c0 1.654 1.346 3 3 3h18.72l-.5 2h-2.22c-1.103 0-2 .897-2 2v2c0 1.103.897 2 2 2h24c1.103 0 2-.897 2-2v-2c0-1.103-.897-2-2-2h-2.22l-.5-2h18.72c1.654 0 3-1.346 3-3v-38c0-1.654-1.346-3-3-3zm0 2c.552 0 1 .449 1 1v31h-4.586l-.304-.304c-3.774-3.774-6.247-8.746-7.006-14.025l.008-.015c1.236-2.222 1.888-4.741 1.888-7.284v-4.372c0-2.106-.383-4.12-1.05-6zm-29-10h1 1c8.822 0 16 7.178 16 16v4.372c0 2.204-.565 4.387-1.636 6.313l-3.238 5.829 1.748.971 1.724-3.103c1.034 4.3 3.13 8.312 6.077 11.617h-12.871l4.044-6.47-1.695-1.061-4.707 7.532h-12.892l-4.706-7.53-1.695 1.061 4.043 6.469h-12.871c2.947-3.305 5.043-7.317 6.077-11.617l1.724 3.102 1.748-.971-3.238-5.829c-1.071-1.926-1.636-4.109-1.636-6.313v-4.372c0-8.822 7.178-16 16-16zm-27 10h10.05c-.667 1.88-1.05 3.894-1.05 6v4.372c0 2.542.652 5.062 1.888 7.285l.008.014c-.759 5.279-3.232 10.251-7.006 14.025l-.304.304h-4.586v-31c0-.551.448-1 1-1zm40.002 48h-24.002v-2h24zm-4.282-4h-15.44l.5-2h14.44zm20.28-4h-56c-.552 0-1-.448-1-1v-5h58v5c0 .552-.448 1-1 1zm-5-4h2v2h-2zm-4 0h2v2h-2zm-4 0h2v2h-2z" fill="url(#SVGID_1_)"/></svg>