<svg id="_x33_0" enable-background="new 0 0 64 64" height="512" viewBox="0 0 64 64" width="512" xmlns="http://www.w3.org/2000/svg" xmlns:xlink="http://www.w3.org/1999/xlink"><linearGradient id="SVGID_1_" gradientUnits="userSpaceOnUse" x1="32" x2="32" y1="63" y2=".732"><stop offset="0" stop-color="#9f2fff"/><stop offset="1" stop-color="#0bb1d3"/></linearGradient><path d="m28.684 23.948-3-1 .633-1.896 3 1zm5.632-1-.633-1.896-3 1 .633 1.896zm-4.316 2.052c2.243 0 4 1.317 4 3s-1.757 3-4 3-4-1.317-4-3 1.757-3 4-3zm-2 3c0 .408.779 1 2 1s2-.592 2-1-.779-1-2-1-2 .592-2 1zm1-20.242v-.758h-2v.758c0 .526-.213 1.042-.586 1.414-.912.912-1.414 2.124-1.414 3.414 0 1.179.459 2.287 1.292 3.121l1.415-1.414c-.456-.456-.707-1.063-.707-1.707 0-.756.294-1.466.828-2 .745-.744 1.172-1.774 1.172-2.828zm-10-.653c0 .739.175 1.48.505 2.142.236.472.236 1.034 0 1.506l-.4.8 1.789.895.4-.8c.516-1.031.516-2.264 0-3.295-.192-.385-.294-.817-.294-1.248 0-1.324.943-2.475 2.241-2.734l.169-.033c-.27.94-.41 1.92-.41 2.898v.764h2v-.764c0-1.309.309-2.619.895-3.789l.914-1.828-3.96.791c-2.23.446-3.849 2.421-3.849 4.695zm16.975-1.874c-.736-.553-1.279-1.306-1.57-2.178l-.773-2.321-1.102.372c-2.112.703-3.53 2.67-3.53 4.896h2c0-1.074.54-2.051 1.403-2.628l.104.314c.42 1.26 1.204 2.347 2.267 3.145 1.394 1.045 2.226 2.709 2.226 4.45 0 1.486-.579 2.883-1.632 3.936l-.078.078 1.419 1.41.075-.076c1.429-1.428 2.216-3.327 2.216-5.348 0-2.368-1.131-4.629-3.025-6.05zm-5.422 8.874.953 1.76c1.538-.768 2.494-2.315 2.494-4.036 0-.697-.165-1.395-.476-2.018l-.629-1.259-1.789.895.629 1.259c.173.347.265.735.265 1.123 0 .958-.532 1.819-1.447 2.276zm10.447-4.105h2c0-2.201-.857-4.271-2.414-5.828l-.879-.879-1.414 1.414.879.879c1.179 1.18 1.828 2.747 1.828 4.414zm10 9v-2h-2v2zm4-2h-2v2h2zm4 0h-2v2h2zm4-2v6c0 1.103-.897 2-2 2h-4v30.184c1.161.414 2 1.514 2 2.816 0 3.859-3.14 7-7 7h-44c-3.86 0-7-3.141-7-7 0-1.302.839-2.402 2-2.816v-37.184c0-1.654 1.346-3 3-3h9.059c-.691-.568-1.218-1.312-1.507-2.181l-.501-1.503 1.897-.633.501 1.503c.237.712.737 1.289 1.409 1.625 1.938.969 3.142 2.917 3.142 5.084 0 .878-.208 1.757-.6 2.542l-1.011 2.021c-.254.509-.389 1.079-.389 1.647 0 1.404.78 2.666 2.036 3.294.612.306 1.282.496 1.964.567v-4.485c0-1.889.938-3.643 2.51-4.69 1.383-.921 3.238-1.035 4.721-.294.481.24 1.057.24 1.538 0 1.483-.742 3.338-.628 4.72.294 1.573 1.048 2.511 2.802 2.511 4.69v4.485c.682-.07 1.352-.26 1.963-.567 1.257-.628 2.037-1.889 2.037-3.294 0-.568-.135-1.139-.389-1.647l-1.011-2.021c-.393-.785-.6-1.664-.6-2.542 0-2.167 1.204-4.114 3.142-5.083.671-.336 1.172-.913 1.409-1.625l.501-1.503 1.897.633-.501 1.503c-.289.869-.816 1.612-1.507 2.181h16.059c1.103-.001 2 .896 2 1.999zm-21 1.895c0 .035.011.07.012.105h2.988v-2h-2.476c-.336.56-.524 1.21-.524 1.895zm-8 17.023v1.215l2.78.397c2.42.346 4.594 1.588 6.122 3.497 1.353 1.691 2.098 3.815 2.098 5.981v3.992h6v-26h-4c-1.103 0-2-.897-2-2v-2h-2.382l.782 1.563c.393.785.6 1.664.6 2.542 0 2.167-1.204 4.114-3.142 5.083-.965.484-2.037.747-3.117.793-.538 2.103-1.908 3.872-3.741 4.937zm5 9.082v2.172c0 1.364-.352 2.672-1.003 3.828h5.003v-3.992c0-1.713-.589-3.394-1.66-4.731-1.208-1.511-2.929-2.493-4.843-2.767l-2.512-.359c-.082 2.135-1.831 3.849-3.985 3.849s-3.903-1.714-3.985-3.849l-2.513.359c-1.914.273-3.634 1.256-4.843 2.767-1.07 1.338-1.66 3.019-1.66 4.731v3.992h5.003c-.65-1.156-1.002-2.464-1.002-3.828v-2.172h2v2.172c0 1.424.513 2.767 1.441 3.828h11.117c.929-1.062 1.442-2.404 1.442-3.828v-2.172zm-11-8.263v2.263c0 1.103.897 2 2 2s2-.897 2-2v-2.263c-.641.166-1.308.263-2 .263s-1.359-.097-2-.263zm-4-7.737c0 3.309 2.691 6 6 6s6-2.691 6-6v-4.519c0-1.219-.605-2.35-1.62-3.026-.795-.53-1.863-.596-2.717-.169-1.042.521-2.285.521-3.327 0-.374-.187-.793-.286-1.212-.286-.537 0-1.058.157-1.505.455-1.014.677-1.619 1.808-1.619 3.026zm-8-3.895c0-.878.208-1.757.6-2.542l.782-1.563h-8.382v30h6v-3.992c0-2.166.745-4.29 2.098-5.981 1.528-1.909 3.702-3.151 6.122-3.497l2.78-.398v-1.215c-1.833-1.064-3.203-2.834-3.742-4.936-1.08-.046-2.152-.309-3.117-.793-1.937-.968-3.141-2.916-3.141-5.083zm-11-7.105v37h50v-26.892c-.418.55-1.054.892-1.764.892-.081 0-.157-.016-.236-.024v24.024h-46v-34h10.988c.001-.035.012-.07.012-.105 0-.685-.188-1.334-.524-1.895h-11.476c-.551 0-1 .448-1 1zm18 41h14v-2h-14zm34-1c0-.552-.449-1-1-1h-17v4h-18v-4h-17c-.551 0-1 .448-1 1 0 2.757 2.243 5 5 5h44c2.757 0 5-2.243 5-5zm4-41h-14v6h6v3.764c0 .22.349.303.447.105l1.935-3.869h5.618z" fill="url(#SVGID_1_)"/></svg>