<svg id="_x33_0" enable-background="new 0 0 64 64" height="512" viewBox="0 0 64 64" width="512" xmlns="http://www.w3.org/2000/svg" xmlns:xlink="http://www.w3.org/1999/xlink"><linearGradient id="SVGID_1_" gradientUnits="userSpaceOnUse" x1="32" x2="32" y1="63" y2="1"><stop offset="0" stop-color="#9f2fff"/><stop offset="1" stop-color="#0bb1d3"/></linearGradient><path d="m11 9h-2v-2h2zm4-2h-2v2h2zm4 0h-2v2h2zm4 0h-2v2h2zm4 0h-2v2h2zm-24 5v-8c0-1.654 1.346-3 3-3h24c1.654 0 3 1.346 3 3v8c0 1.654-1.346 3-3 3h-3v1.667c0 1.286-1.047 2.333-2.333 2.333-.73 0-1.429-.349-1.867-.933l-2.3-3.067h-14.5c-1.654 0-3-1.346-3-3zm2 0c0 .551.448 1 1 1h15.5l2.899 3.867c.172.231.601.088.601-.2v-3.667h5c.552 0 1-.449 1-1v-8c0-.551-.448-1-1-1h-24c-.552 0-1 .449-1 1zm38.789 22.658.105-.211-1.789-.895-.105.212c-.381.762-1.147 1.236-2 1.236s-1.619-.474-2-1.236l-.105-.211-1.789.895.105.21c.722 1.445 2.174 2.342 3.789 2.342s3.067-.897 3.789-2.342zm18.906 9.224c.202.639.305 1.304.305 1.974 0 3.4-2.654 6.285-6.043 6.567l-5.232.436c.181.775.275 1.568.275 2.362 0 .57-.048 1.146-.142 1.711l-1.011 6.068h-21.694l-1.012-6.067c-.003-.02-.004-.041-.008-.061-1.322 1.327-3.133 2.128-5.065 2.128h-.001c-.023 0-.045-.006-.067-.006v4.006h-16v-13.321c0-2.512 1.629-4.707 4-5.45v-.536l-4.558-1.709c-2.058-.772-3.442-2.769-3.442-4.967 0-.819.193-1.64.56-2.373l.224-.447-.145-.145c-1.702-1.7-2.639-3.963-2.639-6.369 0-2.633 1.146-5.126 3.146-6.839 2.891-2.479 6.581-3.844 10.39-3.844h3.464c3.309 0 6 2.691 6 6 0 1.705-.718 3.242-1.864 4.336l1.724 6.034c.093.325.14.662.14 1 0 1.383-.766 2.626-2 3.249v1.968c0 1.18-.459 2.288-1.293 3.122-.487.485-1.074.826-1.707 1.041v1.836l.471.471c1.326 1.325 2.35 2.876 3.075 4.598l.112.056 3.415-5.121.668-2.673c.231-.933.714-1.785 1.394-2.464.957-.959 2.144-1.453 3.402-1.453 1.937 0 3.463 1.528 3.463 3.404 0 .201-.038.399-.073.596h.254l.638-3.193c-1.443-.89-2.585-2.22-3.23-3.807h-.589c-2.206 0-4-1.794-4-4 0-.94.34-1.794.885-2.478l-.671-3.354c-.142-.711-.214-1.438-.214-2.159 0-6.071 4.938-11.009 11.009-11.009h1.982c6.071 0 11.009 4.938 11.009 11.009v1.501c.561-.315 1.198-.51 1.886-.51 1.703 0 3.192 1.091 3.705 2.716zm-8.942-.882-1.668-7.509c-.328-.353-.618-.732-.872-1.132-.728.99-1.892 1.641-3.213 1.641h-.589c-.645 1.588-1.786 2.917-3.23 3.807l.638 3.193zm-5.822-9h.069c1.103 0 2-.897 2-2s-.897-2-2-2v3c0 .339-.028.672-.069 1zm-15.862 0c-.041-.328-.069-.661-.069-1v-3c-1.103 0-2 .897-2 2s.897 2 2 2zm1.387-9.44 2.864-1.719c-.211-.624-.32-1.284-.32-1.962v-.879h2v.879c0 1.084.44 2.146 1.207 2.914.778.778 1.813 1.207 2.914 1.207h2.879c1.654 0 3 1.346 3 3 .732 0 1.409.212 2 .556v-4.548c0-4.966-4.041-9.008-9.009-9.008h-1.982c-4.968 0-9.009 4.042-9.009 9.009 0 .591.059 1.185.175 1.767l.494 2.469c.418-.149.862-.245 1.331-.245v-.868c0-1.048.558-2.033 1.456-2.572zm6.544 14.44c3.309 0 6-2.691 6-6v-5c0-.551-.448-1-1-1h-2.879c-1.636 0-3.173-.637-4.328-1.793-.19-.19-.366-.391-.527-.6l-2.78 1.668c-.3.18-.485.508-.485.857v5.868c-.001 3.309 2.69 6 5.999 6zm-2.312 1.656-.656 3.279 1.283 3.851c.243.726.919 1.214 1.685 1.214s1.442-.488 1.685-1.214l1.283-3.851-.656-3.279c-.733.222-1.508.344-2.312.344s-1.579-.122-2.312-.344zm-26.688.901v-2.022l-1.442-.961c-.976-.65-1.558-1.738-1.558-2.91 0-1.85 1.327-3.353 3.055-3.621.162-1.412.685-2.742 1.519-3.885-.95-.732-1.574-1.869-1.574-3.158 0-2.206 1.794-4 4-4h1v2h-1c-1.103 0-2 .897-2 2s.897 2 2 2h3c2.206 0 4-1.794 4-4s-1.794-4-4-4h-3.464c-3.332 0-6.56 1.194-9.088 3.362-1.555 1.333-2.448 3.273-2.448 5.321 0 1.872.729 3.632 2.053 4.955l1.164 1.165-.868 1.735c-.229.456-.349.968-.349 1.479 0 1.37.862 2.614 2.146 3.095zm-2 8.122c0 1.565.99 2.97 2.463 3.496l4.099 1.464 2.096-4.192-3.106-1.553.895-1.789 3.948 1.974c-.402-.567-.84-1.11-1.338-1.608l-1.057-1.057v-2.414h-2v-2h2.586c.645 0 1.251-.251 1.707-.708.357-.356.583-.805.667-1.292h-1.546c-1.179 0-2.287-.459-3.121-1.292l1.414-1.415c.456.456 1.063.707 1.707.707h1.586v-1.618l1.095-.547c.558-.28.905-.841.905-1.465 0-.152-.021-.304-.063-.45l-1.548-5.418c-.733.318-1.54.498-2.389.498h-3c-.172 0-.335-.03-.502-.051-.966 1.129-1.498 2.548-1.498 4.051v1h-1.39c-.887 0-1.61.722-1.61 1.61 0 .555.249 1.021.667 1.299l2.333 1.556v7.316l-1.188.296c-1.656.415-2.812 1.896-2.812 3.602zm12 8.994c-.113-.034-.229-.05-.341-.09l-9.868-3.524c-.673-.24-1.27-.611-1.791-1.06v7.001h12zm6.749-4.66 5.064-10.906c.13-.249.187-.475.187-.703 0-.774-.63-1.404-1.403-1.404-.783 0-1.468.286-1.987.805-.484.484-.784 1.015-.929 1.595l-.753 3.011-4.585 6.878-3.895-1.948-1.988 3.975 3.871 1.383c.56.2 1.144.301 1.736.301h.001c2.001 0 3.838-1.172 4.681-2.987zm23.3-3.104.916-.076c-.073-1.963-.329-3.917-.765-5.833h-6.48l-1.139 3.418c-.515 1.545-1.954 2.582-3.581 2.582s-3.066-1.037-3.581-2.581l-1.139-3.419h-1.141l-3.965 8.54c-.113.553-.174 1.118-.174 1.681 0 .461.038.926.114 1.383l.733 4.396h18.307l.732-4.396c.076-.457.114-.922.114-1.383 0-1.299-.307-2.6-.888-3.761l-1.007-2.013 1.789-.895 1.007 2.013c.056.112.096.231.148.344zm9.951-5.053c0-.466-.071-.928-.211-1.372l-5.105-16.167c-.249-.788-.972-1.317-1.798-1.317-1.04 0-1.886.846-1.886 1.885v1.286c0 1.557.606 3.021 1.707 4.122l.206.206 2 9 1.794 1.794-1.414 1.414-1.707-1.707h-1.34c.398 1.866.637 3.762.713 5.667l2.832-.236c2.36-.197 4.209-2.206 4.209-4.575z" fill="url(#SVGID_1_)"/></svg>