<svg id="_x33_0" enable-background="new 0 0 64 64" height="512" viewBox="0 0 64 64" width="512" xmlns="http://www.w3.org/2000/svg" xmlns:xlink="http://www.w3.org/1999/xlink"><linearGradient id="SVGID_1_" gradientUnits="userSpaceOnUse" x1="32" x2="32" y1="63" y2="1.293"><stop offset="0" stop-color="#9f2fff"/><stop offset="1" stop-color="#0bb1d3"/></linearGradient><path d="m52 31c-1.654 0-3 1.346-3 3s1.346 3 3 3 3-1.346 3-3-1.346-3-3-3zm0 4c-.552 0-1-.448-1-1s.448-1 1-1 1 .448 1 1-.448 1-1 1zm-8-4c-1.654 0-3 1.346-3 3s1.346 3 3 3 3-1.346 3-3-1.346-3-3-3zm0 4c-.552 0-1-.448-1-1s.448-1 1-1 1 .448 1 1-.448 1-1 1zm7.333-10h-6.666c-4.228 0-7.667 3.439-7.667 7.667 0 2.4 1.146 4.693 3.067 6.133l.933.7v2.5c0 1.654 1.346 3 3 3 .771 0 1.468-.301 2-.78.532.48 1.229.78 2 .78s1.468-.301 2-.78c.532.48 1.229.78 2 .78 1.654 0 3-1.346 3-3v-2.5l.933-.7c1.921-1.44 3.067-3.733 3.067-6.133 0-4.228-3.439-7.667-7.667-7.667zm3.399 12.2-1.732 1.3v3.5c0 .552-.448 1-1 1s-1-.448-1-1v-3h-2v3c0 .552-.448 1-1 1s-1-.448-1-1v-3h-2v3c0 .552-.448 1-1 1s-1-.448-1-1v-3.5l-1.733-1.3c-1.419-1.064-2.267-2.759-2.267-4.533 0-3.125 2.542-5.667 5.667-5.667h6.666c3.125 0 5.667 2.542 5.667 5.667 0 1.774-.848 3.469-2.268 4.533zm1.268-15.789v-3.411c0-1.654-1.346-3-3-3h-4v-5c0-.552.448-1 1-1h5v-2h-5c-1.654 0-3 1.346-3 3v1h-43c-1.654 0-3 1.346-3 3v32c0 1.654 1.346 3 3 3h13.382l-3 6h-4.382c-1.103 0-2 .897-2 2v4c0 1.103.897 2 2 2h28c1.103 0 2-.897 2-2v-4c0-1.103-.897-2-2-2h-4.382l-3-6h17.382c8.271 0 15-6.729 15-15 0-5.141-2.852-10.215-7-12.589zm-2-3.411v3h-12v-3c0-.552.448-1 1-1h10c.552 0 1 .448 1 1zm-50-5h43v2h-4c-1.654 0-3 1.346-3 3v3.411c-4.148 2.374-7 7.447-7 12.589 0 1.755.319 3.433.875 5h-30.875v-25c0-.552.448-1 1-1zm34.002 48h-28.002v-4h28zm-6.62-6h-14.764l3-6h8.764zm-27.382-8c-.552 0-1-.448-1-1v-5h31.743c1.329 2.507 3.35 4.587 5.805 6zm44 0c-7.168 0-13-5.832-13-13 0-4.489 2.622-9.07 6.258-11h13.485c3.635 1.93 6.257 6.511 6.257 11 0 7.168-5.832 13-13 13zm11-40h4v2h-4zm-2.707 4.707 1.414-1.414 3 3-1.414 1.414zm1.414-6-1.414-1.414 3-3 1.414 1.414zm-34.707 37.293h2v2h-2zm4 0h2v2h-2zm-8 0h2v2h-2zm-10-18h-2v-8h2zm8-8h-6v8h6zm-2 6h-2v-4h2zm6 2h-2v-8h2zm8-8h-6v8h6zm-2 6h-2v-4h2zm0 4h2v8h-2zm-2 0h-6v8h6zm-2 6h-2v-4h2zm-8-6h2v8h-2zm-2 0h-6v8h6zm-2 6h-2v-4h2z" fill="url(#SVGID_1_)"/></svg>