<svg id="_x33_0" enable-background="new 0 0 64 64" height="512" viewBox="0 0 64 64" width="512" xmlns="http://www.w3.org/2000/svg" xmlns:xlink="http://www.w3.org/1999/xlink"><linearGradient id="SVGID_1_" gradientUnits="userSpaceOnUse" x1="32" x2="32" y1="63" y2="1"><stop offset="0" stop-color="#9f2fff"/><stop offset="1" stop-color="#0bb1d3"/></linearGradient><path d="m13.211 34.658-.105-.21 1.789-.895.105.211c.381.762 1.147 1.236 2 1.236s1.619-.474 2-1.236l.105-.211 1.789.895-.105.211c-.722 1.444-2.174 2.341-3.789 2.341s-3.067-.897-3.789-2.342zm-12.211 23.342v-5.89c0-3.453 1.989-6.553 4.996-8.052-1.186-1.898-1.66-4.167-1.285-6.408l.25-1.499c-1.284-2.678-1.961-5.652-1.961-8.623 0-6.908 5.62-12.528 12.528-12.528h2.943c.866 0 1.711.089 2.528.257v-6.701c0-1.969 1.477-3.613 3.434-3.825l34.307-3.709c.136-.015.274-.022.413-.022 2.121 0 3.847 1.726 3.847 3.847 0 .145-.002.216-.006.289l-1.843 32.238c-.115 2.033-1.802 3.626-3.839 3.626h-11.858l-6.29 7.189c-.453.516-1.104.811-1.788.811-1.311 0-2.376-1.066-2.376-2.376v-5.624h-5.779c-.218 1.08-.628 2.114-1.218 3.058 3.008 1.5 4.997 4.6 4.997 8.052v5.89c0 2.757-2.243 5-5 5h-22c-2.757 0-5-2.243-5-5zm18 3c1.103 0 2-.897 2-2s-.897-2-2-2h-16v1c0 1.654 1.346 3 3 3zm0-10h-4v4h4zm12 7v-1h-8.556c.344.591.556 1.268.556 2s-.212 1.409-.556 2h5.556c1.654 0 3-1.346 3-3zm2-31v-13.983l-4-.017v7.763c1.17 1.814 1.877 3.946 1.973 6.237zm-10-11.14c1.494.582 2.847 1.441 4 2.517v-5.577c0-.992.897-1.8 2-1.8h4c.629 0 1.184.268 1.551.678 1.176-.442 2.43-.678 3.685-.678h13.764c1.654 0 3 1.346 3 3 0 .771-.301 1.468-.78 2 .48.532.78 1.229.78 2s-.301 1.468-.78 2c.48.532.78 1.229.78 2s-.301 1.468-.78 2c.48.532.78 1.229.78 2 0 1.654-1.346 3-3 3h-1v2c0 2.206-1.794 4-4 4-.998 0-1.895-.555-2.342-1.447l-1.171-2.342c-.681-1.364-2.051-2.211-3.577-2.211h-1.674c-1.255 0-2.509-.236-3.685-.678-.367.41-.922.678-1.551.678h-2.062c-.185 2.474-.827 4.916-1.899 7.152l.25 1.499c.075.45.104.9.113 1.35h7.598v7.624c.001.317.449.486.659.247l6.887-7.872h12.766c.978 0 1.788-.765 1.844-1.741l1.844-32.34c0-1.16-.975-2.029-2.042-1.908l-34.31 3.708c-.939.102-1.648.891-1.648 1.837zm12-2.203v12.685c1.024.424 2.128.658 3.236.658h1.674c2.287 0 4.344 1.271 5.366 3.317l1.171 2.341c.106.211.318.342.553.342 1.103 0 2-.897 2-2v-4h3c.552 0 1-.449 1-1s-.448-1-1-1h-3v-2h3c.552 0 1-.449 1-1s-.448-1-1-1h-3v-2h3c.552 0 1-.449 1-1s-.448-1-1-1h-3v-2h3c.552 0 1-.449 1-1s-.448-1-1-1h-13.764c-1.108 0-2.212.234-3.236.657zm-30 13.871c0 2.772.655 5.547 1.895 8.025l.146.291-.356 2.136c-.316 1.896.137 3.817 1.236 5.37l4.252-1.16.602-2.409c-2.263-1.416-3.775-3.922-3.775-6.781v-2.976c-1.206-.895-2-2.318-2-3.932 0-1.645.817-3.172 2.186-4.084l1.26-.84 1.109 1.664-1.26.84c-.811.54-1.295 1.445-1.295 2.42 0 1.603 1.305 2.908 2.908 2.908h.473c.777 0 1.508-.302 2.057-.852l.759-.759c-.116-.415-.197-.845-.197-1.297 0-1.645.817-3.172 2.186-4.084l1.26-.84 1.109 1.664-1.26.84c-.811.54-1.295 1.445-1.295 2.42 0 1.603 1.305 2.908 2.908 2.908h.473c.777 0 1.508-.302 2.057-.852l1.855-1.855 1.414 1.414-.707.707v4.586c0 2.859-1.512 5.365-3.774 6.78l.602 2.409 4.252 1.16c1.099-1.553 1.552-3.474 1.236-5.37l-.356-2.136.146-.291c1.239-2.477 1.894-5.252 1.894-8.024 0-5.805-4.723-10.528-10.528-10.528h-2.943c-5.806 0-10.529 4.723-10.529 10.528zm6 5.472c0 3.309 2.691 6 6 6s6-2.691 6-6v-2.767c-.777.494-1.676.767-2.619.767h-.473c-1.503 0-2.833-.693-3.734-1.76l-.323.323c-.925.926-2.159 1.437-3.47 1.437h-.473c-.311 0-.613-.036-.908-.092zm3.173 9.43c1.792.725 3.863.725 5.654 0l-.448-1.792c-.751.235-1.551.362-2.379.362s-1.628-.127-2.38-.362zm-11.173 9.68v2.89h4v-4h2v4h4v-4c0-1.122.769-2 1.75-2h4.5c.981 0 1.75.878 1.75 2v4h4v-4h2v4h4v-2.89c0-3.148-2.121-5.925-5.158-6.753l-4.749-1.295c-1.273.609-2.682.938-4.093.938s-2.82-.329-4.093-.938l-4.749 1.295c-3.037.828-5.158 3.605-5.158 6.753zm35 6.89c-1.654 0-3-1.346-3-3s1.346-3 3-3 3 1.346 3 3-1.346 3-3 3zm0-2c.552 0 1-.449 1-1s-.448-1-1-1-1 .449-1 1 .448 1 1 1zm8 2c-1.654 0-3-1.346-3-3s1.346-3 3-3 3 1.346 3 3-1.346 3-3 3zm0-2c.552 0 1-.449 1-1s-.448-1-1-1-1 .449-1 1 .448 1 1 1zm5-1c0-1.654 1.346-3 3-3s3 1.346 3 3-1.346 3-3 3-3-1.346-3-3zm2 0c0 .551.448 1 1 1s1-.449 1-1-.448-1-1-1-1 .449-1 1z" fill="url(#SVGID_1_)"/></svg>