<svg id="_x33_0" enable-background="new 0 0 64 64" height="512" viewBox="0 0 64 64" width="512" xmlns="http://www.w3.org/2000/svg" xmlns:xlink="http://www.w3.org/1999/xlink"><linearGradient id="SVGID_1_" gradientUnits="userSpaceOnUse" x1="32" x2="32" y1="63" y2=".382"><stop offset="0" stop-color="#9f2fff"/><stop offset="1" stop-color="#0bb1d3"/></linearGradient><path d="m30 22c0-1.654-1.346-3-3-3s-3 1.346-3 3 1.346 3 3 3 3-1.346 3-3zm-4 0c0-.551.448-1 1-1s1 .449 1 1-.448 1-1 1-1-.449-1-1zm11 3c1.654 0 3-1.346 3-3s-1.346-3-3-3-3 1.346-3 3 1.346 3 3 3zm0-4c.552 0 1 .449 1 1s-.448 1-1 1-1-.449-1-1 .448-1 1-1zm-5 6c1.615 0 3.067.897 3.789 2.342l.105.21-1.789.895-.105-.211c-.381-.762-1.147-1.236-2-1.236s-1.619.474-2 1.236l-.105.211-1.789-.895.105-.211c.722-1.444 2.174-2.341 3.789-2.341zm28 18h-8.168c-.953-4.206-4.34-7.398-8.669-8.063l-5.354-.824-.582-2.327c.481-.234.949-.491 1.392-.785h14.381c2.206 0 4-1.794 4-4v-4.465l5.555-3.703-1.109-1.664-5.446 3.629-3-2-3.555 2.37 1.109 1.664 2.446-1.63 2 1.333v4.465c0 1.103-.897 2-2 2h-12.081c1.485-1.654 2.515-3.716 2.9-6h.181c2.206 0 4-1.794 4-4s-1.794-4-4-4h-.36c-.126-.357-.286-.7-.478-1.028 2.591-1.358 4.442-3.938 4.779-6.972h5.059c1.103 0 2 .897 2 2v6.132l-2-1.333-3.555 2.37 1.109 1.664 2.446-1.631 3 2 6.555-4.37-1.109-1.664-4.446 2.964v-6.132c0-2.206-1.794-4-4-4h-5v-6.618l-1.447.724c-2.479 1.239-5.254 1.894-8.025 1.894h-12.43c-3.276 0-6.184 1.575-8.03 4h-7.068c-2.206 0-4 1.794-4 4v6.132l-4.445-2.964-1.109 1.664 6.554 4.37 3-2 2.445 1.63 1.109-1.664-3.554-2.37-2 1.333v-6.131c0-1.103.897-2 2-2h5.878c-.56 1.254-.878 2.639-.878 4.099 0 .662.066 1.328.196 1.98l.688 3.442c-.544.685-.884 1.539-.884 2.479 0 2.206 1.794 4 4 4h.181c.386 2.284 1.416 4.346 2.9 6h-12.081c-1.103 0-2-.897-2-2v-4.465l2-1.333 2.445 1.63 1.109-1.664-3.554-2.37-3 2-5.445-3.63-1.109 1.664 5.554 3.703v4.465c0 2.206 1.794 4 4 4h14.381c.443.294.911.551 1.392.785l-.582 2.327-5.354.824c-4.329.666-7.716 3.857-8.669 8.063h-8.168c-1.654 0-3 1.346-3 3v12c0 1.654 1.346 3 3 3h56c1.654 0 3-1.346 3-3v-11.999c0-1.654-1.346-3-3-3zm1 3v3h-12v-2.5c0-.521-.078-1.022-.213-1.5h11.213c.552 0 1 .449 1 1zm-15-27c0 1.103-.897 2-2 2v-4c1.103 0 2 .897 2 2zm-28 0c0-1.103.897-2 2-2v4c-1.103 0-2-.897-2-2zm2.35-4h-.35c-.469 0-.913.096-1.331.245l-.511-2.558c-.105-.523-.158-1.058-.158-1.588 0-4.466 3.633-8.099 8.099-8.099h12.43c2.55 0 5.104-.5 7.471-1.454v4.454c0 3.86-3.141 7-7 7h-2c-1.654 0-3-1.346-3-3s1.346-3 3-3v-2c-2.757 0-5 2.243-5 5 0 .342.035.677.101 1h-6.101c-2.607 0-4.824 1.673-5.65 4zm1.65 2c0-2.206 1.794-4 4-4h7.026c.914 1.207 2.348 2 3.974 2h2c.781 0 1.535-.11 2.258-.298.475.671.742 1.464.742 2.298v4c0 5.514-4.486 10-10 10s-10-4.486-10-10zm10 16c1.163 0 2.284-.175 3.348-.485l.575 2.298-.091.136c-.856 1.284-2.289 2.051-3.832 2.051s-2.976-.767-3.832-2.051l-.091-.136.575-2.298c1.064.31 2.185.485 3.348.485zm-10.858 3.913 5.382-.828c1.231 1.825 3.274 2.915 5.476 2.915s4.245-1.09 5.476-2.915l5.382.828c3.35.515 5.991 2.904 6.894 6.087h-2.013c-1.01-1.221-2.535-2-4.239-2s-3.229.779-4.239 2h-14.522c-1.01-1.221-2.535-2-4.239-2s-3.229.779-4.239 2h-2.013c.903-3.183 3.543-5.571 6.894-6.087zm19.858 12.087c-.552 0-1-.449-1-1v-1.5c0-1.93 1.57-3.5 3.5-3.5s3.5 1.57 3.5 3.5v4.5c0 1.103-.897 2-2 2s-2-.897-2-2v-2zm-2.829 0h-12.342c.11-.313.171-.649.171-1v-1.5c0-.521-.078-1.022-.213-1.5h12.427c-.136.478-.214.979-.214 1.5v1.5c0 .351.061.687.171 1zm-14.171-2.5v1.5c0 .551-.448 1-1 1h-2v2c0 1.103-.897 2-2 2s-2-.897-2-2v-4.5c0-1.93 1.57-3.5 3.5-3.5s3.5 1.57 3.5 3.5zm-20-1.5h11.213c-.135.478-.213.979-.213 1.5v2.5h-12v-3c0-.551.448-1 1-1zm56 14h-56c-.552 0-1-.449-1-1v-7h12c0 2.206 1.794 4 4 4s4-1.794 4-4h18c0 2.206 1.794 4 4 4s4-1.794 4-4h12v7c0 .551-.448 1-1 1z" fill="url(#SVGID_1_)"/></svg>