<svg id="_x33_0" enable-background="new 0 0 64 64" height="512" viewBox="0 0 64 64" width="512" xmlns="http://www.w3.org/2000/svg" xmlns:xlink="http://www.w3.org/1999/xlink"><linearGradient id="SVGID_1_" gradientUnits="userSpaceOnUse" x1="32" x2="32" y1="63" y2="1"><stop offset="0" stop-color="#9f2fff"/><stop offset="1" stop-color="#0bb1d3"/></linearGradient><path d="m37 46h-4v-2h4zm4-2h-2v2h2zm-10 0h-2v2h2zm32-12c0 17.094-13.907 31-31 31-12.591 0-23.721-7.44-28.572-19h-2.428v-18h.588c2.842-14.535 15.494-25 30.412-25 17.093 0 31 13.907 31 31zm-60 10h9c.551 0 1-.448 1-1v-12c0-.551-.449-1-1-1h-9zm12-2h2.414l.293.293c1.98 1.98 4.539 3.231 7.293 3.593v-10.147c-.513.165-1.053.261-1.613.261h-.387v-2h.387c1.229 0 2.334-.684 2.883-1.785.683-1.368 2.051-2.215 3.573-2.215h3.161c1.1 0 1.996-.897 1.996-2h-6.597c-3.903 0-7.731 1.343-10.779 3.781l-.273.219h-2.351zm12 7c0 .552.449 1 1 1h14c.551 0 1-.448 1-1v-3.184c-.847-.302-1.514-.969-1.816-1.816h-14.184zm19-15h-2c-.551 0-1 .449-1 1 0 .552.449 1 1 1h2c.551 0 1-.448 1-1 0-.551-.449-1-1-1zm0 4h-2c-.551 0-1 .448-1 1s.449 1 1 1h2c.551 0 1-.448 1-1s-.449-1-1-1zm0 6c.551 0 1-.448 1-1s-.449-1-1-1h-2c-.551 0-1 .448-1 1s.449 1 1 1zm1-13c0-.551-.449-1-1-1h-2c-.551 0-1 .449-1 1s.449 1 1 1h2c.551 0 1-.449 1-1zm-4-12c0-.551-.449-1-1-1h-3v2c0 .732-.212 1.409-.556 2h4.556zm-6-1h-4v2c0 1.103.897 2 2 2s2-.897 2-2zm-6 2v-2h-3c-.551 0-1 .449-1 1v3h4.556c-.344-.591-.556-1.268-.556-2zm-4 6.058c.466-.034.934-.058 1.403-.058h6.597c1.103 0 2 .897 2 2 0 2.206-1.792 4-3.996 4h-3.161c-.758 0-1.44.423-1.78 1.103-.274.549-.64 1.024-1.063 1.433v7.464h14.184c.133-.374.335-.711.596-1-.48-.532-.78-1.229-.78-2s.301-1.468.78-2c-.48-.532-.78-1.229-.78-2s.301-1.468.78-2c-.48-.532-.78-1.229-.78-2 0-1.302.839-2.402 2-2.816v-4.184h-16zm-14.648 19.906c4.166 6.846 11.552 11.036 19.648 11.036 4.9 0 9.443-1.545 13.178-4.166l-1.417-1.417c-.496.362-1.101.583-1.761.583h-14c-1.654 0-3-1.346-3-3v-1.105c-3.15-.357-6.094-1.711-8.406-3.895h-1.779c-.375 1.054-1.317 1.828-2.463 1.964zm37.254 2.814-2.877-2.878c-.235.059-.476.1-.729.1h-1v3c0 .253-.041.494-.1.728l1.878 1.878c1.022-.86 1.969-1.806 2.828-2.828zm5.394-14.778c0-12.682-10.318-23-23-23-4.833 0-9.393 1.542-13.162 4.181l6.162 6.163v-2.344c0-1.654 1.346-3 3-3h14c1.654 0 3 1.346 3 3v9h1c1.654 0 3 1.346 3 3 0 .771-.301 1.468-.78 2 .48.532.78 1.229.78 2s-.301 1.468-.78 2c.48.532.78 1.229.78 2s-.301 1.468-.78 2c.48.532.78 1.229.78 2 0 .66-.22 1.265-.583 1.761l2.417 2.417c2.621-3.736 4.166-8.278 4.166-13.178zm-40.593-14.765 7.795 7.795c.912-.31 1.848-.544 2.798-.716v-2.143l-7.761-7.761c-1.023.858-1.969 1.803-2.832 2.825zm-4.595 8.765h2.188c1.302 0 2.402.839 2.816 2h1.839c1.102-.848 2.296-1.557 3.545-2.144l-7.023-7.023c-1.509 2.141-2.659 4.554-3.365 7.167zm51.188 6c0-15.991-13.009-29-29-29-13.824 0-25.572 9.603-28.376 23h4.124c2.73-11.053 12.787-19 24.252-19 13.785 0 25 11.215 25 25s-11.215 25-25 25c-9.186 0-17.522-4.97-21.922-13h-4.468c4.704 10.37 14.896 17 26.39 17 15.991 0 29-13.01 29-29z" fill="url(#SVGID_1_)"/></svg>