<svg id="_x33_0" enable-background="new 0 0 64 64" height="512" viewBox="0 0 64 64" width="512" xmlns="http://www.w3.org/2000/svg" xmlns:xlink="http://www.w3.org/1999/xlink"><linearGradient id="SVGID_1_" gradientUnits="userSpaceOnUse" x1="32" x2="32" y1="63" y2="1"><stop offset="0" stop-color="#9f2fff"/><stop offset="1" stop-color="#0bb1d3"/></linearGradient><path d="m54.739 11.103-.325-2.275c-.312-2.182-2.209-3.828-4.414-3.828s-4.102 1.646-4.414 3.829l-.325 2.274c-1.296.331-2.261 1.499-2.261 2.897 0 1.654 1.346 3 3 3h.219l.326 1.302c.396 1.589 1.817 2.698 3.455 2.698s3.059-1.109 3.455-2.698l.326-1.302h.219c1.654 0 3-1.346 3-3 0-1.398-.965-2.566-2.261-2.897zm-4.739-4.103c1.216 0 2.262.908 2.435 2.111l.269 1.889h-5.409l.27-1.889c.173-1.203 1.219-2.111 2.435-2.111zm1.515 10.817c-.174.697-.797 1.183-1.515 1.183s-1.341-.486-1.515-1.183l-.204-.817h3.438zm2.485-2.817h-8c-.551 0-1-.449-1-1s.449-1 1-1h8c.551 0 1 .449 1 1s-.449 1-1 1zm6-14h-20c-1.654 0-3 1.346-3 3v18c0 1.654 1.346 3 3 3h3v1.586c0 1.331 1.083 2.414 2.414 2.414.645 0 1.251-.251 1.707-.707l3.293-3.293h9.586c1.654 0 3-1.346 3-3v-18c0-1.654-1.346-3-3-3zm1 21c0 .551-.449 1-1 1h-10.414l-3.879 3.879c-.239.238-.707.045-.707-.293v-3.586h-5c-.551 0-1-.449-1-1v-18c0-.551.449-1 1-1h20c.551 0 1 .449 1 1zm-55 41h24c2.757 0 5-2.243 5-5v-52c0-2.757-2.243-5-5-5h-24c-2.757 0-5 2.243-5 5v52c0 2.757 2.243 5 5 5zm24-2h-24c-1.654 0-3-1.346-3-3v-7h30v7c0 1.654-1.346 3-3 3zm-27-12v-40h30v40zm3-46h24c1.654 0 3 1.346 3 3v1h-30v-1c0-1.654 1.346-3 3-3zm15 50h-6c-1.103 0-2 .897-2 2v2c0 1.103.897 2 2 2h6c1.103 0 2-.897 2-2v-2c0-1.103-.897-2-2-2zm-6 4v-2h6l.001 2zm14-4h-2c-1.103 0-2 .897-2 2v2c0 1.103.897 2 2 2h2c1.103 0 2-.897 2-2v-2c0-1.103-.897-2-2-2zm-2 4v-2h2l.001 2zm-18-4h-2c-1.103 0-2 .897-2 2v2c0 1.103.897 2 2 2h2c1.103 0 2-.897 2-2v-2c0-1.103-.897-2-2-2zm-2 4v-2h2l.001 2zm23.916-39.028c-3.366-.561-6.303-2.561-8.059-5.487l-1.715 1.029c.335.559.72 1.077 1.125 1.576-.79.745-1.267 1.792-1.267 2.91 0 2.206 1.794 4 4 4 1.678 0 3.112-1.045 3.703-2.526.614.195 1.239.363 1.884.471l.249.042.329-1.973zm-5.916 2.028c-1.103 0-2-.897-2-2 0-.56.243-1.082.64-1.454.962.88 2.041 1.616 3.213 2.188-.294.742-1.012 1.266-1.853 1.266zm-14 2c2.206 0 4-1.794 4-4 0-1.118-.477-2.165-1.267-2.91.405-.499.789-1.017 1.125-1.576l-1.715-1.029c-1.756 2.926-4.693 4.926-8.059 5.487l-.249.042.329 1.973.249-.042c.645-.107 1.27-.276 1.884-.471.591 1.481 2.025 2.526 3.703 2.526zm1.36-5.454c.397.372.64.894.64 1.454 0 1.103-.897 2-2 2-.841 0-1.559-.524-1.853-1.267 1.172-.572 2.252-1.307 3.213-2.187zm28.64 16.454v2h-2v-2zm4 0v2h-2v-2zm4 0v2h-2v-2zm-20 6v2c-.46 0-.657.195-1.099.676-.512.559-1.214 1.324-2.572 1.324s-2.06-.765-2.573-1.324c-.441-.481-.638-.676-1.098-.676-.458 0-.655.195-1.095.676-.513.558-1.214 1.324-2.57 1.324s-2.058-.766-2.569-1.325c-.441-.48-.638-.675-1.095-.675s-.654.195-1.095.675c-.512.559-1.213 1.325-2.569 1.325s-2.057-.766-2.569-1.324c-.441-.481-.638-.676-1.096-.676v-2c1.356 0 2.058.766 2.57 1.325.44.48.637.675 1.095.675s.654-.195 1.095-.675c.511-.559 1.213-1.325 2.569-1.325s2.058.766 2.569 1.325c.44.48.637.675 1.095.675s.655-.195 1.095-.676c.512-.558 1.213-1.324 2.57-1.324s2.06.765 2.572 1.324c.441.481.639.676 1.099.676s.657-.195 1.099-.676c.512-.559 1.215-1.324 2.572-1.324zm-18-14.414-.707.707c-.337.337-3.293 3.36-3.293 5.707 0 2.206 1.794 4 4 4s4-1.794 4-4c0-2.347-2.956-5.37-3.293-5.707zm0 8.414c-1.103 0-2-.897-2-2 0-.874 1.017-2.381 2-3.525.983 1.144 2 2.652 2 3.525 0 1.103-.897 2-2 2z" fill="url(#SVGID_1_)"/></svg>