<svg id="_x33_0" enable-background="new 0 0 64 64" height="512" viewBox="0 0 64 64" width="512" xmlns="http://www.w3.org/2000/svg" xmlns:xlink="http://www.w3.org/1999/xlink"><linearGradient id="SVGID_1_" gradientUnits="userSpaceOnUse" x1="32" x2="32" y1="63" y2="1"><stop offset="0" stop-color="#9f2fff"/><stop offset="1" stop-color="#0bb1d3"/></linearGradient><path d="m35 53h-6c-1.103 0-2 .897-2 2v2c0 1.103.897 2 2 2h6c1.103 0 2-.897 2-2v-2c0-1.103-.897-2-2-2zm-6 4v-2h6l.001 2zm14-4h-2c-1.103 0-2 .897-2 2v2c0 1.103.897 2 2 2h2c1.103 0 2-.897 2-2v-2c0-1.103-.897-2-2-2zm-2 4v-2h2l.001 2zm-18-4h-2c-1.103 0-2 .897-2 2v2c0 1.103.897 2 2 2h2c1.103 0 2-.897 2-2v-2c0-1.103-.897-2-2-2zm-2 4v-2h2l.001 2zm24-9.382 13.236-6.618-13.236-6.618zm2-10 6.764 3.382-6.764 3.382zm10-14.618c3.309 0 6-2.691 6-6 0-3.052-2.291-5.573-5.243-5.947-.807-3.211-3.564-5.617-6.852-5.995-.443-2.307-2.471-4.058-4.905-4.058h-28c-2.757 0-5 2.243-5 5v15h-9c-1.654 0-3 1.346-3 3v12c0 1.654 1.346 3 3 3h9v19c0 2.757 2.243 5 5 5h28c2.757 0 5-2.243 5-5v-5c6.617 0 12-5.383 12-12s-5.383-12-12-12v-6zm-1.299-11.854c-2.685.595-4.701 2.992-4.701 5.854h2c0-2.206 1.794-4 4-4s4 1.794 4 4-1.794 4-4 4h-15c-1.654 0-3-1.346-3-3s1.346-3 3-3 3 1.346 3 3v1h2v-1c0-2.03-1.221-3.774-2.964-4.556-.011-.149-.036-.295-.036-.444 0-3.309 2.691-6 6-6 2.619 0 4.911 1.725 5.701 4.146zm-16.701 29.854c0 3.075 1.172 5.874 3.081 8h-23.081v-10h3c1.654 0 3-1.346 3-3v-12c0-1.654-1.346-3-3-3h-3v-12h24.082c-.684 1.178-1.082 2.542-1.082 4-2.757 0-5 2.243-5 5s2.243 5 5 5h3v7.624c-3.581 2.078-6 5.946-6 10.376zm-17.414-18-7.586 7.585c-.535.535-1.465.535-2 0l-7.586-7.585zm1.414 12.586-5.586-5.586 5.586-5.586zm-14.414-5.586-5.586 5.586v-11.171zm1.414 1.414.586.586c.646.645 1.503 1 2.414 1s1.769-.355 2.414-1l.586-.586 5.586 5.586h-17.172zm5-25.414c0-1.654 1.346-3 3-3h28c1.336 0 2.458.884 2.845 2.093-1.566.228-2.983.908-4.119 1.907h-27.726v14h-2zm34 52c0 1.654-1.346 3-3 3h-28c-1.654 0-3-1.346-3-3v-19h2v12h27.381c1.369.909 2.936 1.535 4.619 1.819zm12-17c0 5.514-4.486 10-10 10s-10-4.486-10-10 4.486-10 10-10 10 4.486 10 10zm-12-11.819c-.689.116-1.356.291-2 .519v-6.7h2zm-28 17.819h14v-6h-14zm6-2v-2h2v2zm6 0h-2v-2h2zm-10-2h2v2h-2zm4-8h10v2h-10zm0-4h10v2h-10zm4-2h-4v-2h4zm2-2h4v2h-4zm-6-4h10v2h-10zm-6-6h2v2h-2zm6 2h-2v-2h2zm4 0h-2v-2h2z" fill="url(#SVGID_1_)"/></svg>