<svg id="_x33_0" enable-background="new 0 0 64 64" height="512" viewBox="0 0 64 64" width="512" xmlns="http://www.w3.org/2000/svg" xmlns:xlink="http://www.w3.org/1999/xlink"><linearGradient id="SVGID_1_" gradientUnits="userSpaceOnUse" x1="32" x2="32" y1="63" y2="1"><stop offset="0" stop-color="#9f2fff"/><stop offset="1" stop-color="#0bb1d3"/></linearGradient><path d="m41 63v-7.499c11.39-3.857 19-14.403 19-26.501 0-15.439-12.561-28-28-28s-28 12.561-28 28c0 12.098 7.61 22.644 19 26.501v7.499zm-13.873-31.32.088.049c1.101.549 1.785 1.654 1.785 2.884v.387h2v-.387c0-1.994-1.108-3.784-2.809-4.626l-.088-.049c-.68-.34-1.103-1.022-1.103-1.781v-3.157h.001l-.001-9c0-.551.448-1 1-1s1 .449 1 1v10h2v-12c0-.551.448-1 1-1s1 .449 1 1v12h2v-10c0-.551.448-1 1-1s1 .449 1 1v10h2v-6c0-.551.448-1 1-1s1 .449 1 1v11.343c0 3.381-1.316 6.56-3.707 8.95l-.293.293v2.414h-10v-2.351l-.219-.274c-2.438-3.048-3.781-6.876-3.781-10.778v-6.597c1.103 0 2 .896 2 1.996v3.161c0 1.522.848 2.89 2.127 3.523zm-1.127 13.32h12c.552 0 1 .449 1 1v1h-14v-1c0-.551.448-1 1-1zm13-1.816v-1.779c.152-.16.285-.332.429-.498l5.624 3.247c-1.222 1.05-2.574 1.969-4.052 2.712v-.866c-.001-1.302-.84-2.402-2.001-2.816zm7.56-.468-5.91-3.412c.735-1.132 1.302-2.355 1.697-3.639l6.667 3.849c-.707 1.146-1.527 2.219-2.454 3.202zm3.425-4.951-7.175-4.143c.116-.748.19-1.507.19-2.278v-11.344c0-1.654-1.346-3-3-3-.352 0-.686.072-1 .184v-1.184c0-1.654-1.346-3-3-3-.395 0-.77.081-1.116.22-.345-1.275-1.501-2.22-2.884-2.22s-2.538.945-2.884 2.22c-.346-.139-.721-.22-1.116-.22-1.654 0-3 1.346-3 3l.001 5.556c-.591-.344-1.269-.556-2.001-.556-.479 0-.913.176-1.258.458l-6.312-3.645c3.598-5.313 9.683-8.813 16.57-8.813 11.028 0 20 8.972 20 20 0 3.112-.716 6.093-2.015 8.765zm-35.592-18.24 6.607 3.815v4.618l-8.149-4.705c.391-1.302.907-2.552 1.542-3.728zm-2.033 5.755 8.668 5.005c.145 3.996 1.529 7.888 3.971 11.061v1.839c-1.161.414-2 1.514-2 2.816v.867c-6.728-3.384-10.999-10.242-10.999-17.868 0-1.272.132-2.513.36-3.72zm12.64 35.72v-12h14v12zm-19-32c0-14.336 11.663-26 26-26s26 11.664 26 26c0 11.005-6.782 20.625-17 24.381v-4.317c7.915-3.549 13-11.343 13-20.064 0-12.131-9.869-22-22-22s-22 9.869-22 22c0 8.721 5.085 16.515 13 20.064v4.317c-10.218-3.756-17-13.376-17-24.381zm26 22c-1.654 0-3 1.346-3 3s1.346 3 3 3 3-1.346 3-3-1.346-3-3-3zm0 4c-.552 0-1-.449-1-1s.448-1 1-1 1 .449 1 1-.448 1-1 1z" fill="url(#SVGID_1_)"/></svg>