<svg id="_x33_0" enable-background="new 0 0 64 64" height="512" viewBox="0 0 64 64" width="512" xmlns="http://www.w3.org/2000/svg" xmlns:xlink="http://www.w3.org/1999/xlink"><linearGradient id="SVGID_1_" gradientUnits="userSpaceOnUse" x1="32" x2="32" y1="63" y2="1"><stop offset="0" stop-color="#9f2fff"/><stop offset="1" stop-color="#0bb1d3"/></linearGradient><path d="m4 17h7.52l3.294 4.118c.063.079.139.141.21.21-.009.224-.024.446-.024.672v21.274c-1.285 1.662-2 3.706-2 5.861 0 1.38.29 2.717.861 3.976l2.615 5.753c1.142 2.513 3.664 4.136 6.424 4.136.034 0 .066-.007.1-.008v.008h28v-11.605c0-2.382-.732-4.656-2-6.587v-22.808c0-.226-.015-.448-.024-.672.071-.069.147-.131.21-.21l3.294-4.118h7.52c1.654 0 3-1.346 3-3v-10c0-1.654-1.346-3-3-3h-18c-1.654 0-3 1.346-3 3v2.52c-4.391-1.958-9.609-1.958-14 0v-2.52c0-1.654-1.346-3-3-3h-18c-1.654 0-3 1.346-3 3v10c0 1.654 1.346 3 3 3zm13.854 26.197c1.04-.831 2.276-1.424 3.576-1.713l4.792-1.065c.058.445.158.885.3 1.312l.398 1.192-3.819 7.638-1.173-2.932-1.857.742 1.296 3.241-5.014 2.149-.671-1.477c-.453-.997-.682-2.055-.682-3.148 0-2.323 1.041-4.488 2.854-5.939zm14.146-26.818c2.541 2.292 5.626 3.824 9 4.464v5.157c0 3.955-2.548 7.393-6.266 8.572-.876-.959-2.125-1.572-3.524-1.572-1.161 0-2.231.413-3.065 1.108-3.136-1.488-5.145-4.592-5.145-8.108v-5.157c3.373-.64 6.459-2.172 9-4.464zm17 35.016v1.605h-6v-2.764l.895-1.789-1.789-.895-1.106 2.212v11.236h-13.188c.693-.676 1.262-1.493 1.639-2.436l5.833-14.584c.449-1.124.681-2.305.705-3.513l5.164 1.147c.982.218 1.923.582 2.798 1.081 3.115 1.78 5.049 5.113 5.049 8.7zm-30.704 6.641-1.115-2.454 4.34-1.86-.415.831 1.789.895 6.185-12.37-.66-1.979c-.257-.771-.322-1.602-.188-2.403l.227-1.363c.225-1.353 1.382-2.333 2.751-2.333 1.538 0 2.79 1.252 2.79 2.79v2.477c0 1.022-.192 2.022-.572 2.972l-5.833 14.584c-.773 1.93-2.616 3.177-4.695 3.177-1.978 0-3.785-1.163-4.604-2.964zm24.704 2.964v-6h6v6zm-2-57c0-.551.449-1 1-1h18c.551 0 1 .449 1 1v10c0 .551-.449 1-1 1h-8.48l-3.895 4.868c-.186.236-.625.082-.625-.219v-4.649h-5c-.551 0-1-.449-1-1zm-2 4.741v5.259c0 1.654 1.346 3 3 3h3v2.649c0 1.175.87 2.143 1.999 2.315 0 .012.001.024.001.036v20.477c-.629-.567-1.305-1.089-2.056-1.518-1.049-.599-2.178-1.035-3.355-1.298l-5.589-1.241v-.63c0-.51-.101-.992-.249-1.453 4.32-1.558 7.249-5.65 7.249-10.337v-6.848l-1.255-.208c-3.312-.552-6.323-2.069-8.745-4.38v-3.564h-2v3.564c-2.422 2.31-5.433 3.827-8.744 4.38l-1.256.208v6.848c0 4.154 2.283 7.857 5.899 9.741-.187.395-.338.811-.413 1.262l-.227 1.359-5.263 1.169c-1.438.32-2.804.956-3.996 1.824v-19.355c0-.012.001-.024.001-.036 1.129-.171 1.999-1.139 1.999-2.315v-2.649h3c1.654 0 3-1.346 3-3v-5.259c4.3-2.261 9.7-2.261 14 0zm-36-4.741c0-.551.449-1 1-1h18c.551 0 1 .449 1 1v10c0 .551-.449 1-1 1h-5v4.649c0 .301-.438.453-.625.219l-3.895-4.868h-8.48c-.551 0-1-.449-1-1zm7.948 9.362-3.655-3.655 1.414-1.414 2.345 2.345 6.297-5.397 1.302 1.519zm34.427-1.143 4.025-3.219-4.024-3.219 1.249-1.562 4.375 3.501 4.375-3.5 1.249 1.562-4.024 3.218 4.024 3.219-1.249 1.562-4.375-3.501-4.375 3.5zm-19.789 11.781-.293-.293 1.414-1.414.293.293c.526.526 1.474.526 2 0l.293-.293 1.414 1.414-.293.293c-.645.645-1.502 1-2.414 1s-1.77-.355-2.414-1zm8 0-.293-.293 1.414-1.414.293.293c.526.526 1.474.526 2 0l.293-.293 1.414 1.414-.293.293c-.645.645-1.502 1-2.414 1s-1.77-.355-2.414-1zm-1.586 5c1.615 0 3.067.897 3.789 2.342l.105.211-1.789.895-.105-.212c-.381-.762-1.147-1.236-2-1.236s-1.619.474-2 1.236l-.105.211-1.789-.895.105-.211c.722-1.444 2.174-2.341 3.789-2.341z" fill="url(#SVGID_1_)"/></svg>