<svg id="_x33_0" enable-background="new 0 0 64 64" height="512" viewBox="0 0 64 64" width="512" xmlns="http://www.w3.org/2000/svg" xmlns:xlink="http://www.w3.org/1999/xlink"><linearGradient id="SVGID_1_" gradientUnits="userSpaceOnUse" x1="32" x2="32" y1="63" y2="1"><stop offset="0" stop-color="#9f2fff"/><stop offset="1" stop-color="#0bb1d3"/></linearGradient><path d="m54.193 16.059 7.732-4.833c.674-.421 1.075-1.146 1.075-1.939 0-1.261-1.026-2.287-2.287-2.287h-3.713v-3.713c0-1.261-1.026-2.287-2.287-2.287-.793 0-1.518.401-1.938 1.074l-4.833 7.732.806 4.031-4.059 4.06c-3.37-3.033-7.81-4.897-12.689-4.897-1.618 0-3.22.213-4.772.615l-2.264-1.508c-.446-6.269-5.605-11.107-11.964-11.107-6.617 0-12 5.383-12 12s5.383 12 12 12c.465 0 .923-.039 1.377-.091-.9 2.243-1.377 4.659-1.377 7.091 0 6.998 3.814 13.109 9.462 16.406l-2.4 11.201c-.041.193-.062.39-.062.584 0 1.549 1.26 2.809 2.809 2.809h1.659c1.379 0 2.544-.986 2.771-2.353l.264-1.647h8.995l.264 1.654c.226 1.36 1.391 2.346 2.77 2.346h1.659c1.378 0 2.522-.999 2.758-2.311 1.983 1.447 4.415 2.311 7.051 2.311 6.617 0 12-5.383 12-12s-5.383-12-12-12c-.461 0-.919.031-1.374.084.898-2.241 1.374-4.654 1.374-7.084 0-4.879-1.864-9.32-4.898-12.688l4.06-4.06zm-41.193-13.059c5.446 0 9.835 4.256 9.99 9.688l.016.518 4.861 3.237c.082.055.133.154.133.257 0 .168-.132.3-.3.3h-5.513l-.278.545c-.2.391-.428.761-.671 1.117-.971-2.132-2.712-3.773-4.849-4.625.984-.914 1.611-2.208 1.611-3.654 0-2.757-2.243-5-5-5s-5 2.243-5 5c0 1.446.627 2.74 1.611 3.654-2.136.852-3.876 2.492-4.848 4.622-1.109-1.611-1.763-3.56-1.763-5.659 0-5.514 4.486-10 10-10zm-3 7.383c0-1.654 1.346-3 3-3s3 1.346 3 3-1.346 3-3 3-3-1.346-3-3zm3 5c.572 0 1.124.093 1.663.227l-.147.59c-.175.696-.798 1.183-1.516 1.183s-1.341-.486-1.515-1.183l-.147-.591c.539-.133 1.091-.226 1.662-.226zm-6.731 4.99c.533-1.716 1.687-3.14 3.194-4.019l.083.33c.396 1.589 1.817 2.698 3.455 2.698s3.059-1.109 3.456-2.698l.082-.33c1.506.879 2.66 2.303 3.193 4.018-1.811 1.657-4.182 2.628-6.732 2.628-2.594 0-4.952-1.001-6.731-2.627zm8.731 11.627c0-2.656.633-5.289 1.82-7.644 2.737-.916 5.089-2.78 6.575-5.356h4.305c1.269 0 2.3-1.031 2.3-2.3 0-.563-.206-1.091-.56-1.503.844-.127 1.699-.197 2.56-.197 4.328 0 8.27 1.639 11.274 4.311l-2.827 2.827c-2.275-1.951-5.222-3.138-8.447-3.138-7.168 0-13 5.832-13 13s5.832 13 13 13c2.444 0 4.787-.668 6.837-1.941l1.55 2.326c-.303.577-.54 1.181-.746 1.796-2.354 1.187-4.985 1.819-7.641 1.819-9.374 0-17-7.626-17-17zm26.392 5.726-.455-.303c-.423-.277-.906-.423-1.397-.423-1.4 0-2.54 1.14-2.54 2.54 0 .491.146.974.428 1.404l.298.448c-1.72 1.053-3.68 1.608-5.726 1.608-6.065 0-11-4.935-11-11s4.935-11 11-11c2.673 0 5.125.96 7.034 2.552l-2.85 2.85c-1.169-.876-2.614-1.402-4.184-1.402-3.859 0-7 3.141-7 7s3.141 7 7 7 7-3.141 7-7c0-1.57-.526-3.015-1.402-4.184l2.85-2.85c1.591 1.909 2.552 4.361 2.552 7.034 0 2.045-.555 4.006-1.608 5.726zm-4.392-5.726c0 2.757-2.243 5-5 5s-5-2.243-5-5 2.243-5 5-5c1.017 0 1.962.309 2.753.833l-3.46 3.46 1.414 1.414 3.46-3.46c.524.791.833 1.736.833 2.753zm-1.462 21h-7.077l.366-2.287c1.034.175 2.09.287 3.173.287 1.066 0 2.128-.097 3.175-.274zm-10.272 7.324c-.066.392-.401.676-.798.676h-1.659c-.447 0-.809-.362-.809-.809 0-.057.006-.114.018-.169l2.286-10.667c.827.368 1.685.673 2.568.921zm2.556-3.324.32-2h7.716l.32 2zm13.369 4h-1.659c-.397 0-.732-.284-.797-.669l-1.605-10.044c.663-.185 1.315-.404 1.954-.66-.053.454-.084.913-.084 1.373 0 2.845.999 5.457 2.659 7.516l.322 1.502c.013.059.019.117.019.173 0 .447-.362.809-.809.809zm2.972-2.723c.487-1.865 1.697-3.403 3.294-4.327l.088.352c.396 1.589 1.817 2.698 3.455 2.698s3.059-1.109 3.456-2.698l.088-.351c1.597.925 2.806 2.463 3.293 4.327-1.79 1.682-4.192 2.722-6.837 2.722s-5.047-1.04-6.837-2.723zm3.837-10.277c0-1.654 1.346-3 3-3s3 1.346 3 3-1.346 3-3 3-3-1.346-3-3zm3 5c.573 0 1.131.074 1.668.204l-.153.613c-.174.697-.797 1.183-1.515 1.183s-1.341-.486-1.515-1.183l-.153-.613c.537-.13 1.095-.204 1.668-.204zm10-2c0 2.036-.615 3.929-1.664 5.511-.949-2.225-2.743-3.962-4.955-4.851.989-.914 1.619-2.21 1.619-3.66 0-2.757-2.243-5-5-5s-5 2.243-5 5c0 1.45.63 2.746 1.619 3.66-2.212.889-4.006 2.626-4.955 4.851-1.049-1.582-1.664-3.475-1.664-5.511 0-1.811.49-3.591 1.419-5.148l.322-.542-3.645-5.468c-.064-.098-.096-.199-.096-.302 0-.298.242-.54.54-.54.103 0 .204.032.295.092l5.475 3.649.542-.322c1.557-.929 3.337-1.419 5.148-1.419 5.514 0 10 4.486 10 10zm-12-19c0 2.656-.633 5.288-1.819 7.642-.614.206-1.219.442-1.795.745l-2.326-1.551c1.272-2.049 1.94-4.392 1.94-6.836 0-3.225-1.187-6.173-3.139-8.447l2.827-2.827c2.673 3.004 4.312 6.946 4.312 11.274zm4.807-18.059-1.945-.389 1.634-1.634 2.688.538zm7.193-4.654c0 .1-.051.19-.135.243l-2.21 1.381-3.46-.692 1.219-1.219h4.299c.158 0 .287.129.287.287zm-6.53-6.152c.137-.217.529-.106.53.152v4.299l-1.219 1.219-.692-3.46zm-2.926 4.682.538 2.688-1.634 1.634-.389-1.945zm-44.544 41.183h2v2h-2zm4 0h2v2h-2zm4 0h2v2h-2z" fill="url(#SVGID_1_)"/></svg>